<svg xmlns="http://www.w3.org/2000/svg" width="124" height="128" viewBox="0 0 124 128" fill="none">
    <path d="M72.7059 101.112V109.609H69.9015L75.9457 116.936L81.616 109.76H78.7501V101.112H72.7059Z" fill="#EBEBEB"/>
    <path d="M83.3995 37.1201V40.1102H82.4131L84.541 42.6907L86.5385 40.164H85.5274V37.1201H83.3995Z" fill="#EBEBEB"/>
    <path d="M108.912 64.8604V71.0018H106.885L111.254 76.2984L115.352 71.1093H113.281V64.8604H108.912Z" fill="#EBEBEB"/>
    <path d="M15.4666 89.6768V95.8182H13.4396L17.8085 101.112L21.9094 95.9257H19.8356V89.6768H15.4666Z" fill="#EBEBEB"/>
    <path d="M51.7517 99.7148V104.297H50.2388L53.5007 108.25L56.5585 104.379H55.0136V99.7148H51.7517Z" fill="#EBEBEB"/>
    <path d="M41.8994 24.7552C42.106 23.1961 39.9904 21.9136 38.4012 21.7805C37.646 21.7165 36.8588 21.8394 36.1405 21.5782C34.5858 21.015 33.9634 18.9235 32.4505 18.2502C31.3164 17.751 30.0126 18.1939 28.9106 18.7622C27.8085 19.3306 26.7261 20.0653 25.4961 20.1472C24.4284 20.2163 23.2673 19.8042 22.3325 20.3469C21.6363 20.7539 21.2698 21.5885 20.6277 22.08C19.9857 22.5715 19.1813 22.6662 18.4137 22.7098C17.6462 22.7533 16.827 22.761 16.1161 23.0989C15.4052 23.4368 14.8197 24.2202 14.9673 25.0163L41.8994 24.7552Z" fill="#F5F5F5"/>
    <path d="M115.756 53.8419C115.935 52.4851 114.095 51.3689 112.713 51.2537C112.054 51.1974 111.37 51.3024 110.745 51.0771C109.394 50.5856 108.853 48.7731 107.532 48.1894C106.548 47.7542 105.409 48.1408 104.455 48.6425C103.5 49.1443 102.551 49.7741 101.483 49.8457C100.553 49.9072 99.5445 49.5488 98.7302 50.0198C98.125 50.3731 97.8077 51.1001 97.2542 51.5276C96.7007 51.9552 95.9947 52.0396 95.3182 52.0755C94.6417 52.1113 93.9381 52.1216 93.3207 52.4134C92.7032 52.7053 92.1915 53.3888 92.3194 54.0825L115.756 53.8419Z" fill="#F5F5F5"/>
    <path d="M55.5351 12.5442C55.6237 11.8812 54.7233 11.3359 54.0468 11.2796C53.724 11.2921 53.4009 11.2628 53.085 11.1925C52.4232 10.9519 52.16 10.0636 51.513 9.77941C51.021 9.56949 50.4749 9.75637 50.0075 10.0021C49.5401 10.2479 49.0776 10.5551 48.5561 10.5909C48.101 10.6216 47.6065 10.445 47.208 10.6754C46.9128 10.8495 46.7578 11.2028 46.4848 11.4127C46.1989 11.5899 45.8703 11.6787 45.5377 11.6687C45.2024 11.6577 44.8683 11.7142 44.5537 11.8351C44.3981 11.8971 44.266 12.01 44.1773 12.1568C44.0886 12.3036 44.048 12.4763 44.0617 12.6492L55.5351 12.5442Z" fill="#E0E0E0"/>
    <path d="M114.573 110.769C114.735 109.548 113.079 108.547 111.837 108.442C111.244 108.391 110.629 108.486 110.068 108.283C108.853 107.84 108.366 106.207 107.18 105.685C106.292 105.296 105.271 105.644 104.41 106.095C103.549 106.545 102.701 107.119 101.739 107.175C100.905 107.231 99.9971 106.919 99.2641 107.334C98.7204 107.648 98.435 108.304 97.9332 108.688C97.4314 109.072 96.7991 109.146 96.1891 109.179C95.579 109.213 94.9591 109.22 94.3933 109.487C93.8275 109.753 93.3797 110.362 93.4954 110.984L114.573 110.769Z" fill="#E0E0E0"/>
    <path d="M52.7947 36.6672L50.8981 33.1882C52.0705 31.2075 52.4886 28.8421 52.0703 26.5569C51.6519 24.2717 50.4274 22.232 48.6372 20.8387C46.8471 19.4454 44.621 18.7993 42.3963 19.0273C40.1716 19.2554 38.1094 20.3411 36.6149 22.0711C35.1205 23.8011 34.3019 26.0503 34.32 28.3765C34.3381 30.7027 35.1917 32.9377 36.713 34.6423C38.2343 36.3468 40.3132 37.3975 42.5411 37.588C44.769 37.7784 46.9848 37.0947 48.753 35.6714L52.7947 36.6672Z" fill="#FAFAFA"/>
    <path d="M52.7947 36.667L48.7407 35.707H48.6939L48.7234 35.666L48.7702 35.7121C47.5235 36.7243 46.0416 37.3753 44.475 37.5988C44.005 37.6679 43.5299 37.6927 43.0556 37.6731C42.8096 37.6731 42.5636 37.6526 42.3176 37.6321L41.5624 37.5118C40.3597 37.2727 39.2168 36.7798 38.2041 36.0636C37.1914 35.3474 36.3303 34.423 35.6739 33.3473C35.0176 32.2717 34.5798 31.0675 34.3876 29.8091C34.1954 28.5507 34.2528 27.2646 34.5563 26.0302C34.8936 24.6092 35.5523 23.2926 36.4776 22.1902C37.4127 21.063 38.5936 20.1852 39.9216 19.6302C41.1966 19.1054 42.5687 18.8858 43.9363 18.9876C45.2314 19.0789 46.4913 19.4662 47.6263 20.1217C49.6619 21.301 51.1839 23.2496 51.8772 25.5643C52.1529 26.5484 52.2839 27.5704 52.2658 28.5953C52.2164 30.227 51.7549 31.8163 50.9276 33.2033V33.17L52.7972 36.667L50.8735 33.2033V33.1854V33.17C51.6871 31.7854 52.1368 30.2025 52.1773 28.58C52.1905 27.5657 52.057 26.5551 51.7812 25.5822C51.0908 23.295 49.5833 21.3708 47.5697 20.2062C46.4511 19.5615 45.2097 19.1813 43.9338 19.0926C42.5852 18.9927 41.2322 19.2106 39.9757 19.73C38.6613 20.281 37.4936 21.1529 36.571 22.2721C35.6602 23.3572 35.0109 24.6525 34.6768 26.0507C34.3514 27.3912 34.3153 28.79 34.5711 30.1467C34.8173 31.429 35.3248 32.6415 36.0594 33.7025C37.3837 35.6174 39.3579 36.937 41.5821 37.394L42.3201 37.5144C42.5661 37.5374 42.8121 37.5451 43.0581 37.5579C43.5272 37.5787 43.9973 37.5564 44.4627 37.4913C46.0166 37.2771 47.4887 36.6405 48.7308 35.6456L48.9276 35.4868L48.7751 35.6916L48.7554 35.6404L52.7947 36.667Z" fill="#263238"/>
    <path d="M45.8944 23.4702H40.0987C39.8188 23.4702 39.5919 23.7063 39.5919 23.9976V32.9115C39.5919 33.2027 39.8188 33.4389 40.0987 33.4389H45.8944C46.1743 33.4389 46.4012 33.2027 46.4012 32.9115V23.9976C46.4012 23.7063 46.1743 23.4702 45.8944 23.4702Z" fill="#263238"/>
    <path d="M46.0518 24.0693H39.9067V31.5189H46.0518V24.0693Z" fill="#FAFAFA"/>
    <path d="M42.9966 33.0112C43.2819 33.0112 43.5132 32.7705 43.5132 32.4736C43.5132 32.1767 43.2819 31.936 42.9966 31.936C42.7113 31.936 42.48 32.1767 42.48 32.4736C42.48 32.7705 42.7113 33.0112 42.9966 33.0112Z" fill="#455A64"/>
    <path d="M43.8575 26.34L46.1257 29.1253L48.2486 26.34H47.1466V22.5077L44.9424 22.4795L44.9695 26.3451L43.8575 26.34Z" fill="#FF9902"/>
    <path d="M43.9978 27.3921C43.7075 27.8031 43.3841 28.1877 43.031 28.5415C42.7089 28.9246 42.3558 29.2783 41.9757 29.5988C42.2638 29.1867 42.5865 28.802 42.94 28.4494C43.2619 28.0651 43.6159 27.7113 43.9978 27.3921Z" fill="#263238"/>
    <path d="M43.55 27.0518C43.4034 27.2921 43.2225 27.5079 43.0137 27.6918C42.8355 27.9044 42.6263 28.0867 42.3938 28.2319C42.5395 27.9908 42.7204 27.7749 42.9301 27.5919C43.1079 27.3788 43.3171 27.1964 43.55 27.0518Z" fill="#263238"/>
    <path d="M99.488 26.1655V30.4945H98.0587L101.141 34.2295L104.032 30.5713H102.57V26.1655H99.488Z" fill="#FF9902"/>
    <path opacity="0.3" d="M99.488 26.1655V30.4945H98.0587L101.141 34.2295L104.032 30.5713H102.57V26.1655H99.488Z" fill="black"/>
    <path d="M109.535 16.5068C109.152 14.9571 108.361 13.5491 107.252 12.4408C106.143 11.3325 104.759 10.5678 103.256 10.2326C101.752 9.89733 100.189 10.0048 98.7405 10.5428C97.2923 11.0809 96.017 12.0283 95.0575 13.2787C94.7931 13.2447 94.5269 13.2276 94.2605 13.2275C93.3301 13.1826 92.4006 13.3346 91.5283 13.6742C90.6559 14.0138 89.8588 14.534 89.1852 15.2033C88.5115 15.8726 87.9753 16.6771 87.609 17.5682C87.2426 18.4594 87.0537 19.4185 87.0537 20.3878C87.0537 21.357 87.2426 22.3162 87.609 23.2073C87.9753 24.0984 88.5115 24.903 89.1852 25.5723C89.8588 26.2416 90.6559 26.7618 91.5283 27.1014C92.4006 27.441 93.3301 27.5929 94.2605 27.5481H109.244C110.629 27.551 111.96 26.9908 112.953 25.9869C113.947 24.9831 114.524 23.6151 114.562 22.1747C114.6 20.7343 114.095 19.3355 113.156 18.2767C112.217 17.2178 110.917 16.5827 109.535 16.5068Z" fill="#FF9902"/>
    <path d="M111.119 25.6179C111.107 25.5974 111.404 25.4054 111.798 24.9933C112.314 24.4596 112.711 23.8134 112.958 23.1011C113.206 22.3888 113.299 21.6283 113.23 20.8742C113.178 20.2957 113.07 19.9475 113.092 19.9424C113.132 20.0169 113.162 20.0971 113.18 20.1805C113.244 20.4042 113.291 20.6327 113.321 20.864C113.417 21.6337 113.335 22.4163 113.081 23.1462C112.827 23.8762 112.409 24.5323 111.862 25.0598C111.698 25.2201 111.522 25.3657 111.335 25.495C111.27 25.548 111.197 25.5895 111.119 25.6179Z" fill="#263238"/>
    <path d="M95.2494 15.3727C95.2494 15.3957 94.8681 15.2959 94.2531 15.2831C93.4507 15.2607 92.6534 15.4225 91.9179 15.757C91.1823 16.0915 90.5266 16.5904 89.9973 17.2184C89.5889 17.6997 89.4069 18.0555 89.3848 18.0402C89.4133 17.9494 89.4538 17.8632 89.5053 17.7842C89.6305 17.5624 89.7719 17.351 89.9284 17.1519C90.4503 16.4929 91.114 15.9712 91.8658 15.6292C92.6177 15.2871 93.4364 15.1344 94.2556 15.1832C94.5038 15.1968 94.7506 15.231 94.9936 15.2856C95.0821 15.303 95.1681 15.3323 95.2494 15.3727Z" fill="#263238"/>
    <path d="M99.8963 11.8347C99.8963 11.8603 99.6233 11.8782 99.2002 11.9934C98.6482 12.151 98.1281 12.4112 97.6651 12.7614C97.2047 13.1105 96.8095 13.5443 96.4991 14.0414C96.2531 14.4228 96.1596 14.6891 96.1375 14.6814C96.1457 14.614 96.1639 14.5484 96.1916 14.4868C96.2532 14.3144 96.3298 14.1482 96.4204 13.9902C96.5519 13.7495 96.7051 13.5223 96.8779 13.3118C97.0929 13.0617 97.3319 12.8353 97.5913 12.6359C97.8528 12.4406 98.1331 12.2741 98.4277 12.1393C98.6696 12.0299 98.9208 11.9442 99.178 11.8833C99.3504 11.8441 99.5257 11.8201 99.702 11.8116C99.7675 11.8087 99.8331 11.8165 99.8963 11.8347Z" fill="#263238"/>
    <path d="M106.339 27.4865C106.339 27.5249 104.317 27.553 101.822 27.553C99.328 27.553 97.3035 27.5249 97.3035 27.4865C97.3035 27.4481 99.3256 27.4199 101.822 27.4199C104.319 27.4199 106.339 27.4506 106.339 27.4865Z" fill="#263238"/>
    <path d="M106.846 40.3865C106.811 40.3865 106.782 38.6611 106.782 36.5465C106.782 34.432 106.811 32.7065 106.846 32.7065C106.88 32.7065 106.912 34.4294 106.912 36.5465C106.912 38.6637 106.883 40.3865 106.846 40.3865Z" fill="#263238"/>
    <path d="M108.292 43.7504C108.258 43.7504 108.228 41.5309 108.228 38.7917C108.228 36.0525 108.258 33.833 108.292 33.833C108.327 33.833 108.359 36.0525 108.359 38.7917C108.359 41.5309 108.329 43.7504 108.292 43.7504Z" fill="#263238"/>
    <path d="M15.8037 48.1509V50.803H14.928L16.8148 53.0917L18.586 50.8517H17.6906V48.1509H15.8037Z" fill="#FF9902"/>
    <path opacity="0.3" d="M15.8037 48.1509V50.803H14.928L16.8148 53.0917L18.586 50.8517H17.6906V48.1509H15.8037Z" fill="black"/>
    <path d="M21.9586 42.24C21.7238 41.2906 21.2395 40.428 20.5599 39.749C19.8803 39.07 19.0324 38.6015 18.1113 38.396C17.1901 38.1905 16.2321 38.2562 15.3448 38.5856C14.4575 38.9151 13.676 39.4952 13.0879 40.2611C12.9245 40.2416 12.7603 40.2314 12.5959 40.2304C12.0337 40.2163 11.4746 40.3193 10.9513 40.5334C10.428 40.7475 9.95115 41.0683 9.54878 41.477C9.14641 41.8858 8.82667 42.3741 8.60836 42.9133C8.39005 43.4526 8.27759 44.0318 8.27759 44.617C8.27759 45.2021 8.39005 45.7813 8.60836 46.3206C8.82667 46.8598 9.14641 47.3481 9.54878 47.7569C9.95115 48.1656 10.428 48.4864 10.9513 48.7005C11.4746 48.9146 12.0337 49.0176 12.5959 49.0035H21.779C22.6261 49.0037 23.4399 48.66 24.0472 48.0454C24.6544 47.4308 25.0073 46.5939 25.0307 45.7127C25.0541 44.8315 24.7462 43.9756 24.1724 43.327C23.5987 42.6785 22.8044 42.2885 21.9586 42.24Z" fill="#FF9902"/>
    <path d="M22.9279 47.8158C22.9279 47.7979 23.0951 47.675 23.3313 47.4216C23.6404 47.0923 23.8793 46.6989 24.0324 46.267C24.1792 45.8329 24.2378 45.3717 24.2046 44.9128C24.1775 44.5595 24.116 44.3445 24.1357 44.3394C24.2259 44.5134 24.2795 44.7053 24.2932 44.9026C24.3574 45.3771 24.3092 45.8607 24.1527 46.3114C23.9962 46.762 23.7361 47.166 23.3953 47.4882C23.2633 47.6304 23.1041 47.742 22.9279 47.8158Z" fill="#263238"/>
    <path d="M13.206 41.5386C13.206 41.5616 12.96 41.5078 12.5934 41.5027C12.105 41.4932 11.6205 41.5938 11.1729 41.7975C10.7254 42.0012 10.3255 42.3032 10.0006 42.6829C9.7546 42.9722 9.6316 43.1949 9.61438 43.1744C9.68354 42.9698 9.79145 42.7818 9.93172 42.6214C10.2504 42.2118 10.659 41.8878 11.123 41.6766C11.587 41.4655 12.093 41.3734 12.5984 41.408C12.8072 41.4096 13.0137 41.4539 13.206 41.5386Z" fill="#263238"/>
    <path d="M16.0521 39.3728C15.9134 39.4198 15.7721 39.4583 15.629 39.488C15.2959 39.5863 14.9819 39.7449 14.7016 39.9564C14.4225 40.1679 14.1804 40.4277 13.9857 40.7244C13.9121 40.8581 13.83 40.9864 13.7397 41.1084C13.7611 40.9535 13.8157 40.8057 13.8996 40.6758C14.0774 40.3477 14.3217 40.0637 14.6155 39.8438C14.9083 39.6208 15.244 39.4662 15.5995 39.3907C15.747 39.3482 15.902 39.342 16.0521 39.3728Z" fill="#263238"/>
    <path d="M20.0005 48.9626C20.0005 48.9984 18.7705 49.0291 17.233 49.0291C15.6955 49.0291 14.463 48.9984 14.463 48.9626C14.463 48.9267 15.7029 48.896 17.2281 48.896C18.7533 48.896 20.0005 48.9242 20.0005 48.9626Z" fill="#263238"/>
    <path d="M20.3104 56.8626C20.2471 56.0785 20.2257 55.2914 20.2465 54.5049C20.2257 53.7175 20.247 52.9295 20.3104 52.1445C20.3753 52.9294 20.3967 53.7175 20.3744 54.5049C20.3966 55.2914 20.3753 56.0786 20.3104 56.8626Z" fill="#263238"/>
    <path d="M21.196 58.9261C21.1616 58.9261 21.1321 57.5642 21.1321 55.8874C21.1321 54.2106 21.1616 52.8486 21.196 52.8486C21.2305 52.8486 21.26 54.2106 21.26 55.8874C21.26 57.5642 21.2329 58.9261 21.196 58.9261Z" fill="#263238"/>
    <path d="M60.3469 92.8535V105.262H56.251L65.0799 115.963L73.3627 105.479H69.1758V92.8535H60.3469Z" fill="#FF9902"/>
    <path opacity="0.3" d="M60.3469 92.8535V105.262H56.251L65.0799 115.963L73.3627 105.479H69.1758V92.8535H60.3469Z" fill="black"/>
    <path d="M89.1387 65.1724C88.0402 60.732 85.7745 56.6978 82.596 53.5224C79.4174 50.347 75.4515 48.156 71.1432 47.195C66.8349 46.2341 62.3545 46.5412 58.2046 48.082C54.0546 49.6227 50.3992 52.3362 47.6484 55.918C46.8908 55.8232 46.1286 55.7736 45.3655 55.7696C40.1349 55.7696 35.1186 57.9319 31.4201 61.7808C27.7215 65.6297 25.6437 70.8499 25.6437 76.2931C25.6437 81.7363 27.7215 86.9565 31.4201 90.8054C35.1186 94.6543 40.1349 96.8166 45.3655 96.8166H88.3073C92.2724 96.8196 96.0821 95.2116 98.925 92.335C101.768 89.4585 103.419 85.5406 103.528 81.4158C103.636 77.291 102.193 73.2851 99.5053 70.2511C96.8177 67.2172 93.0982 65.395 89.1387 65.1724Z" fill="#FF9902"/>
    <path d="M50.2289 68.9072C50.2156 68.8633 50.209 68.8175 50.2092 68.7715C50.2092 68.6691 50.1944 68.5411 50.1846 68.385C50.1846 68.2979 50.1846 68.2058 50.1698 68.1034C50.1551 68.001 50.1452 67.8909 50.1329 67.7731C50.101 67.535 50.0813 67.2611 50.0173 66.9693C49.9903 66.8208 49.9607 66.6646 49.9288 66.5034C49.8968 66.3421 49.8476 66.1808 49.8058 66.0093C49.7295 65.6637 49.6016 65.3078 49.4786 64.9315C49.183 64.129 48.8148 63.3575 48.379 62.6275C47.9289 61.9021 47.4141 61.2224 46.8415 60.5974C46.5684 60.321 46.3126 60.0496 46.0469 59.8294C45.9165 59.7168 45.8009 59.6016 45.6705 59.5018L45.304 59.2202C45.0776 59.0333 44.8489 58.8976 44.657 58.767L44.3864 58.5878L44.1404 58.4547L43.8157 58.2627C43.7754 58.244 43.738 58.2189 43.705 58.1885C43.7466 58.2016 43.7869 58.2188 43.8255 58.2397L44.165 58.4086L44.411 58.5341C44.4971 58.5827 44.5881 58.6416 44.689 58.703C44.9177 58.8374 45.1394 58.9844 45.3532 59.1434L45.7246 59.4198C45.855 59.5171 45.9706 59.6349 46.1108 59.745C46.3933 59.986 46.6635 60.2424 46.9202 60.513C48.1036 61.7581 49.0127 63.2562 49.5844 64.9034C49.7093 65.2608 49.816 65.6248 49.9042 65.9939C49.9435 66.168 49.9927 66.3318 50.0222 66.5059C50.0518 66.68 50.0764 66.8259 50.101 66.9744C50.1472 67.2438 50.1801 67.5155 50.1994 67.7885C50.1994 67.9088 50.2215 68.0189 50.2264 68.1238C50.2313 68.2288 50.2264 68.3184 50.2264 68.4054V68.7946C50.2294 68.832 50.2303 68.8696 50.2289 68.9072Z" fill="#263238"/>
    <path d="M42.1601 64.9394C42.1429 64.9573 41.8846 64.6834 41.4221 64.3276C40.1963 63.3801 38.7398 62.8089 37.218 62.6789C36.635 62.6277 36.2709 62.6508 36.2709 62.6277C36.3508 62.6034 36.4336 62.5913 36.5169 62.5919C36.7495 62.5755 36.9829 62.5755 37.2155 62.5919C38.7668 62.6681 40.2557 63.2502 41.4713 64.2559C41.6549 64.4054 41.8283 64.5679 41.9904 64.7423C42.0541 64.801 42.111 64.8671 42.1601 64.9394Z" fill="#263238"/>
    <path d="M51.1932 82.4572C51.064 82.4709 50.9338 82.4709 50.8045 82.4572C50.5585 82.4572 50.1895 82.4572 49.7418 82.4342C48.8464 82.4009 47.609 82.3241 46.2462 82.1782C44.8833 82.0323 43.6558 81.8633 42.7702 81.7123C42.3274 81.638 41.9707 81.574 41.7247 81.5228C41.5953 81.5035 41.4677 81.4727 41.3434 81.4307C41.4737 81.4347 41.6036 81.4483 41.7321 81.4716L42.7849 81.6201C43.6705 81.7455 44.8981 81.9068 46.2585 82.0451C47.6188 82.1833 48.8538 82.2755 49.7467 82.3318L50.8045 82.3983C50.9353 82.4085 51.0651 82.4282 51.1932 82.4572Z" fill="#263238"/>
    <path d="M88.4942 65.0467C88.449 65.0573 88.4029 65.0633 88.3565 65.0646L87.9604 65.0928C87.7907 65.0928 87.5791 65.1133 87.338 65.1465C87.097 65.1798 86.8165 65.1952 86.5139 65.2515L86.0367 65.3309C85.8719 65.359 85.7021 65.4025 85.525 65.4384C85.1708 65.5075 84.7993 65.6176 84.4057 65.7251C82.7086 66.2275 81.0999 67.0097 79.6407 68.0419C79.3086 68.2851 78.9888 68.5104 78.7108 68.751C78.5681 68.8688 78.4279 68.9763 78.3025 69.0889L77.9384 69.4192C77.6924 69.624 77.5079 69.8339 77.3308 70.008C77.1536 70.1821 77.0085 70.3408 76.8904 70.4739L76.6174 70.7709C76.5865 70.8072 76.5519 70.8398 76.514 70.8681C76.5378 70.8267 76.5659 70.7881 76.5977 70.7529C76.6641 70.6685 76.7502 70.5661 76.8437 70.4381C76.9372 70.3101 77.0897 70.136 77.2717 69.9568C77.4538 69.7776 77.6333 69.56 77.867 69.3501L78.2287 69.0121C78.3541 68.8944 78.4943 68.7843 78.6346 68.664C78.9125 68.408 79.2323 68.1878 79.5644 67.9395C81.0347 66.8865 82.6646 66.0981 84.386 65.6073C84.7821 65.5024 85.1585 65.3949 85.5152 65.3309C85.6948 65.295 85.867 65.2541 86.0342 65.2285L86.5262 65.1593C86.8313 65.1081 87.1117 65.0953 87.3553 65.0723C87.5645 65.0509 87.7747 65.0406 87.985 65.0416H88.3811C88.4189 65.0392 88.4568 65.0409 88.4942 65.0467Z" fill="#263238"/>
    <path d="M87.279 96.9547C87.279 96.9931 77.7711 97.0213 66.0467 97.0213C54.3224 97.0213 44.812 96.9931 44.812 96.9547C44.812 96.9163 54.3175 96.8882 66.0467 96.8882C77.776 96.8882 87.279 96.9189 87.279 96.9547Z" fill="#263238"/>
    <path d="M36.0002 105.835C35.9658 105.835 35.9363 103.984 35.9363 101.703C35.9363 99.4223 35.9658 97.5688 36.0002 97.5688C36.0347 97.5688 36.0642 99.4172 36.0642 101.703C36.0642 103.989 36.0347 105.835 36.0002 105.835Z" fill="#263238"/>
    <path d="M37.614 113.459C37.5796 113.459 37.55 110.856 37.55 107.645C37.55 104.435 37.5796 101.832 37.614 101.832C37.6484 101.832 37.678 104.433 37.678 107.645C37.678 110.858 37.646 113.459 37.614 113.459Z" fill="#263238"/>
    <g opacity="0.3">
        <path d="M94.5852 73.3949C94.0932 70.4739 90.3712 67.5069 87.1634 68.1751C84.3688 68.7536 81.3603 69.4295 78.5977 70.1565C77.4562 70.456 76.2754 69.0147 75.321 68.3005C74.829 67.9267 74.5239 67.3277 74.2115 66.7645C72.4329 63.6183 69.5055 61.2579 66.2362 59.9395C62.9668 58.6211 59.3703 58.3063 55.8845 58.7031C53.1785 59.0128 50.2265 59.9831 48.9596 62.4919C48.4528 63.5031 48.2511 64.7165 47.4664 65.5101C46.4184 66.5648 44.7604 66.4803 43.3951 67.0154C40.6645 68.0855 39.282 72.1482 39.6264 75.1613C39.9708 78.1744 42.5464 82.0579 47.9608 82.6775C47.9608 82.6775 67.5744 82.8567 77.2594 83.3456C80.6173 83.5146 81.6309 83.0333 84.9888 82.9411C90.9149 82.7927 95.4708 78.753 94.5852 73.3949Z" fill="black"/>
    </g>
    <path d="M58.5561 88.0766C58.8857 87.9895 59.2547 87.6362 59.5401 87.4468C60.2387 86.9792 60.93 86.4987 61.6138 86.0055C59.1538 85.2631 57.0751 84.6769 54.6201 83.9575C54.5358 84.9817 54.6274 86.0132 54.8907 87.0039C55.117 87.795 55.5499 88.6372 56.3175 88.8471C57.0136 89.0366 57.7221 88.6372 58.3371 88.243L58.5069 88.1329" fill="#E0E0E0"/>
    <path d="M58.9767 86.6635C58.9398 86.6635 58.9546 86.3281 58.8685 85.9364C58.7824 85.5447 58.6225 85.2529 58.6668 85.2324C58.8275 85.4261 58.9399 85.6579 58.9939 85.9076C59.048 86.1572 59.0421 86.4168 58.9767 86.6635Z" fill="#263238"/>
    <path d="M59.5055 86.528C59.4802 86.338 59.4671 86.1464 59.4662 85.9546C59.428 85.7672 59.4025 85.5773 59.3899 85.3862C59.5034 85.5494 59.5738 85.7407 59.5941 85.9411C59.6144 86.1414 59.5839 86.3438 59.5055 86.528Z" fill="#263238"/>
    <path d="M56.2633 84.4336C56.2855 84.4336 56.2142 84.6896 56.2092 85.1274C56.2014 85.6834 56.3346 86.2318 56.5954 86.7171C56.8448 87.209 57.186 87.6442 57.5991 87.9971C57.7837 88.1249 57.9788 88.2354 58.1821 88.3274C58.12 88.331 58.0579 88.3205 58.0001 88.2966C57.8393 88.2466 57.6867 88.1715 57.5475 88.0739C57.1039 87.7314 56.7399 87.2896 56.4823 86.7811C56.2106 86.276 56.085 85.6999 56.1207 85.1222C56.1286 84.9492 56.1542 84.7776 56.1969 84.6102C56.208 84.5475 56.2305 84.4875 56.2633 84.4336Z" fill="#455A64"/>
    <path d="M58.1821 85.0249C58.3975 85.498 58.5324 86.0065 58.5806 86.5276C58.6675 87.0408 58.6675 87.5658 58.5806 88.079C58.5413 88.079 58.5683 87.3852 58.4576 86.543C58.3469 85.7007 58.1427 85.0377 58.1821 85.0249Z" fill="#455A64"/>
    <path d="M57.6261 87.749C57.4798 87.6621 57.3478 87.5515 57.235 87.4213C56.935 87.1338 56.6853 86.7943 56.497 86.4178C56.309 86.0359 56.2312 85.6056 56.2731 85.1788C56.2803 85.0004 56.3367 84.828 56.4355 84.6821C56.4552 84.6821 56.3814 84.8741 56.3642 85.1941C56.3498 85.6003 56.4344 86.0036 56.6102 86.3666C56.7939 86.7299 57.0239 87.0658 57.294 87.365C57.4165 87.4815 57.5277 87.6101 57.6261 87.749Z" fill="#FF9902"/>
    <path d="M61.0652 86.3613C60.8 86.5849 60.5091 86.7732 60.1993 86.922C59.9093 87.1087 59.5987 87.2583 59.2743 87.3674C59.5382 87.1413 59.8293 86.952 60.1402 86.8042C60.4298 86.6174 60.7404 86.4686 61.0652 86.3613Z" fill="#FF9902"/>
    <path d="M57.1488 87.7849C56.9449 88.0162 56.6877 88.1897 56.4015 88.2892C56.1153 88.3886 55.8096 88.4106 55.5129 88.3532C55.5129 88.3148 55.909 88.3225 56.3616 88.1612C56.8143 87.9999 57.1267 87.7541 57.1488 87.7849Z" fill="#455A64"/>
    <path d="M56.3149 86.4742C56.3149 86.5126 55.9828 86.5613 55.6138 86.7302C55.2448 86.8992 54.9865 87.1347 54.9595 87.1065C55.1023 86.8774 55.313 86.703 55.5597 86.6099C55.7899 86.4784 56.0557 86.4306 56.3149 86.4742Z" fill="#455A64"/>
    <path d="M56.1526 85.309C55.8875 85.214 55.6173 85.1353 55.3433 85.0735C55.063 85.0584 54.7822 85.0584 54.502 85.0735C54.7652 84.9283 55.069 84.8839 55.3605 84.948C55.6578 84.9646 55.9393 85.0929 56.1526 85.309Z" fill="#455A64"/>
    <path d="M74.9864 81.6077C75.0011 81.6307 65.7589 83.9501 65.7589 83.9501L64.401 80.64L65.0234 79.639C65.0234 79.639 68.9299 78.72 72.1082 76.8486L74.9864 81.6077Z" fill="#FFBE9D"/>
    <path d="M53.299 72.1764C53.299 72.1764 52.8758 71.5339 51.085 70.6199C49.5967 69.8519 45.7763 69.2273 44.2289 72.3377C42.6816 75.4481 43.8698 80.2199 46.4429 81.2388C49.0161 82.2577 53.299 83.6529 55.0529 84.2417C56.8069 84.8305 62.5756 86.3332 62.5756 86.3332L64.9471 84.8868L65.2275 80.2788C65.2275 80.2788 61.9582 76.7844 59.1759 75.8193C56.3936 74.8542 53.299 72.1764 53.299 72.1764Z" fill="#263238"/>
    <path d="M47.9608 70.0054C47.9854 69.967 50.5832 70.0438 52.4798 70.7888C53.1932 71.0678 53.8919 71.3673 53.8919 71.3673L54.9398 68.2595L62.7946 65.5356H71.4907L74.3197 71.3673V71.6617C74.3197 71.6617 77.717 71.7206 79.1881 71.014C80.6591 70.3075 85.2421 68.2441 86.4303 67.832C87.6185 67.4198 92.9395 66.6288 94.1276 69.9977C95.3158 73.3667 94.4745 76.8816 92.4868 78.1667C91.5496 78.7708 75.7367 83.0307 75.7367 83.0307L71.9999 76.8457C71.9999 76.8457 66.3075 79.782 64.401 79.462C62.4945 79.142 47.9608 70.0054 47.9608 70.0054Z" fill="#263238"/>
    <path d="M64 67.0386C64.0168 67.0773 64.03 67.1176 64.0394 67.1589C64.0615 67.2511 64.0911 67.3663 64.1255 67.5045C64.1968 67.8066 64.2879 68.2495 64.3715 68.7973C64.5634 69.893 64.7553 71.4213 64.9029 73.1135C65.0505 74.8056 65.1292 76.3416 65.1612 77.4655C65.1784 78.021 65.1833 78.4715 65.1833 78.7839C65.1833 78.9272 65.1833 79.0399 65.1833 79.1423C65.19 79.1838 65.19 79.2262 65.1833 79.2677C65.1753 79.2263 65.1704 79.1844 65.1685 79.1423C65.1685 79.045 65.1685 78.9272 65.1513 78.7839C65.1341 78.4536 65.1144 78.0159 65.0874 77.4706C65.0332 76.3595 64.9373 74.8261 64.7922 73.1339C64.647 71.4418 64.4674 69.9211 64.3002 68.8229C64.219 68.2751 64.1403 67.8322 64.0837 67.5275C64.0591 67.3867 64.0369 67.2715 64.0197 67.1743C64.0061 67.1305 63.9994 67.0846 64 67.0386Z" fill="#455A64"/>
    <path d="M74.2336 71.8055C74.2336 71.8413 72.2656 72.0999 69.8277 72.3815C67.3899 72.6631 65.4145 72.8628 65.3997 72.8244C65.385 72.786 67.3677 72.53 69.8056 72.2484C72.2435 71.9668 74.2287 71.7696 74.2336 71.8055Z" fill="#455A64"/>
    <path d="M72.9347 71.818C72.8406 71.8224 72.7464 71.8146 72.6542 71.795C72.4746 71.7694 72.2163 71.7361 71.8941 71.7028C71.0585 71.608 70.218 71.5679 69.3775 71.5825C68.5378 71.5994 67.6998 71.6695 66.8683 71.7924L66.1131 71.9127C66.021 71.9346 65.9271 71.9466 65.8326 71.9486C65.919 71.9084 66.0099 71.88 66.1032 71.8641C66.2779 71.8154 66.5337 71.7591 66.8535 71.7002C68.523 71.3967 70.2277 71.3656 71.9064 71.6081C72.2262 71.6567 72.4845 71.7028 72.6616 71.7438C72.7548 71.759 72.8463 71.7838 72.9347 71.818Z" fill="#455A64"/>
    <path d="M74.1376 71.4648C73.5985 71.1894 73.0339 70.9715 72.4525 70.8146C71.8612 70.7017 71.2602 70.6528 70.6592 70.6687C70.8292 70.6069 71.008 70.5757 71.1881 70.5765C72.0587 70.5243 72.9263 70.7236 73.6948 71.1525C73.8574 71.2315 74.0069 71.3369 74.1376 71.4648Z" fill="#455A64"/>
    <path d="M66.8954 76.5258C66.6719 76.7591 66.3989 76.9344 66.0983 77.0378C65.8141 77.1804 65.5011 77.2498 65.1857 77.2401C65.1857 77.2017 65.5817 77.1095 66.0491 76.9124C66.5165 76.7153 66.8732 76.4951 66.8954 76.5258Z" fill="#455A64"/>
    <path d="M66.4772 77.6729C66.0699 77.8999 65.5988 77.9706 65.1464 77.8725C65.3631 77.8101 65.5859 77.7732 65.8106 77.7625C66.029 77.7077 66.2526 77.6777 66.4772 77.6729Z" fill="#455A64"/>
    <path d="M79.8424 71.2393C79.8066 71.2705 79.7679 71.298 79.7268 71.3212L79.3848 71.5337L78.1106 72.3017L73.8843 74.7746L69.6383 77.2143L68.3444 77.9413L67.9877 78.1333C67.9468 78.1569 67.904 78.1766 67.8597 78.1922C67.8952 78.1604 67.934 78.1329 67.9754 78.1103L68.3198 77.8953L69.594 77.1273L73.8203 74.6543L78.0663 72.2146L79.3602 71.4901L79.7145 71.2981C79.754 71.2718 79.7971 71.252 79.8424 71.2393Z" fill="#455A64"/>
    <path d="M86.477 69.9366C86.4248 69.9543 86.3713 69.968 86.3171 69.9775L85.8596 70.0748C85.4611 70.1619 84.8879 70.3001 84.1892 70.5049C82.3726 71.0553 80.61 71.783 78.9248 72.6783C76.9421 73.7023 75.2348 74.8031 73.9852 75.5891L72.5092 76.526L72.1057 76.782C72.0594 76.8124 72.0109 76.839 71.9606 76.8614C72.0013 76.8226 72.0459 76.7883 72.0934 76.759L72.4821 76.4876C72.8216 76.2547 73.3136 75.9193 73.9286 75.5148C75.1586 74.7059 76.8806 73.6025 78.8609 72.5631C80.5521 71.6636 82.3266 70.9448 84.1573 70.4179C84.8633 70.2233 85.4414 70.1004 85.8424 70.0313C86.0416 69.9903 86.199 69.9724 86.3048 69.9571C86.3612 69.9427 86.419 69.9358 86.477 69.9366Z" fill="#455A64"/>
    <path d="M90.3712 68.7714C90.3712 68.7945 90.0859 68.7714 89.6332 68.7714C89.0368 68.7899 88.4446 68.8827 87.8694 69.0479C87.2952 69.215 86.7419 69.4522 86.2212 69.7545C85.8202 69.99 85.589 70.1641 85.5767 70.1462C85.5644 70.1282 85.6234 70.0873 85.7243 70.0028C85.8676 69.8838 86.0179 69.7744 86.1745 69.6751C86.6902 69.3417 87.2495 69.0873 87.835 68.9199C88.4196 68.7513 89.0241 68.6694 89.6308 68.6767C89.8143 68.6785 89.9975 68.6922 90.1793 68.7177C90.2455 68.7259 90.3101 68.744 90.3712 68.7714Z" fill="#455A64"/>
    <path d="M89.0034 69.8543C89.0034 69.8927 88.3441 69.8031 87.5274 69.8338C86.7107 69.8645 86.076 69.9977 86.0686 69.9593C86.5348 69.785 87.0271 69.6983 87.5225 69.7033C88.0208 69.6621 88.5222 69.7132 89.0034 69.8543Z" fill="#455A64"/>
    <path d="M86.1499 68.8101C86.1671 68.8459 85.6013 69.1582 84.9715 69.6472C84.3418 70.1361 83.8867 70.6072 83.8596 70.579C84.1433 70.1718 84.4939 69.8199 84.8953 69.5397C85.2699 69.2229 85.6944 68.9761 86.1499 68.8101Z" fill="#455A64"/>
    <path d="M94.4721 71.7311C94.4639 71.7495 94.4549 71.7674 94.445 71.7848L94.3638 71.9359C94.2876 72.0716 94.1744 72.2636 94.0096 72.5016C93.5479 73.1826 92.9897 73.7868 92.354 74.2936C91.407 75.0303 90.3838 75.6545 89.3036 76.1548C88.0933 76.7359 86.7132 77.2479 85.2667 77.7752L77.8523 80.476L75.5989 81.2773L74.9864 81.4898L74.824 81.5436C74.8059 81.5509 74.7868 81.5552 74.7675 81.5564L74.8191 81.5308L74.9766 81.4642L75.5842 81.2287L77.8228 80.3864L85.2249 77.6498C86.6714 77.1224 88.049 76.6258 89.2569 76.0421C90.3313 75.5503 91.3515 74.9392 92.2999 74.2194C92.9363 73.7228 93.5019 73.135 93.9801 72.4735C94.1473 72.2405 94.2703 72.0511 94.3515 71.9231L94.445 71.7772C94.463 71.7447 94.4721 71.7294 94.4721 71.7311Z" fill="#455A64"/>
    <path d="M64.6839 85.0509C64.6228 85.0326 64.5628 85.0104 64.5044 84.9843L63.9976 84.7719C63.5597 84.585 62.9275 84.3059 62.1526 83.9501C60.6003 83.241 58.4626 82.2272 56.1502 81.0471C53.8378 79.8669 51.7542 78.7431 50.2856 77.8471C49.5476 77.4067 48.967 77.033 48.5636 76.7642L48.1085 76.4493C48.0539 76.4155 48.0028 76.376 47.9559 76.3315C48.0141 76.3584 48.07 76.3901 48.1232 76.4263L48.5882 76.7207C48.9941 76.9767 49.5845 77.3376 50.3249 77.7626C51.8009 78.6253 53.8821 79.7415 56.2018 80.9267C58.5216 82.112 60.6446 83.1335 62.1846 83.8631L64.0173 84.736L64.5093 84.969C64.57 84.9901 64.6285 85.0175 64.6839 85.0509Z" fill="#455A64"/>
    <path d="M48.5709 71.6208C48.6364 71.561 48.7102 71.5118 48.7899 71.4749C48.9971 71.3603 49.2126 71.2627 49.4344 71.1831C50.1734 70.9175 50.9607 70.83 51.7369 70.9271C52.5123 71.0042 53.2676 71.228 53.9657 71.5876C54.174 71.7019 54.3689 71.8411 54.5463 72.0023C54.615 72.0566 54.6755 72.1213 54.7258 72.1943C54.4697 72.0015 54.2018 71.8262 53.9239 71.6695C53.2231 71.3412 52.475 71.1353 51.7099 71.0602C50.9524 70.9639 50.184 71.0336 49.4541 71.265C48.9006 71.4519 48.5808 71.6439 48.5709 71.6208Z" fill="#455A64"/>
    <path d="M65.2251 80.2813C65.1823 80.2568 65.1434 80.2257 65.1095 80.1892L64.7946 79.9101C64.5215 79.6541 64.1181 79.3213 63.6162 78.9015C62.6125 78.0644 61.1956 76.9431 59.6335 75.7015L58.497 74.7927C58.1255 74.506 57.759 74.2602 57.385 74.0247C56.647 73.5716 55.9828 73.185 55.449 72.8036C55.0219 72.511 54.6239 72.1748 54.2608 71.8001C54.1621 71.6994 54.0685 71.5934 53.9804 71.4826C53.9461 71.4466 53.9163 71.4062 53.8918 71.3623C53.8918 71.3623 54.0321 71.5108 54.2953 71.7642C54.6684 72.1203 55.071 72.4415 55.4982 72.7242C56.0345 73.0929 56.711 73.4692 57.4465 73.9197C57.8131 74.1476 58.1845 74.3933 58.5708 74.6877C58.957 74.9821 59.3088 75.2868 59.7097 75.5965C61.2718 76.8381 62.6814 77.9697 63.6728 78.8298C64.1648 79.2573 64.5658 79.6132 64.8265 79.8692C64.9618 79.9972 65.0602 80.0996 65.1267 80.1713C65.1627 80.2047 65.1956 80.2415 65.2251 80.2813Z" fill="#455A64"/>
    <path d="M58.738 73.8994C59.0359 73.9957 59.3283 74.1093 59.6138 74.2399C60.1525 74.4575 60.8979 74.7519 61.7368 75.0207C62.5756 75.2895 63.3432 75.5096 63.9016 75.653C64.2074 75.7219 64.5096 75.8073 64.8069 75.909C64.7241 75.9127 64.6413 75.9041 64.5609 75.8834C64.401 75.8604 64.1697 75.8169 63.8868 75.7554C63.1492 75.5952 62.4201 75.3952 61.7023 75.1564C60.9834 74.9208 60.2765 74.6474 59.5843 74.3372C59.3211 74.2169 59.107 74.1145 58.9619 74.0402C58.8823 74.0024 58.8072 73.9551 58.738 73.8994Z" fill="#455A64"/>
    <path d="M61.4588 71.631C61.1677 71.7021 60.8728 71.7551 60.5756 71.7897C60.0295 71.8742 59.2743 71.9945 58.4453 72.1481C57.6163 72.3017 56.8684 72.463 56.3272 72.5808C56.0375 72.6569 55.7433 72.7133 55.4465 72.7497C55.5182 72.7116 55.5942 72.6832 55.6729 72.6652C55.8205 72.6192 56.0369 72.5577 56.3051 72.4886C56.8438 72.3478 57.5892 72.1737 58.4231 72.0176C59.2571 71.8614 60.0123 71.7616 60.5633 71.695C60.8389 71.6643 61.0553 71.6438 61.2177 71.6336C61.2975 71.6205 61.3787 71.6196 61.4588 71.631Z" fill="#455A64"/>
    <path d="M60.2928 70.1284C60.2928 70.1488 59.9533 70.1796 59.4121 70.264C57.9955 70.4814 56.6198 70.9253 55.3334 71.5799C54.8414 71.8359 54.5438 72.0074 54.5339 71.9869C54.5918 71.929 54.6572 71.8799 54.7283 71.841C54.8562 71.7514 55.0481 71.6336 55.2916 71.4954C55.9288 71.1419 56.5969 70.8522 57.2867 70.6301C57.9758 70.4087 58.6832 70.2544 59.3998 70.1693C59.6753 70.1386 59.8918 70.1232 60.0517 70.1207C60.132 70.11 60.2133 70.1126 60.2928 70.1284Z" fill="#455A64"/>
    <path d="M70.177 83.054L68.701 86.638C69.2447 87.15 71.3111 87.4777 72.0393 87.4393C72.7674 87.4009 73.8203 87.4085 74.546 87.3241C75.4706 87.2464 76.3999 87.2533 77.3234 87.3445C78.2473 87.4356 79.1782 87.4176 80.0982 87.2908C81.0205 87.159 81.8804 86.7312 82.5582 86.0671C82.8859 85.7659 83.1337 85.3821 83.2778 84.9525C83.4219 84.523 83.4575 84.0621 83.3811 83.6141C83.3048 83.1661 83.1192 82.7461 82.8419 82.3943C82.5647 82.0425 82.2053 81.7707 81.7981 81.605C81.0562 81.2767 80.2433 81.1609 79.4439 81.2697C78.6486 81.3787 77.8646 81.5638 77.102 81.8226C76.2828 82.0786 75.4439 82.3346 74.5928 82.2578C74.4206 82.2425 74.2484 82.2578 74.0786 82.2169C72.9667 82.0018 71.808 81.9916 70.8068 82.6469C70.61 82.7775 70.3861 82.8927 70.177 83.054Z" fill="#E0E0E0"/>
    <path d="M70.3911 83.456C70.4305 83.409 70.4742 83.3662 70.5215 83.328C70.654 83.2141 70.7955 83.1122 70.9446 83.0233C71.4995 82.6911 72.1401 82.547 72.7773 82.6112C73.1758 82.6521 73.6039 82.7366 74.0664 82.8083C74.5533 82.8986 75.0493 82.9236 75.5424 82.8825C76.0839 82.8068 76.6175 82.6791 77.1364 82.5011C77.7016 82.3064 78.2857 82.1776 78.8781 82.1171C79.4745 82.057 80.0764 82.1108 80.6542 82.2758C80.9285 82.3582 81.194 82.4697 81.4464 82.6086C81.6916 82.7381 81.9131 82.9114 82.1007 83.1206C82.4464 83.5116 82.6895 83.9885 82.8067 84.5056C82.8642 84.7408 82.8718 84.9863 82.8289 85.2249C82.7823 85.444 82.699 85.6528 82.5829 85.8419C82.3884 86.1629 82.1269 86.4342 81.8178 86.6355C81.5881 86.7878 81.3451 86.9172 81.0921 87.022C80.8855 87.1116 80.7231 87.1705 80.6124 87.2115C80.5571 87.2353 80.4993 87.2525 80.4402 87.2627C80.4921 87.2323 80.5464 87.2066 80.6026 87.1859C80.7108 87.1372 80.8707 87.0707 81.0724 86.976C81.3178 86.8619 81.5539 86.7275 81.7785 86.574C82.0733 86.3734 82.3213 86.1066 82.5042 85.7932C82.617 85.6071 82.692 85.3988 82.7246 85.1813C82.7572 84.9638 82.7466 84.7417 82.6936 84.5286C82.5749 84.0341 82.3379 83.5788 82.0048 83.2051C81.6183 82.8091 81.1365 82.5288 80.61 82.3936C80.0493 82.236 79.4662 82.184 78.888 82.24C77.6875 82.3321 76.6223 82.903 75.5547 83.008C75.0529 83.0463 74.5486 83.017 74.0541 82.9209C73.5916 82.8416 73.166 82.752 72.7724 82.7059C72.1508 82.639 71.5241 82.7655 70.9717 83.0694C70.7717 83.1875 70.5779 83.3165 70.3911 83.456Z" fill="#455A64"/>
    <path d="M80.4501 87.2779C80.4501 87.2779 80.3959 87.2293 80.3172 87.1217C80.2677 87.0586 80.2224 86.9918 80.1819 86.9221C80.1245 86.8318 80.0727 86.7377 80.0269 86.6404C79.9016 86.3906 79.7987 86.1292 79.7194 85.8597C79.6233 85.5255 79.5574 85.1826 79.5226 84.8357C79.4933 84.4907 79.4933 84.1438 79.5226 83.7988C79.5484 83.5182 79.5987 83.2406 79.6727 82.9694C79.6992 82.8641 79.7321 82.7606 79.7711 82.6597C79.7965 82.5825 79.8269 82.5073 79.8621 82.4344C79.9212 82.3141 79.9556 82.25 79.963 82.2552C79.9704 82.2603 79.8646 82.5316 79.7613 82.9924C79.6995 83.2607 79.6592 83.5339 79.6407 83.8091C79.6214 84.1461 79.6263 84.4841 79.6555 84.8203C79.6926 85.1558 79.7543 85.4878 79.84 85.8136C79.9123 86.0767 80.0044 86.3335 80.1155 86.5816C80.2951 87.0398 80.4648 87.2651 80.4501 87.2779Z" fill="#263238"/>
    <path d="M71.0848 82.5523C71.1168 82.5702 71.0848 82.7034 71.0135 82.857C70.9421 83.0106 70.8855 83.1334 70.8511 83.113C70.8166 83.0925 70.8314 82.9594 70.8954 82.7981C70.9593 82.6368 71.0553 82.5344 71.0848 82.5523Z" fill="#455A64"/>
    <path d="M72.1352 82.127C72.1672 82.1424 72.1352 82.273 72.0934 82.4266C72.0516 82.5802 71.9901 82.703 71.9556 82.6826C71.9212 82.6621 71.9212 82.5341 71.9704 82.3728C72.0196 82.2115 72.1032 82.1117 72.1352 82.127Z" fill="#455A64"/>
    <path d="M73.4858 82.0992C73.5177 82.112 73.5005 82.263 73.4464 82.4371C73.3923 82.6112 73.3185 82.7443 73.2865 82.7315C73.2545 82.7187 73.2693 82.5702 73.3234 82.3961C73.3775 82.2221 73.4513 82.0889 73.4858 82.0992Z" fill="#455A64"/>
    <path d="M74.7526 82.2652C74.787 82.2652 74.7748 82.4265 74.7256 82.6031C74.6764 82.7798 74.6075 82.9155 74.5755 82.9052C74.5435 82.895 74.5534 82.7439 74.6026 82.5647C74.6518 82.3855 74.7182 82.255 74.7526 82.2652Z" fill="#455A64"/>
    <path d="M75.8203 82.9617C75.7859 82.9617 75.7564 82.7825 75.7588 82.5623C75.7613 82.3422 75.7883 82.1655 75.8252 82.1655C75.8621 82.1655 75.8867 82.3447 75.8867 82.5623C75.8867 82.7799 75.8548 82.9617 75.8203 82.9617Z" fill="#455A64"/>
    <path d="M77.006 82.647C76.9691 82.647 76.9199 82.4934 76.8929 82.2937C76.8658 82.094 76.8732 81.9276 76.9076 81.9225C76.9421 81.9174 76.9937 82.0761 77.0208 82.2758C77.0479 82.4754 77.0454 82.6418 77.006 82.647Z" fill="#455A64"/>
    <path d="M78.1032 81.5283C78.1377 81.5283 78.1942 81.6717 78.2287 81.8637C78.2631 82.0557 78.2631 82.217 78.2287 82.2221C78.1942 82.2272 78.1377 82.0787 78.1032 81.8867C78.0688 81.6947 78.0688 81.5334 78.1032 81.5283Z" fill="#455A64"/>
    <path d="M79.5202 81.2566C79.5546 81.2566 79.5399 81.4742 79.4907 81.725C79.4415 81.9759 79.3677 82.1756 79.3332 82.1679C79.2988 82.1602 79.3135 81.9503 79.3652 81.6994C79.4169 81.4486 79.4857 81.2489 79.5202 81.2566Z" fill="#455A64"/>
    <path d="M80.7354 81.2928C80.7673 81.3082 80.6812 81.5488 80.541 81.8048C80.4008 82.0608 80.263 82.281 80.2335 82.263C80.2604 82.0793 80.3269 81.9043 80.4279 81.751C80.5656 81.4822 80.696 81.2774 80.7354 81.2928Z" fill="#455A64"/>
    <path d="M81.9728 81.6303C82.0023 81.6508 81.8891 81.8863 81.7268 82.1577C81.5644 82.429 81.3947 82.6338 81.3652 82.6134C81.3356 82.5929 81.4488 82.3574 81.6112 82.086C81.7735 81.8146 81.9433 81.6098 81.9728 81.6303Z" fill="#455A64"/>
    <path d="M82.7698 82.4087C82.7968 82.4292 82.6886 82.6417 82.5238 82.8849C82.359 83.1281 82.2064 83.3073 82.1794 83.2868C82.1523 83.2663 82.2581 83.0513 82.4254 82.8081C82.5927 82.5649 82.7403 82.3857 82.7698 82.4087Z" fill="#455A64"/>
    <path d="M83.3258 83.3972C83.3553 83.4176 83.2446 83.625 83.0576 83.84C82.8707 84.0551 82.6837 84.1882 82.6616 84.1626C82.6394 84.137 82.7821 83.9604 82.9642 83.7504C83.1462 83.5405 83.2963 83.3741 83.3258 83.3972Z" fill="#455A64"/>
    <path d="M83.2445 84.9046C83.2716 84.9251 83.2101 85.0505 83.0649 85.1171C82.9198 85.1836 82.787 85.1478 82.7919 85.1171C82.7968 85.0863 82.8977 85.0531 83.0133 84.9993C83.1289 84.9455 83.2175 84.879 83.2445 84.9046Z" fill="#455A64"/>
    <path d="M82.4574 86.1949C82.4574 86.2281 82.4352 86.2717 82.3811 86.264C82.327 86.2563 82.3098 86.2 82.3319 86.1718C82.3398 86.1595 82.3504 86.1494 82.3628 86.1423C82.3752 86.1352 82.3891 86.1312 82.4032 86.1309C82.4167 86.136 82.4286 86.1446 82.4381 86.1557C82.4475 86.1669 82.4542 86.1804 82.4574 86.1949Z" fill="#455A64"/>
    <path d="M73.8794 86.7046C74.0541 86.3215 74.1886 85.9198 74.2804 85.5066C74.3328 85.0821 74.3411 84.6529 74.305 84.2266C74.4473 84.6408 74.4828 85.0865 74.4082 85.5195C74.3335 85.9525 74.1512 86.3575 73.8794 86.6944V86.7046Z" fill="#263238"/>
    <path d="M74.8928 86.5841C75.0548 86.2308 75.1786 85.8599 75.2618 85.4781C75.3052 85.0886 75.3052 84.6952 75.2618 84.3057C75.4101 84.6834 75.4544 85.0966 75.3896 85.4991C75.3249 85.9015 75.1537 86.2772 74.8953 86.5841H74.8928Z" fill="#263238"/>
    <path d="M76.1697 86.5917C76.6123 85.8581 76.769 84.9763 76.6076 84.1265C76.6777 84.2352 76.7215 84.3599 76.7355 84.49C76.793 84.7994 76.793 85.1175 76.7355 85.4269C76.6824 85.7374 76.5713 86.034 76.4083 86.2999C76.2878 86.5021 76.182 86.602 76.1697 86.5917Z" fill="#263238"/>
    <path d="M77.6112 86.5021C77.7588 86.1034 77.87 85.6911 77.9433 85.2707C77.9723 84.8442 77.9641 84.4157 77.9187 83.9907C78.0709 84.4036 78.1225 84.8493 78.0688 85.2879C78.0152 85.7266 77.8579 86.1446 77.6112 86.5046V86.5021Z" fill="#263238"/>
    <path d="M73.621 85.3782C73.5553 85.408 73.483 85.4187 73.4119 85.4089C73.2168 85.3959 73.0281 85.3316 72.8633 85.222C72.6271 85.0558 72.4206 84.8479 72.2532 84.6076C72.1398 84.4721 72.0499 84.317 71.9876 84.1494C71.9567 84.0529 71.9491 83.9501 71.9654 83.8498C71.9842 83.7422 72.0381 83.6445 72.1179 83.5734C72.1956 83.5086 72.2874 83.4647 72.3852 83.4455C72.483 83.4263 72.5838 83.4324 72.6788 83.4633C72.8462 83.5206 72.9974 83.62 73.1192 83.7526C73.3219 83.9648 73.4787 84.2197 73.5792 84.5001C73.6474 84.6863 73.6881 84.8823 73.6997 85.0812C73.7107 85.1538 73.7065 85.228 73.6874 85.2988C73.6497 85.0365 73.5854 84.779 73.4955 84.5308C73.3881 84.27 73.2317 84.0341 73.0355 83.837C72.9275 83.7193 72.7931 83.6314 72.6444 83.581C72.5692 83.5578 72.4899 83.5536 72.4128 83.5687C72.3358 83.5838 72.2634 83.6179 72.2016 83.6681C72.1456 83.7223 72.1067 83.7929 72.09 83.8706C72.0733 83.9483 72.0796 84.0294 72.1081 84.1033C72.1662 84.2577 72.2494 84.4006 72.3541 84.5257C72.5092 84.7598 72.7004 84.9656 72.9199 85.135C73.1265 85.284 73.3698 85.3684 73.621 85.3782Z" fill="#263238"/>
    <path d="M73.5621 85.3401C73.5575 85.4073 73.5417 85.4731 73.5153 85.5346C73.4602 85.7117 73.3893 85.8831 73.3038 86.0466C73.1794 86.2957 72.9901 86.5033 72.7576 86.6457C72.6149 86.7299 72.4543 86.7757 72.2902 86.7788C72.1951 86.7856 72.0998 86.7668 72.0137 86.7242C71.9275 86.6816 71.8533 86.6166 71.7982 86.5356C71.7551 86.4478 71.7373 86.3489 71.7469 86.2508C71.7565 86.1527 71.7931 86.0596 71.8524 85.9826C71.9478 85.8449 72.0746 85.7341 72.2214 85.6601C72.4626 85.5486 72.7176 85.4728 72.979 85.4348C73.2113 85.3747 73.4485 85.3378 73.6875 85.3247C73.4639 85.4126 73.2335 85.4802 72.9987 85.5269C72.7491 85.5773 72.5062 85.659 72.2755 85.7702C72.1481 85.8372 72.0383 85.9357 71.9557 86.0569C71.9118 86.1137 71.8841 86.1823 71.8759 86.2547C71.8676 86.3271 71.8791 86.4005 71.9089 86.4665C71.9518 86.5255 72.0077 86.5729 72.072 86.6045C72.1362 86.6362 72.2069 86.6512 72.2779 86.6482C72.4215 86.6477 72.5628 86.6098 72.6888 86.5382C72.9065 86.4089 73.0879 86.2227 73.2152 85.998C73.4391 85.6037 73.5301 85.3273 73.5621 85.3401Z" fill="#263238"/>
    <path d="M73.4611 86.4307C73.4316 86.4051 73.5743 86.208 73.6161 85.9187C73.6579 85.6294 73.5891 85.4067 73.6161 85.3862C73.6785 85.4614 73.722 85.5515 73.7426 85.6485C73.7632 85.7454 73.7603 85.8462 73.7342 85.9417C73.6924 86.272 73.4808 86.4589 73.4611 86.4307Z" fill="#263238"/>
    <path d="M74.0097 84.6413C74.0417 84.6413 74.0097 84.8461 73.904 85.056C73.7982 85.2659 73.658 85.3991 73.6309 85.3786C73.6038 85.3581 73.6899 85.1917 73.7908 84.9946C73.8916 84.7975 73.9753 84.6285 74.0097 84.6413Z" fill="#263238"/>
    <path d="M77.9481 82.7363C77.7795 82.8528 77.5956 82.9434 77.402 83.0051C76.4824 83.3621 75.5012 83.5156 74.5214 83.4557C74.3191 83.4548 74.1179 83.4246 73.9236 83.3661C74.6057 83.3748 75.2877 83.338 75.9654 83.256C76.6365 83.1279 77.2988 82.9543 77.9481 82.7363Z" fill="#FF9902"/>
    <path d="M77.3381 86.886C76.894 86.9854 76.4417 87.0403 75.9876 87.0498C75.5368 87.1038 75.0822 87.1141 74.6296 87.0805C75.0737 86.9811 75.526 86.9263 75.9802 86.9167C76.4309 86.8627 76.8855 86.8524 77.3381 86.886Z" fill="#FF9902"/>
    <path d="M80.6025 86.9863C80.9107 86.9411 81.206 86.8276 81.4685 86.6535C81.7455 86.4567 81.9678 86.1874 82.113 85.8727C82.2799 85.4841 82.3264 85.051 82.2458 84.6336C82.1676 84.2135 81.9785 83.8244 81.6997 83.5098C81.4695 83.2553 81.1937 83.0501 80.8879 82.9056C80.5975 82.7828 80.2958 82.6911 79.9875 82.6317C80.073 82.6156 80.1605 82.6156 80.2459 82.6317C80.4782 82.66 80.7058 82.7212 80.9224 82.8135C81.2477 82.9508 81.5419 83.1574 81.7858 83.4202C82.0859 83.7479 82.2891 84.1584 82.3713 84.6029C82.4583 85.048 82.4048 85.5105 82.2188 85.9213C82.0603 86.2518 81.8178 86.5307 81.5177 86.7277C81.3172 86.8594 81.0927 86.9465 80.8584 86.9837C80.774 87.0013 80.6872 87.0021 80.6025 86.9863Z" fill="#FF9902"/>
    <path d="M65.0406 80.6934L71.4366 83.6502C71.4989 84.4963 71.3639 85.3455 71.043 86.1257C70.5756 87.1241 69.1562 86.9244 69.1562 86.9244L63.5277 85.5625L64.7823 84.7945L65.0406 80.6934Z" fill="#FFBE9D"/>
    <path d="M70.7577 86.6507C70.5046 86.4664 70.2734 86.2516 70.0689 86.0107C69.8646 85.767 69.7496 85.456 69.7441 85.1326C69.7719 84.8414 69.8664 84.5614 70.0197 84.316C70.1505 84.0195 70.3755 83.779 70.6568 83.6351C71.011 83.4968 71.3948 83.6555 71.7417 83.8322L71.8081 85.317L70.7577 86.6507Z" fill="#E0E0E0"/>
    <path d="M71.4464 83.6501C71.4317 83.6834 69.9877 83.0485 68.2189 82.2319C66.4502 81.4153 65.0209 80.7266 65.0406 80.6959C65.0603 80.6652 66.5018 81.2949 68.2706 82.1116C70.0393 82.9282 71.4612 83.6143 71.4464 83.6501Z" fill="#EB996E"/>
    <path d="M78.728 56.8088C78.7896 56.8123 78.8513 56.803 78.9094 56.7816C78.9675 56.7601 79.021 56.7269 79.0668 56.6838C79.1125 56.6407 79.1496 56.5886 79.1759 56.5306C79.2022 56.4725 79.2172 56.4096 79.22 56.3455C79.2914 54.2412 77.958 49.4744 77.3184 47.4956C76.9273 46.2872 75.5964 45.404 74.6813 44.7538C73.5645 43.9679 69.6162 43.0053 68.3149 42.6316H67.877L61.8278 42.1631L58.5044 43.8194C58.5044 43.8194 53.8968 45.637 52.561 48.1714C51.2252 50.7058 50.2093 58.1119 50.2093 58.1119C50.2093 58.1119 49.5967 60.229 50.2093 61.1839C50.5906 61.7804 52.01 62.2975 53.2867 62.5509C52.5955 64.9471 53.1416 66.7263 53.117 67.0309C53.0653 67.6607 52.6004 69.1276 53.6902 69.038C54.7799 68.9484 63.3014 66.606 65.8327 66.501C67.9759 66.4406 70.0951 66.9818 71.9679 68.0677C73.2447 68.8127 73.2348 68.8664 73.6899 67.5557C74.145 66.245 72.6912 64.7679 72.6912 64.7679C72.6912 64.7679 73.995 59.8655 74.6026 56.6604L78.728 56.8088Z" fill="#455A64"/>
    <path d="M58.4354 53.9618C58.4354 53.9618 58.3592 53.8927 58.2436 53.7493C58.1279 53.606 57.9459 53.3833 57.7516 53.1426C57.2226 52.474 56.6471 51.8468 56.0296 51.2661C55.6857 50.9513 55.317 50.667 54.9275 50.4162C54.6093 50.2143 54.2742 50.043 53.9263 49.9042C53.3285 49.6687 52.9423 49.6098 52.9423 49.5842C53.0358 49.5822 53.1292 49.5926 53.2202 49.6149C53.3291 49.6311 53.4368 49.6551 53.5425 49.6866C53.6845 49.7207 53.8242 49.7643 53.9607 49.8172C54.3203 49.9473 54.6664 50.1145 54.9939 50.3164C55.3922 50.5652 55.7685 50.8505 56.1181 51.1689C56.7472 51.7529 57.3236 52.3955 57.8401 53.0889C58.0394 53.3449 58.1968 53.5701 58.3001 53.7237C58.3522 53.7986 58.3975 53.8783 58.4354 53.9618Z" fill="#263238"/>
    <path d="M57.326 61.0406C57.2279 61.0595 57.1281 61.0672 57.0283 61.0637C56.8364 61.0637 56.5585 61.0765 56.2141 61.0637C55.3192 61.058 54.4258 60.9887 53.54 60.8563C52.6541 60.7269 51.785 60.4933 50.9497 60.16C50.6977 60.0591 50.4513 59.9438 50.2117 59.8144C50.1197 59.7736 50.033 59.7211 49.9534 59.6582C49.9534 59.6377 50.342 59.8323 50.9866 60.0729C51.8262 60.3783 52.692 60.5995 53.572 60.7334C54.4531 60.8614 55.3398 60.9426 56.2288 60.9766L57.0406 61.0099C57.1365 61.0094 57.2322 61.0197 57.326 61.0406Z" fill="#263238"/>
    <path d="M70.118 63.4417C70.0982 63.5101 70.0683 63.5749 70.0294 63.6337C69.937 63.7989 69.836 63.9587 69.7268 64.1124C69.0012 65.1354 68.0203 65.9322 66.8904 66.4164C66.7207 66.4913 66.5465 66.5545 66.3689 66.6059C66.3058 66.6304 66.2394 66.6451 66.1721 66.6494C66.1721 66.6263 66.4353 66.5316 66.8535 66.3319C67.3954 66.0678 67.9077 65.7424 68.3812 65.3617C68.8516 64.9765 69.279 64.5377 69.6555 64.0535C69.9335 63.6823 70.0884 63.4315 70.118 63.4417Z" fill="#263238"/>
    <path d="M70.2164 65.4077C70.1024 65.5415 69.9667 65.6533 69.8154 65.738C69.469 65.971 69.0974 66.1609 68.7084 66.3037C68.3191 66.4463 67.9156 66.5425 67.5055 66.5904C67.3362 66.6209 67.1631 66.6209 66.9938 66.5904C67.5591 66.4913 68.1172 66.3519 68.6641 66.1732C69.1979 65.9556 69.7166 65.6999 70.2164 65.4077Z" fill="#263238"/>
    <path d="M77.3013 47.4957C77.3015 47.5693 77.2915 47.6426 77.2717 47.7133C77.2334 47.9079 77.1849 48.1001 77.1266 48.2893C76.9385 48.9144 76.6836 49.5155 76.3664 50.0813C76.0474 50.6482 75.6696 51.177 75.2398 51.6582C75.075 51.84 74.9347 51.9808 74.8314 52.073C74.7281 52.1651 74.6715 52.2137 74.6641 52.2061C74.6568 52.1984 74.8609 51.9731 75.1733 51.5942C75.5785 51.1022 75.9408 50.5736 76.2558 50.0147C76.5676 49.4533 76.8303 48.8639 77.0405 48.2534C77.2029 47.7901 77.2816 47.4906 77.3013 47.4957Z" fill="#263238"/>
    <path d="M78.851 55.6822C78.655 55.722 78.4553 55.7383 78.2557 55.7308C77.8867 55.7308 77.3775 55.7308 76.8166 55.7308C76.2557 55.7308 75.7465 55.6694 75.38 55.6284C75.1802 55.6195 74.9821 55.5869 74.7896 55.5312C74.9875 55.5111 75.1869 55.5111 75.3849 55.5312L76.8215 55.5952L78.2557 55.6464C78.4548 55.6372 78.6543 55.6492 78.851 55.6822Z" fill="#263238"/>
    <path d="M74.0541 48.3428C74.0916 48.4526 74.1195 48.5657 74.1377 48.6807C74.1869 48.9367 74.2509 49.2362 74.3247 49.61C74.4772 50.3959 74.6961 51.4839 74.8167 52.705C74.9309 53.749 74.9259 54.8034 74.8019 55.8461C74.7453 56.2429 74.6887 56.5629 74.6346 56.7805C74.6139 56.8957 74.5834 57.0088 74.5436 57.1185C74.5461 57.0012 74.5601 56.8846 74.5854 56.7703C74.6248 56.5527 74.6691 56.2301 74.7109 55.8333C74.8089 54.7969 74.8015 53.7526 74.6887 52.7178C74.5584 51.5069 74.3542 50.4138 74.2263 49.6279C74.1598 49.2337 74.1082 48.9111 74.0787 48.6909C74.0578 48.5762 74.0495 48.4594 74.0541 48.3428Z" fill="#263238"/>
    <path d="M58.4355 54.8477C58.4402 54.947 58.4344 55.0466 58.4183 55.1446C58.3986 55.3341 58.3666 55.6054 58.3248 55.9408C58.2387 56.6141 58.1083 57.5433 57.9288 58.5622C57.7833 59.435 57.5894 60.2983 57.3482 61.1478C57.2737 61.4047 57.1849 61.6568 57.0825 61.903C57.047 61.9934 57.0016 62.0793 56.9472 62.159C56.9275 62.159 57.0997 61.7699 57.2621 61.1145C57.4245 60.4592 57.6237 59.5478 57.8033 58.5315C57.9829 57.5152 58.1256 56.591 58.2363 55.9229C58.2871 55.6105 58.3314 55.3469 58.3691 55.1318C58.3804 55.0347 58.4027 54.9393 58.4355 54.8477Z" fill="#263238"/>
    <path d="M57.6065 50.7695C57.7115 50.9271 57.7944 51.0995 57.8525 51.2815C58.186 52.1231 58.4014 53.0103 58.4921 53.9158C58.5185 54.1025 58.5185 54.2922 58.4921 54.479C58.4527 54.479 58.3764 53.629 58.1255 52.6076C57.8746 51.5862 57.572 50.7849 57.6065 50.7695Z" fill="#263238"/>
    <g opacity="0.3">
        <path d="M68.9815 66.8542C69.2718 66.9336 69.8277 66.0197 70.15 65.459C69.166 66.0274 68.2164 66.7083 67.1143 66.46C67.7269 66.2895 68.2897 65.9647 68.7531 65.5142C69.2164 65.0637 69.5661 64.5014 69.7711 63.877C69.0016 65.099 67.865 66.0216 66.5387 66.5009C66.5387 66.5009 68.5215 66.7288 68.9815 66.8542Z" fill="black"/>
    </g>
    <path d="M57.6064 39.6799C57.6064 39.6799 57.7737 39.7516 58.0984 39.8233C58.5426 39.9338 59.0095 39.886 59.4244 39.6876C59.7037 39.5448 59.9364 39.3195 60.0935 39.0399C60.1849 38.8841 60.242 38.7092 60.2607 38.5277C60.2794 38.3462 60.2593 38.1627 60.2017 37.9903C60.1436 37.7987 60.0375 37.6266 59.8944 37.4917C59.7514 37.3567 59.5764 37.2638 59.3875 37.2223C59.1839 37.1983 58.9784 37.2431 58.8012 37.35C58.624 37.457 58.4845 37.6204 58.4035 37.8162C58.3663 37.9147 58.3491 38.0201 58.3529 38.1258C58.3567 38.2315 58.3815 38.3353 58.4256 38.4306C58.5184 38.6178 58.6645 38.7707 58.8438 38.8684C59.0146 38.9695 59.2082 39.0217 59.4047 39.0194C59.5944 39.0148 59.7812 38.9694 59.9533 38.8863C60.2765 38.7243 60.5581 38.4848 60.7749 38.1874C60.9716 37.9325 61.1307 37.6487 61.2472 37.3452C61.4156 36.9021 61.4992 36.429 61.4932 35.9525C61.4932 35.6172 61.4514 35.4405 61.4637 35.4277C61.4813 35.4702 61.4929 35.515 61.4982 35.5609C61.5213 35.6902 61.5361 35.8211 61.5424 35.9525C61.5651 36.4389 61.4888 36.9248 61.3186 37.3785C61.2042 37.6941 61.045 37.9901 60.8463 38.2565C60.6222 38.5712 60.3286 38.825 59.9902 38.9964C59.8038 39.0887 59.6012 39.1401 59.3949 39.1474C59.1764 39.1506 58.961 39.0941 58.77 38.9836C58.5677 38.8728 58.4035 38.6992 58.3002 38.4869C58.2472 38.3758 58.2174 38.2542 58.2128 38.1303C58.2081 38.0063 58.2287 37.8827 58.2731 37.7676C58.3638 37.5444 58.5218 37.358 58.7233 37.2365C58.9248 37.1151 59.1588 37.0651 59.3899 37.0943C59.5998 37.1377 59.7945 37.239 59.9538 37.3877C60.113 37.5363 60.231 37.7268 60.2952 37.9391C60.3566 38.1281 60.3772 38.3289 60.3555 38.5271C60.3339 38.7253 60.2704 38.9162 60.1698 39.086C59.9981 39.3797 59.7476 39.6147 59.449 39.7618C59.0145 39.9625 58.5263 39.9987 58.0689 39.8642C57.9465 39.832 57.8271 39.7883 57.7122 39.7337C57.6752 39.7197 57.6398 39.7017 57.6064 39.6799Z" fill="#263238"/>
    <path d="M76.8929 34.0297C76.9445 33.5094 76.8884 32.9836 76.7285 32.4877C76.5685 31.9919 76.3083 31.5374 75.9655 31.1549C75.6161 30.7779 75.1805 30.4994 74.6995 30.3454C74.2185 30.1913 73.7078 30.1669 73.2152 30.2742C72.5062 30.4114 71.8537 30.7683 71.3431 31.2982C71.1859 31.4622 71.0577 31.6537 70.9643 31.864C70.9471 31.8947 70.9323 31.928 70.9151 31.9613C70.8979 31.9945 70.8782 32.0457 70.861 32.0893V32.1097C70.5565 32.8346 70.4807 33.6412 70.6445 34.4137C70.7764 34.9967 71.049 35.5351 71.4363 35.9781C71.8237 36.4211 72.3132 36.7541 72.8585 36.9456C73.4101 37.1183 73.9966 37.1305 74.5544 36.9806C75.1121 36.8308 75.6197 36.5247 76.022 36.0957C76.5233 35.5258 76.8295 34.7995 76.8929 34.0297Z" fill="#263238"/>
    <path d="M76.4525 35.7402C76.4304 35.7402 76.3861 35.4484 76.2065 35.0106C75.984 34.4392 75.6382 33.9287 75.1959 33.5186C74.7535 33.1084 74.2265 32.8096 73.6555 32.6452C73.2176 32.5172 72.9175 32.5069 72.9323 32.4813C72.9991 32.4698 73.0672 32.4698 73.134 32.4813C73.3172 32.4915 73.4992 32.5189 73.6777 32.5632C74.2735 32.7061 74.8252 33.0029 75.2818 33.4261C75.7384 33.8494 76.0852 34.3855 76.2902 34.985C76.3524 35.1647 76.3993 35.3497 76.4304 35.538C76.4484 35.6037 76.4558 35.672 76.4525 35.7402Z" fill="#455A64"/>
    <path d="M75.4906 33.7178C75.4458 33.929 75.3703 34.1319 75.2668 34.3194C75.0373 34.785 74.7421 35.2121 74.391 35.5866C74.0373 35.9577 73.6318 36.271 73.1881 36.5159C73.0104 36.6305 72.8171 36.7168 72.6149 36.7719C72.5903 36.7284 73.4906 36.3648 74.3 35.4919C75.1093 34.6189 75.4513 33.6922 75.4906 33.7178Z" fill="#455A64"/>
    <path d="M72.8363 32.6167C72.7994 32.5937 73.0946 32.1047 73.3283 31.4494C73.4596 31.0489 73.5463 30.634 73.5866 30.2129C73.6295 30.3339 73.6447 30.4636 73.6309 30.5918C73.618 30.9013 73.5565 31.2066 73.4488 31.4955C73.3153 31.9065 73.1073 32.2871 72.8363 32.6167Z" fill="#FF9902"/>
    <path d="M72.8732 31.7257C72.9333 30.2647 72.4591 28.8344 71.5461 27.7228C70.6332 26.6112 69.3493 25.901 67.9532 25.7353C67.2325 25.6516 66.5029 25.7201 65.8082 25.9365C65.1135 26.1529 64.4678 26.5129 63.9098 26.9949C63.3518 27.4769 62.8929 28.0711 62.5605 28.7418C62.2281 29.4126 62.0291 30.1462 61.9754 30.8988L61.4834 43.5349C61.4746 43.7795 61.5447 44.0202 61.6827 44.2185C62.4484 45.3122 63.5974 46.048 64.8807 46.2665C65.9928 46.3795 67.1102 46.1155 68.0664 45.5138C68.2221 45.4179 68.3508 45.2811 68.4398 45.1171C68.5287 44.9531 68.5747 44.7677 68.5731 44.5794V41.7634C68.5731 41.7587 68.5749 41.7541 68.5782 41.7508C68.5814 41.7474 68.5858 41.7455 68.5903 41.7455C68.8442 41.7606 69.0989 41.7486 69.3505 41.7097C70.0663 41.5125 71.8843 40.7445 72.4476 37.9362C72.6124 36.9839 72.7724 34.3471 72.8732 31.7257Z" fill="#FFBE9D"/>
    <path d="M68.9594 35.9292C69.216 35.8623 69.4795 35.8279 69.7441 35.8268C69.8671 35.8268 69.9901 35.8012 70.0098 35.7167C70.0242 35.588 70.0011 35.4578 69.9434 35.343C69.8425 35.0332 69.7342 34.7081 69.6235 34.3702C69.1807 32.9852 68.8659 31.8511 68.92 31.8332C68.9741 31.8153 69.3776 32.9238 69.8204 34.3062C69.9261 34.6492 70.0295 34.9743 70.1254 35.2841C70.1956 35.4383 70.2104 35.6136 70.1672 35.7782C70.1472 35.8217 70.118 35.86 70.0818 35.8902C70.0456 35.9203 70.0033 35.9415 69.9581 35.9523C69.8895 35.9677 69.8192 35.9737 69.749 35.9702C69.4852 35.9904 69.22 35.9766 68.9594 35.9292Z" fill="#263238"/>
    <path d="M71.7047 33.6103C71.699 33.7298 71.6488 33.8423 71.5648 33.924C71.4808 34.0057 71.3695 34.0502 71.2546 34.048C71.198 34.0501 71.1417 34.0404 71.0889 34.0195C71.036 33.9987 70.9877 33.9671 70.9467 33.9266C70.9057 33.886 70.8728 33.8374 70.8501 33.7836C70.8274 33.7297 70.8152 33.6717 70.8142 33.6128C70.8187 33.4929 70.8685 33.3796 70.9528 33.2976C71.0371 33.2157 71.1491 33.1716 71.2644 33.1751C71.3209 33.173 71.3772 33.1827 71.4301 33.2036C71.483 33.2244 71.5313 33.256 71.5723 33.2966C71.6133 33.3371 71.6461 33.3857 71.6688 33.4395C71.6916 33.4934 71.7038 33.5514 71.7047 33.6103Z" fill="#263238"/>
    <path d="M72.1475 32.2198C72.1032 32.2685 71.7465 32.2454 71.2939 32.4041C70.8413 32.5629 70.5411 32.8112 70.4821 32.7984C70.4231 32.7856 70.4821 32.7165 70.6223 32.6038C70.8132 32.4482 71.0289 32.3287 71.2595 32.2505C71.481 32.1686 71.7158 32.1321 71.9507 32.143C72.1057 32.1558 72.1697 32.1942 72.1475 32.2198Z" fill="#263238"/>
    <path d="M67.0897 33.2953C67.084 33.4148 67.0338 33.5274 66.9498 33.6091C66.8658 33.6908 66.7545 33.7352 66.6396 33.7331C66.5831 33.7348 66.527 33.7249 66.4742 33.7039C66.4215 33.6829 66.3733 33.6513 66.3324 33.6108C66.2915 33.5704 66.2586 33.5219 66.2358 33.4682C66.2129 33.4145 66.2005 33.3566 66.1992 33.2979C66.2043 33.1782 66.2543 33.0653 66.3385 32.9834C66.4226 32.9016 66.5343 32.8573 66.6494 32.8601C66.7059 32.8581 66.7622 32.8678 66.8151 32.8886C66.868 32.9095 66.9163 32.9411 66.9573 32.9816C66.9983 33.0221 67.0311 33.0707 67.0539 33.1246C67.0766 33.1785 67.0888 33.2365 67.0897 33.2953Z" fill="#263238"/>
    <path d="M67.2472 32.6293C67.1758 32.6293 66.9151 32.3375 66.4477 32.1173C65.9803 31.8972 65.5719 31.8409 65.5375 31.7845C65.503 31.7282 65.6039 31.7308 65.7835 31.7487C66.0403 31.7812 66.2898 31.8591 66.5215 31.9791C66.7522 32.0882 66.9609 32.242 67.1365 32.4322C67.2595 32.55 67.2791 32.6268 67.2472 32.6293Z" fill="#263238"/>
    <path d="M68.551 41.7277C68.551 41.7277 66.6937 41.784 64.4403 40.2378C64.4403 40.2378 65.0602 42.7799 68.551 42.6314V41.7277Z" fill="#EB996E"/>
    <path d="M68.706 37.0991C68.6184 36.9771 68.5031 36.8796 68.3705 36.8153C68.2378 36.7509 68.0919 36.7218 67.9458 36.7305C67.8401 36.735 67.7363 36.7614 67.6405 36.8079C67.5446 36.8545 67.4586 36.9204 67.3874 37.0019C67.321 37.0803 67.2793 37.1781 67.2678 37.282C67.2564 37.3859 67.2758 37.4909 67.3235 37.583C67.3972 37.6757 67.4956 37.7438 67.6062 37.7788C67.7168 37.8138 67.8349 37.8143 67.9458 37.7801C68.1744 37.7094 68.3875 37.5929 68.5731 37.4371C68.6293 37.4007 68.6785 37.3539 68.7183 37.2988C68.7355 37.2719 68.7447 37.2403 68.7447 37.2079C68.7447 37.1756 68.7355 37.144 68.7183 37.1171" fill="#EB996E"/>
    <path d="M67.535 36.193C67.6113 36.193 67.5891 36.7255 68.027 37.1274C68.4649 37.5293 69.011 37.4986 69.011 37.5729C69.011 37.6061 68.8831 37.6701 68.6494 37.665C68.345 37.6526 68.054 37.5314 67.8253 37.322C67.6112 37.1249 67.4774 36.8502 67.4514 36.554C67.4342 36.3185 67.4981 36.1879 67.535 36.193Z" fill="#263238"/>
    <path d="M67.5695 30.6479C67.5031 30.7708 67.0406 30.6249 66.4748 30.5916C65.909 30.5583 65.4342 30.6351 65.3801 30.502C65.3579 30.4406 65.4539 30.3305 65.6556 30.246C65.9231 30.1304 66.213 30.0822 66.5018 30.1052C66.7914 30.121 67.0732 30.2088 67.3235 30.3612C67.5154 30.4636 67.6015 30.589 67.5695 30.6479Z" fill="#263238"/>
    <path d="M72.1377 30.7198C72.0492 30.8274 71.7244 30.6942 71.3284 30.6686C70.9323 30.643 70.5904 30.7045 70.519 30.5842C70.4871 30.5253 70.5461 30.4152 70.6962 30.3282C70.9009 30.2134 71.1332 30.1628 71.3649 30.1823C71.5967 30.2018 71.8181 30.2907 72.0024 30.4382C72.1377 30.556 72.1771 30.6738 72.1377 30.7198Z" fill="#263238"/>
    <path d="M68.3566 25.0878C68.1106 24.6501 67.6186 24.4581 67.107 24.3838C64.9766 24.092 62.6298 25.4693 61.4736 27.3534C60.3174 29.2376 60.3026 32.0254 61.2103 34.0478L62.0098 34.1784C63.6679 34.0427 66.3739 29.1761 68.6518 26.4728C68.9347 26.14 68.583 25.4769 68.3566 25.0878Z" fill="#263238"/>
    <path d="M72.4502 26.4678C71.5449 25.4438 70.0763 24.1792 68.246 24.9318C67.9828 25.4745 68.5437 26.1632 69.0062 26.56C69.6876 27.1462 70.2804 27.5379 70.7282 27.9552C71.631 28.8025 72.7577 30.2105 72.8733 31.7952C72.8733 31.895 72.9545 31.9078 73.0504 31.8899C73.1463 31.872 73.4465 31.2166 73.5793 30.3539C73.8548 28.5209 73.3579 27.5021 72.4502 26.4678Z" fill="#263238"/>
    <path d="M62.1402 31.288C62.0421 30.8645 61.85 30.4708 61.5793 30.1385C61.4025 29.9202 61.1932 29.7326 60.9594 29.583C60.5223 29.3231 60.029 29.1827 59.5257 29.1751C59.0223 29.1675 58.5253 29.2929 58.0812 29.5395C57.6438 29.7944 57.2638 30.1438 56.9668 30.5642C56.6698 30.9845 56.4626 31.4661 56.3592 31.9766C56.1896 32.7307 56.2649 33.522 56.5732 34.2269C56.8307 34.763 57.2248 35.2153 57.7123 35.5345C58.1999 35.8536 58.7623 36.0274 59.3382 36.0368C59.9144 36.0302 60.4795 35.871 60.9801 35.574C61.4807 35.277 61.9003 34.8521 62.1992 34.3395C62.6076 33.6176 62.492 32.3427 62.1402 31.288Z" fill="#263238"/>
    <path d="M62.519 33.1622C62.4698 33.1366 60.492 32.3661 60.4059 34.5165C60.3198 36.6669 62.4133 36.3085 62.4182 36.2522C62.4231 36.1958 62.519 33.1622 62.519 33.1622Z" fill="#FFBE9D"/>
    <path d="M61.8205 35.4095C61.8205 35.4095 61.7836 35.4351 61.7221 35.4607C61.6352 35.4966 61.5384 35.4966 61.4515 35.4607C61.2374 35.366 61.0677 34.9974 61.0726 34.6108C61.0743 34.4259 61.1163 34.2438 61.1956 34.0783C61.2178 34.0119 61.2551 33.952 61.3044 33.9039C61.3536 33.8557 61.4134 33.8207 61.4785 33.8018C61.5202 33.7925 61.5637 33.7986 61.6014 33.8192C61.6392 33.8398 61.6688 33.8735 61.6852 33.9145C61.7122 33.9759 61.6975 34.0169 61.7073 34.022C61.7171 34.0271 61.754 33.9887 61.7393 33.8991C61.7316 33.8447 61.7043 33.7953 61.663 33.7609C61.6081 33.7134 61.5374 33.6904 61.4662 33.6969C61.3809 33.7111 61.3004 33.7477 61.2324 33.8033C61.1644 33.8588 61.1111 33.9314 61.0775 34.0143C60.9828 34.1969 60.9321 34.4008 60.9299 34.6082C60.9299 35.0409 61.1218 35.4556 61.4219 35.5606C61.4769 35.5797 61.5353 35.5857 61.5927 35.5782C61.6502 35.5707 61.7054 35.5498 61.754 35.5171C61.8155 35.4607 61.8278 35.4147 61.8205 35.4095Z" fill="#EB996E"/>
    <path d="M72.8757 26.8979C72.6794 26.9541 72.4765 26.9816 72.273 26.9798C71.7846 27.0084 71.2947 26.9913 70.8093 26.9286C70.3253 26.8701 69.8471 26.7682 69.38 26.624C69.182 26.5749 68.9916 26.4974 68.8142 26.3936C69.0141 26.4251 69.2115 26.4721 69.4046 26.5344C69.875 26.6523 70.3513 26.7428 70.8314 26.8057C71.3116 26.8631 71.7945 26.893 72.2779 26.8953C72.4769 26.8795 72.6768 26.8804 72.8757 26.8979Z" fill="#455A64"/>
    <path d="M73.562 28.4415C73.421 28.5081 73.2689 28.5455 73.1143 28.5515C72.7412 28.5943 72.364 28.5735 71.9974 28.4901C71.6316 28.4063 71.2811 28.262 70.9593 28.0626C70.8198 27.9904 70.6959 27.8893 70.5952 27.7656C71.0461 28.0245 71.5262 28.224 72.0245 28.3595C72.532 28.4506 73.0482 28.4781 73.562 28.4415Z" fill="#455A64"/>
    <path d="M61.2103 28.0959C61.2103 28.0677 61.658 28.1496 62.3788 28.1292C62.8013 28.1172 63.2222 28.0727 63.6383 27.996C64.1459 27.8965 64.6464 27.7614 65.1365 27.5916C65.6259 27.4159 66.1041 27.2081 66.5682 26.9695C66.9456 26.772 67.3119 26.5523 67.6654 26.3116C68.2705 25.902 68.6075 25.5922 68.6248 25.6101C68.5558 25.6944 68.4792 25.7716 68.396 25.8405C68.3222 25.9122 68.2262 25.9941 68.1106 26.0965C67.995 26.1989 67.8646 26.2962 67.717 26.4012C67.3659 26.655 66.9994 26.885 66.6199 27.0898C66.1541 27.3368 65.6724 27.5498 65.1783 27.7272C64.6821 27.9005 64.1738 28.034 63.658 28.1266C63.236 28.1985 62.809 28.2344 62.3813 28.2341C62.217 28.2371 62.0528 28.2303 61.8893 28.2136C61.7655 28.2088 61.6422 28.1951 61.5203 28.1727C61.4149 28.1571 61.3111 28.1314 61.2103 28.0959Z" fill="#455A64"/>
    <path d="M68.487 26.3677C68.4423 26.4733 68.387 26.5737 68.3222 26.6673C68.2656 26.762 68.1943 26.8772 68.1033 27.0026C68.0123 27.1281 67.9163 27.2791 67.7884 27.4276C67.5054 27.7888 67.1953 28.1261 66.861 28.4362C66.4485 28.8126 66.0048 29.1501 65.535 29.4449C65.0598 29.7337 64.5599 29.9762 64.0418 30.1693C63.6191 30.3234 63.1846 30.4399 62.7429 30.5175C62.556 30.5585 62.3838 30.5713 62.2337 30.5892C62.1049 30.6078 61.9751 30.6181 61.845 30.6199C61.7345 30.6293 61.6235 30.6293 61.5129 30.6199C61.5129 30.5917 61.9853 30.5815 62.7257 30.4279C63.1596 30.3375 63.5864 30.2135 64.0025 30.0567C65.023 29.6698 65.9655 29.0891 66.7823 28.3441C67.1171 28.0432 67.4304 27.7172 67.7195 27.3687C68.2164 26.7645 68.4649 26.3498 68.487 26.3677Z" fill="#455A64"/>
    <path d="M67.1069 24.3915C67.2457 24.3632 67.3892 24.3738 67.5227 24.4222C67.8506 24.5196 68.145 24.7123 68.3714 24.9777C68.4364 25.0572 68.4941 25.1429 68.5436 25.2337C68.5867 25.315 68.6213 25.4008 68.6469 25.4897C68.6967 25.6365 68.7353 25.7872 68.7625 25.9403C68.7992 26.0839 68.7888 26.2361 68.733 26.3729C68.7109 26.3729 68.733 26.2065 68.674 25.9608C68.6353 25.8147 68.5885 25.6711 68.5337 25.5307C68.509 25.4471 68.4761 25.3665 68.4353 25.29C68.3889 25.2108 68.3353 25.1362 68.2754 25.0673C68.0627 24.819 67.795 24.6283 67.4956 24.5118C67.2644 24.4273 67.1069 24.4145 67.1069 24.3915Z" fill="#455A64"/>
    <path d="M61.6531 32.975C61.6334 32.975 61.6949 32.7523 61.7392 32.399C61.7946 31.938 61.7688 31.4704 61.663 31.0191C61.5507 30.5708 61.3364 30.1573 61.0381 29.8134C60.7921 29.5574 60.6199 29.4319 60.6347 29.4089C60.6494 29.3859 60.6863 29.4268 60.7724 29.4806C60.8912 29.5528 61.0018 29.6386 61.1021 29.7366C61.4344 30.077 61.6709 30.5054 61.786 30.9756C61.9 31.442 61.9143 31.9288 61.8278 32.4015C61.804 32.6023 61.7448 32.7967 61.6531 32.975Z" fill="#FF9902"/>
    <path d="M61.8082 32.512C61.7959 32.5299 61.5425 32.361 61.1071 32.1357C59.9716 31.5518 58.7177 31.2612 57.4515 31.2883C56.9595 31.2883 56.6692 31.3395 56.6643 31.3191C56.73 31.2897 56.7997 31.2716 56.8709 31.2653C57.0621 31.2294 57.2551 31.2054 57.449 31.1936C58.7322 31.1146 60.0109 31.4126 61.139 32.0538C61.3094 32.1485 61.4738 32.2545 61.631 32.3712C61.754 32.4455 61.8131 32.4941 61.8082 32.512Z" fill="#455A64"/>
    <path d="M59.9262 31.6465C59.9049 31.8641 59.8526 32.0772 59.7712 32.2788C59.6 32.7739 59.3676 33.2438 59.0799 33.6766C58.7911 34.1089 58.4486 34.4997 58.0615 34.8388C57.9093 34.989 57.7359 35.1142 57.5474 35.21C58.0771 34.7281 58.5555 34.1882 58.9742 33.5998C59.3572 32.9857 59.6764 32.3309 59.9262 31.6465Z" fill="#455A64"/>
    <path d="M61.2866 35.8244C61.3014 35.7835 61.3752 35.7579 61.4982 35.7912C61.6762 35.8474 61.8294 35.967 61.9311 36.1291C62.0677 36.3421 62.1206 36.6015 62.0789 36.8539C62.0373 37.1063 61.9043 37.3324 61.7073 37.4859C61.5421 37.6089 61.3453 37.6776 61.1423 37.683C60.9393 37.6885 60.7394 37.6305 60.5683 37.5166C60.4172 37.4139 60.2937 37.2729 60.2091 37.107C60.1312 36.9568 60.0907 36.7887 60.0911 36.618C60.096 36.48 60.1269 36.3443 60.1821 36.2187C60.2518 36.0339 60.3876 35.8843 60.5609 35.8014C60.6913 35.7502 60.77 35.786 60.7799 35.827C60.7946 35.9192 60.6396 36.042 60.615 36.3569C60.6039 36.4333 60.6039 36.511 60.615 36.5873C60.6346 36.662 60.6671 36.7322 60.711 36.7947C60.7562 36.8633 60.8167 36.9195 60.8875 36.9583C60.9582 36.9971 61.0369 37.0174 61.1169 37.0174C61.1926 37.0187 61.2671 36.9977 61.332 36.957C61.3968 36.9162 61.4493 36.8573 61.4834 36.787C61.5513 36.6513 61.5663 36.4936 61.5252 36.3467C61.4514 36.0625 61.262 35.9115 61.2866 35.8244Z" fill="#455A64"/>
    <path d="M63.3801 32.4222C63.8015 32.3911 64.2186 32.3147 64.6249 32.1944C65.5947 31.8584 66.4496 31.2357 67.0849 30.4024C67.7076 29.5606 68.1748 28.6057 68.4625 27.5864C68.5806 27.1947 68.6617 26.8747 68.7085 26.6546C68.7293 26.5374 68.7606 26.4226 68.802 26.3115C68.7973 26.4306 68.7816 26.5489 68.7552 26.6648C68.7183 26.8901 68.6494 27.2152 68.5437 27.612C68.2764 28.6556 67.8113 29.633 67.1759 30.4869C66.5269 31.3371 65.645 31.962 64.647 32.2789C64.3453 32.3706 64.0338 32.4231 63.7196 32.435C63.6377 32.4392 63.5556 32.4392 63.4736 32.435C63.4121 32.4299 63.3801 32.4274 63.3801 32.4222Z" fill="#263238"/>
    <path d="M68.4822 43.6197C68.5274 43.633 68.5699 43.6547 68.6076 43.6837C68.7195 43.7612 68.8183 43.8571 68.9004 43.9679C69.0304 44.1443 69.1227 44.3477 69.171 44.5643C69.2394 44.8521 69.2317 45.1537 69.1488 45.4373C69.0267 45.7999 68.8278 46.1292 68.5667 46.4008C68.3057 46.6725 67.9892 46.8795 67.6408 47.0066C67.2385 47.1659 66.8188 47.2725 66.3912 47.324C65.9346 47.3869 65.4735 47.4057 65.0136 47.3803C64.1166 47.3473 63.2451 47.0616 62.4921 46.5535C61.8756 46.1353 61.394 45.5342 61.1095 44.828C60.9995 44.5576 60.9434 44.2667 60.9447 43.973C60.9475 43.7492 61.005 43.5298 61.112 43.3355C61.179 43.2136 61.2695 43.1073 61.3777 43.0232C61.4138 42.9933 61.4546 42.9699 61.4982 42.9541C61.3566 43.0617 61.2398 43.2007 61.1563 43.3611C61.0614 43.5498 61.0132 43.7601 61.0161 43.973C61.0238 44.2562 61.0839 44.5352 61.1932 44.7947C61.4822 45.4743 61.957 46.0504 62.5585 46.4511C63.296 46.9391 64.1451 47.2139 65.0185 47.2472C65.4709 47.2721 65.9246 47.2541 66.3739 47.1935C66.7946 47.1473 67.2079 47.0458 67.6039 46.8914C67.9406 46.7753 68.248 46.5821 68.5035 46.326C68.7589 46.07 68.9559 45.7575 69.0799 45.4117C69.1514 45.1756 69.1704 44.9258 69.1354 44.681C69.1005 44.4362 69.0125 44.2028 68.8782 43.9986C68.7669 43.8507 68.6332 43.7227 68.4822 43.6197Z" fill="#263238"/>
    <path d="M63.0701 46.9376C63.0321 46.7251 63.0754 46.5056 63.1906 46.3258C63.348 46.0083 63.5867 45.8471 63.6063 45.8752C63.626 45.9034 63.4464 46.0979 63.3038 46.3872C63.1611 46.6765 63.107 46.9427 63.0701 46.9376Z" fill="#263238"/>
    <path d="M65.3776 47.3933C65.3229 47.2201 65.3086 47.0358 65.3358 46.8557C65.3358 46.5613 65.3825 46.3232 65.4194 46.3232C65.4743 46.4964 65.4894 46.6805 65.4637 46.8608C65.444 47.1552 65.4145 47.3933 65.3776 47.3933Z" fill="#263238"/>
    <path d="M67.6949 47.0371C67.5341 46.6629 67.4543 46.2565 67.4612 45.8467C67.5604 46.0248 67.6217 46.2229 67.6408 46.4278C67.6999 46.6246 67.7184 46.8323 67.6949 47.0371Z" fill="#263238"/>
    <path d="M69.0479 45.501C69.0159 45.519 68.92 45.3858 68.7601 45.2783C68.6002 45.1708 68.4476 45.1247 68.4501 45.0863C68.4526 45.0479 68.642 45.0351 68.8314 45.1657C69.0208 45.2962 69.0799 45.4882 69.0479 45.501Z" fill="#263238"/>
    <path d="M61.8475 44.5441C61.8475 44.5799 61.7171 44.6285 61.5867 44.7412C61.4563 44.8538 61.3751 44.9741 61.3407 44.9613C61.3063 44.9485 61.3407 44.7693 61.5055 44.6362C61.6703 44.5031 61.845 44.5108 61.8475 44.5441Z" fill="#263238"/>
    <path d="M65.8942 61.6752C65.811 61.671 65.7301 61.6459 65.6582 61.6021C65.5864 61.5583 65.5258 61.4971 65.4816 61.4237C65.4374 61.3503 65.4109 61.2669 65.4043 61.1805C65.3978 61.0941 65.4114 61.0074 65.444 60.9277C66.1082 59.3712 67.9212 56.376 68.0393 56.1814C68.2115 55.9101 68.3025 55.5747 68.8535 55.5056C69.0651 55.48 72.3861 55.4006 73.1659 55.3827C73.2289 55.3801 73.2918 55.3906 73.3509 55.4134C73.41 55.4363 73.4642 55.4711 73.5103 55.5158C73.6653 55.6694 73.8277 55.9613 73.5817 56.4195C73.3061 56.9315 71.2988 60.175 70.4845 61.4243C70.405 61.5459 70.2972 61.6447 70.1712 61.7114C70.0452 61.7781 69.905 61.8105 69.7637 61.8057L65.8942 61.6752Z" fill="#263238"/>
    <path d="M71.0184 56.4988C70.9866 56.4599 70.9443 56.4317 70.8969 56.418C70.8496 56.4043 70.7993 56.4057 70.7527 56.422C70.6634 56.4525 70.5829 56.5063 70.5191 56.5782C70.4815 56.6102 70.4561 56.6549 70.4471 56.7045C70.4381 56.7542 70.4461 56.8055 70.4698 56.8495C70.4978 56.8813 70.5329 56.9052 70.572 56.919C70.6111 56.9329 70.653 56.9363 70.6937 56.9289C70.7986 56.9224 70.8976 56.8759 70.9717 56.7983C71.0073 56.7589 71.0307 56.7094 71.0391 56.656C71.0474 56.6026 71.0402 56.5479 71.0184 56.4988Z" fill="white"/>
    <path d="M72.7256 57.2032C72.7592 57.099 72.8029 56.9987 72.856 56.9037C72.9052 56.8039 72.9593 56.6887 73.0233 56.5632C73.0577 56.4967 73.0922 56.425 73.1291 56.3507C73.1742 56.2829 73.2029 56.2047 73.2127 56.1229C73.214 56.0812 73.2055 56.0398 73.1879 56.0024C73.1704 55.9649 73.1442 55.9324 73.1119 55.9079C73.0735 55.8825 73.0307 55.8654 72.9859 55.8575C72.9412 55.8496 72.8953 55.8511 72.8511 55.8618L72.1721 55.8899L70.6199 55.9463L69.0652 55.9949H68.893C68.8465 55.999 68.8022 56.0168 68.765 56.0461C68.6972 56.1244 68.6378 56.2103 68.5879 56.3021C68.4748 56.4864 68.369 56.6605 68.2681 56.8141L67.8007 57.5591C67.7471 57.6509 67.6844 57.7367 67.6138 57.8151C67.6516 57.7125 67.7003 57.6146 67.7589 57.5232L68.1919 56.7552L68.4969 56.2279L68.5805 56.0845C68.6095 56.0277 68.6478 55.9766 68.6937 55.9335C68.7467 55.8872 68.8119 55.8587 68.8807 55.8515H69.0627L70.61 55.808L72.1648 55.7619L72.8413 55.7466C72.9554 55.7269 73.0725 55.7535 73.1684 55.8208C73.2113 55.8566 73.2454 55.9023 73.268 55.9544C73.2907 56.0064 73.3012 56.0633 73.2988 56.1203C73.2966 56.1734 73.2823 56.2252 73.257 56.2714L73.1955 56.3866L73.0799 56.5939C73.011 56.7168 72.9495 56.8269 72.8929 56.9242C72.8474 57.0234 72.7913 57.117 72.7256 57.2032Z" fill="#455A64"/>
    <path d="M78.2853 56.8141C78.2853 56.8141 77.9483 59.2512 77.6039 60.818C77.2964 62.2132 76.8068 66.9287 75.5621 67.5226C74.3173 68.1165 72.765 67.7453 72.1919 66.5959C71.6187 65.4465 71.0037 62.3872 71.0037 62.3872L68.3961 61.2455C68.3961 61.2455 67.7958 58.9696 68.1378 58.7136C68.4797 58.4576 71.845 58.8416 71.845 58.8416L72.7478 58.6292C72.7478 58.6292 71.3112 58.4141 71.0037 58.3296C70.9338 58.3192 70.8667 58.2941 70.8064 58.2559C70.7462 58.2176 70.694 58.1671 70.653 58.1072C70.6121 58.0474 70.5833 57.9795 70.5683 57.9077C70.5533 57.836 70.5524 57.7618 70.5658 57.6896C70.6371 57.3901 70.6962 57.0906 71.4735 57.0906C72.2509 57.0906 73.4711 56.9703 73.6875 57.0496C73.9631 57.1469 74.273 57.3056 74.3345 58.0301C74.396 58.7546 74.0688 60.0781 74.0688 60.0781L74.1402 60.1908L74.6002 56.6631L78.2853 56.8141Z" fill="#FFBE9D"/>
    <path d="M73.9065 61.0226C73.8413 61.0642 73.7697 61.0937 73.6949 61.1097C73.499 61.1781 73.2994 61.2346 73.0971 61.2786C72.4294 61.4299 71.7447 61.4841 71.0627 61.4399C70.3795 61.3943 69.7069 61.2416 69.0676 60.9868C68.8739 60.9144 68.6848 60.8289 68.5018 60.7308C68.4317 60.6999 68.3662 60.6585 68.3075 60.6079C68.3075 60.5874 68.6076 60.7308 69.0996 60.9049C69.7364 61.1269 70.3977 61.2637 71.0676 61.3119C71.7376 61.3506 72.4096 61.3076 73.0701 61.1839C73.5916 61.0918 73.9015 61.0021 73.9065 61.0226Z" fill="#EB996E"/>
    <path d="M73.412 60.0448C73.3452 60.0788 73.2739 60.1021 73.2004 60.1139C73.0627 60.1498 72.861 60.1958 72.61 60.2394C71.9518 60.3542 71.282 60.38 70.6174 60.3162C69.9503 60.2498 69.301 60.0536 68.7036 59.7376C68.5237 59.6415 68.3517 59.5302 68.1894 59.4048C68.0763 59.3152 68.0172 59.2589 68.0221 59.2512C68.0271 59.2435 68.2878 59.4304 68.7429 59.6531C69.3403 59.937 69.9787 60.1161 70.6322 60.183C71.2876 60.2454 71.9475 60.2325 72.6002 60.1446C73.0996 60.0832 73.4095 60.0243 73.412 60.0448Z" fill="#EB996E"/>
    <path d="M74.2263 57.5283C74.241 57.5283 74.2878 57.6486 74.2755 57.856C74.2718 57.9826 74.2389 58.1064 74.1795 58.217C74.1383 58.2844 74.0805 58.3391 74.0122 58.3757C73.9466 58.4144 73.8774 58.4462 73.8056 58.4704C73.5622 58.549 73.3099 58.5938 73.0553 58.6035C72.9534 58.6185 72.8507 58.6271 72.7478 58.6291C72.7478 58.6112 72.8511 58.5472 73.043 58.5114C73.2873 58.4726 73.5289 58.417 73.7662 58.345C73.8869 58.3127 73.9962 58.2452 74.0811 58.1504C74.1353 58.0571 74.1712 57.9536 74.1869 57.8458C74.1934 57.7392 74.2065 57.6331 74.2263 57.5283Z" fill="#EB996E"/>
    <path d="M72.9864 61.6294C73.0183 61.6985 73.0348 61.7742 73.0348 61.8508C73.0348 61.9275 73.0183 62.0032 72.9864 62.0723C72.9354 62.2316 72.8446 62.3738 72.7232 62.4844C72.574 62.619 72.3917 62.7077 72.1967 62.7404C72.0053 62.7749 71.809 62.7662 71.6211 62.7148C71.4724 62.6708 71.3289 62.6098 71.1931 62.5331C71.0643 62.4748 70.9422 62.4018 70.829 62.3155C70.9696 62.3313 71.1058 62.3756 71.23 62.446C71.5219 62.5981 71.851 62.6552 72.1746 62.6099C72.3471 62.5813 72.5097 62.5073 72.6469 62.3948C72.7539 62.2993 72.8381 62.1793 72.8929 62.0441C72.9424 61.9111 72.9739 61.7715 72.9864 61.6294Z" fill="#EB996E"/>
    <path d="M74.0712 57.2822C74.0712 57.2822 74.0884 57.2822 74.118 57.3104C74.1598 57.3459 74.1948 57.3894 74.2213 57.4384C74.3134 57.6211 74.3639 57.8235 74.3689 58.0297C74.3832 58.728 74.3003 59.4247 74.1229 60.0982V60.0624C74.2495 60.412 74.405 60.7495 74.5878 61.071C74.8409 61.5177 75.1237 61.9454 75.434 62.351C75.7167 62.6686 75.9642 63.018 76.172 63.393C76.3008 63.6623 76.3263 63.9726 76.2434 64.2608C76.2184 64.3376 76.1809 64.4095 76.1327 64.4733C76.1007 64.5142 76.0786 64.5322 76.0761 64.5296C76.1236 64.4387 76.1631 64.3436 76.1942 64.2454C76.255 63.9708 76.2183 63.6826 76.0909 63.4339C75.8775 63.0739 75.6303 62.7369 75.3529 62.4278C75.0334 62.0246 74.744 61.5967 74.487 61.1478C74.3014 60.8217 74.1442 60.479 74.0171 60.1238V60.1033V60.0854C74.1923 59.422 74.2865 58.7382 74.2975 58.0502C74.2988 57.8537 74.2628 57.6589 74.1917 57.4768C74.1554 57.4095 74.1151 57.3445 74.0712 57.2822Z" fill="#EB996E"/>
    <path d="M51.0505 61.8368C51.0505 61.8368 50.6692 67.2793 53.1022 68.1907C56.4551 69.4502 60.278 65.9737 60.2927 65.9174C60.3075 65.8611 64.3616 62.464 64.3616 62.464L63.0996 58.8467C63.0996 58.8467 62.5928 58.8467 61.7737 59.456C61.476 59.6761 56.7774 62.254 56.7774 62.254C56.7774 62.254 54.7258 62.2361 51.0505 61.8368Z" fill="#FFBE9D"/>
    <path d="M56.9472 62.1719C56.9644 62.2128 56.0788 62.5866 55.0087 63.0858C54.4749 63.3418 54.005 63.5978 53.668 63.7821C53.4923 63.8978 53.308 63.9988 53.1169 64.0842C53.2685 63.9342 53.438 63.8051 53.6212 63.7002C54.0509 63.4258 54.4971 63.1803 54.957 62.9655C55.4933 62.7095 55.9902 62.5098 56.3518 62.3716C56.5436 62.2852 56.743 62.2183 56.9472 62.1719Z" fill="#EB996E"/>
    <path d="M67.5941 56.8752C67.5941 56.8752 66.9594 55.9408 66.7085 55.9434C66.4576 55.9459 64.9447 56.1994 64.9447 56.1994L62.807 58.6237C62.807 58.6237 62.6594 59.4096 63.1218 59.6938C63.1218 59.6938 62.9669 60.9302 63.5376 61.2861C63.5376 61.2861 63.9632 62.4483 64.3617 62.4714C64.5303 62.4871 64.6998 62.4871 64.8684 62.4714C64.8684 62.4714 64.7823 63.1702 65.39 63.2138C65.9925 63.2043 66.5933 63.1418 67.1857 63.0269C67.2733 63.0116 67.3571 62.9784 67.4323 62.9292C67.5075 62.88 67.5725 62.8157 67.6236 62.7402L68.1452 61.9722C68.2274 61.8532 68.2717 61.7104 68.2717 61.5638C68.2717 61.4173 68.2274 61.2745 68.1452 61.1555C68.2822 60.9865 68.3889 60.7931 68.46 60.5846C68.4944 60.3428 68.4944 60.0969 68.46 59.855C68.46 59.855 69.3628 59.0589 69.385 58.8515C69.4071 58.6442 69.3629 58.4445 68.9643 58.4675C68.9643 58.4675 68.8807 57.825 68.3764 57.8403C67.8721 57.8557 65.4834 57.8403 65.4834 57.8403L65.9385 57.3795C65.9385 57.3795 67.1267 57.8506 67.2522 57.5382L67.5941 56.8752Z" fill="#FFBE9D"/>
    <path d="M64.1648 59.6604C64.2935 59.6409 64.4234 59.6315 64.5535 59.6322C64.7995 59.6169 65.1636 59.5938 65.6113 59.5401C66.1385 59.475 66.6617 59.3784 67.1783 59.2508C67.471 59.1766 67.7761 59.0895 68.091 58.9948C68.4038 58.8696 68.6861 58.6737 68.9175 58.4214L68.9323 58.4086H68.9495C69.0665 58.3792 69.1896 58.3918 69.2988 58.4444C69.3575 58.4829 69.4011 58.5419 69.4218 58.6108C69.4385 58.6715 69.446 58.7346 69.444 58.7977C69.4475 58.8257 69.4475 58.8541 69.444 58.8822C69.4379 58.916 69.4253 58.9482 69.4071 58.9769C69.3795 59.0216 69.3491 59.0644 69.316 59.1049C69.2545 59.1817 69.1857 59.2534 69.1192 59.325C68.9839 59.4658 68.8486 59.5964 68.7109 59.7218C68.2387 60.1135 67.7459 60.4776 67.2349 60.8124C66.8172 61.0743 66.3542 61.2483 65.872 61.3244C65.5533 61.3747 65.2285 61.366 64.9126 61.2988C64.8289 61.2808 64.7467 61.2559 64.6666 61.2246C64.6377 61.2167 64.6102 61.2037 64.5855 61.1862C65.0027 61.2972 65.4377 61.3155 65.8622 61.2399C66.3294 61.1566 66.7775 60.983 67.1832 60.7279C67.6482 60.4386 68.118 60.0367 68.6371 59.6297C68.7724 59.5042 68.9077 59.3737 69.0381 59.2354C69.1045 59.1663 69.1684 59.0972 69.2275 59.023C69.2865 58.9487 69.2841 58.9487 69.3087 58.9129C69.3333 58.877 69.3283 58.8719 69.3283 58.8694C69.3309 58.8473 69.3309 58.8249 69.3283 58.8028C69.3283 58.6953 69.3111 58.6006 69.2447 58.5647C69.1622 58.5289 69.0707 58.5217 68.9839 58.5442L69.0184 58.5289C68.889 58.6551 68.7518 58.7722 68.6076 58.8796C68.4688 58.9951 68.3102 59.082 68.1402 59.1356C67.8228 59.238 67.5129 59.3225 67.2152 59.3916C66.6939 59.5132 66.1655 59.5987 65.6334 59.6476C65.1808 59.6937 64.8167 59.7014 64.5658 59.7014C64.4403 59.7014 64.3444 59.7014 64.278 59.7014C64.2385 59.6936 64.2004 59.6798 64.1648 59.6604Z" fill="#EB996E"/>
    <path d="M68.4576 59.8501C68.4957 59.9758 68.5132 60.1074 68.5092 60.2392C68.5092 60.3007 68.5092 60.3698 68.5092 60.4466C68.5092 60.485 68.5092 60.5234 68.5092 60.5643C68.5057 60.6109 68.4931 60.6561 68.4723 60.6975C68.4366 60.7855 68.3956 60.871 68.3493 60.9535L68.2755 61.0815L68.2362 61.1455C68.2288 61.1596 68.2206 61.1733 68.2116 61.1864L68.1943 61.2018C68.182 61.2018 68.1943 61.2197 68.1353 61.2018C68.1241 61.1944 68.1158 61.1832 68.1118 61.1701C68.1077 61.157 68.1082 61.1429 68.1132 61.1301C68.1123 61.1259 68.1123 61.1215 68.1132 61.1173L68.1255 61.0994L68.2239 61.1608C68.063 61.4652 67.8505 61.7366 67.5966 61.9621C67.169 62.3453 66.6342 62.5751 66.0714 62.6175C65.9073 62.6301 65.7424 62.6249 65.5794 62.6021C65.5176 62.5979 65.457 62.5832 65.3998 62.5586C65.3998 62.533 65.6605 62.5791 66.0738 62.5253C66.6097 62.4557 67.1143 62.2243 67.5252 61.8597C67.7673 61.6406 67.9727 61.381 68.1328 61.0917L68.2337 61.1531C68.3882 60.7378 68.4642 60.2954 68.4576 59.8501Z" fill="#EB996E"/>
    <path d="M65.9925 57.3948C65.9925 57.4255 65.7465 57.3308 65.626 57.0338C65.5838 56.9114 65.5769 56.7788 65.6063 56.6524C65.6309 56.5577 65.6654 56.5065 65.6801 56.5116C65.6949 56.5167 65.6604 56.7497 65.7465 56.9877C65.8326 57.2258 66.0171 57.3615 65.9925 57.3948Z" fill="#EB996E"/>
    <path d="M64.9224 62.4866C64.8642 62.5188 64.7989 62.5346 64.733 62.5327C64.5536 62.5464 64.3738 62.5111 64.2115 62.4303C63.9651 62.309 63.7712 62.0963 63.6678 61.8338C63.6088 61.6808 63.5787 61.5174 63.5793 61.3525C63.5794 61.3194 63.5721 61.2866 63.558 61.2569C63.5439 61.2271 63.5234 61.2012 63.4981 61.181C63.3664 61.0908 63.2583 60.968 63.1831 60.8238C63.108 60.6795 63.0684 60.5182 63.0676 60.3541C63.0571 60.1516 63.0645 59.9485 63.0897 59.7474L63.1168 59.8037C62.9864 59.7171 62.8798 59.5969 62.8074 59.4546C62.735 59.3124 62.6992 59.1531 62.7035 58.9922C62.6961 58.8713 62.7301 58.7516 62.7995 58.6543C62.7828 58.7653 62.7729 58.8773 62.7699 58.9897C62.7757 59.134 62.8156 59.2747 62.8859 59.3992C62.9563 59.5238 63.055 59.6284 63.1734 59.7039L63.2029 59.7218V59.7577C63.1867 59.9527 63.1867 60.1488 63.2029 60.3439C63.2154 60.5531 63.2892 60.7532 63.4145 60.9173C63.4673 60.9781 63.5267 61.0322 63.5916 61.0786C63.6288 61.1095 63.6592 61.1484 63.6809 61.1925C63.7025 61.2367 63.7148 61.2851 63.717 61.3346C63.7138 61.4864 63.738 61.6375 63.7884 61.7801C63.8774 62.0192 64.0459 62.2172 64.2632 62.3381C64.4686 62.441 64.6945 62.4919 64.9224 62.4866Z" fill="#EB996E"/>
    <g opacity="0.3">
        <path d="M58.3888 55.1704C58.101 57.8866 57.6951 59.9602 57.0825 61.8264C57.9423 61.0686 58.5102 60.0132 58.6815 58.8542C58.8439 57.7099 58.5856 56.3198 58.3888 55.1704Z" fill="black"/>
    </g>
    <g opacity="0.3">
        <path d="M75.1463 53.6781C75.05 52.7144 74.8179 51.7708 74.4575 50.8774C74.8437 52.7975 74.8879 54.775 74.5879 56.7117L74.6765 56.5043C75.0783 55.6246 75.2408 54.6471 75.1463 53.6781Z" fill="black"/>
    </g>
</svg>