<svg xmlns="http://www.w3.org/2000/svg" width="525" height="197">
    <defs>
        <linearGradient id="a" x1="4.67841454%" x2="95.3266638%" y1="95.3266638%" y2="4.67333621%">
            <stop offset="3%" stop-color="#E3372E"/>
            <stop offset="21%" stop-color="#E76332"/>
            <stop offset="44%" stop-color="#EF8E34"/>
            <stop offset="51%" stop-color="#F4A421"/>
            <stop offset="59%" stop-color="#F8B612"/>
            <stop offset="68%" stop-color="#FBC209"/>
            <stop offset="77%" stop-color="#FCC606"/>
            <stop offset="100%" stop-color="#FFEA26"/>
        </linearGradient>
    </defs>
    <g fill="none" fill-rule="nonzero">
        <path fill="#010101" d="M215.3725 59.41h6.78v15.21h12.97V59.41h6.78v37.92h-6.78v-16.8h-12.97v16.8h-6.78V59.41zM257.8125 59.41h24.32v5.67h-17.57v9.7h14.88v5.67h-14.88v11.21h18.15v5.67h-24.9zM305.8725 59.41h7.95l12.29 37.92h-7.18l-5.7-20.16c-1.14-4-2.35-8.3-3.39-12.5h-.23c-1.07 4.2-2.2 8.5-3.35 12.5l-5.78 20.16h-6.91l12.29-37.92h.01Zm-4.99 22.35h17.78v5.33h-17.78v-5.33ZM340.0125 59.41h6.71v32.25h17.79v5.67h-24.5zM380.9825 65.08h-11.95v-5.67h30.64v5.67h-11.95v32.25h-6.75V65.08zM411.6925 59.41h6.78v15.21h12.97V59.41h6.78v37.92h-6.78v-16.8h-12.97v16.8h-6.78V59.41zM456.0025 75.77h25.84v4.83h-25.84zM505.3525 77.77l-10.49-18.37h7.5l4.48 8.39c.94 1.74 1.81 3.5 2.99 5.82h.23c.98-2.33 1.78-4.08 2.64-5.82l4.28-8.39h7.19l-10.49 18.68 11.2 19.24h-7.54l-4.88-8.93c-1.04-1.94-2.02-3.87-3.19-6.19h-.23c-1.02 2.32-1.96 4.26-2.93 6.19l-4.79 8.93h-7.18l11.2-19.56.01.01Z"/>
        <path fill="#F09005" d="M214.3325 132.74c0-9.29 6.07-14.98 12.53-14.98 3.26 0 5.63 1.23 7.85 3.34h.16l-.32-4.8v-10.31h6.71v40.96h-5.48l-.51-3.33h-.2c-2.21 2.23-5.39 4.03-8.58 4.03-7.33 0-12.16-5.51-12.16-14.9v-.01Zm20.22 5.94v-12.8c-2.04-1.89-4.02-2.57-6.07-2.57-3.98 0-7.28 3.4-7.28 9.35 0 5.95 2.6 9.43 6.91 9.43 2.36 0 4.46-1.05 6.44-3.41ZM255.9325 139.3c0-6.39 5.62-9.57 19.69-10.56-.24-3.19-2.14-5.59-6.78-5.59-3.21 0-6.38 1.4-9.31 3.02l-2.49-4.44c3.45-2.07 8.12-3.97 13.03-3.97 7.91 0 12.25 4.39 12.25 12.32v16.86h-5.51l-.51-3.53h-.2c-2.99 2.31-6.82 4.23-10.63 4.23-5.56 0-9.54-3.41-9.54-8.34Zm19.68-.38v-5.99c-10.23.67-13.19 2.77-13.19 5.85 0 2.51 2.22 3.59 5.04 3.59s5.51-1.34 8.15-3.45ZM303.4625 135.49v-11.72h-7.62v-5l7.9-.31.87-8.92h5.56v8.92h12.95v5.31h-12.95v11.7c0 4.71 1.77 6.83 6.58 6.83 2.38 0 4.34-.48 6.2-1.15l1.3 4.88c-2.55.84-5.43 1.62-9.11 1.62-8.7 0-11.67-4.89-11.67-12.15l-.01-.01ZM337.1425 139.3c0-6.39 5.62-9.57 19.69-10.56-.24-3.19-2.14-5.59-6.78-5.59-3.21 0-6.38 1.4-9.31 3.02l-2.49-4.44c3.45-2.07 8.12-3.97 13.03-3.97 7.91 0 12.25 4.39 12.25 12.32v16.86h-5.51l-.51-3.53h-.2c-2.99 2.31-6.82 4.23-10.63 4.23-5.56 0-9.54-3.41-9.54-8.34Zm19.69-.38v-5.99c-10.23.67-13.19 2.77-13.19 5.85 0 2.51 2.22 3.59 5.04 3.59s5.51-1.34 8.15-3.45ZM380.6225 109.02h6.71v32.25h17.79v5.67h-24.5v-37.92zM413.4025 127.81c0-12.47 6.12-19.48 14.91-19.48s14.91 7.02 14.91 19.48-6.12 19.83-14.91 19.83-14.91-7.13-14.91-19.83Zm22.89 0c0-8.7-3.15-13.61-7.97-13.61s-7.97 4.92-7.97 13.61 3.15 13.96 7.97 13.96 7.97-5.03 7.97-13.96ZM458.4025 109.02h24.27v5.67h-17.52v10.75h14.89v5.67h-14.89v15.82h-6.74v-37.92zM506.1525 114.7h-11.95v-5.67h30.64v5.67h-11.95v32.25h-6.75V114.7z"/>
        <g transform="translate(0 -.0025)">
            <path fill="url(#a)" d="M187.7125 187.7125c12.27-12.27 12.27-32.35 0-44.63l-22.31-22.31c-12.27-12.27-12.27-32.35 0-44.63l22.31-22.31c12.27-12.27 12.27-32.35 0-44.63-12.27-12.27-32.35-12.27-44.63 0l-22.31 22.31c-12.27 12.27-32.35 12.27-44.63 0l-22.31-22.31c-12.27-12.27-32.35-12.27-44.63 0-12.27 12.27-12.27 32.35 0 44.63l22.31 22.31c12.27 12.27 12.27 32.35 0 44.63l-22.31 22.31c-12.27 12.27-12.27 32.35 0 44.63 12.27 12.27 32.35 12.27 44.63 0l22.31-22.31c12.27-12.27 32.35-12.27 44.63 0l22.31 22.31c12.27 12.27 32.35 12.27 44.63 0Z"/>
            <circle cx="98.4625" cy="60.2925" r="13" fill="#FFF"/>
            <path fill="#FFF" d="M145.8625 145.6925c2.61-2.61 2.61-6.87 0-9.48l-33.18-33.18c-2.61-2.61-2.61-6.87 0-9.48l22.18-22.18c2.61-2.61 2.61-6.87 0-9.48-2.61-2.61-6.87-2.61-9.48 0l-22.18 22.18c-2.61 2.61-6.87 2.61-9.48 0l-22.18-22.18c-2.61-2.61-6.87-2.61-9.48 0-2.61 2.61-2.61 6.87 0 9.48l22.18 22.18c2.61 2.61 2.61 6.87 0 9.48l-33.18 33.18c-2.61 2.61-2.61 6.87 0 9.48 2.61 2.61 6.87 2.61 9.48 0l33.18-33.18c2.61-2.61 6.87-2.61 9.48 0l33.18 33.18c2.61 2.61 6.87 2.61 9.48 0Z"/>
        </g>
    </g>
</svg>
