<svg width="300" height="300" viewBox="0 0 300 300" fill="none" xmlns="http://www.w3.org/2000/svg">
<path d="M45.51 44.7961C40.1989 46.9778 35.97 51.177 33.7507 56.4726C31.5315 61.7681 31.5032 67.7276 33.672 73.044L47.118 105.864L53.118 103.398L39.678 70.5721C38.1567 66.8564 38.1738 62.6885 39.7254 58.9854C41.2771 55.2824 44.2363 52.3473 47.952 50.826C51.6677 49.3048 55.8355 49.3218 59.5386 50.8735C63.2417 52.4252 66.1767 55.3844 67.698 59.1L73.728 56.628C71.5474 51.3234 67.353 47.0993 62.0637 44.8815C56.7745 42.6637 50.8218 42.633 45.51 44.7961Z" fill="#FF9902"/>
<g opacity="0.3">
<path d="M45.51 44.7961C40.1989 46.9778 35.97 51.177 33.7507 56.4726C31.5315 61.7681 31.5032 67.7276 33.672 73.044L47.118 105.864L53.118 103.398L39.678 70.5721C38.1567 66.8564 38.1738 62.6885 39.7254 58.9854C41.2771 55.2824 44.2363 52.3473 47.952 50.826C51.6677 49.3048 55.8355 49.3218 59.5386 50.8735C63.2417 52.4252 66.1767 55.3844 67.698 59.1L73.728 56.628C71.5474 51.3234 67.353 47.0993 62.0637 44.8815C56.7745 42.6637 50.8218 42.633 45.51 44.7961Z" fill="black"/>
</g>
<path d="M84.9689 73.3139L37.401 92.7938C35.6194 93.5234 34.7665 95.5592 35.4961 97.3408L47.0472 125.547C47.7768 127.329 49.8126 128.182 51.5943 127.452L99.1621 107.972C100.944 107.243 101.797 105.207 101.067 103.425L89.5159 75.2187C88.7863 73.4371 86.7505 72.5842 84.9689 73.3139Z" fill="#FF9902"/>
<g opacity="0.5">
<path d="M70.938 94.02C70.597 93.1781 70.0278 92.4481 69.2943 91.9122C68.5608 91.3764 67.6923 91.0559 66.7866 90.9871C65.8808 90.9182 64.9738 91.1036 64.1678 91.5224C63.3617 91.9412 62.6886 92.5767 62.2242 93.3574C61.7599 94.1381 61.5227 95.0329 61.5395 95.9412C61.5563 96.8494 61.8264 97.7348 62.3192 98.4978C62.8121 99.2609 63.5082 99.8711 64.3292 100.26C65.1502 100.649 66.0634 100.8 66.966 100.698L69.726 107.448L72.192 106.44L69.426 99.69C70.2615 99.0388 70.8614 98.1325 71.1343 97.109C71.4073 96.0854 71.3383 95.0007 70.938 94.02Z" fill="black"/>
</g>
<path d="M49.896 124.308C49.77 124.362 47.304 118.62 44.388 111.492C41.472 104.364 39.198 98.544 39.324 98.49C39.45 98.436 41.916 104.178 44.832 111.312C47.748 118.446 50.016 124.26 49.896 124.308Z" fill="#FAFAFA"/>
<path d="M65.256 103.11C65.0365 103.125 64.8163 103.097 64.608 103.026C64.0256 102.871 63.4696 102.63 62.958 102.312C62.0896 101.8 61.3454 101.102 60.7787 100.269C60.212 99.4351 59.8368 98.4864 59.6802 97.4906C59.5237 96.4949 59.5895 95.4768 59.873 94.5095C60.1565 93.5422 60.6506 92.6497 61.32 91.896C61.7034 91.4269 62.1591 91.0218 62.67 90.696C63.03 90.474 63.27 90.39 63.27 90.414C62.6682 90.9284 62.1065 91.4881 61.59 92.088C60.9954 92.8238 60.5617 93.6761 60.3168 94.5899C60.0719 95.5037 60.0214 96.4587 60.1684 97.3933C60.3154 98.3278 60.6567 99.2212 61.1702 100.016C61.6838 100.81 62.3582 101.488 63.15 102.006C63.8232 102.426 64.5272 102.795 65.256 103.11Z" fill="#FAFAFA"/>
<path d="M26.964 109.026L27.258 108.174L27.816 108.882C28.2647 109.44 28.8646 109.856 29.544 110.082L30.396 110.376L29.688 110.934C29.1335 111.386 28.7176 111.985 28.488 112.662L28.2 113.532L27.6 112.83C27.1473 112.274 26.5459 111.858 25.866 111.63L25.02 111.336L25.722 110.778C26.2956 110.325 26.7268 109.717 26.964 109.026Z" fill="#FF9902"/>
<path d="M55.44 75.5521L55.608 75.0601L55.932 75.4681C56.191 75.8035 56.5409 76.0576 56.94 76.2001L57.432 76.3681L57.024 76.6981C56.6946 76.9565 56.4467 77.3044 56.31 77.7001L56.142 78.1921L55.8 77.7601C55.5429 77.4306 55.1944 77.1844 54.798 77.0521L54.3 76.8781L54.714 76.5541C55.0465 76.2961 55.2984 75.9484 55.44 75.5521Z" fill="#FF9902"/>
<path d="M21.198 79.7221L21.69 78.2881L22.632 79.4881C23.3824 80.4372 24.3907 81.1497 25.536 81.5401L26.964 82.0321L25.764 82.9741C24.8148 83.7258 24.1007 84.7335 23.706 85.8781L23.214 87.3061L22.278 86.1061C21.5279 85.1552 20.5197 84.4407 19.374 84.0481L17.946 83.5561L19.146 82.6201C20.0917 81.869 20.8036 80.8636 21.198 79.7221Z" fill="#FF9902"/>
<path d="M186.636 287.94L98.07 287.886C92.9545 287.883 88.0495 285.849 84.4334 282.23C80.8173 278.612 78.786 273.706 78.786 268.59L78.828 46.5481C78.8288 44.0136 79.3289 41.5041 80.2997 39.1629C81.2705 36.8217 82.6931 34.6947 84.486 32.9034C86.279 31.112 88.4074 29.6915 90.7495 28.7229C93.0915 27.7542 95.6015 27.2565 98.136 27.2581L186.702 27.3061C191.818 27.3092 196.722 29.3436 200.339 32.962C203.955 36.5803 205.986 41.4865 205.986 46.6021L205.944 268.65C205.943 271.185 205.443 273.694 204.472 276.035C203.501 278.376 202.079 280.503 200.286 282.295C198.493 284.086 196.365 285.507 194.023 286.475C191.68 287.444 189.17 287.942 186.636 287.94Z" fill="#263238"/>
<path d="M186.6 35.16H169.44C168.88 35.1717 168.328 35.2937 167.815 35.5191C167.302 35.7444 166.839 36.0686 166.452 36.4732C166.064 36.8778 165.761 37.3548 165.558 37.877C165.355 38.3991 165.257 38.9561 165.27 39.516V42.6C165.294 43.7305 164.868 44.8243 164.087 45.6411C163.305 46.4579 162.23 46.9308 161.1 46.956H127.632C127.069 46.9467 126.514 46.8263 125.998 46.6017C125.482 46.3772 125.016 46.053 124.626 45.6477C124.235 45.2424 123.929 44.764 123.724 44.2399C123.519 43.7159 123.42 43.1565 123.432 42.594V39.486C123.445 38.9258 123.347 38.3685 123.144 37.846C122.942 37.3236 122.638 36.8462 122.251 36.4411C121.863 36.036 121.4 35.7112 120.887 35.4852C120.375 35.2592 119.822 35.1365 119.262 35.124H98.22C94.641 35.1224 91.2075 36.5402 88.6723 39.0664C86.1371 41.5926 84.7071 45.0211 84.696 48.6L84.654 265.332C84.654 268.915 86.0768 272.35 88.6094 274.884C91.1421 277.418 94.5774 278.842 98.16 278.844L186.552 278.898C188.327 278.9 190.085 278.551 191.726 277.873C193.366 277.194 194.857 276.199 196.112 274.944C197.368 273.689 198.363 272.199 199.042 270.559C199.722 268.919 200.071 267.161 200.07 265.386L200.112 48.66C200.109 45.0785 198.684 41.6447 196.15 39.1134C193.617 36.582 190.182 35.16 186.6 35.16Z" fill="white"/>
<path d="M134.178 262.35C134.182 262.686 134.085 263.015 133.902 263.296C133.718 263.578 133.455 263.798 133.146 263.93C132.838 264.062 132.497 264.099 132.166 264.037C131.836 263.975 131.532 263.816 131.292 263.581C131.052 263.346 130.887 263.046 130.818 262.717C130.749 262.388 130.779 262.047 130.905 261.735C131.03 261.423 131.245 261.156 131.522 260.966C131.799 260.777 132.126 260.674 132.462 260.67C132.912 260.667 133.345 260.842 133.666 261.156C133.988 261.471 134.172 261.9 134.178 262.35Z" fill="#263238"/>
<path d="M143.682 262.272C143.686 262.608 143.589 262.938 143.405 263.219C143.222 263.5 142.958 263.721 142.649 263.852C142.34 263.984 141.999 264.021 141.668 263.958C141.338 263.896 141.034 263.737 140.794 263.501C140.554 263.266 140.39 262.964 140.322 262.635C140.253 262.306 140.284 261.964 140.41 261.653C140.536 261.341 140.752 261.074 141.03 260.885C141.308 260.697 141.636 260.594 141.972 260.592C142.421 260.589 142.854 260.764 143.174 261.079C143.495 261.394 143.677 261.823 143.682 262.272Z" fill="#263238"/>
<path d="M153.192 262.2C153.196 262.536 153.099 262.866 152.915 263.147C152.732 263.428 152.468 263.649 152.159 263.78C151.85 263.912 151.509 263.949 151.178 263.886C150.848 263.824 150.544 263.665 150.304 263.429C150.064 263.194 149.9 262.892 149.832 262.563C149.763 262.234 149.794 261.892 149.92 261.581C150.046 261.269 150.262 261.002 150.54 260.813C150.818 260.625 151.146 260.522 151.482 260.52C151.931 260.517 152.364 260.692 152.684 261.007C153.005 261.322 153.187 261.751 153.192 262.2Z" fill="#263238"/>
<path d="M187.128 57.048C187.128 57.096 184.89 57.156 182.136 57.18C179.382 57.204 177.15 57.18 177.15 57.126C177.15 57.072 179.4 57 182.136 57C184.872 57 187.122 57 187.128 57.048Z" fill="#263238"/>
<path d="M187.146 59.5981C187.146 59.6521 184.914 59.7121 182.16 59.7361C179.406 59.7601 177.168 59.7361 177.168 59.6821C177.168 59.6281 179.4 59.5681 182.16 59.5441C184.92 59.5201 187.146 59.5441 187.146 59.5981Z" fill="#263238"/>
<path d="M187.2 62.1481C187.2 62.2021 184.962 62.2621 182.208 62.2861C179.454 62.3101 177.222 62.2861 177.222 62.2321C177.222 62.1781 179.454 62.1241 182.208 62.1001C184.962 62.0761 187.164 62.1001 187.2 62.1481Z" fill="#263238"/>
<path d="M96.39 65.0641H96.594H97.194L99.33 65.0161L99.276 65.0701C99.276 64.6021 99.276 64.0861 99.276 63.5281C99.2611 63.2323 99.2611 62.9359 99.276 62.6401C99.3075 62.4708 99.3928 62.3162 99.5193 62.1995C99.6459 62.0827 99.8068 62.0099 99.978 61.9921C100.32 61.9921 100.626 61.9921 100.998 61.9921C101.191 62.0211 101.368 62.119 101.495 62.2679C101.621 62.4168 101.69 62.6065 101.688 62.8021C101.688 63.5221 101.688 64.2781 101.688 65.0581L101.598 64.9681H104.286L104.196 65.0581C104.196 63.9781 104.196 62.8561 104.196 61.7101C104.196 61.4281 104.196 61.1101 104.196 60.8581C104.191 60.7346 104.154 60.6146 104.088 60.5101C104.004 60.4048 103.912 60.3064 103.812 60.2161C103.416 59.8261 103.026 59.4361 102.612 59.0581L101.478 57.9421C101.298 57.7561 101.112 57.5761 100.932 57.3961C100.752 57.2161 100.596 57.0241 100.368 56.9821C100.265 56.9572 100.158 56.9551 100.055 56.9758C99.9511 56.9965 99.8533 57.0396 99.768 57.1021C99.606 57.2401 99.432 57.4321 99.27 57.5941L98.304 58.5661C97.704 59.1661 97.068 59.7661 96.606 60.3181C96.4725 60.6362 96.4269 60.9843 96.474 61.3261C96.474 61.6621 96.474 61.9741 96.474 62.2741C96.474 62.8741 96.474 63.3661 96.474 63.7981C96.474 64.2301 96.474 64.5181 96.474 64.7761C96.474 65.0341 96.474 65.1241 96.474 65.1241C96.474 65.1241 96.474 65.0161 96.474 64.8001C96.474 64.5841 96.474 64.2001 96.474 63.8401C96.474 63.4801 96.474 62.8921 96.444 62.3041C96.444 61.9981 96.444 61.7041 96.444 61.3381C96.444 61.1641 96.444 60.9901 96.444 60.8101C96.4433 60.6141 96.4951 60.4214 96.594 60.2521C97.092 59.6521 97.686 59.1061 98.298 58.4521L99.252 57.4741C99.426 57.3061 99.57 57.1321 99.768 56.9581C99.8774 56.8764 100.004 56.8205 100.138 56.7945C100.272 56.7685 100.41 56.7732 100.542 56.8081C100.792 56.8979 101.013 57.0559 101.178 57.2641L101.73 57.8041L102.87 58.9201L104.07 60.0781C104.18 60.176 104.281 60.2846 104.37 60.4021C104.454 60.5355 104.502 60.6886 104.508 60.8461C104.508 61.1341 104.508 61.4461 104.508 61.7041C104.508 62.8501 104.508 63.9721 104.508 65.0521V65.1421H104.412H101.724H101.64V65.0521C101.64 64.2721 101.64 63.5221 101.64 62.8021C101.642 62.6436 101.588 62.4894 101.487 62.3673C101.386 62.2452 101.244 62.1632 101.088 62.1361C100.776 62.1361 100.41 62.1361 100.11 62.1361C99.9664 62.1474 99.8302 62.2049 99.722 62.3001C99.6138 62.3953 99.5394 62.523 99.51 62.6641C99.51 62.9401 99.51 63.2641 99.51 63.5221C99.51 64.0801 99.51 64.5961 99.51 65.0701V65.1241H99.456H97.29H96.6C96.528 65.112 96.4576 65.0918 96.39 65.0641Z" fill="#263238"/>
<path d="M119.082 116.52C119.082 118.602 117.522 119.898 115.026 119.898H113.148V122.466H111V113.136H115.038C117.522 113.136 119.082 114.432 119.082 116.52ZM116.892 116.52C116.892 115.494 116.226 114.894 114.906 114.894H113.148V118.134H114.906C116.226 118.134 116.892 117.534 116.892 116.52Z" fill="#263238"/>
<path d="M126.744 118.374V122.466H124.8V121.572C124.559 121.919 124.229 122.196 123.845 122.372C123.461 122.548 123.036 122.618 122.616 122.574C120.936 122.574 119.934 121.644 119.934 120.402C119.934 119.16 120.828 118.254 123.012 118.254H124.668C124.668 117.36 124.134 116.844 123.012 116.844C122.27 116.838 121.546 117.071 120.948 117.51L120.198 116.058C121.12 115.466 122.198 115.164 123.294 115.188C125.478 115.2 126.744 116.202 126.744 118.374ZM124.668 120.204V119.472H123.24C122.268 119.472 121.962 119.826 121.962 120.306C121.962 120.786 122.4 121.2 123.132 121.2C123.461 121.222 123.789 121.137 124.065 120.957C124.342 120.778 124.554 120.513 124.668 120.204Z" fill="#263238"/>
<path d="M127.932 121.8L128.628 120.306C129.38 120.758 130.24 120.999 131.118 121.002C132.078 121.002 132.438 120.75 132.438 120.348C132.438 119.148 128.106 120.348 128.106 117.51C128.106 116.148 129.306 115.188 131.424 115.188C132.382 115.169 133.329 115.385 134.184 115.818L133.494 117.294C132.862 116.94 132.149 116.757 131.424 116.76C130.494 116.76 130.092 117.054 130.092 117.432C130.092 118.632 134.424 117.468 134.424 120.294C134.424 121.626 133.182 122.574 131.04 122.574C129.954 122.596 128.881 122.329 127.932 121.8Z" fill="#263238"/>
<path d="M135 121.8L135.69 120.306C136.445 120.757 137.307 120.998 138.186 121.002C139.146 121.002 139.506 120.75 139.506 120.348C139.506 119.148 135.174 120.348 135.174 117.51C135.174 116.148 136.374 115.188 138.492 115.188C139.45 115.17 140.397 115.386 141.252 115.818L140.556 117.294C139.926 116.939 139.215 116.755 138.492 116.76C137.556 116.76 137.16 117.054 137.16 117.432C137.16 118.632 141.492 117.468 141.492 120.294C141.492 121.626 140.25 122.574 138.108 122.574C137.022 122.597 135.949 122.33 135 121.8Z" fill="#263238"/>
<path d="M154.164 115.296L151.566 122.496H149.568L147.954 118.044L146.286 122.496H144.288L141.702 115.296H143.664L145.356 120.15L147.114 115.296H148.872L150.582 120.15L152.328 115.296H154.164Z" fill="#263238"/>
<path d="M154.41 118.884C154.41 116.724 156.072 115.188 158.352 115.188C160.632 115.188 162.288 116.724 162.288 118.884C162.288 121.044 160.632 122.574 158.352 122.574C156.072 122.574 154.41 121.044 154.41 118.884ZM160.182 118.884C160.153 118.529 160.021 118.189 159.802 117.908C159.583 117.626 159.287 117.414 158.949 117.298C158.612 117.182 158.248 117.167 157.902 117.254C157.557 117.341 157.244 117.528 157.002 117.79C156.76 118.052 156.6 118.379 156.541 118.731C156.482 119.083 156.527 119.444 156.671 119.771C156.814 120.098 157.049 120.376 157.348 120.571C157.646 120.766 157.995 120.87 158.352 120.87C158.609 120.878 158.865 120.831 159.102 120.733C159.339 120.634 159.552 120.485 159.728 120.297C159.903 120.109 160.035 119.886 160.117 119.642C160.198 119.398 160.227 119.14 160.2 118.884H160.182Z" fill="#263238"/>
<path d="M168.126 115.2V117.12C167.952 117.12 167.82 117.12 167.658 117.12C166.512 117.12 165.75 117.72 165.75 119.118V122.502H163.674V115.302H165.66V116.25C165.955 115.888 166.334 115.604 166.763 115.421C167.193 115.238 167.661 115.162 168.126 115.2Z" fill="#263238"/>
<path d="M176.604 112.578V122.466H174.6V121.644C174.322 121.959 173.976 122.206 173.588 122.367C173.201 122.528 172.781 122.599 172.362 122.574C171.408 122.536 170.506 122.13 169.845 121.441C169.184 120.753 168.815 119.836 168.815 118.881C168.815 117.927 169.184 117.009 169.845 116.321C170.506 115.632 171.408 115.227 172.362 115.188C172.761 115.168 173.159 115.236 173.529 115.386C173.899 115.537 174.232 115.766 174.504 116.058V112.578H176.604ZM174.564 118.884C174.535 118.527 174.402 118.187 174.181 117.905C173.961 117.622 173.663 117.411 173.324 117.296C172.985 117.181 172.62 117.167 172.273 117.257C171.927 117.347 171.614 117.536 171.374 117.801C171.133 118.067 170.976 118.396 170.92 118.75C170.865 119.104 170.914 119.466 171.062 119.792C171.21 120.118 171.449 120.394 171.752 120.585C172.054 120.777 172.406 120.876 172.764 120.87C173.017 120.871 173.267 120.82 173.499 120.718C173.73 120.616 173.938 120.466 174.107 120.279C174.277 120.092 174.406 119.871 174.484 119.63C174.563 119.39 174.59 119.136 174.564 118.884Z" fill="#263238"/>
<path d="M192.6 130.2C192.6 130.284 170.4 130.356 142.986 130.356C115.572 130.356 93.36 130.284 93.36 130.2C93.36 130.116 115.56 130.044 142.986 130.044C170.412 130.044 192.6 130.098 192.6 130.2Z" fill="#E0E0E0"/>
<path d="M190.29 221.538C190.29 221.628 168.09 221.694 140.67 221.694C113.25 221.694 91.05 221.628 91.05 221.538C91.05 221.448 113.25 221.382 140.67 221.382C168.09 221.382 190.29 221.454 190.29 221.538Z" fill="#E0E0E0"/>
<path d="M167.844 228.402C167.844 228.486 155.502 228.558 140.28 228.558C125.058 228.558 112.716 228.486 112.716 228.402C112.716 228.318 125.052 228.246 140.28 228.246C155.508 228.246 167.844 228.312 167.844 228.402Z" fill="#E0E0E0"/>
<path d="M102.3 156.78L104.178 157.794L103.332 159.21L101.436 158.088L101.472 160.176H99.852V158.07L97.95 159.21L97.14 157.8L99 156.78L97.116 155.742L97.944 154.332L99.846 155.466V153.366H101.466L101.43 155.466L103.326 154.332L104.172 155.742L102.3 156.78Z" fill="#FF9902"/>
<path d="M123.852 156.78L125.73 157.794L124.884 159.21L123 158.088V160.2H121.374V158.094L119.478 159.234L118.692 157.8L120.6 156.78L118.722 155.742L119.55 154.332L121.446 155.466V153.366H123L122.964 155.466L124.86 154.332L125.706 155.742L123.852 156.78Z" fill="#FF9902"/>
<path d="M144.828 156.78L146.706 157.794L145.86 159.21L143.964 158.088L144 160.2H142.38V158.094L140.478 159.234L139.668 157.8L141.552 156.786L139.668 155.748L140.496 154.338L142.398 155.472V153.372H144L143.964 155.472L145.86 154.338L146.706 155.748L144.828 156.78Z" fill="#FF9902"/>
<path d="M165.15 156.78L167.028 157.794L166.2 159.21L164.304 158.088L164.34 160.176H162.72V158.07L160.824 159.21L159.99 157.8L161.874 156.786L159.99 155.748L160.818 154.338L162.714 155.472V153.372H164.334L164.298 155.472L166.194 154.338L167.04 155.748L165.15 156.78Z" fill="#FF9902"/>
<path d="M185.31 156.78L187.2 157.8L186.354 159.216L184.458 158.094L184.488 160.182H182.868V158.076L180.972 159.216L180.156 157.8L182.034 156.786L180.156 155.748L180.984 154.338L182.88 155.472V153.372H184.5L184.47 155.472L186.366 154.338L187.212 155.748L185.31 156.78Z" fill="#FF9902"/>
<path d="M105.642 169.848H96.552C95.4274 169.847 94.3494 169.399 93.5542 168.604C92.759 167.809 92.3116 166.731 92.31 165.606V149.466C92.3116 148.342 92.7592 147.265 93.5546 146.47C94.3499 145.676 95.428 145.23 96.552 145.23H105.642C106.766 145.23 107.844 145.676 108.639 146.47C109.435 147.265 109.882 148.342 109.884 149.466V165.6C109.884 166.726 109.437 167.805 108.642 168.602C107.847 169.398 106.768 169.847 105.642 169.848ZM96.552 145.53C95.5075 145.53 94.5058 145.945 93.7667 146.683C93.0276 147.421 92.6116 148.422 92.61 149.466V165.6C92.6116 166.645 93.0274 167.647 93.7663 168.386C94.5053 169.125 95.507 169.541 96.552 169.542H105.642C106.687 169.542 107.69 169.127 108.429 168.388C109.169 167.648 109.584 166.646 109.584 165.6V149.46C109.582 148.416 109.166 147.415 108.427 146.677C107.688 145.939 106.686 145.524 105.642 145.524L96.552 145.53Z" fill="#263238"/>
<path d="M126.756 169.848H117.666C117.107 169.85 116.552 169.742 116.035 169.53C115.517 169.317 115.047 169.005 114.651 168.61C114.254 168.215 113.94 167.746 113.725 167.23C113.51 166.713 113.4 166.159 113.4 165.6V149.46C113.402 148.336 113.849 147.259 114.645 146.464C115.44 145.67 116.518 145.224 117.642 145.224H126.732C127.856 145.224 128.934 145.67 129.729 146.464C130.525 147.259 130.972 148.336 130.974 149.46V165.6C130.974 166.721 130.531 167.797 129.74 168.593C128.95 169.389 127.877 169.84 126.756 169.848ZM117.666 145.53C116.622 145.53 115.62 145.944 114.881 146.682C114.142 147.42 113.726 148.422 113.724 149.466V165.6C113.726 166.645 114.141 167.647 114.88 168.386C115.619 169.125 116.621 169.54 117.666 169.542H126.756C127.802 169.542 128.804 169.127 129.543 168.387C130.283 167.648 130.698 166.645 130.698 165.6V149.46C130.696 148.416 130.28 147.414 129.541 146.676C128.802 145.938 127.8 145.524 126.756 145.524L117.666 145.53Z" fill="#263238"/>
<path d="M147.294 169.848H138.198C137.073 169.847 135.995 169.399 135.2 168.604C134.405 167.809 133.958 166.731 133.956 165.606V149.466C133.958 148.342 134.405 147.265 135.201 146.47C135.996 145.676 137.074 145.23 138.198 145.23H147.294C148.417 145.232 149.493 145.678 150.288 146.473C151.082 147.267 151.528 148.343 151.53 149.466V165.6C151.531 166.157 151.422 166.709 151.209 167.224C150.997 167.739 150.685 168.207 150.292 168.601C149.898 168.996 149.431 169.309 148.917 169.523C148.403 169.737 147.851 169.847 147.294 169.848ZM138.198 145.53C137.154 145.53 136.152 145.945 135.413 146.683C134.674 147.421 134.258 148.422 134.256 149.466V165.6C134.258 166.645 134.673 167.647 135.412 168.386C136.151 169.125 137.153 169.541 138.198 169.542H147.294C148.338 169.541 149.34 169.124 150.078 168.385C150.816 167.646 151.23 166.645 151.23 165.6V149.46C151.23 148.416 150.815 147.415 150.077 146.677C149.339 145.939 148.338 145.524 147.294 145.524L138.198 145.53Z" fill="#263238"/>
<path d="M168.06 169.848H158.964C157.839 169.847 156.761 169.399 155.966 168.604C155.171 167.809 154.724 166.731 154.722 165.606V149.466C154.724 148.342 155.171 147.265 155.967 146.47C156.762 145.676 157.84 145.23 158.964 145.23H168.06C169.183 145.232 170.26 145.678 171.054 146.473C171.848 147.267 172.294 148.343 172.296 149.466V165.6C172.297 166.157 172.188 166.709 171.975 167.224C171.763 167.739 171.451 168.207 171.058 168.601C170.664 168.996 170.197 169.309 169.683 169.523C169.169 169.737 168.617 169.847 168.06 169.848ZM158.964 145.53C157.92 145.53 156.918 145.945 156.179 146.683C155.44 147.421 155.024 148.422 155.022 149.466V165.6C155.024 166.645 155.439 167.647 156.178 168.386C156.917 169.125 157.919 169.541 158.964 169.542H168.06C169.104 169.541 170.106 169.124 170.844 168.385C171.582 167.646 171.996 166.645 171.996 165.6V149.46C171.996 148.416 171.581 147.415 170.843 146.677C170.105 145.939 169.104 145.524 168.06 145.524L158.964 145.53Z" fill="#263238"/>
<path d="M188.22 169.848H179.13C178.005 169.847 176.927 169.399 176.132 168.604C175.337 167.809 174.89 166.731 174.888 165.606V149.466C174.89 148.342 175.337 147.265 176.133 146.47C176.928 145.676 178.006 145.23 179.13 145.23H188.22C189.344 145.23 190.422 145.676 191.217 146.47C192.013 147.265 192.46 148.342 192.462 149.466V165.6C192.462 166.726 192.015 167.805 191.22 168.602C190.425 169.398 189.346 169.847 188.22 169.848ZM179.13 145.53C178.086 145.53 177.084 145.945 176.345 146.683C175.606 147.421 175.19 148.422 175.188 149.466V165.6C175.188 166.646 175.603 167.648 176.343 168.388C177.082 169.127 178.085 169.542 179.13 169.542H188.22C189.265 169.541 190.267 169.125 191.006 168.386C191.745 167.647 192.16 166.645 192.162 165.6V149.46C192.16 148.416 191.744 147.415 191.005 146.677C190.266 145.939 189.264 145.524 188.22 145.524L179.13 145.53Z" fill="#263238"/>
<path d="M187.554 189.336H99.228C95.4869 189.336 92.454 192.369 92.454 196.11V200.406C92.454 204.147 95.4869 207.18 99.228 207.18H187.554C191.295 207.18 194.328 204.147 194.328 200.406V196.11C194.328 192.369 191.295 189.336 187.554 189.336Z" fill="#FF9902"/>
<path d="M130.53 194.67H133.272C135.246 194.67 136.602 195.87 136.602 197.67C136.602 199.47 135.246 200.67 133.272 200.67H130.53V194.67ZM133.2 199.56C133.697 199.56 134.173 199.363 134.524 199.012C134.875 198.661 135.072 198.185 135.072 197.688C135.072 197.192 134.875 196.715 134.524 196.364C134.173 196.013 133.697 195.816 133.2 195.816H131.922V199.56H133.2Z" fill="white"/>
<path d="M137.214 198.39C137.183 197.879 137.306 197.37 137.567 196.93C137.828 196.49 138.216 196.138 138.679 195.92C139.142 195.703 139.66 195.629 140.166 195.71C140.672 195.79 141.142 196.02 141.515 196.371C141.888 196.721 142.147 197.176 142.259 197.675C142.371 198.175 142.331 198.697 142.143 199.173C141.955 199.649 141.628 200.058 141.205 200.346C140.782 200.634 140.282 200.789 139.77 200.79C139.442 200.811 139.113 200.765 138.804 200.654C138.494 200.543 138.211 200.37 137.971 200.145C137.732 199.92 137.541 199.648 137.41 199.346C137.28 199.044 137.213 198.719 137.214 198.39ZM140.952 198.39C140.952 198.072 140.826 197.767 140.601 197.542C140.376 197.317 140.07 197.19 139.752 197.19C139.434 197.19 139.129 197.317 138.903 197.542C138.678 197.767 138.552 198.072 138.552 198.39C138.552 198.708 138.678 199.014 138.903 199.239C139.129 199.464 139.434 199.59 139.752 199.59C140.07 199.59 140.376 199.464 140.601 199.239C140.826 199.014 140.952 198.708 140.952 198.39Z" fill="white"/>
<path d="M147.954 198.054V200.706H146.61V198.258C146.61 197.508 146.262 197.166 145.668 197.166C145.074 197.166 144.558 197.562 144.558 198.414V200.706H143.214V196.068H144.498V196.614C144.698 196.412 144.938 196.255 145.202 196.151C145.467 196.048 145.75 196.001 146.034 196.014C147.126 196.002 147.954 196.638 147.954 198.054Z" fill="white"/>
<path d="M153.744 198.768H150.234C150.307 199.056 150.481 199.308 150.725 199.479C150.968 199.65 151.264 199.727 151.56 199.698C151.775 199.708 151.989 199.672 152.189 199.595C152.39 199.518 152.572 199.399 152.724 199.248L153.444 200.028C153.199 200.285 152.901 200.486 152.57 200.615C152.24 200.745 151.884 200.801 151.53 200.778C149.922 200.778 148.878 199.77 148.878 198.378C148.872 198.055 148.932 197.733 149.056 197.434C149.179 197.135 149.363 196.864 149.595 196.639C149.828 196.414 150.104 196.239 150.407 196.125C150.71 196.012 151.033 195.962 151.356 195.978C151.675 195.963 151.994 196.014 152.292 196.129C152.591 196.244 152.861 196.421 153.087 196.647C153.313 196.873 153.49 197.143 153.605 197.442C153.72 197.74 153.771 198.059 153.756 198.378C153.768 198.51 153.75 198.654 153.744 198.768ZM150.216 198H152.502C152.458 197.729 152.319 197.482 152.109 197.304C151.9 197.126 151.634 197.028 151.359 197.028C151.084 197.028 150.818 197.126 150.609 197.304C150.399 197.482 150.26 197.729 150.216 198Z" fill="white"/>
<path d="M142.386 104.142C152.344 104.142 160.416 96.0697 160.416 86.112C160.416 76.1543 152.344 68.082 142.386 68.082C132.428 68.082 124.356 76.1543 124.356 86.112C124.356 96.0697 132.428 104.142 142.386 104.142Z" fill="#FF9902"/>
<path d="M139.2 82.83H138.9V81.15C138.9 80.2175 139.27 79.3232 139.93 78.6638C140.589 78.0045 141.484 77.634 142.416 77.634C143.349 77.634 144.243 78.0045 144.902 78.6638C145.562 79.3232 145.932 80.2175 145.932 81.15V82.518H145.632V81.15C145.632 80.2971 145.293 79.4791 144.69 78.876C144.087 78.2729 143.269 77.934 142.416 77.934C141.563 77.934 140.745 78.2729 140.142 78.876C139.539 79.4791 139.2 80.2971 139.2 81.15V82.83Z" fill="white"/>
<path d="M146.856 94.59H137.916C137.523 94.5885 137.147 94.4318 136.87 94.1542C136.592 93.8767 136.436 93.5006 136.434 93.108V84.1621C136.436 83.7695 136.592 83.3935 136.87 83.1159C137.147 82.8383 137.523 82.6816 137.916 82.6801H146.856C147.249 82.6816 147.625 82.8383 147.902 83.1159C148.18 83.3935 148.336 83.7695 148.338 84.1621V93.108C148.336 93.5006 148.18 93.8767 147.902 94.1542C147.625 94.4318 147.249 94.5885 146.856 94.59ZM137.916 82.9801C137.598 82.9801 137.293 83.1065 137.067 83.3315C136.842 83.5566 136.716 83.8618 136.716 84.1801V93.1261C136.716 93.4443 136.842 93.7495 137.067 93.9746C137.293 94.1996 137.598 94.3261 137.916 94.3261H146.856C147.174 94.3261 147.48 94.1996 147.705 93.9746C147.93 93.7495 148.056 93.4443 148.056 93.1261V84.1621C148.056 83.8438 147.93 83.5386 147.705 83.3135C147.48 83.0885 147.174 82.9621 146.856 82.9621L137.916 82.9801Z" fill="white"/>
<path d="M142.428 88.926C142.15 88.926 141.879 88.8437 141.648 88.6894C141.417 88.5352 141.237 88.3159 141.131 88.0593C141.025 87.8028 140.997 87.5205 141.051 87.2481C141.105 86.9758 141.239 86.7256 141.435 86.5293C141.632 86.3329 141.882 86.1992 142.154 86.145C142.426 86.0908 142.709 86.1186 142.965 86.2249C143.222 86.3312 143.441 86.5111 143.595 86.742C143.75 86.9729 143.832 87.2444 143.832 87.522C143.832 87.8944 143.684 88.2515 143.421 88.5148C143.157 88.7781 142.8 88.926 142.428 88.926ZM142.428 86.424C142.209 86.424 141.996 86.4889 141.814 86.6105C141.632 86.7321 141.491 86.9049 141.407 87.107C141.324 87.309 141.303 87.5313 141.346 87.7456C141.389 87.96 141.495 88.1567 141.65 88.3108C141.805 88.465 142.002 88.5696 142.216 88.6116C142.431 88.6535 142.653 88.6308 142.855 88.5463C143.056 88.4618 143.228 88.3194 143.349 88.137C143.469 87.9547 143.533 87.7406 143.532 87.522C143.534 87.3756 143.508 87.2301 143.453 87.094C143.399 86.958 143.318 86.8342 143.215 86.7297C143.112 86.6253 142.99 86.5424 142.855 86.4858C142.72 86.4292 142.575 86.4 142.428 86.4V86.424Z" fill="white"/>
<path d="M142.536 88.7161H142.236V91.2481H142.536V88.7161Z" fill="white"/>
<path d="M267.786 275.262L256.464 249.144L243.474 257.484L257.25 281.358L264.156 278.262L267.786 275.262Z" fill="#FFBE9D"/>
<path d="M267.534 273.804L267.906 274.548C267.906 274.548 282.996 273.258 284.334 275.574L259.35 288L255.552 279.516C260.124 279.396 264.108 277.656 267.534 273.804Z" fill="#FF9902"/>
<g opacity="0.6">
<path d="M259.404 280.926C259.2 281.118 259.074 281.379 259.051 281.658C259.028 281.937 259.109 282.215 259.278 282.438C259.462 282.649 259.721 282.781 260 282.807C260.28 282.833 260.558 282.75 260.778 282.576C260.993 282.372 261.125 282.095 261.149 281.799C261.172 281.503 261.085 281.209 260.904 280.974C260.692 280.77 260.409 280.657 260.115 280.657C259.821 280.657 259.538 280.77 259.326 280.974" fill="white"/>
</g>
<g opacity="0.6">
<path d="M259.35 288L258.438 285.96L282.714 274.8C282.714 274.8 284.07 274.734 284.334 275.58L259.35 288Z" fill="white"/>
</g>
<path d="M268.032 274.572C268.086 274.698 267.504 275.052 267.102 275.772C266.7 276.492 266.628 277.134 266.502 277.14C266.376 277.146 266.196 276.354 266.7 275.526C267.204 274.698 268.002 274.446 268.032 274.572Z" fill="#263238"/>
<path d="M271.2 274.35C271.29 274.458 270.864 274.95 270.708 275.646C270.552 276.342 270.708 276.978 270.576 277.032C270.444 277.086 270.03 276.432 270.246 275.538C270.462 274.644 271.128 274.236 271.2 274.35Z" fill="#263238"/>
<path d="M274.242 276.744C274.14 276.828 273.642 276.3 273.642 275.478C273.642 274.656 274.062 274.104 274.164 274.182C274.266 274.26 274.092 274.782 274.116 275.466C274.14 276.15 274.356 276.672 274.242 276.744Z" fill="#263238"/>
<path d="M246.492 279.798L246.924 251.328L231.654 253.584L234.378 281.016L241.95 281.034L246.492 279.798Z" fill="#FFBE9D"/>
<path d="M246.858 278.364L246.9 279.192C246.9 279.192 261.18 284.232 261.444 286.89L233.556 287.934L233.586 278.64C237.804 280.404 242.154 280.458 246.858 278.364Z" fill="#FF9902"/>
<g opacity="0.6">
<path d="M236.52 281.502C236.255 281.595 236.034 281.782 235.898 282.028C235.762 282.273 235.721 282.56 235.782 282.834C235.864 283.103 236.046 283.329 236.291 283.468C236.535 283.606 236.823 283.646 237.096 283.578C237.378 283.48 237.613 283.281 237.757 283.02C237.9 282.758 237.94 282.452 237.87 282.162C237.752 281.894 237.535 281.682 237.265 281.57C236.994 281.458 236.691 281.455 236.418 281.562" fill="white"/>
</g>
<g opacity="0.6">
<path d="M233.556 287.934V285.702L260.28 285.516C260.28 285.516 261.546 286.008 261.438 286.89L233.556 287.934Z" fill="white"/>
</g>
<path d="M246.996 279.264C246.996 279.402 246.318 279.492 245.664 279.954C245.01 280.416 244.68 280.998 244.548 280.95C244.416 280.902 244.596 280.11 245.394 279.564C246.192 279.018 247.02 279.138 246.996 279.264Z" fill="#263238"/>
<path d="M249.966 280.368C250.002 280.494 249.426 280.752 248.982 281.346C248.538 281.94 248.43 282.546 248.292 282.546C248.154 282.546 248.046 281.778 248.604 281.046C249.162 280.314 249.96 280.236 249.966 280.368Z" fill="#263238"/>
<path d="M251.76 283.8C251.64 283.83 251.424 283.158 251.76 282.402C252.096 281.646 252.708 281.322 252.774 281.43C252.84 281.538 252.456 281.958 252.174 282.582C251.892 283.206 251.898 283.8 251.76 283.8Z" fill="#263238"/>
<path d="M235.506 163.734L234.936 141.318L213.12 142.464L212.4 145.116C211.227 149.222 210.274 153.388 209.544 157.596C208.08 166.986 208.254 175.53 211.944 185.568C215.634 195.606 221.4 214.692 221.4 214.692L243.042 274.47L268.242 266.184L235.506 163.734Z" fill="#263238"/>
<path d="M248.7 140.592L250.602 146.802C253.398 148.602 257.916 157.422 258.33 161.034C258.744 164.646 259.53 177.012 258.708 191.508C258.006 203.43 252.108 273.21 252.108 273.21L228.264 274.47L230.748 161.634L231.798 141.486L248.7 140.592Z" fill="#263238"/>
<path d="M207.84 159.66C208.106 159.773 208.384 159.855 208.668 159.906C209.432 160.076 210.209 160.181 210.99 160.218C213.593 160.358 216.189 159.825 218.525 158.669C220.862 157.512 222.861 155.773 224.328 153.618C224.774 152.974 225.162 152.291 225.486 151.578C225.62 151.323 225.723 151.053 225.792 150.774C225.732 150.744 225.282 151.896 224.136 153.486C222.645 155.561 220.668 157.24 218.379 158.375C216.089 159.51 213.556 160.066 211.002 159.996C209.943 159.938 208.888 159.825 207.84 159.66Z" fill="#455A64"/>
<path d="M247.8 147.672C247.817 147.852 247.863 148.029 247.938 148.194C248.093 148.653 248.277 149.102 248.49 149.538C249.882 152.456 252.059 154.928 254.778 156.678C255.185 156.942 255.608 157.18 256.044 157.392C256.199 157.485 256.367 157.553 256.542 157.596C256.572 157.542 255.906 157.182 254.91 156.48C252.306 154.662 250.177 152.247 248.7 149.436C248.118 148.362 247.842 147.654 247.8 147.672Z" fill="#455A64"/>
<path d="M236.562 166.728C236.562 166.728 236.622 166.878 236.724 167.19L237.162 168.564C237.546 169.764 238.104 171.564 238.818 173.85C240.246 178.458 242.31 185.106 244.86 193.32C250.032 209.736 256.602 232.602 265.41 257.352C266.418 260.316 267.418 263.242 268.41 266.13L268.458 266.286L268.308 266.334L243.108 274.608L242.97 274.656L242.922 274.518L228.432 234.318L224.31 222.804C223.836 221.472 223.476 220.44 223.224 219.738C223.104 219.394 223.014 219.13 222.954 218.946L222.864 218.676C222.864 218.676 222.906 218.76 222.972 218.94C223.038 219.12 223.14 219.384 223.272 219.72L224.4 222.768C225.378 225.45 226.8 229.368 228.6 234.258L243.192 274.398L243.012 274.308L268.212 266.016L268.11 266.214C267.126 263.326 266.126 260.4 265.11 257.436C256.302 232.68 249.768 209.808 244.65 193.374C242.142 185.142 240.114 178.482 238.704 173.874C238.014 171.57 237.474 169.788 237.108 168.564C236.928 167.964 236.79 167.502 236.7 167.184C236.61 166.866 236.562 166.728 236.562 166.728Z" fill="#455A64"/>
<path d="M258 101.67C258 101.67 256.86 95.292 253.59 92.238C250.32 89.184 236.694 85.728 236.694 85.728C236.694 85.728 236.856 90.462 233.808 91.728C230.58 93.078 227.352 92.622 224.808 89.928C223.275 88.2536 222.206 86.2082 221.706 83.994C221.706 83.994 205.554 86.352 203.256 90.732C200.958 95.112 198.552 111.732 198.552 111.732L213.186 114.042L212.712 142.47L251.172 140.448L249 113.922L259.548 114.864L258 101.67Z" fill="#455A64"/>
<path d="M216.102 114.84C216.125 114.629 216.125 114.415 216.102 114.204C216.102 113.79 216.066 113.196 216.024 112.458C215.946 110.994 215.82 108.966 215.652 106.728C215.484 104.49 215.322 102.462 215.184 100.998C215.112 100.266 215.052 99.672 215.004 99.264C214.994 99.0499 214.956 98.838 214.89 98.634C214.859 98.8449 214.859 99.0591 214.89 99.27C214.89 99.684 214.926 100.278 214.968 101.01C215.046 102.48 215.172 104.508 215.34 106.746C215.508 108.984 215.67 111.012 215.808 112.476C215.874 113.208 215.94 113.802 215.988 114.21C215.994 114.425 216.032 114.637 216.102 114.84Z" fill="#263238"/>
<path d="M251.916 101.262C251.826 101.262 251.076 104.16 250.236 107.784C249.674 109.96 249.222 112.163 248.88 114.384C249.549 112.24 250.11 110.063 250.56 107.862C251.122 105.686 251.574 103.483 251.916 101.262Z" fill="#263238"/>
<path d="M204.804 89.6521C204.804 89.7121 205.5 89.8021 206.604 90.1501C208.005 90.6051 209.316 91.2993 210.48 92.2021C211.637 93.1152 212.629 94.219 213.414 95.4661C214.014 96.4321 214.266 97.0921 214.326 97.0681C214.305 96.9019 214.258 96.74 214.188 96.5881C214.032 96.1592 213.842 95.7438 213.618 95.3461C212.108 92.6976 209.609 90.7558 206.67 89.9461C206.232 89.821 205.785 89.7347 205.332 89.6881C205.16 89.6433 204.981 89.6311 204.804 89.6521Z" fill="#263238"/>
<path d="M253.896 93.522C253.59 94.164 253.387 94.8505 253.296 95.556C253.104 96.2367 253.021 96.9434 253.05 97.65C253.343 97.0073 253.535 96.3233 253.62 95.622C253.822 94.9409 253.915 94.2321 253.896 93.522Z" fill="#263238"/>
<path d="M201.144 112.158C201.144 112.158 206.64 133.944 207.234 135.804C207.828 137.664 208.896 142.692 214.2 143.46C221.364 144.504 249.144 142.05 249.144 142.05L243.546 135.678L218.832 130.134L214.632 114.294L201.144 112.158Z" fill="#FFBE9D"/>
<path d="M243.81 131.94C243.716 132.1 243.655 132.278 243.63 132.462C243.509 132.947 243.441 133.444 243.426 133.944C243.366 135.613 243.8 137.262 244.674 138.684C245.141 139.469 245.717 140.184 246.384 140.808C246.938 141.318 247.592 141.706 248.304 141.948C248.783 142.102 249.283 142.187 249.786 142.2C249.969 142.22 250.155 142.204 250.332 142.152C249.672 142.07 249.022 141.927 248.388 141.726C247.718 141.468 247.106 141.078 246.588 140.58C245.959 139.962 245.41 139.266 244.956 138.51C244.119 137.133 243.672 135.555 243.66 133.944C243.654 132.708 243.87 131.952 243.81 131.94Z" fill="#EB996E"/>
<path d="M215.928 109.542C215.706 109.543 215.485 109.521 215.268 109.476L213.468 109.218C211.968 109.002 209.868 108.756 207.594 108.456C205.628 108.217 203.676 107.879 201.744 107.442C201.006 107.262 200.412 107.1 200.01 106.968C199.802 106.915 199.601 106.839 199.41 106.74C199.41 106.686 200.334 106.926 201.81 107.22C203.286 107.514 205.362 107.82 207.654 108.138C209.946 108.456 212.028 108.738 213.522 108.99C214.272 109.128 214.872 109.254 215.286 109.356C215.508 109.387 215.724 109.45 215.928 109.542Z" fill="#FF9902"/>
<path d="M214.8 102.288C214.614 102.322 214.425 102.332 214.236 102.318C213.87 102.318 213.342 102.318 212.688 102.27C211.386 102.204 209.586 102.06 207.606 101.814C205.626 101.568 203.844 101.262 202.566 101.004C201.924 100.872 201.408 100.758 201.054 100.668C200.866 100.643 200.683 100.586 200.514 100.5C201.218 100.544 201.918 100.639 202.608 100.782C203.892 100.98 205.674 101.25 207.642 101.496C209.61 101.742 211.404 101.922 212.706 102.042C213.409 102.073 214.109 102.155 214.8 102.288Z" fill="#FF9902"/>
<path d="M213.546 96.768C212.978 96.8335 212.404 96.8335 211.836 96.768C209.088 96.5799 206.371 96.0704 203.742 95.25C203.188 95.1082 202.651 94.9071 202.14 94.65C202.704 94.7336 203.26 94.8641 203.802 95.04C204.816 95.304 206.232 95.64 207.804 95.94C209.376 96.24 210.804 96.426 211.86 96.54C212.427 96.5714 212.991 96.6476 213.546 96.768Z" fill="#FF9902"/>
<path d="M223.8 88.902C223.174 89.1565 222.528 89.3572 221.868 89.502C220.668 89.814 218.994 90.198 217.14 90.57C215.286 90.942 213.588 91.224 212.34 91.404C211.679 91.5327 211.009 91.603 210.336 91.614C210.979 91.4232 211.634 91.2788 212.298 91.182L217.05 90.258L221.796 89.28C222.453 89.1017 223.123 88.9753 223.8 88.902Z" fill="#FF9902"/>
<path d="M253.614 95.4001C253.378 95.3449 253.149 95.2645 252.93 95.1601L251.094 94.4041C249.552 93.7681 247.416 92.8861 245.04 91.9561C242.664 91.0261 240.498 90.2281 238.926 89.6521L237.072 88.9681C236.837 88.8977 236.611 88.7989 236.4 88.6741C236.642 88.7061 236.879 88.7645 237.108 88.8481C237.564 88.9741 238.206 89.1781 239.004 89.4481C240.594 89.9701 242.778 90.7381 245.16 91.6681C247.542 92.5981 249.666 93.5101 251.16 94.2061C251.922 94.5541 252.534 94.8421 252.96 95.0521C253.191 95.1424 253.41 95.2592 253.614 95.4001Z" fill="#FF9902"/>
<path d="M251.916 100.992C251.791 100.992 251.666 100.978 251.544 100.95L250.476 100.782L246.576 100.098C243.282 99.498 238.728 98.724 233.664 98.112C231.132 97.818 228.714 97.608 226.506 97.476C224.298 97.344 222.306 97.314 220.644 97.344C219.81 97.344 219.054 97.38 218.388 97.398C217.722 97.416 217.158 97.44 216.69 97.476L215.616 97.53C215.49 97.5444 215.364 97.5444 215.238 97.53C215.359 97.4963 215.484 97.4761 215.61 97.47L216.678 97.356C217.146 97.302 217.716 97.254 218.382 97.224C219.048 97.194 219.804 97.128 220.638 97.122C222.312 97.068 224.31 97.092 226.524 97.188C228.738 97.284 231.162 97.506 233.724 97.788C238.794 98.388 243.324 99.234 246.636 99.87C248.274 100.188 249.636 100.47 250.518 100.65L251.574 100.884C251.692 100.906 251.807 100.942 251.916 100.992Z" fill="#FF9902"/>
<path d="M236.4 110.796C236.127 110.821 235.851 110.821 235.578 110.796C235.044 110.766 234.282 110.7 233.334 110.604C231.45 110.406 228.846 110.064 225.996 109.542C223.146 109.02 220.596 108.426 218.754 107.946C217.836 107.7 217.098 107.496 216.594 107.346C216.326 107.28 216.065 107.19 215.814 107.076C216.089 107.095 216.361 107.145 216.624 107.226L218.808 107.736C220.656 108.162 223.212 108.72 226.056 109.242C228.9 109.764 231.486 110.136 233.364 110.388L235.59 110.688C235.863 110.695 236.135 110.731 236.4 110.796Z" fill="#FF9902"/>
<path d="M249.45 111C247.421 111.176 245.384 111.248 243.348 111.216C241.316 111.285 239.281 111.251 237.252 111.114C239.279 110.934 241.314 110.862 243.348 110.898C245.382 110.822 247.419 110.856 249.45 111Z" fill="#FF9902"/>
<path d="M232.308 119.616C232.086 119.636 231.862 119.626 231.642 119.586C231.222 119.55 230.604 119.472 229.842 119.364C228.33 119.148 226.242 118.764 223.98 118.254C221.718 117.744 219.684 117.126 218.238 116.652C217.512 116.412 216.93 116.208 216.528 116.052C216.319 115.987 216.117 115.899 215.928 115.788C216.15 115.806 216.368 115.855 216.576 115.932L218.31 116.436C219.768 116.856 221.796 117.408 224.058 117.942C226.32 118.476 228.384 118.872 229.884 119.142L231.684 119.466C231.897 119.49 232.107 119.541 232.308 119.616Z" fill="#FF9902"/>
<path d="M246.438 120.24C245.796 120.304 245.148 120.304 244.506 120.24C243.306 120.198 241.668 120.078 239.862 119.844C238.056 119.61 236.43 119.304 235.266 119.046C234.63 118.936 234.007 118.763 233.406 118.53C234.049 118.579 234.686 118.677 235.314 118.824C236.484 119.028 238.104 119.292 239.904 119.526C241.704 119.76 243.336 119.916 244.518 120.018C245.162 120.047 245.804 120.121 246.438 120.24Z" fill="#FF9902"/>
<path d="M243.492 128.076C243.416 128.123 243.333 128.158 243.246 128.178C243.084 128.226 242.844 128.31 242.526 128.394C241.638 128.633 240.736 128.82 239.826 128.952C236.816 129.371 233.765 129.397 230.748 129.03C227.737 128.666 224.753 128.107 221.814 127.356C220.686 127.08 219.78 126.84 219.15 126.666C218.819 126.597 218.496 126.496 218.184 126.366C218.52 126.403 218.852 126.463 219.18 126.546L221.868 127.146C224.808 127.827 227.783 128.354 230.778 128.724C233.768 129.076 236.788 129.076 239.778 128.724C240.924 128.58 241.848 128.406 242.484 128.268C242.815 128.179 243.152 128.115 243.492 128.076Z" fill="#FF9902"/>
<path d="M257.358 105.558C256.352 105.721 255.335 105.803 254.316 105.804C253.297 105.912 252.269 105.888 251.256 105.732C252.262 105.569 253.279 105.487 254.298 105.486C255.317 105.378 256.345 105.402 257.358 105.558Z" fill="#FF9902"/>
<path d="M256.548 98.2501C255.438 98.3946 254.311 98.3213 253.23 98.0341C254.34 97.8975 255.465 97.9708 256.548 98.2501Z" fill="#FF9902"/>
<path d="M231.144 120.138C231.114 120.084 231.774 119.754 232.674 119.01C233.194 118.571 233.672 118.085 234.102 117.558C235.151 116.256 235.887 114.731 236.256 113.1C236.402 112.433 236.484 111.754 236.502 111.072C236.532 109.908 236.376 109.188 236.436 109.176C236.511 109.333 236.559 109.501 236.58 109.674C236.627 109.871 236.659 110.072 236.676 110.274C236.708 110.539 236.726 110.805 236.73 111.072C236.744 111.773 236.682 112.473 236.544 113.16C236.198 114.848 235.437 116.423 234.33 117.744C233.879 118.28 233.37 118.765 232.812 119.19C232.601 119.355 232.381 119.508 232.152 119.646C231.983 119.757 231.807 119.855 231.624 119.94C231.476 120.033 231.314 120.1 231.144 120.138Z" fill="#263238"/>
<g opacity="0.3">
<path d="M236.286 114.294L233.952 117.762C232.374 119.736 230.167 121.11 227.7 121.656C228.781 122.035 229.943 122.123 231.069 121.912C232.195 121.7 233.246 121.196 234.116 120.451C234.985 119.705 235.644 118.743 236.025 117.663C236.406 116.582 236.496 115.42 236.286 114.294Z" fill="black"/>
</g>
<path d="M243.204 78.1441C245.431 78.3387 247.667 77.8844 249.642 76.8361C246.738 75.0361 244.908 71.8801 244.02 68.5861C243.132 65.2921 241.992 59.6761 241.962 56.2681L236.646 79.8901C239.448 80.523 242.376 80.295 245.046 79.2361C244.674 79.2157 244.312 79.1059 243.991 78.9157C243.671 78.7256 243.4 78.4609 243.204 78.1441Z" fill="#263238"/>
<path d="M228.036 81C226.88 78.3458 226.437 75.4358 226.752 72.558L216.036 68.496C215.543 71.4109 214.371 74.169 212.616 76.548C211.962 77.436 211.182 78.468 211.488 79.548C211.622 79.9065 211.844 80.2251 212.135 80.4739C212.426 80.7226 212.775 80.8933 213.15 80.97C213.905 81.099 214.675 81.099 215.43 80.97L214.062 82.464C218.67 81.578 223.345 81.0882 228.036 81Z" fill="#263238"/>
<path d="M228.942 45.696C225.564 45.348 222.708 46.83 220.014 48.894C217.329 51.0177 215.357 53.9108 214.362 57.186C213.242 60.6169 213.267 64.3187 214.434 67.734C215.03 69.4269 215.963 70.9813 217.177 72.3034C218.391 73.6254 219.86 74.6877 221.496 75.426C225.984 77.346 231.498 76.212 235.194 73.026C238.89 69.84 240.792 64.824 240.66 59.934C240.618 56.5422 239.507 53.25 237.486 50.526C236.467 49.1831 235.182 48.0641 233.713 47.2384C232.243 46.4126 230.619 45.8979 228.942 45.726" fill="#263238"/>
<path d="M220.2 57.684C220.602 56.376 220.32 54.96 220.422 53.592C220.656 50.592 222.906 48.03 225.606 46.686C228.126 45.432 231.3 45.486 234.48 46.266C236.687 46.7784 238.703 47.9108 240.288 49.53C241.303 50.6317 242.039 51.9606 242.435 53.4054C242.831 54.8503 242.874 56.3689 242.562 57.834L227.148 56.634C225.865 57.9851 224.369 59.1162 222.72 59.982C222.236 60.2364 221.694 60.3604 221.148 60.342C220.867 60.3272 220.596 60.2299 220.37 60.0624C220.144 59.8949 219.972 59.6645 219.876 59.4C219.696 58.848 220.002 58.254 220.2 57.684Z" fill="#263238"/>
<path d="M235.068 50.4601L221.922 54.1561C221.303 54.238 220.737 54.5491 220.336 55.0278C219.935 55.5065 219.728 56.1182 219.756 56.7421L221.808 85.5841C221.949 87.5529 222.733 89.4208 224.04 90.9001L225.42 92.4541C228.564 96.0061 234.42 95.2441 236.352 90.9181C236.469 90.672 236.554 90.4118 236.604 90.1441C236.647 89.9263 236.675 89.7057 236.688 89.4841C236.824 88.0242 236.806 86.5541 236.634 85.0981C236.598 82.5241 236.568 81.4681 236.568 81.4981C236.568 81.5281 241.968 80.4481 242.916 73.3321C243.384 69.7861 243.054 64.0141 242.628 59.2921C242.25 55.0441 239.292 49.8961 235.068 50.4601Z" fill="#FFBE9D"/>
<path d="M240.102 63.828C240.109 64.0656 240.023 64.2965 239.863 64.4721C239.703 64.6478 239.481 64.7546 239.244 64.77C239.129 64.7824 239.013 64.7716 238.902 64.7383C238.791 64.7049 238.688 64.6497 238.6 64.5758C238.511 64.5019 238.437 64.411 238.384 64.3083C238.331 64.2056 238.299 64.0933 238.29 63.978C238.28 63.7417 238.363 63.5108 238.521 63.3347C238.679 63.1587 238.9 63.0515 239.136 63.036C239.252 63.0228 239.369 63.0329 239.481 63.0658C239.593 63.0987 239.697 63.1537 239.787 63.2276C239.877 63.3015 239.951 63.3927 240.005 63.4958C240.059 63.599 240.092 63.7119 240.102 63.828Z" fill="#263238"/>
<path d="M241.458 62.328C241.344 62.448 240.642 61.956 239.658 61.986C238.674 62.016 237.978 62.526 237.858 62.406C237.738 62.286 237.912 62.136 238.218 61.902C238.633 61.598 239.132 61.4303 239.646 61.422C240.157 61.4058 240.659 61.553 241.08 61.842C241.404 62.064 241.512 62.274 241.458 62.328Z" fill="#263238"/>
<path d="M230.838 64.3141C230.846 64.551 230.762 64.7819 230.603 64.9578C230.444 65.1336 230.223 65.2406 229.986 65.2561C229.871 65.2685 229.754 65.2577 229.643 65.2244C229.532 65.1911 229.429 65.136 229.339 65.0622C229.25 64.9884 229.176 64.8975 229.122 64.7948C229.068 64.692 229.036 64.5796 229.026 64.4641C229.018 64.2271 229.102 63.9962 229.261 63.8204C229.42 63.6445 229.641 63.5375 229.878 63.5221C229.993 63.5097 230.11 63.5204 230.221 63.5537C230.332 63.587 230.435 63.6422 230.525 63.716C230.614 63.7898 230.688 63.8807 230.742 63.9834C230.796 64.0861 230.828 64.1985 230.838 64.3141Z" fill="#263238"/>
<path d="M231.84 62.766C231.732 62.886 231.03 62.4 230.04 62.424C229.05 62.448 228.36 62.964 228.24 62.844C228.12 62.724 228.294 62.58 228.606 62.34C229.021 62.0361 229.52 61.8684 230.034 61.86C230.542 61.8452 231.043 61.9922 231.462 62.28C231.786 62.502 231.894 62.712 231.84 62.766Z" fill="#263238"/>
<path d="M235.584 69.9301C236.096 69.7537 236.628 69.6428 237.168 69.6001C237.42 69.6001 237.654 69.5101 237.69 69.3421C237.703 69.083 237.638 68.8259 237.504 68.6041L236.712 66.7201C235.614 64.0381 234.816 61.8301 234.912 61.7881C235.008 61.7461 235.998 63.8821 237.096 66.5881L237.852 68.4841C238.019 68.7812 238.074 69.1279 238.008 69.4621C237.976 69.5527 237.923 69.6343 237.853 69.7C237.783 69.7658 237.698 69.8138 237.606 69.8401C237.469 69.8802 237.328 69.9024 237.186 69.9061C236.655 69.9818 236.117 69.9898 235.584 69.9301Z" fill="#263238"/>
<path d="M236.568 81.492C233.233 81.63 229.924 80.8408 227.01 79.212C227.01 79.212 229.524 84.054 236.61 83.202L236.568 81.492Z" fill="#EB996E"/>
<path d="M235.236 72.3C235.043 72.0728 234.795 71.8986 234.516 71.7936C234.236 71.6886 233.935 71.6564 233.64 71.7C233.426 71.7202 233.218 71.7839 233.029 71.887C232.84 71.9902 232.675 72.1307 232.542 72.3C232.41 72.47 232.334 72.6771 232.325 72.8923C232.317 73.1075 232.376 73.32 232.494 73.5C232.657 73.6691 232.866 73.7865 233.096 73.8377C233.325 73.8888 233.564 73.8716 233.784 73.788C234.244 73.6132 234.664 73.348 235.02 73.008C235.125 72.9252 235.216 72.8259 235.29 72.714C235.325 72.6596 235.344 72.596 235.344 72.531C235.344 72.4661 235.325 72.4025 235.29 72.348" fill="#EB996E"/>
<path d="M232.728 70.6801C232.884 70.6801 232.914 71.7301 233.844 72.4801C234.774 73.2301 235.902 73.08 235.914 73.212C235.926 73.344 235.668 73.4221 235.188 73.4461C234.566 73.4726 233.954 73.2793 233.46 72.9001C232.988 72.5336 232.678 71.9976 232.596 71.4061C232.542 70.9441 232.65 70.6801 232.728 70.6801Z" fill="#263238"/>
<path d="M231.93 59.802C231.84 60.072 230.856 59.97 229.716 60.144C228.576 60.318 227.652 60.648 227.49 60.414C227.418 60.3 227.574 60.048 227.94 59.778C228.432 59.4538 228.993 59.2484 229.578 59.178C230.165 59.0928 230.763 59.1483 231.324 59.34C231.75 59.472 231.966 59.676 231.93 59.802Z" fill="#263238"/>
<path d="M241.056 58.0561C240.894 58.2841 240.21 58.0561 239.4 58.0561C238.59 58.0561 237.906 58.2481 237.744 58.0201C237.672 57.9061 237.774 57.6841 238.068 57.4621C238.463 57.1977 238.928 57.0565 239.403 57.0565C239.878 57.0565 240.343 57.1977 240.738 57.4621C241.032 57.7201 241.134 57.9481 241.056 58.0561Z" fill="#263238"/>
<path d="M217.602 55.8C218.718 51.648 224.388 45.726 228.684 45.828L235.71 49.62C235.54 50.7965 235.056 51.9054 234.308 52.8294C233.561 53.7535 232.577 54.4585 231.462 54.87C230.262 55.296 228.822 55.47 228.15 56.532C227.478 57.594 227.964 59.154 227.328 60.282C226.452 61.842 223.86 61.89 223.224 63.564C222.942 64.29 223.146 65.142 222.852 65.868C222.468 66.834 220.122 68.148 219.114 67.878C218.106 67.608 218.028 65.916 217.662 65.046C217.207 64.0644 217.105 62.9559 217.374 61.908C217.716 59.88 217.068 57.768 217.602 55.8Z" fill="#263238"/>
<path d="M222.084 68.5681C222.084 68.0401 221.424 66.8101 220.884 66.7681C219.486 66.5881 216.984 66.7681 217.05 70.3021C217.152 75.1381 221.982 74.0461 221.988 73.9021C221.994 73.7581 222.132 70.3921 222.084 68.5681Z" fill="#FFBE9D"/>
<path d="M220.488 72.078C220.488 72.078 220.404 72.138 220.266 72.21C220.064 72.2911 219.838 72.2911 219.636 72.21C219.12 72.036 218.676 71.232 218.634 70.362C218.612 69.9512 218.684 69.5409 218.844 69.162C218.883 69.0116 218.958 68.873 219.063 68.7581C219.167 68.6431 219.298 68.5552 219.444 68.502C219.541 68.4733 219.644 68.4799 219.737 68.5206C219.829 68.5612 219.904 68.6333 219.948 68.724C220.014 68.856 219.99 68.952 220.014 68.964C220.038 68.976 220.116 68.88 220.074 68.682C220.043 68.5629 219.973 68.4574 219.876 68.382C219.81 68.3317 219.735 68.2956 219.654 68.276C219.573 68.2563 219.49 68.2536 219.408 68.268C219.211 68.3129 219.028 68.4068 218.877 68.5411C218.726 68.6753 218.612 68.8456 218.544 69.036C218.346 69.4573 218.255 69.9211 218.28 70.386C218.328 71.364 218.844 72.264 219.546 72.45C219.677 72.4861 219.814 72.492 219.947 72.467C220.08 72.442 220.205 72.387 220.314 72.306C220.482 72.198 220.506 72.09 220.488 72.078Z" fill="#EB996E"/>
<path d="M216.486 54.6C216.402 53.088 214.458 52.2 212.964 51.978C211.446 51.8175 209.921 52.2141 208.674 53.094C207.93 53.568 207.186 54.222 207.072 55.098C206.958 55.974 207.858 56.952 208.662 56.586C208.271 56.747 207.921 56.9923 207.636 57.3043C207.352 57.6164 207.139 57.9875 207.015 58.3911C206.89 58.7948 206.856 59.221 206.915 59.6393C206.974 60.0576 207.125 60.4576 207.357 60.8109C207.589 61.1641 207.896 61.4617 208.256 61.6826C208.616 61.9034 209.02 62.042 209.44 62.0883C209.86 62.1347 210.285 62.0877 210.685 61.9507C211.084 61.8138 211.449 61.5902 211.752 61.296C211.423 62.7218 210.617 63.9922 209.466 64.896C210.725 64.9888 211.986 64.7489 213.123 64.2005C214.26 63.6521 215.233 62.8145 215.944 61.7715C216.655 60.7286 217.079 59.517 217.174 58.2583C217.27 56.9996 217.032 55.738 216.486 54.6Z" fill="#263238"/>
<path d="M208.068 75.312C208.068 75.084 208.698 74.976 209.556 74.712C210.652 74.4079 211.68 73.8989 212.586 73.212C213.474 72.4995 214.217 71.6238 214.776 70.632C215.238 69.858 215.484 69.3 215.712 69.336C215.94 69.372 216.072 70.014 215.832 71.046C215.475 72.405 214.682 73.6098 213.576 74.4764C212.47 75.3431 211.111 75.8241 209.706 75.846C208.644 75.828 208.044 75.522 208.068 75.312Z" fill="#263238"/>
<path d="M213.642 62.49C213.469 62.0313 213.375 61.5463 213.366 61.056C213.197 58.6739 213.831 56.3038 215.166 54.324C215.418 53.9021 215.741 53.5267 216.12 53.214C215.195 54.5597 214.481 56.0387 214.002 57.6C213.635 59.2023 213.513 60.8512 213.642 62.49Z" fill="#FF9902"/>
<path d="M234.216 48.24C234.786 50.172 237.936 52.494 239.346 53.94C242.034 56.688 242.592 57.624 242.994 64.14C244.026 61.812 244.794 59.544 244.524 57.012C244.299 54.4485 243.147 52.0549 241.284 50.28C240.346 49.4137 239.218 48.7778 237.992 48.4227C236.765 48.0675 235.472 48.0029 234.216 48.234" fill="#263238"/>
<path d="M265.74 104.658C265.74 104.658 262.512 118.074 261.186 123.858C259.8 130.02 256.716 144 248.532 141.96C242.304 140.424 243.69 132.36 243.69 132.36L249 113.922L253.92 114.48L258.438 103.356L263.31 98.2261L265.74 104.658Z" fill="#FFBE9D"/>
<path d="M245.862 132.84C245.588 131.864 245.533 130.84 245.7 129.84C245.906 128.769 246.296 127.742 246.852 126.804C247.568 125.66 248.37 124.573 249.252 123.552C250.138 122.515 250.94 121.41 251.652 120.246C252.218 119.288 252.704 118.285 253.104 117.246C253.371 116.546 253.596 115.831 253.776 115.104C253.857 114.841 253.907 114.569 253.926 114.294C253.814 114.544 253.721 114.803 253.65 115.068C253.488 115.566 253.248 116.268 252.882 117.156C252.457 118.17 251.958 119.15 251.388 120.09C250.666 121.23 249.864 122.316 248.988 123.342C248.097 124.377 247.294 125.485 246.588 126.654C246.024 127.627 245.644 128.694 245.466 129.804C245.351 130.555 245.383 131.322 245.562 132.06C245.612 132.265 245.678 132.466 245.76 132.66C245.814 132.78 245.85 132.846 245.862 132.84Z" fill="#EB996E"/>
<path d="M258.06 104.4C258.06 104.16 258.18 100.254 258.258 99.2341C258.321 98.5885 258.502 97.96 258.792 97.3801C258.904 97.1677 259.063 96.9837 259.256 96.8422C259.45 96.7008 259.674 96.6055 259.91 96.5638C260.146 96.5221 260.389 96.5351 260.62 96.6017C260.85 96.6683 261.062 96.7868 261.24 96.9481L261.33 97.0261C261.793 96.1195 262.451 95.3265 263.256 94.7041C264.402 93.9541 265.344 93.4441 266.328 94.0321C266.597 94.1651 266.826 94.3665 266.992 94.6161C267.159 94.8657 267.257 95.1547 267.276 95.4541C267.276 95.4541 268.734 95.2561 269.364 95.8441C269.994 96.4321 269.364 98.2081 269.364 98.2081C269.364 98.2081 270.66 97.8121 270.978 98.7601C271.137 99.4157 271.038 100.107 270.702 100.692C270.702 100.692 271.722 101.004 271.842 101.754C271.962 102.504 270.822 103.326 270.822 103.326L267.264 106.158C266.79 107.637 265.822 108.908 264.522 109.758C262.05 110.706 258.06 104.4 258.06 104.4Z" fill="#FFBE9D"/>
<path d="M260.772 100.146C260.808 100.146 260.802 100.296 260.694 100.476C260.56 100.715 260.348 100.902 260.094 101.004C259.829 101.093 259.543 101.093 259.278 101.004C259.08 100.938 258.984 100.842 259.002 100.8C259.02 100.758 259.488 100.866 259.98 100.674C260.472 100.482 260.688 100.104 260.772 100.146Z" fill="#EB996E"/>
<path d="M263.592 96.654C263.538 96.726 263.196 96.486 263.136 96.018C263.076 95.55 263.334 95.232 263.406 95.286C263.478 95.34 263.406 95.628 263.454 95.976C263.502 96.324 263.658 96.6 263.592 96.654Z" fill="#EB996E"/>
<path d="M269.538 98.172C269.538 98.172 269.286 98.538 268.752 99C268.047 99.5833 267.307 100.124 266.538 100.62C266.124 100.947 265.639 101.173 265.122 101.28C264.9 101.317 264.672 101.295 264.462 101.216C264.251 101.137 264.065 101.004 263.922 100.83C263.831 100.705 263.775 100.558 263.758 100.405C263.741 100.251 263.764 100.096 263.826 99.954C263.922 99.762 264.042 99.714 264.054 99.732C264.066 99.75 263.988 99.828 263.94 100.002C263.912 100.123 263.913 100.248 263.941 100.369C263.969 100.489 264.024 100.602 264.102 100.698C264.231 100.827 264.391 100.921 264.566 100.971C264.741 101.021 264.926 101.026 265.104 100.986C265.57 100.869 266.006 100.654 266.382 100.356C267.276 99.756 268.074 99.234 268.632 98.82C268.912 98.5752 269.216 98.3582 269.538 98.172Z" fill="#EB996E"/>
<path d="M270.678 100.674C269.598 101.344 268.464 101.922 267.288 102.402C266.836 102.654 266.334 102.802 265.818 102.834C265.589 102.846 265.362 102.789 265.166 102.671C264.969 102.554 264.812 102.381 264.714 102.174C264.678 102.091 264.66 102.001 264.66 101.91C264.66 101.819 264.678 101.73 264.714 101.646C264.767 101.523 264.857 101.42 264.972 101.352C265.17 101.244 265.296 101.304 265.29 101.316C265.284 101.328 265.176 101.316 265.044 101.454C264.963 101.528 264.908 101.627 264.887 101.735C264.867 101.843 264.882 101.955 264.93 102.054C265.02 102.207 265.152 102.331 265.311 102.411C265.469 102.49 265.648 102.523 265.824 102.504C266.294 102.455 266.75 102.31 267.162 102.078C268.294 101.515 269.47 101.046 270.678 100.674Z" fill="#EB996E"/>
<path d="M268.95 103.872C268.95 103.908 268.758 104.058 268.35 104.154C268.118 104.208 267.88 104.233 267.642 104.226C267.336 104.232 267.034 104.164 266.76 104.028C266.674 103.976 266.604 103.9 266.558 103.81C266.512 103.72 266.493 103.619 266.502 103.518C266.523 103.357 266.589 103.204 266.694 103.08C266.844 102.894 267.015 102.727 267.204 102.582C267.528 102.342 267.768 102.264 267.804 102.3C267.84 102.336 267.636 102.486 267.372 102.756C267.218 102.909 267.077 103.076 266.952 103.254C266.814 103.452 266.766 103.656 266.952 103.758C267.18 103.863 267.427 103.922 267.678 103.932C267.895 103.953 268.115 103.953 268.332 103.932C268.704 103.896 268.932 103.83 268.95 103.872Z" fill="#EB996E"/>
<path d="M265.572 104.466C265.591 103.921 265.457 103.382 265.184 102.91C264.911 102.438 264.511 102.053 264.03 101.797C263.548 101.542 263.005 101.428 262.461 101.467C261.917 101.506 261.396 101.697 260.956 102.019C260.516 102.341 260.175 102.78 259.973 103.286C259.771 103.792 259.715 104.345 259.812 104.881C259.91 105.418 260.156 105.916 260.523 106.319C260.89 106.722 261.363 107.013 261.888 107.16L261.858 107.97L262.65 108.57L261.816 109.038L261.78 110.052L262.572 110.652L261.738 111.12L261.708 111.99L262.188 112.35L261.684 112.632V113.142L262.284 113.826L263.484 113.112L263.712 107.112C264.249 106.904 264.712 106.542 265.043 106.071C265.375 105.6 265.558 105.042 265.572 104.466ZM262.746 102.234C262.911 102.24 263.07 102.295 263.204 102.391C263.337 102.488 263.44 102.622 263.497 102.776C263.555 102.931 263.565 103.099 263.527 103.26C263.489 103.42 263.404 103.566 263.284 103.678C263.163 103.79 263.012 103.864 262.849 103.891C262.686 103.917 262.519 103.895 262.369 103.826C262.219 103.758 262.093 103.646 262.006 103.506C261.919 103.366 261.876 103.203 261.882 103.038C261.886 102.928 261.911 102.821 261.957 102.721C262.002 102.621 262.067 102.532 262.147 102.457C262.228 102.382 262.322 102.324 262.424 102.286C262.527 102.248 262.636 102.23 262.746 102.234Z" fill="#263238"/>
<path d="M262.746 102.234C262.746 102.234 262.674 102.234 262.548 102.27C262.368 102.313 262.208 102.414 262.092 102.558C262.002 102.675 261.947 102.815 261.931 102.962C261.916 103.109 261.941 103.257 262.005 103.391C262.068 103.524 262.167 103.638 262.291 103.719C262.414 103.8 262.558 103.845 262.705 103.85C262.853 103.854 262.999 103.818 263.127 103.745C263.256 103.673 263.362 103.566 263.434 103.437C263.505 103.308 263.54 103.161 263.534 103.014C263.528 102.866 263.482 102.723 263.4 102.6C263.295 102.448 263.144 102.334 262.968 102.276C262.848 102.24 262.77 102.24 262.77 102.228H262.8C262.852 102.221 262.904 102.221 262.956 102.228C263.142 102.277 263.306 102.39 263.418 102.546C263.503 102.663 263.557 102.8 263.575 102.944C263.593 103.088 263.574 103.234 263.52 103.368C263.457 103.528 263.346 103.664 263.202 103.758C263.051 103.862 262.87 103.915 262.686 103.908C262.501 103.901 262.322 103.836 262.176 103.722C262.042 103.613 261.942 103.467 261.888 103.302C261.847 103.164 261.84 103.018 261.868 102.877C261.897 102.736 261.959 102.604 262.05 102.492C262.177 102.345 262.351 102.246 262.542 102.21C262.592 102.205 262.642 102.205 262.692 102.21L262.746 102.234Z" fill="#263238"/>
<path d="M265.572 104.466V104.526V104.7C265.549 104.921 265.5 105.138 265.428 105.348C265.308 105.687 265.125 106.001 264.888 106.272C264.566 106.646 264.152 106.931 263.688 107.1C263.628 108.654 263.556 110.7 263.472 113.1L262.272 113.82L261.672 113.136C261.672 112.974 261.672 112.8 261.672 112.626L262.176 112.344V112.404L261.69 112.038C261.69 111.768 261.69 111.438 261.72 111.168L262.554 110.706V110.766L261.762 110.166V109.8C261.762 109.548 261.762 109.302 261.792 109.056L262.626 108.588V108.648L261.834 108.048C261.834 107.772 261.834 107.502 261.864 107.238V107.274C261.417 107.146 261.007 106.916 260.664 106.602C260.497 106.451 260.35 106.28 260.226 106.092C259.927 105.655 259.752 105.145 259.722 104.616C259.691 104.088 259.805 103.561 260.052 103.092C260.272 102.664 260.595 102.298 260.991 102.025C261.388 101.752 261.846 101.582 262.324 101.529C262.802 101.476 263.286 101.543 263.732 101.722C264.179 101.902 264.574 102.189 264.882 102.558C265.138 102.857 265.328 103.207 265.44 103.584L265.476 103.692V103.8C265.476 103.872 265.506 103.932 265.512 103.998C265.518 104.064 265.542 104.22 265.542 104.304V104.4C265.545 104.42 265.545 104.44 265.542 104.46V104.208C265.542 104.124 265.542 104.022 265.506 103.902C265.497 103.837 265.483 103.773 265.464 103.71V103.602L265.428 103.494C265.315 103.122 265.125 102.779 264.87 102.486C264.532 102.091 264.095 101.793 263.604 101.622C263.085 101.448 262.527 101.425 261.996 101.557C261.465 101.688 260.982 101.969 260.604 102.365C260.227 102.761 259.97 103.256 259.863 103.793C259.757 104.33 259.806 104.886 260.004 105.396C260.079 105.608 260.18 105.809 260.304 105.996C260.427 106.179 260.572 106.347 260.736 106.494C261.069 106.802 261.47 107.026 261.906 107.148H261.936C261.936 107.418 261.936 107.688 261.906 107.958L262.704 108.558H262.746L262.698 108.588L261.864 109.05V109.02C261.864 109.266 261.864 109.518 261.864 109.764V110.034L262.656 110.634L262.698 110.67H262.65L261.816 111.138C261.816 111.438 261.816 111.738 261.786 112.008L262.272 112.368L262.314 112.404H262.266L261.762 112.692C261.762 112.866 261.762 113.04 261.762 113.196L262.362 113.88H262.32L263.52 113.166V113.196C263.616 110.796 263.694 108.732 263.754 107.196C264.203 107.028 264.603 106.752 264.918 106.392C265.151 106.122 265.334 105.814 265.458 105.48C265.533 105.27 265.585 105.053 265.614 104.832V104.664C265.617 104.595 265.603 104.527 265.572 104.466Z" fill="#263238"/>
<path d="M265.272 104.304C265.293 103.758 265.159 103.216 264.887 102.742C264.614 102.268 264.213 101.881 263.73 101.624C263.247 101.367 262.702 101.252 262.157 101.291C261.611 101.33 261.088 101.522 260.646 101.844C260.205 102.167 259.863 102.608 259.661 103.116C259.458 103.624 259.403 104.179 259.501 104.716C259.6 105.254 259.848 105.754 260.217 106.157C260.586 106.561 261.061 106.852 261.588 106.998L261.558 107.802L262.35 108.402L261.516 108.864L261.48 109.878L262.272 110.478L261.438 110.94L261.402 111.81L261.888 112.176L261.378 112.458V112.962L261.978 113.646L263.178 112.932L263.406 106.932C263.942 106.727 264.405 106.368 264.737 105.901C265.069 105.433 265.255 104.877 265.272 104.304ZM262.446 102.072C262.556 102.076 262.663 102.101 262.763 102.147C262.863 102.192 262.952 102.257 263.027 102.337C263.102 102.418 263.16 102.512 263.198 102.615C263.236 102.717 263.254 102.827 263.25 102.936C263.246 103.046 263.22 103.153 263.174 103.253C263.128 103.352 263.063 103.442 262.982 103.516C262.902 103.59 262.808 103.648 262.705 103.686C262.602 103.724 262.493 103.741 262.383 103.737C262.273 103.733 262.166 103.707 262.066 103.661C261.967 103.615 261.877 103.55 261.803 103.469C261.729 103.389 261.671 103.295 261.633 103.192C261.595 103.089 261.578 102.98 261.582 102.87C261.591 102.65 261.688 102.442 261.849 102.293C262.011 102.143 262.226 102.064 262.446 102.072Z" fill="#FF9902"/>
<path d="M262.446 102.072C262.378 102.069 262.31 102.069 262.242 102.072C262.064 102.115 261.906 102.217 261.792 102.36C261.707 102.464 261.65 102.588 261.626 102.72C261.602 102.853 261.612 102.989 261.654 103.116C261.705 103.272 261.802 103.409 261.933 103.509C262.064 103.609 262.222 103.666 262.386 103.674C262.549 103.677 262.709 103.631 262.846 103.542C262.982 103.453 263.09 103.326 263.154 103.176C263.197 103.072 263.219 102.96 263.216 102.847C263.214 102.734 263.188 102.622 263.14 102.52C263.092 102.418 263.023 102.327 262.937 102.253C262.852 102.179 262.752 102.123 262.644 102.09C262.579 102.071 262.513 102.055 262.446 102.042H262.5C262.55 102.036 262.6 102.036 262.65 102.042C262.839 102.089 263.005 102.202 263.118 102.36C263.248 102.548 263.298 102.78 263.258 103.005C263.217 103.23 263.089 103.429 262.902 103.56C262.749 103.665 262.566 103.717 262.38 103.71C262.196 103.7 262.02 103.633 261.876 103.518C261.758 103.438 261.663 103.328 261.6 103.2C261.564 103.085 261.552 102.964 261.566 102.845C261.58 102.726 261.619 102.61 261.68 102.507C261.741 102.403 261.823 102.314 261.921 102.244C262.019 102.174 262.13 102.126 262.248 102.102C262.3 102.093 262.352 102.093 262.404 102.102L262.446 102.072Z" fill="#263238"/>
<path d="M265.272 104.304V104.364V104.532C265.248 104.755 265.2 104.974 265.128 105.186C265.003 105.523 264.82 105.836 264.588 106.11C264.262 106.48 263.85 106.765 263.388 106.938C263.334 108.492 263.262 110.538 263.178 112.938L261.978 113.652L261.378 112.968C261.378 112.812 261.378 112.638 261.378 112.464L261.882 112.176V112.236L261.402 111.876C261.402 111.6 261.402 111.306 261.432 111.006L262.266 110.538V110.598L261.474 109.998V109.728C261.474 109.482 261.474 109.23 261.504 108.984L262.338 108.522V108.582L261.546 107.982C261.546 107.712 261.546 107.442 261.576 107.172V107.208C261.127 107.085 260.715 106.854 260.376 106.536C260.208 106.385 260.059 106.214 259.932 106.026C259.807 105.839 259.704 105.637 259.626 105.426C259.483 105.056 259.416 104.661 259.43 104.264C259.443 103.868 259.537 103.478 259.705 103.119C259.873 102.759 260.112 102.438 260.408 102.173C260.704 101.909 261.05 101.707 261.426 101.58C262.041 101.375 262.707 101.375 263.322 101.58C263.802 101.709 264.241 101.957 264.6 102.3C264.853 102.601 265.043 102.95 265.158 103.326L265.194 103.44V103.548C265.194 103.614 265.224 103.68 265.23 103.74C265.236 103.8 265.26 103.968 265.26 104.046V104.304C265.261 104.282 265.261 104.26 265.26 104.238V104.052C265.26 103.968 265.26 103.866 265.23 103.74C265.2 103.614 265.2 103.62 265.188 103.548V103.446L265.152 103.332C265.034 102.961 264.842 102.618 264.588 102.324C264.252 101.928 263.815 101.631 263.322 101.466C262.719 101.262 262.065 101.262 261.462 101.466C260.765 101.711 260.187 102.211 259.842 102.864C259.654 103.227 259.545 103.626 259.522 104.035C259.499 104.443 259.563 104.852 259.71 105.234C259.79 105.444 259.893 105.646 260.016 105.834C260.138 106.018 260.283 106.185 260.448 106.332C260.781 106.639 261.182 106.863 261.618 106.986H261.6V107.016C261.6 107.28 261.6 107.55 261.6 107.826V107.796C261.864 107.988 262.128 108.192 262.392 108.396L262.44 108.432H262.392L261.558 108.9V108.87C261.558 109.116 261.558 109.362 261.528 109.614C261.528 109.704 261.528 109.794 261.528 109.878L262.32 110.478H262.368L262.32 110.508L261.486 110.97C261.486 111.27 261.486 111.57 261.45 111.84L261.936 112.206L261.978 112.236H261.93L261.42 112.518C261.42 112.692 261.42 112.866 261.42 113.022L262.02 113.712H261.978L263.178 112.998V113.028C263.268 110.628 263.352 108.564 263.412 107.028C263.861 106.856 264.263 106.578 264.582 106.218C264.813 105.947 264.995 105.639 265.122 105.306C265.197 105.098 265.25 104.883 265.278 104.664V104.49C265.261 104.462 265.251 104.43 265.25 104.398C265.249 104.365 265.257 104.333 265.272 104.304Z" fill="#263238"/>
<path d="M264.924 104.328C264.915 104.127 264.891 103.926 264.852 103.728C264.803 103.488 264.715 103.257 264.594 103.044C264.443 102.76 264.24 102.507 263.994 102.3C263.665 102.027 263.272 101.843 262.852 101.766C262.432 101.688 261.999 101.719 261.594 101.856C261.361 101.928 261.14 102.035 260.94 102.174C260.837 102.245 260.738 102.323 260.646 102.408C260.554 102.496 260.468 102.59 260.388 102.69C260.05 103.112 259.856 103.631 259.836 104.171C259.815 104.711 259.969 105.244 260.274 105.69C260.349 105.796 260.429 105.898 260.514 105.996C260.6 106.086 260.692 106.17 260.79 106.248C260.97 106.4 261.172 106.524 261.39 106.614C261.81 106.784 262.267 106.84 262.716 106.776C263.105 106.723 263.475 106.577 263.796 106.35C264.063 106.162 264.293 105.926 264.474 105.654C264.607 105.448 264.71 105.224 264.78 104.988C264.835 104.791 264.876 104.591 264.9 104.388V104.556C264.9 104.61 264.9 104.676 264.9 104.754C264.9 104.832 264.87 104.916 264.84 105.018C264.775 105.259 264.672 105.488 264.534 105.696C264.356 105.975 264.125 106.217 263.856 106.41C263.528 106.643 263.15 106.796 262.752 106.854C262.294 106.923 261.826 106.869 261.396 106.698C261.164 106.606 260.947 106.479 260.754 106.32C260.654 106.239 260.558 106.153 260.466 106.062C260.378 105.965 260.297 105.86 260.226 105.75C259.913 105.294 259.756 104.75 259.776 104.198C259.797 103.646 259.994 103.115 260.34 102.684C260.422 102.58 260.51 102.482 260.604 102.39C260.7 102.305 260.803 102.227 260.91 102.156C261.203 101.952 261.535 101.813 261.886 101.747C262.237 101.681 262.597 101.689 262.944 101.772C263.338 101.859 263.704 102.04 264.012 102.3C264.259 102.514 264.462 102.772 264.612 103.062C264.729 103.281 264.814 103.515 264.864 103.758C264.883 103.847 264.895 103.937 264.9 104.028C264.905 104.094 264.905 104.16 264.9 104.226V104.388L264.924 104.328Z" fill="#263238"/>
<path d="M263.4 102.948C263.392 102.869 263.38 102.791 263.364 102.714C263.319 102.502 263.2 102.312 263.028 102.18C262.912 102.087 262.777 102.021 262.632 101.988C262.466 101.953 262.294 101.964 262.134 102.018C261.955 102.072 261.797 102.181 261.684 102.33C261.561 102.486 261.491 102.677 261.486 102.876C261.478 103.072 261.532 103.265 261.639 103.429C261.747 103.592 261.903 103.718 262.086 103.788C262.233 103.847 262.393 103.869 262.551 103.852C262.709 103.835 262.86 103.78 262.992 103.692C263.17 103.569 263.301 103.389 263.364 103.182C263.387 103.105 263.405 103.027 263.418 102.948C263.418 102.948 263.418 102.948 263.418 103.014C263.414 103.075 263.404 103.135 263.388 103.194C263.33 103.412 263.198 103.602 263.016 103.734C262.888 103.825 262.74 103.885 262.584 103.908C262.396 103.938 262.204 103.913 262.03 103.838C261.856 103.762 261.707 103.639 261.6 103.482C261.477 103.306 261.414 103.096 261.42 102.882C261.429 102.664 261.506 102.454 261.642 102.282C261.767 102.125 261.936 102.01 262.128 101.952C262.302 101.901 262.488 101.901 262.662 101.952C262.814 101.988 262.955 102.058 263.076 102.156C263.256 102.309 263.373 102.522 263.406 102.756C263.414 102.816 263.414 102.876 263.406 102.936C263.4 102.93 263.4 102.948 263.4 102.948Z" fill="#263238"/>
<path d="M262.8 113.07C262.8 113.07 262.8 111.696 262.878 110.01C262.956 108.324 263.01 106.95 263.028 106.95C263.046 106.95 263.028 108.318 262.95 110.01C262.872 111.702 262.8 113.07 262.8 113.07Z" fill="#263238"/>
<path d="M262.698 102.36C262.637 102.39 262.571 102.405 262.503 102.405C262.435 102.405 262.369 102.39 262.308 102.36V98.67L262.698 98.7V102.36Z" fill="#E0E0E0"/>
<path d="M262.5 102.42C262.431 102.418 262.364 102.402 262.302 102.372V98.658L262.722 98.688V102.372C262.653 102.405 262.577 102.422 262.5 102.42ZM262.326 102.348C262.381 102.375 262.442 102.388 262.503 102.388C262.564 102.388 262.625 102.375 262.68 102.348V98.712H262.32L262.326 102.348Z" fill="#263238"/>
<path d="M261 96.858C261.327 97.1373 261.674 97.392 262.038 97.62C262.22 97.7379 262.372 97.8962 262.482 98.0825C262.592 98.2688 262.658 98.4781 262.674 98.694C262.642 98.9143 262.555 99.1228 262.421 99.3002C262.287 99.4775 262.109 99.6179 261.906 99.708C261.628 99.8575 261.324 99.9508 261.01 99.9825C260.696 100.014 260.379 99.9839 260.077 99.893C259.775 99.8022 259.494 99.6528 259.25 99.4532C259.006 99.2536 258.803 99.0079 258.654 98.73" fill="#FFBE9D"/>
<path d="M258.678 98.73C258.929 98.9966 259.202 99.2415 259.494 99.462C259.819 99.6688 260.19 99.7925 260.574 99.822C261.041 99.8572 261.508 99.755 261.918 99.528C262.115 99.4394 262.279 99.2907 262.387 99.1032C262.495 98.9158 262.541 98.699 262.518 98.484C262.398 98.1283 262.164 97.8224 261.852 97.614C261.282 97.23 260.964 96.894 261.012 96.858C261.06 96.822 261.366 97.08 261.978 97.428C262.361 97.641 262.654 97.9867 262.8 98.4C262.863 98.6742 262.818 98.9622 262.674 99.204C262.527 99.4509 262.321 99.6571 262.074 99.804C261.607 100.066 261.07 100.175 260.538 100.116C260.103 100.07 259.689 99.9086 259.338 99.648C258.78 99.198 258.648 98.736 258.678 98.73Z" fill="#EB996E"/>
<path d="M264.696 95.328C263.999 96.1376 263.395 97.0232 262.896 97.968C262.736 98.2575 262.643 98.5796 262.626 98.91C262.619 99.0761 262.656 99.2412 262.733 99.3886C262.809 99.5361 262.924 99.6607 263.064 99.75C263.192 99.8108 263.333 99.8424 263.475 99.8424C263.617 99.8424 263.758 99.8108 263.886 99.75C264.139 99.6263 264.37 99.4621 264.57 99.264C265.394 98.5119 266.142 97.6799 266.802 96.78C266.974 96.5708 267.108 96.3332 267.198 96.078C267.246 95.951 267.266 95.8153 267.258 95.6799C267.249 95.5444 267.213 95.4123 267.15 95.292" fill="#FFBE9D"/>
<path d="M267.156 95.286C267.156 95.286 267.306 95.406 267.324 95.73C267.305 96.1751 267.131 96.5995 266.832 96.93C266.468 97.4505 266.067 97.9438 265.632 98.406C265.392 98.67 265.128 98.94 264.846 99.204C264.561 99.5172 264.214 99.7667 263.826 99.936C263.602 100.008 263.36 100.008 263.136 99.936C262.908 99.8608 262.718 99.6993 262.608 99.486C262.524 99.2972 262.48 99.0928 262.48 98.886C262.48 98.6792 262.524 98.4748 262.608 98.286C262.857 97.6941 263.18 97.1358 263.568 96.624C263.891 96.1397 264.274 95.6983 264.708 95.31C264.42 95.8113 264.102 96.2942 263.754 96.756C263.406 97.2639 263.116 97.8093 262.89 98.382C262.822 98.5318 262.787 98.6945 262.787 98.859C262.787 99.0236 262.822 99.1862 262.89 99.336C262.972 99.4782 263.104 99.5851 263.26 99.636C263.416 99.687 263.586 99.6784 263.736 99.612C264.077 99.4562 264.383 99.2339 264.636 98.958C264.918 98.7 265.182 98.442 265.422 98.19C265.908 97.68 266.316 97.2 266.622 96.78C266.909 96.4875 267.101 96.1154 267.174 95.712C267.181 95.5698 267.175 95.4271 267.156 95.286Z" fill="#EB996E"/>
<path d="M276.6 288.102C276.6 288.192 218.298 288.258 146.4 288.258C74.502 288.258 16.2 288.192 16.2 288.102C16.2 288.012 74.49 287.946 146.4 287.946C218.31 287.946 276.6 288 276.6 288.102Z" fill="#263238"/>
<path d="M50.196 205.476C55.902 196.74 55.686 183.972 48.864 176.076C46.746 173.622 43.788 171.492 40.56 171.768C37.332 172.044 34.596 174.882 33.6 178.044C32.604 181.206 32.946 184.644 33.534 187.89C34.362 192.462 35.748 197.136 38.934 200.532C42.12 203.928 46.134 207.702 50.226 205.476" fill="#FF9902"/>
<path d="M47.646 247.2C48.6735 244.661 48.8752 241.863 48.2225 239.203C47.5699 236.542 46.096 234.155 44.01 232.38C42.696 231.306 41.01 230.478 39.342 230.916C37.674 231.354 36.552 233.058 36.342 234.78C36.2097 236.526 36.5042 238.279 37.2 239.886C38.04 242.16 39.18 244.446 41.118 245.886C43.056 247.326 45.774 248.718 47.67 247.2" fill="#FF9902"/>
<path d="M61.422 244.23C59.85 236.484 63.93 227.94 70.938 224.292C73.116 223.164 75.792 222.492 77.988 223.59C80.184 224.688 81.312 227.454 81.132 229.962C80.952 232.47 79.752 234.762 78.42 236.904C76.56 239.904 74.274 242.79 71.094 244.29C67.914 245.79 63.66 246.936 61.422 244.23Z" fill="#FF9902"/>
<path d="M60.432 223.29C57.696 214.464 62.334 203.766 70.032 198.69C72.432 197.118 75.468 196.026 78.15 197.046C80.832 198.066 82.47 201.15 82.554 204.084C82.638 207.018 81.51 209.844 80.214 212.484C78.414 216.174 76.08 219.816 72.558 221.934C69.036 224.052 63.33 226.134 60.408 223.278" fill="#FF9902"/>
<path d="M54.942 266.4C54.9871 266.262 55.0153 266.119 55.026 265.974C55.074 265.656 55.14 265.248 55.212 264.744C55.248 264.474 55.29 264.174 55.338 263.856C55.386 263.538 55.464 263.178 55.536 262.806C55.68 262.05 55.83 261.192 56.076 260.262C56.19 259.788 56.31 259.296 56.43 258.786C56.55 258.276 56.736 257.76 56.892 257.214C57.186 256.122 57.624 254.988 58.032 253.782C59.9449 248.588 62.57 243.685 65.832 239.214C66.612 238.206 67.314 237.216 68.064 236.37C68.43 235.932 68.784 235.518 69.12 235.11L70.2 234C70.842 233.28 71.472 232.68 72 232.146L72.762 231.396L73.434 230.796L74.358 229.962C74.4696 229.87 74.5721 229.768 74.664 229.656C74.5362 229.725 74.4174 229.81 74.31 229.908L73.338 230.688L72.642 231.258L71.856 231.99C71.292 232.512 70.656 233.1 69.984 233.79L68.928 234.888C68.586 235.29 68.226 235.71 67.854 236.136C67.086 236.982 66.372 237.972 65.574 238.98C63.9358 241.227 62.4447 243.578 61.11 246.018C59.8104 248.478 58.6759 251.022 57.714 253.632C57.312 254.832 56.886 255.99 56.604 257.1C56.448 257.646 56.304 258.174 56.16 258.684C56.016 259.194 55.932 259.698 55.824 260.172C55.596 261.114 55.464 261.972 55.338 262.74C55.278 263.118 55.218 263.472 55.164 263.796C55.11 264.12 55.104 264.396 55.074 264.696C55.026 265.2 54.99 265.614 54.96 265.938C54.9283 266.09 54.9222 266.246 54.942 266.4Z" fill="#263238"/>
<path d="M55.14 268.002C55.1477 267.942 55.1477 267.882 55.14 267.822C55.14 267.684 55.14 267.516 55.104 267.312C55.062 266.832 54.996 266.178 54.924 265.35C54.882 264.924 54.834 264.45 54.78 263.94C54.726 263.43 54.732 262.854 54.696 262.248C54.654 261.048 54.534 259.656 54.582 258.132C54.582 257.364 54.582 256.566 54.582 255.732C54.582 254.898 54.666 254.034 54.708 253.14C54.768 251.34 55.014 249.444 55.23 247.434C56.3466 238.736 58.8546 230.274 62.658 222.372C63.576 220.572 64.404 218.844 65.334 217.308C65.79 216.534 66.192 215.766 66.642 215.064L67.938 213.048C68.736 211.74 69.582 210.648 70.278 209.658C70.638 209.166 70.956 208.704 71.274 208.29L72.162 207.18L73.362 205.632L73.674 205.224C73.74 205.134 73.776 205.086 73.77 205.08C73.764 205.074 73.722 205.116 73.644 205.2L73.308 205.584L72.03 207.09L71.142 208.2C70.818 208.608 70.488 209.064 70.122 209.55C69.408 210.534 68.544 211.62 67.722 212.916L66.402 214.926C65.946 215.628 65.532 216.396 65.07 217.17C64.128 218.706 63.27 220.44 62.358 222.24C58.4993 230.154 55.9791 238.654 54.9 247.392C54.69 249.408 54.456 251.322 54.408 253.122C54.378 254.022 54.306 254.892 54.3 255.726C54.294 256.56 54.3 257.364 54.3 258.126C54.3 259.656 54.408 261.042 54.474 262.254C54.516 262.854 54.54 263.454 54.588 263.946C54.636 264.438 54.708 264.93 54.762 265.362C54.864 266.184 54.948 266.838 55.008 267.318C55.038 267.522 55.068 267.684 55.086 267.822C55.096 267.884 55.1141 267.945 55.14 268.002Z" fill="#263238"/>
<path d="M40.272 182.316C40.2921 182.373 40.3182 182.427 40.35 182.478C40.416 182.598 40.494 182.754 40.596 182.934L41.568 184.68C41.778 185.058 42.03 185.472 42.276 185.94L43.038 187.476L43.92 189.24C44.214 189.87 44.52 190.548 44.814 191.256C45.108 191.964 45.462 192.708 45.78 193.488C46.098 194.268 46.38 195.102 46.728 195.948L47.226 197.244C47.376 197.694 47.532 198.144 47.688 198.606C47.994 199.524 48.288 200.472 48.642 201.438C49.842 205.356 51 209.712 51.966 214.344C52.932 218.976 53.562 223.44 54.048 227.508C54.534 231.576 54.774 235.266 54.858 238.368C54.936 239.916 54.954 241.314 54.954 242.568C54.954 243.822 54.954 244.86 54.954 245.724C54.954 246.588 54.954 247.236 54.954 247.722V248.244C54.954 248.358 54.954 248.418 54.954 248.418C54.9609 248.36 54.9609 248.302 54.954 248.244C54.954 248.106 54.954 247.938 54.99 247.728C54.99 247.236 55.044 246.57 55.086 245.73C55.128 244.89 55.152 243.798 55.152 242.568C55.152 241.338 55.152 239.928 55.11 238.368C55.056 235.26 54.78 231.57 54.378 227.484C53.976 223.398 53.262 218.928 52.32 214.284C51.378 209.64 50.19 205.284 48.96 201.354L48 198.498C47.844 198.036 47.688 197.58 47.532 197.136L47.022 195.84L46.05 193.38C45.726 192.594 45.378 191.862 45.06 191.148C44.742 190.434 44.46 189.762 44.136 189.138C43.812 188.514 43.536 187.938 43.23 187.38C42.924 186.822 42.678 186.324 42.438 185.85C42.198 185.376 41.922 184.98 41.7 184.608L40.662 182.898C40.554 182.718 40.458 182.574 40.386 182.46C40.314 182.346 40.278 182.31 40.272 182.316Z" fill="#263238"/>
<path d="M42.216 235.908C42.3859 236.28 42.5866 236.637 42.816 236.976C43.236 237.642 43.806 238.632 44.478 239.868C45.15 241.104 45.894 242.604 46.644 244.302C47.394 246 48.102 247.902 48.744 249.972C49.386 252.042 49.842 254.01 50.208 255.834C50.574 257.658 50.808 259.32 50.922 260.724C51.036 262.128 51.15 263.256 51.18 264.042C51.1804 264.444 51.2146 264.846 51.282 265.242C51.324 264.844 51.3381 264.443 51.324 264.042C51.324 263.25 51.324 262.104 51.186 260.7C51.0544 259.048 50.8401 257.404 50.544 255.774C50.1692 253.777 49.6865 251.803 49.098 249.858C48.491 247.922 47.7759 246.021 46.956 244.164C46.188 242.46 45.42 240.96 44.712 239.736C44.004 238.512 43.398 237.54 42.912 236.898C42.7019 236.553 42.4694 236.222 42.216 235.908Z" fill="#263238"/>
<path d="M66.156 262.482H41.07L44.106 288.102H63.03L66.156 262.482Z" fill="#455A64"/>
<path d="M65.238 285.336L63.108 288.102H44.106L41.916 285.426L65.238 285.336Z" fill="#263238"/>
<path d="M42.048 270C42.048 270.102 47.256 270.186 53.676 270.186C60.096 270.186 65.298 270.102 65.298 270C65.298 269.898 60.096 269.814 53.676 269.814C47.256 269.814 42.048 269.916 42.048 270Z" fill="#FAFAFA"/>
<path d="M42.048 271.722C42.048 271.824 47.256 271.908 53.676 271.908C60.096 271.908 65.298 271.824 65.298 271.722C65.298 271.62 60.096 271.536 53.676 271.536C47.256 271.536 42.048 271.62 42.048 271.722Z" fill="#FAFAFA"/>
<path d="M42.36 273.372C42.36 273.48 47.382 273.564 53.58 273.564C59.778 273.564 64.8 273.48 64.8 273.372C64.8 273.264 59.778 273.186 53.58 273.186C47.382 273.186 42.36 273.27 42.36 273.372Z" fill="#FAFAFA"/>
<path d="M62.322 207.264C62.3127 207.346 62.3127 207.428 62.322 207.51C62.322 207.696 62.352 207.93 62.376 208.206C62.442 208.848 62.526 209.712 62.634 210.756C62.862 212.91 63.198 215.886 63.582 219.156C63.582 219.282 63.582 219.408 63.624 219.522V219.636H63.738C66.96 219.684 69.858 219.714 71.952 219.726H74.43H75.102C75.258 219.726 75.336 219.726 75.336 219.726C75.2616 219.706 75.185 219.696 75.108 219.696L74.436 219.666L71.958 219.588C69.864 219.528 66.966 219.468 63.738 219.42L63.864 219.528C63.864 219.414 63.864 219.288 63.822 219.162C63.438 215.88 63.078 212.91 62.802 210.762C62.664 209.718 62.55 208.86 62.46 208.218C62.424 207.942 62.388 207.714 62.358 207.528C62.363 207.439 62.3508 207.349 62.322 207.264Z" fill="#263238"/>
<path d="M68.028 199.602C68.0143 199.685 68.0143 199.771 68.028 199.854C68.028 200.046 68.028 200.286 68.028 200.574C68.028 201.234 68.028 202.128 68.028 203.22C68.064 205.452 68.124 208.536 68.208 211.938C68.208 212.076 68.208 212.214 68.208 212.34V212.472H68.34C71.1464 212.255 73.9626 212.191 76.776 212.28C77.85 212.28 78.72 212.358 79.32 212.388H80.01H80.25C80.25 212.388 80.172 212.388 80.016 212.34L79.326 212.262C78.726 212.202 77.862 212.13 76.782 212.07C73.9624 211.931 71.1368 211.969 68.322 212.184L68.46 212.31C68.46 212.184 68.46 212.046 68.46 211.908C68.376 208.5 68.286 205.422 68.208 203.19C68.166 202.104 68.13 201.21 68.106 200.55C68.106 200.262 68.106 200.022 68.064 199.83C68.059 199.753 68.047 199.677 68.028 199.602Z" fill="#263238"/>
<path d="M74.7 196.992C74.6306 197.234 74.5785 197.481 74.544 197.73C74.448 198.246 74.328 198.93 74.172 199.746C73.848 201.45 73.338 203.796 72.624 206.346L72.546 206.616L72.804 206.496L73.104 206.346C75.2176 205.345 77.4785 204.691 79.8 204.408C80.694 204.3 81.42 204.258 81.918 204.24C82.1788 204.252 82.44 204.237 82.698 204.198C82.6325 204.187 82.5656 204.187 82.5 204.198C82.368 204.198 82.17 204.168 81.9 204.168C81.1869 204.155 80.4735 204.185 79.764 204.258C77.4126 204.493 75.1203 205.137 72.99 206.16L72.684 206.31L72.864 206.454C73.4741 204.264 73.9688 202.042 74.346 199.8C74.49 198.942 74.586 198.246 74.64 197.766C74.6874 197.511 74.7075 197.251 74.7 196.992Z" fill="#263238"/>
<path d="M39.276 243.702C39.276 243.738 40.008 243.666 41.178 243.618C42.6996 243.56 44.2235 243.61 45.738 243.768C46.098 243.804 46.452 243.852 46.788 243.9H46.908V243.786C47.184 242.268 47.406 240.93 47.562 239.97C47.6643 239.459 47.7305 238.942 47.76 238.422C47.6014 238.918 47.4811 239.426 47.4 239.94C47.202 240.894 46.944 242.226 46.662 243.738L46.806 243.636C46.464 243.588 46.11 243.54 45.744 243.504C44.2174 243.341 42.6793 243.315 41.148 243.426C40.548 243.474 40.086 243.534 39.762 243.582C39.5958 243.603 39.4327 243.643 39.276 243.702Z" fill="#263238"/>
<path d="M36.912 238.992C36.912 239.034 37.614 238.872 38.748 238.728C40.2257 238.548 41.7191 238.533 43.2 238.686L43.986 238.782H44.118V238.656C44.274 237.096 44.4 235.71 44.484 234.72C44.5518 234.189 44.5779 233.653 44.562 233.118C44.4441 233.64 44.3619 234.169 44.316 234.702C44.19 235.692 44.034 237.072 43.866 238.626L44.01 238.518L43.2 238.434C41.7012 238.278 40.1883 238.318 38.7 238.554C38.2493 238.624 37.8027 238.718 37.362 238.836C37.2064 238.87 37.0554 238.923 36.912 238.992Z" fill="#263238"/>
<path d="M35.208 194.4C35.2875 194.452 35.3719 194.496 35.46 194.532L36.192 194.856L38.904 196.008L47.904 199.734L48.39 199.932L48.504 199.98L48.552 199.866C50.034 196.518 51.366 193.506 52.35 191.292L53.466 188.7L53.76 187.992C53.7957 187.909 53.8239 187.822 53.844 187.734C53.7923 187.807 53.748 187.886 53.712 187.968C53.622 188.154 53.514 188.382 53.376 188.658L52.176 191.22L48.306 199.764L48.474 199.698L47.988 199.5L39 195.84L36.258 194.76L35.508 194.478C35.4122 194.438 35.3112 194.412 35.208 194.4Z" fill="#263238"/>
<path d="M33 183.558C33.0682 183.62 33.1426 183.674 33.222 183.72L33.882 184.146L36.33 185.67L44.496 190.656L44.628 190.734L44.682 190.59L44.832 190.194L48.258 180.954C48.672 179.796 49.014 178.842 49.266 178.146L49.53 177.378C49.5672 177.29 49.5914 177.197 49.602 177.102C49.5556 177.185 49.5155 177.271 49.482 177.36L49.2 178.11C48.936 178.8 48.564 179.742 48.114 180.894C47.214 183.294 45.984 186.522 44.622 190.11C44.574 190.242 44.52 190.38 44.478 190.5L44.658 190.434L36.432 185.52L33.942 184.062L33.258 183.678C33.1767 183.629 33.0902 183.588 33 183.558Z" fill="#263238"/>
<path d="M33.732 177.774C33.9008 177.898 34.0817 178.005 34.272 178.092C34.626 178.29 35.136 178.578 35.754 178.962C37.3942 179.977 38.9174 181.171 40.296 182.52L40.614 182.826L40.506 182.394C40.398 181.95 40.296 181.476 40.218 180.99C39.874 178.761 39.9945 176.486 40.572 174.306C40.7525 173.646 40.9668 172.995 41.214 172.356C41.324 172.13 41.4143 171.895 41.484 171.654C41.346 171.866 41.2256 172.089 41.124 172.32C40.8409 172.948 40.5984 173.593 40.398 174.252C39.7622 176.452 39.6148 178.764 39.966 181.026C40.044 181.524 40.152 182.004 40.266 182.46L40.476 182.34C39.0787 180.977 37.5214 179.788 35.838 178.8C35.202 178.434 34.68 178.164 34.314 177.996C34.127 177.905 33.9322 177.831 33.732 177.774Z" fill="#263238"/>
<path d="M62.358 234C62.374 234.219 62.4122 234.436 62.472 234.648C62.556 235.062 62.682 235.662 62.82 236.406C63.1817 238.37 63.4082 240.357 63.498 242.352V242.466H63.6H64.164C66.654 242.616 68.904 242.742 70.536 242.814L72.468 242.892C72.7035 242.914 72.9405 242.914 73.176 242.892C72.9453 242.84 72.7103 242.81 72.474 242.802L70.548 242.64C68.916 242.52 66.666 242.37 64.182 242.22L63.618 242.19L63.738 242.31C63.6496 240.324 63.4028 238.347 63 236.4C62.838 235.65 62.688 235.056 62.568 234.648C62.5194 234.426 62.449 234.209 62.358 234Z" fill="#263238"/>
<path d="M67.284 226.956C67.2765 227.175 67.2906 227.394 67.326 227.61C67.38 228.072 67.446 228.672 67.53 229.41C67.71 230.916 67.98 233.01 68.298 235.362V235.464H68.4L69.204 235.518C71.754 235.692 74.052 235.956 75.714 236.172L77.682 236.436C77.9195 236.481 78.1604 236.505 78.402 236.508C78.1724 236.428 77.9351 236.372 77.694 236.34C77.238 236.244 76.566 236.124 75.738 235.992C74.082 235.734 71.778 235.44 69.222 235.266L68.412 235.212L68.532 235.32C68.208 232.974 67.932 230.88 67.68 229.38C67.566 228.666 67.476 228.072 67.404 227.61C67.3884 227.388 67.3481 227.169 67.284 226.956Z" fill="#263238"/>
<path d="M73.086 223.908C73.05 223.908 73.206 224.598 73.38 225.708C73.6206 227.177 73.757 228.66 73.788 230.148V230.286H73.932L74.352 230.232C75.9229 230.042 77.5038 229.948 79.086 229.95H80.532C80.7074 229.971 80.8846 229.971 81.06 229.95C80.8904 229.9 80.7149 229.871 80.538 229.866C80.196 229.83 79.704 229.788 79.092 229.77C77.4991 229.712 75.9042 229.781 74.322 229.974L73.896 230.028L74.04 230.154C74.0068 228.655 73.8442 227.161 73.554 225.69C73.44 225.132 73.332 224.682 73.248 224.376C73.2172 224.213 73.1626 224.055 73.086 223.908Z" fill="#263238"/>
<path d="M40.038 231C40.3593 231.87 40.734 232.72 41.16 233.544C41.5084 234.404 41.9092 235.241 42.36 236.052C42.1494 235.132 41.827 234.242 41.4 233.4C41.0421 232.549 40.585 231.744 40.038 231Z" fill="#263238"/>
<path d="M36.888 234.318C37.8484 234.465 38.7999 234.665 39.738 234.918C40.6514 235.246 41.5449 235.626 42.414 236.058C41.6651 235.402 40.7735 234.929 39.81 234.678C38.8765 234.335 37.8767 234.212 36.888 234.318Z" fill="#263238"/>
</svg>
