<svg width="210" height="142" viewBox="0 0 210 142" fill="none" xmlns="http://www.w3.org/2000/svg">
<path d="M115.013 15.7762C115.011 15.8192 115.005 15.862 114.996 15.904C114.982 15.9863 114.954 16.1085 114.932 16.2703C114.855 16.7401 114.811 17.2145 114.797 17.6903C114.775 18.4448 114.837 19.1993 114.982 19.9396C115.179 20.9183 115.53 21.8582 116.024 22.7228C116.651 23.754 117.339 24.7461 118.084 25.6935C118.936 26.7972 119.633 28.0159 120.154 29.3145C120.716 30.7565 121.038 32.2836 121.106 33.8329C121.249 37.1986 120.07 40.4844 117.827 42.9692C116.8 44.1185 115.564 45.0558 114.187 45.7297C112.879 46.3829 111.577 46.8657 110.429 47.4337C109.349 47.9505 108.371 48.6626 107.542 49.5353C106.351 50.8158 105.524 52.3998 105.148 54.119C105.073 54.4201 105.045 54.687 105.003 54.9313C104.961 55.1755 104.955 55.3715 104.947 55.5333C104.938 55.6952 104.947 55.8173 104.927 55.9054C104.93 55.9479 104.93 55.9906 104.927 56.0332C104.924 55.9906 104.924 55.9479 104.927 55.9054C104.927 55.8145 104.927 55.6895 104.927 55.5333C104.927 55.3771 104.955 55.167 104.972 54.9256C104.989 54.6842 105.034 54.4115 105.104 54.1077C105.254 53.3628 105.493 52.6391 105.815 51.9521C106.238 51.0398 106.799 50.2004 107.478 49.4643C108.309 48.5764 109.294 47.8514 110.384 47.3257C111.541 46.7293 112.843 46.2494 114.139 45.599C115.493 44.9341 116.708 44.0125 117.72 42.884C119.936 40.4222 121.1 37.1713 120.96 33.8414C120.896 32.3074 120.58 30.7949 120.028 29.3656C119.513 28.078 118.826 26.8682 117.986 25.7701C117.243 24.8152 116.556 23.8156 115.931 22.7768C115.437 21.9005 115.089 20.9477 114.901 19.9567C114.758 19.2085 114.704 18.4458 114.738 17.6847C114.757 17.2078 114.811 16.7331 114.901 16.2647C114.929 16.1028 114.96 15.9807 114.979 15.9011L115.013 15.7762Z" fill="#E0E0E0"/>
<path d="M126.79 17.7784C126.635 18.4172 126.442 19.046 126.213 19.6613C125.955 20.3882 125.643 21.0937 125.278 21.7714C124.808 22.6831 124.184 23.5033 123.432 24.1939C123.215 24.3868 122.984 24.5634 122.741 24.7222C122.489 24.8784 122.226 25.0232 121.954 25.1652L120.26 26.0456C119.09 26.6534 117.832 27.2895 116.544 28.0336C115.203 28.7944 114 29.7828 112.988 30.956C111.897 32.2188 111.078 33.6988 110.583 35.3012C110.097 36.9067 109.978 38.6036 110.236 40.2627C110.469 41.8097 111.061 43.2785 111.964 44.5482C112.829 45.7552 113.848 46.7492 114.663 47.8029C115.066 48.3054 115.421 48.8455 115.724 49.416C115.996 49.946 116.216 50.5014 116.382 51.0745C116.661 52.0624 116.782 53.0894 116.74 54.1162C116.708 54.8874 116.577 55.6511 116.351 56.3882C116.211 56.8555 116.031 57.3097 115.814 57.7457C115.738 57.8877 115.676 57.9985 115.634 58.0808C115.592 58.1632 115.567 58.1916 115.567 58.1916C115.567 58.1916 115.584 58.149 115.62 58.0723C115.657 57.9956 115.716 57.8763 115.788 57.7343C115.992 57.2947 116.163 56.8399 116.298 56.374C116.513 55.6354 116.633 54.8718 116.656 54.102C116.689 53.0942 116.563 52.0877 116.284 51.12C116.117 50.5543 115.895 50.0064 115.623 49.4841C115.322 48.9219 114.969 48.3903 114.568 47.8966C113.756 46.8543 112.734 45.866 111.854 44.6448C110.937 43.3591 110.333 41.8708 110.093 40.3024C109.832 38.6216 109.952 36.9026 110.443 35.2756C110.945 33.6536 111.775 32.1554 112.879 30.8765C113.902 29.6816 115.12 28.6748 116.48 27.9001C117.774 27.1703 119.034 26.5398 120.207 25.9377L121.901 25.063C122.181 24.9238 122.438 24.779 122.685 24.6285C122.923 24.4737 123.151 24.3019 123.365 24.1144C124.111 23.4346 124.734 22.6283 125.208 21.7317C125.575 21.0596 125.893 20.361 126.16 19.6414C126.384 19.0507 126.532 18.5821 126.633 18.264C126.68 18.1107 126.72 17.98 126.745 17.9005C126.77 17.821 126.79 17.7784 126.79 17.7784Z" fill="#E0E0E0"/>
<path d="M122.36 24.8869C122.36 24.9267 120.999 24.6768 119.342 24.3189C117.684 23.9611 116.346 23.66 116.354 23.6203C116.362 23.5805 117.712 23.8276 119.372 24.1883C121.033 24.549 122.36 24.8443 122.36 24.8869Z" fill="#E0E0E0"/>
<path d="M124.412 22.9216C124.412 22.9614 122.321 22.3763 119.764 21.6181C117.208 20.8598 115.147 20.1981 115.158 20.1697C115.17 20.1413 117.25 20.7149 119.806 21.4761C122.363 22.2372 124.424 22.8819 124.412 22.9216Z" fill="#E0E0E0"/>
<path d="M125.916 20.3458C125.916 20.3827 123.41 19.6585 120.347 18.7241C117.284 17.7898 114.8 17.0002 114.817 16.9605C114.834 16.9207 117.32 17.6478 120.4 18.5821C123.48 19.5165 125.927 20.306 125.916 20.3458Z" fill="#E0E0E0"/>
<path d="M116.371 44.2444C116.357 44.2841 115.018 43.7985 113.38 43.1595C111.742 42.5205 110.429 41.9724 110.443 41.9354C110.457 41.8985 111.796 42.3842 113.434 43.0203C115.072 43.6565 116.385 44.2074 116.371 44.2444Z" fill="#E0E0E0"/>
<path d="M119 41.18C118.878 41.1621 118.758 41.1327 118.642 41.092C118.412 41.0295 118.082 40.9272 117.678 40.808C116.872 40.5495 115.763 40.169 114.551 39.7089C113.338 39.2488 112.252 38.8029 111.471 38.465C111.082 38.2946 110.768 38.1526 110.552 38.0503C110.438 38.003 110.328 37.945 110.225 37.8771C110.345 37.905 110.462 37.9449 110.575 37.9964L111.51 38.3656C112.297 38.6808 113.386 39.1125 114.59 39.5726C115.794 40.0326 116.903 40.4246 117.701 40.7086L118.647 41.0494C118.769 41.0816 118.887 41.1253 119 41.18Z" fill="#E0E0E0"/>
<path d="M120.509 37.8771C120.376 37.8408 120.246 37.7913 120.123 37.7294L119.087 37.2949C118.213 36.9257 117.001 36.4258 115.648 35.9146C114.296 35.4034 113.055 34.9774 112.157 34.6764L111.09 34.3185C110.957 34.2811 110.828 34.2327 110.703 34.1737C110.841 34.1902 110.976 34.2207 111.107 34.2646C111.364 34.3327 111.731 34.4378 112.187 34.577C113.095 34.861 114.341 35.2643 115.699 35.7755C117.057 36.2867 118.263 36.8035 119.129 37.1955C119.56 37.3914 119.907 37.5561 120.145 37.6754C120.273 37.7306 120.394 37.7981 120.509 37.8771Z" fill="#E0E0E0"/>
<path d="M120.529 33.742C120.423 33.7265 120.319 33.6969 120.221 33.654L119.403 33.37C118.712 33.1257 117.76 32.802 116.698 32.4413C115.637 32.0806 114.674 31.7938 113.974 31.5893L113.134 31.3309C113.03 31.3053 112.93 31.2681 112.834 31.2201C112.941 31.2256 113.046 31.2447 113.148 31.2769C113.35 31.3195 113.635 31.3933 113.988 31.4871C114.696 31.6773 115.668 31.9585 116.729 32.3107C117.79 32.6628 118.742 33.0121 119.426 33.2819C119.764 33.4154 120.039 33.529 120.226 33.6114C120.332 33.6427 120.433 33.6866 120.529 33.742Z" fill="#E0E0E0"/>
<path d="M120.568 30.53C119.686 30.3027 118.815 30.0287 117.961 29.7092C117.092 29.4353 116.237 29.1139 115.402 28.7465C116.284 28.9746 117.154 29.2486 118.009 29.5672C118.878 29.8424 119.732 30.1637 120.568 30.53Z" fill="#E0E0E0"/>
<path d="M116.2 50.481C116.104 50.4662 116.01 50.4405 115.92 50.4043L115.181 50.1516L112.75 49.2996L110.314 48.4703L109.575 48.2118C109.482 48.1859 109.393 48.1487 109.309 48.1011C109.405 48.1068 109.499 48.126 109.589 48.1579C109.768 48.2033 110.026 48.2743 110.342 48.368C110.975 48.5555 111.843 48.831 112.795 49.1604C113.747 49.4898 114.601 49.8079 115.214 50.0522C115.522 50.1743 115.774 50.2765 115.937 50.3362C116.031 50.3701 116.12 50.419 116.2 50.481Z" fill="#E0E0E0"/>
<path d="M116.707 54.244C116.693 54.2809 114.391 53.5254 111.566 52.54C108.741 51.5545 106.459 50.7479 106.473 50.7082C106.487 50.6684 108.786 51.4267 111.614 52.4122C114.442 53.3976 116.718 54.19 116.707 54.244Z" fill="#E0E0E0"/>
<path d="M116.659 57.0186C116.659 57.0584 114.078 56.2916 110.922 55.3146C107.766 54.3377 105.213 53.5027 105.224 53.463C105.235 53.4232 107.806 54.19 110.964 55.167C114.122 56.1439 116.673 56.9789 116.659 57.0186Z" fill="#E0E0E0"/>
<path d="M70.2239 33.3927C70.2239 33.3927 70.1483 33.3927 70.0027 33.3927L69.3587 33.4183C68.7987 33.4353 67.9587 33.4609 66.8835 33.4779C66.3459 33.4779 65.7467 33.4779 65.0915 33.4779C64.7475 33.4824 64.404 33.45 64.0667 33.3813C63.7236 33.2414 63.3881 33.0831 63.0615 32.9071C62.7047 32.7474 62.3103 32.6942 61.9247 32.7537C61.8267 32.7679 61.7259 32.7935 61.6279 32.8133C61.5339 32.8443 61.4458 32.8913 61.3675 32.9525C61.2043 33.0852 61.0617 33.2423 60.9447 33.4183C60.4584 34.1996 60.0629 35.0354 59.7659 35.9089C59.4243 36.8206 59.1219 37.7919 58.7607 38.7972C58.7159 38.9222 58.6655 39.0471 58.6123 39.1721L58.5675 39.2658C58.5602 39.2845 58.5498 39.3018 58.5367 39.3169C58.5282 39.332 58.516 39.3446 58.5013 39.3536C58.4866 39.3625 58.4699 39.3675 58.4527 39.3681C58.3519 39.3425 58.3659 39.2914 58.3407 39.2601C58.3261 39.227 58.314 39.1928 58.3043 39.1579C58.2368 38.889 58.1873 38.6157 58.1559 38.34C58.0831 37.7919 58.0271 37.2295 57.9739 36.6587C57.7695 34.3867 57.6071 31.9273 57.3887 29.3599C57.2739 28.0762 57.1703 26.7556 56.9491 25.4322C56.9183 25.2675 56.8875 25.1027 56.8427 24.9409C56.823 24.8645 56.7958 24.7903 56.7615 24.7193C56.7223 24.6512 56.6887 24.6199 56.6467 24.6398C56.5254 24.7311 56.429 24.8523 56.3667 24.992C56.2861 25.1395 56.2132 25.2911 56.1483 25.4464C55.8796 26.0908 55.6431 26.7487 55.4399 27.4173C55.0283 28.755 54.6643 30.1324 54.3199 31.5353L54.1883 32.0636C54.1515 32.2462 54.101 32.4256 54.0371 32.6003C53.9578 32.7802 53.8338 32.936 53.6772 33.0525C53.5206 33.169 53.3369 33.2422 53.1439 33.2649C52.7687 33.2791 52.4187 33.299 52.0435 33.2905C51.6719 33.2767 51.3029 33.2214 50.9431 33.1257C50.4872 33.006 50.0478 32.8285 49.6355 32.5975C49.4464 32.4734 49.2446 32.3706 49.0335 32.2908C48.9398 32.2523 48.8372 32.2421 48.7379 32.2612C48.6386 32.2803 48.5468 32.3281 48.4735 32.3987C48.3409 32.577 48.2456 32.7809 48.1935 32.9979C48.1235 33.2166 48.0619 33.4381 48.0003 33.6597C47.8827 34.1027 47.7707 34.5486 47.6615 34.9916C47.4375 35.8777 47.2247 36.7524 46.9475 37.6158C46.9367 37.6485 46.9206 37.6792 46.8999 37.7067C46.8827 37.7328 46.8565 37.7514 46.8264 37.7587C46.7963 37.7661 46.7646 37.7617 46.7375 37.7464C46.682 37.7038 46.6401 37.6455 46.6171 37.5789C46.5728 37.4726 46.5354 37.3635 46.5051 37.2523C46.4463 37.0336 46.3987 36.8177 46.3539 36.5991C46.2643 36.1645 46.1887 35.73 46.1187 35.2983C45.8387 33.5745 45.6091 31.8903 45.3627 30.2517C45.2395 29.4366 45.1191 28.63 44.9567 27.8519C44.921 27.6579 44.8676 27.4678 44.7971 27.2839C44.7467 27.1248 44.5675 27.3151 44.4611 27.4543C44.241 27.7688 44.0454 28.1001 43.8759 28.4454C43.1843 29.8143 42.6243 31.1889 41.9999 32.464C41.85 32.7845 41.675 33.0922 41.4763 33.3842C41.4238 33.4695 41.342 33.5322 41.2467 33.5603C41.1543 33.5791 41.0592 33.5791 40.9667 33.5603C40.7987 33.5001 40.6497 33.3952 40.5355 33.2564C40.4258 33.1401 40.2969 33.044 40.1547 32.9724C40.0184 32.9008 39.8657 32.8675 39.7123 32.8758C39.4093 32.9482 39.1321 33.1045 38.9115 33.3274C38.7861 33.4377 38.6363 33.5156 38.4747 33.5546C38.3884 33.5696 38.2997 33.5618 38.2171 33.5319C38.1429 33.4969 38.0748 33.4499 38.0155 33.3927C37.8003 33.1729 37.6045 32.9344 37.4303 32.6799C37.2539 32.4356 37.0859 32.1942 36.9095 31.967C36.7468 31.7441 36.5469 31.5519 36.3187 31.399C36.0891 31.2457 35.8343 31.4388 35.6299 31.5865C35.4304 31.75 35.2432 31.9285 35.0699 32.1204C34.7338 32.4808 34.4179 32.8601 34.1235 33.2564V33.2734H34.1039L28.9883 33.2535H27.6359H27.2887C27.2496 33.2561 27.2103 33.2561 27.1711 33.2535H27.2887H27.6359H28.9883L34.1039 33.2337L34.0731 33.2507C34.3668 32.8476 34.6828 32.4617 35.0195 32.0948C35.1988 31.8973 35.3935 31.715 35.6019 31.5495C35.7094 31.461 35.828 31.3874 35.9547 31.3309C36.0242 31.3024 36.0982 31.287 36.1731 31.2854C36.2494 31.2898 36.3235 31.3132 36.3887 31.3536C36.6304 31.5141 36.8411 31.7182 37.0103 31.9557C37.1895 32.1857 37.3603 32.4271 37.5367 32.6685C37.7018 32.9175 37.8893 33.1504 38.0967 33.3643C38.1491 33.4139 38.2086 33.455 38.2731 33.4864C38.3371 33.5085 38.4056 33.5133 38.4719 33.5006C38.6161 33.4639 38.7495 33.3928 38.8611 33.2933C39.0922 33.0585 39.383 32.8933 39.7011 32.8162C39.8739 32.8136 40.0451 32.8494 40.2028 32.921C40.3605 32.9926 40.5008 33.0984 40.6139 33.2308C40.7131 33.3588 40.8448 33.4569 40.9947 33.5148C41.0705 33.5305 41.1486 33.5305 41.2243 33.5148C41.2747 33.5148 41.3335 33.4438 41.3811 33.3785C41.5745 33.0928 41.745 32.7917 41.8907 32.4782C42.5095 31.2087 43.0667 29.8342 43.7611 28.4539C43.932 28.1008 44.1315 27.7626 44.3575 27.4429C44.4186 27.3572 44.4923 27.2816 44.5759 27.2185C44.6009 27.197 44.6299 27.1809 44.6612 27.1711C44.6925 27.1614 44.7254 27.1582 44.7579 27.1617C44.7916 27.1696 44.823 27.1852 44.8497 27.2073C44.8764 27.2295 44.8977 27.2576 44.9119 27.2895C44.9841 27.4648 45.0403 27.6464 45.0799 27.832C45.2451 28.6187 45.3599 29.4252 45.4915 30.2431C45.7407 31.8761 45.9703 33.5659 46.2531 35.287C46.3231 35.7187 46.3987 36.139 46.4883 36.582C46.5331 36.7979 46.5807 37.0109 46.6367 37.2239C46.6649 37.3282 46.6995 37.4306 46.7403 37.5306C46.7544 37.5683 46.7753 37.603 46.8019 37.6328C46.7879 37.6328 46.8019 37.6754 46.8019 37.6499C46.8136 37.6337 46.8222 37.6153 46.8271 37.5959C47.1071 36.7439 47.3143 35.872 47.5355 34.9888C47.6447 34.5457 47.7539 34.0999 47.8743 33.654C47.9359 33.4325 47.9975 33.2081 48.0703 32.9866C48.1039 32.8758 48.1431 32.7651 48.1823 32.6543C48.2244 32.5357 48.2891 32.4266 48.3727 32.3334C48.4611 32.2343 48.581 32.1699 48.7115 32.1516C48.8366 32.1326 48.9643 32.1443 49.0839 32.1857C49.3066 32.2658 49.5191 32.3725 49.7167 32.5038C50.1184 32.7288 50.5464 32.9015 50.9907 33.0178C51.3408 33.1088 51.6993 33.1621 52.0603 33.1769C52.4131 33.1769 52.7883 33.1769 53.1383 33.1513C53.3051 33.1319 53.4642 33.0696 53.6005 32.9701C53.7367 32.8707 53.8456 32.7375 53.9167 32.5833C53.9763 32.4166 54.024 32.2457 54.0595 32.0721L54.1911 31.5439C54.5439 30.1239 54.9107 28.7578 55.3251 27.4173C55.5351 26.7471 55.7479 26.0854 56.0195 25.4464C56.0895 25.2873 56.1623 25.1311 56.2463 24.9778C56.2911 24.9011 56.3359 24.8273 56.3891 24.7534C56.4451 24.6725 56.5202 24.607 56.6075 24.5631C56.6378 24.5513 56.6705 24.5472 56.7027 24.5512C56.7349 24.5552 56.7657 24.5671 56.7923 24.5859C56.835 24.6179 56.8695 24.6598 56.8931 24.708C56.9337 24.7882 56.9647 24.8731 56.9855 24.9607C57.0303 25.1283 57.0639 25.2959 57.0947 25.4634C57.3159 26.8011 57.4167 28.1188 57.5315 29.4025C57.7471 31.9755 57.9039 34.4208 58.0915 36.7041C58.1447 37.2721 58.1979 37.8401 58.2679 38.3826C58.2977 38.6516 58.3455 38.9182 58.4107 39.1806C58.4193 39.2106 58.4296 39.24 58.4415 39.2687C58.446 39.2806 58.4516 39.292 58.4583 39.3027C58.4583 39.3027 58.4443 39.3027 58.4583 39.3255C58.4723 39.3482 58.4583 39.2942 58.4443 39.3027C58.4522 39.2912 58.4587 39.2788 58.4639 39.2658L58.5059 39.1778C58.5591 39.0585 58.6067 38.9335 58.6543 38.8086C59.0127 37.8117 59.3207 36.8376 59.6679 35.926C59.9696 35.0446 60.3718 34.202 60.8663 33.4154C60.9907 33.2333 61.1407 33.0707 61.3115 32.9326C61.395 32.8654 61.4899 32.8144 61.5915 32.7821C61.6931 32.7568 61.7959 32.7369 61.8995 32.7225C62.2997 32.6614 62.7087 32.7175 63.0783 32.8843C63.4339 33.0405 63.7391 33.2592 64.0723 33.3643C64.4044 33.4298 64.742 33.4621 65.0803 33.4609C65.7327 33.4779 66.3319 33.4609 66.8695 33.4609L69.3447 33.4268H69.9887C70.1483 33.3899 70.2239 33.3927 70.2239 33.3927Z" fill="#E0E0E0"/>
<path d="M163.393 58.3932L168.057 59.3607L162.097 88.9152C162.039 89.2016 161.872 89.4529 161.631 89.6139C161.391 89.775 161.097 89.8326 160.815 89.774L158.275 89.247C157.992 89.1884 157.744 89.0185 157.586 88.7746C157.427 88.5308 157.37 88.2329 157.428 87.9466L163.388 58.392L163.393 58.3932Z" fill="#E0E0E0"/>
<path d="M162.363 63.5633L167.026 64.53L162.747 85.766C162.69 86.0523 162.522 86.3037 162.282 86.4648C162.042 86.6258 161.748 86.6835 161.466 86.625L158.925 86.0984C158.643 86.0399 158.395 85.87 158.236 85.6262C158.077 85.3823 158.021 85.0845 158.078 84.7982L162.357 63.5622L162.363 63.5633Z" fill="#F5F5F5"/>
<path d="M167.47 62.3458L164.359 61.7009L161.529 75.7442L164.64 76.389L167.47 62.3458Z" fill="white"/>
<path d="M160.829 89.761C161.035 89.7914 161.245 89.768 161.44 89.6929C161.673 89.5968 161.866 89.421 161.986 89.1959C162.054 89.0496 162.101 88.8935 162.123 88.7329C162.156 88.5597 162.19 88.3751 162.229 88.182C162.54 86.62 162.985 84.3622 163.542 81.5563C164.662 75.9359 166.236 68.1231 167.997 59.3333L168.053 59.4185L164.452 58.6744L163.388 58.4529L163.475 58.3961C161.571 67.7879 159.86 76.2398 158.623 82.3515C158.312 83.8765 158.029 85.2539 157.783 86.4666C157.721 86.7677 157.66 87.0602 157.604 87.3413C157.576 87.4805 157.545 87.6253 157.52 87.756C157.486 87.8842 157.465 88.0155 157.458 88.1479C157.457 88.3953 157.539 88.6356 157.69 88.8295C157.83 89.0045 158.02 89.1306 158.234 89.1902L160.16 89.6077L160.661 89.7184C160.773 89.744 160.829 89.761 160.829 89.761L160.658 89.7326L160.154 89.6361L158.22 89.2441C157.98 89.1813 157.767 89.0397 157.615 88.8413C157.463 88.643 157.38 88.3991 157.38 88.1479C157.385 88.0099 157.405 87.8728 157.438 87.7389C157.464 87.6055 157.492 87.4549 157.52 87.3271C157.576 87.0431 157.632 86.7591 157.693 86.4496C157.934 85.2369 158.208 83.8567 158.514 82.3288C159.74 76.2171 161.434 67.7624 163.321 58.3648V58.2938L163.391 58.308L164.458 58.5295L168.059 59.2765L168.129 59.2907V59.3617C166.348 68.1515 164.769 75.9586 163.626 81.5761L162.271 88.1905C162.229 88.3865 162.193 88.5682 162.156 88.7415C162.132 88.9066 162.082 89.0668 162.008 89.2157C161.885 89.4449 161.687 89.6229 161.448 89.7184C161.301 89.7755 161.143 89.7987 160.986 89.7866C160.933 89.7834 160.88 89.7748 160.829 89.761Z" fill="#E0E0E0"/>
<path d="M164.733 52.214L169.326 53.1659C169.471 53.1961 169.599 53.2836 169.681 53.4093C169.763 53.535 169.792 53.6885 169.762 53.8361L168.353 60.8313L162.658 59.6508L164.066 52.6612C164.08 52.587 164.109 52.5165 164.15 52.4537C164.192 52.3909 164.245 52.3371 164.307 52.2954C164.369 52.2538 164.439 52.2251 164.512 52.2111C164.585 52.1972 164.661 52.1981 164.733 52.214Z" fill="#EBEBEB"/>
<path d="M168.451 60.1029C168.451 60.1426 167.157 59.9098 165.578 59.5832C163.999 59.2566 162.728 58.9584 162.736 58.9186C162.744 58.8788 164.03 59.1117 165.609 59.4383C167.188 59.7649 168.456 60.0631 168.451 60.1029Z" fill="#E0E0E0"/>
<path d="M163.285 58.9726C163.243 58.9726 163.512 57.4731 163.881 55.6441C164.251 53.8151 164.581 52.3355 164.62 52.344C164.66 52.3526 164.391 53.8436 164.024 55.6725C163.657 57.5015 163.324 58.9811 163.285 58.9726Z" fill="#E0E0E0"/>
<path d="M164.049 59.1317C164.01 59.1317 164.276 57.6321 164.646 55.8032C165.015 53.9742 165.346 52.4946 165.385 52.5031C165.424 52.5116 165.158 54.0026 164.788 55.8316C164.419 57.6605 164.08 59.1402 164.049 59.1317Z" fill="#E0E0E0"/>
<path d="M164.839 59.2935C164.8 59.2935 165.066 57.7968 165.435 55.965C165.805 54.1332 166.135 52.6592 166.174 52.6678C166.214 52.6763 165.948 54.1644 165.578 55.9962C165.208 57.828 164.878 59.302 164.839 59.2935Z" fill="#E0E0E0"/>
<path d="M165.603 59.4525C165.564 59.4525 165.833 57.9559 166.2 56.1241C166.566 54.2923 166.9 52.8183 166.942 52.8268C166.984 52.8353 166.712 54.3235 166.345 56.1553C165.978 57.9871 165.645 59.4611 165.603 59.4525Z" fill="#E0E0E0"/>
<path d="M166.393 59.6172C166.354 59.6172 166.622 58.1177 166.989 56.2888C167.356 54.4598 167.689 52.9802 167.728 52.9887C167.768 52.9972 167.502 54.4882 167.132 56.3172C166.762 58.1461 166.432 59.64 166.393 59.6172Z" fill="#E0E0E0"/>
<path d="M167.16 59.7763C167.121 59.7763 167.387 58.2768 167.756 56.4478C168.126 54.6189 168.456 53.1392 168.496 53.1477C168.535 53.1563 168.269 54.6473 167.899 56.4762C167.53 58.3052 167.199 59.7848 167.16 59.7763Z" fill="#E0E0E0"/>
<path d="M167.95 59.941C167.91 59.941 168.176 58.4415 168.546 56.6126C168.916 54.7836 169.246 53.304 169.285 53.3125C169.324 53.321 169.058 54.8092 168.689 56.641C168.319 58.4728 168 59.9467 167.95 59.941Z" fill="#E0E0E0"/>
<path d="M173.561 72.333L177.294 71.9844L179.42 95.4062C179.447 95.6972 179.358 95.987 179.174 96.2117C178.99 96.4364 178.725 96.5777 178.438 96.6045L176.865 96.7513C176.579 96.7781 176.293 96.6882 176.071 96.5014C175.85 96.3145 175.71 96.0461 175.684 95.7551L173.558 72.3333L173.561 72.333Z" fill="#E0E0E0"/>
<path d="M173.938 76.4946L177.671 76.1459L179.192 92.9077C179.219 93.1987 179.13 93.4885 178.946 93.7132C178.762 93.9379 178.497 94.0792 178.21 94.106L176.638 94.2529C176.351 94.2797 176.065 94.1898 175.844 94.0029C175.622 93.8161 175.483 93.5476 175.456 93.2566L173.935 76.4948L173.938 76.4946Z" fill="#F5F5F5"/>
<path d="M177.511 74.3959L175.021 74.6284L176.041 85.867L178.531 85.6345L177.511 74.3959Z" fill="white"/>
<path d="M178.438 96.6083C178.601 96.5811 178.756 96.5233 178.897 96.4379C179.065 96.3305 179.2 96.1781 179.287 95.9977C179.344 95.8831 179.38 95.759 179.393 95.6313C179.401 95.4851 179.393 95.3386 179.371 95.194C179.253 93.933 179.091 92.1182 178.867 89.8633C178.449 85.3392 177.87 79.0571 177.22 71.9968L177.299 72.0622L174.647 72.3092L173.566 72.4115L173.631 72.332C174.297 79.7699 174.896 86.4524 175.327 91.2833C175.434 92.4874 175.529 93.578 175.607 94.5351C175.652 95.0122 175.683 95.4638 175.728 95.8642C175.763 96.0434 175.842 96.2107 175.958 96.3503C176.074 96.4899 176.223 96.5972 176.391 96.6622C176.673 96.7406 176.968 96.7523 177.254 96.6963L177.898 96.6424L178.295 96.614H178.433L178.298 96.6338L177.901 96.6764L177.257 96.7446L176.845 96.7844C176.685 96.7994 176.523 96.778 176.372 96.7219C176.193 96.6552 176.033 96.5433 175.909 96.3967C175.785 96.25 175.699 96.0736 175.661 95.8841C175.61 95.4694 175.577 95.0321 175.529 94.5493C175.439 93.5922 175.336 92.5016 175.221 91.2975C174.779 86.4695 174.165 79.787 173.479 72.349V72.2752H173.552L174.633 72.1729L177.285 71.9258H177.357V71.9997C177.987 79.0628 178.55 85.3477 178.956 89.8718C179.149 92.1268 179.306 93.9444 179.415 95.2053C179.435 95.354 179.44 95.5043 179.432 95.654C179.411 95.8228 179.352 95.9844 179.26 96.1269C179.168 96.2695 179.046 96.3893 178.903 96.4776C178.796 96.543 178.679 96.5883 178.556 96.6111C178.517 96.6129 178.477 96.6119 178.438 96.6083Z" fill="#E0E0E0"/>
<path d="M173.293 67.384L176.731 67.0629C176.879 67.0491 177.026 67.0955 177.141 67.1918C177.255 67.2881 177.327 67.4265 177.34 67.5765L177.837 73.0459L173.281 73.4713L172.785 68.0047C172.777 67.93 172.785 67.8546 172.807 67.7828C172.829 67.7111 172.864 67.6444 172.911 67.5867C172.959 67.529 173.017 67.4813 173.082 67.4465C173.148 67.4117 173.22 67.3905 173.293 67.384Z" fill="#EBEBEB"/>
<path d="M177.75 72.4711C176.236 72.7114 174.709 72.8537 173.177 72.8971C173.93 72.7535 174.691 72.6586 175.456 72.6131C176.217 72.5144 176.983 72.467 177.75 72.4711Z" fill="#E0E0E0"/>
<path d="M173.6 72.8119C173.445 71.9364 173.341 71.0527 173.286 70.165C173.18 69.283 173.124 68.3954 173.118 67.5068C173.27 68.3827 173.374 69.2663 173.432 70.1537C173.535 71.036 173.591 71.9234 173.6 72.8119Z" fill="#E0E0E0"/>
<path d="M174.216 72.7551C174.061 71.8796 173.957 70.9959 173.902 70.1082C173.796 69.2261 173.74 68.3386 173.734 67.45C173.885 68.3249 173.989 69.2076 174.045 70.094C174.15 70.9772 174.207 71.8655 174.216 72.7551Z" fill="#E0E0E0"/>
<path d="M174.846 72.704C174.695 71.828 174.59 70.9445 174.532 70.0571C174.429 69.1747 174.373 68.2874 174.364 67.3989C174.519 68.2743 174.624 69.1581 174.678 70.0457C174.783 70.928 174.839 71.8154 174.846 72.704Z" fill="#E0E0E0"/>
<path d="M175.459 72.6387C175.308 71.7627 175.203 70.8792 175.146 69.9918C175.042 69.1094 174.986 68.2221 174.978 67.3336C175.127 68.2085 175.228 69.0912 175.28 69.9776C175.387 70.8607 175.447 71.749 175.459 72.6387Z" fill="#E0E0E0"/>
<path d="M176.092 72.579C175.937 71.7036 175.833 70.8198 175.778 69.9322C175.672 69.0501 175.616 68.1625 175.61 67.2739C175.762 68.1499 175.866 69.0334 175.924 69.9208C176.027 70.8032 176.083 71.6905 176.092 72.579Z" fill="#E0E0E0"/>
<path d="M176.705 72.5222C176.553 71.6429 176.451 70.7553 176.4 69.864C176.294 68.9819 176.237 68.0944 176.232 67.2057C176.383 68.0817 176.488 68.9653 176.546 69.8526C176.646 70.7389 176.7 71.6301 176.705 72.5222Z" fill="#E0E0E0"/>
<path d="M177.335 72.4626C177.184 71.5876 177.079 70.705 177.022 69.8185C176.918 68.9352 176.862 68.0469 176.854 67.1575C177.008 68.0329 177.113 68.9167 177.167 69.8043C177.274 70.6864 177.33 71.574 177.335 72.4626Z" fill="#E0E0E0"/>
<path d="M65.3071 51.5829C64.8143 49.362 62.7339 47.4564 60.5023 47.6779C59.1835 47.8086 57.9823 48.635 57.1899 49.7C56.905 50.0594 56.6458 50.4391 56.4143 50.836C56.1827 50.4391 55.9236 50.0594 55.6387 49.7C54.8323 48.6322 53.6479 47.8057 52.3291 47.6722C50.0891 47.4479 48.0171 49.3535 47.5187 51.5716C47.0203 53.7896 47.8463 56.1468 49.1987 57.9644C50.5511 59.782 52.7911 62.1108 56.5935 62.9969C59.0995 62.4118 62.2775 59.7877 63.6271 57.9729C64.9767 56.1582 65.7999 53.801 65.3071 51.5829Z" fill="#E0E0E0"/>
<path d="M64.8956 55.7009H64.8228H64.6044H63.7644L60.6984 55.7236L60.7516 55.6839C60.4716 56.6892 60.1608 57.865 59.8108 59.1544L59.7548 59.3645L59.6848 59.16L57.8984 53.96C57.6996 53.392 57.5064 52.8098 57.316 52.256L57.4476 52.2702L55.44 55.7293L55.4232 55.7606H55.384L49.994 55.7322L48.468 55.7123H48.062C48.0165 55.7189 47.9703 55.7189 47.9248 55.7123H48.062H48.468L49.994 55.6952L55.384 55.6697L55.328 55.7038L57.3188 52.2333L57.3972 52.0941L57.4504 52.2446C57.6408 52.8126 57.834 53.3806 58.0328 53.9486L59.8164 59.1828H59.6876C60.0488 57.8934 60.3736 56.7205 60.6536 55.718V55.6782H60.6928L63.7588 55.7038H64.5988H64.8172L64.8956 55.7009Z" fill="#FAFAFA"/>
<path d="M100.609 43.0712L99.5696 70.2904L86.1319 69.8496C85.9739 68.2684 85.7977 62.144 85.7977 62.144C85.7977 62.144 80.188 61.5276 79.8568 55.8871C79.6957 53.147 79.8173 47.4572 79.9844 42.3253C80.0755 39.5906 81.2175 37.0006 83.1663 35.1086C85.1151 33.2167 87.7161 32.1728 90.4136 32.2001C91.792 32.2176 93.153 32.5147 94.4164 33.0739C95.6798 33.6331 96.8201 34.4431 97.7702 35.4561C98.7203 36.4692 99.4609 37.6648 99.9484 38.9726C100.436 40.2804 100.66 41.674 100.609 43.0712Z" fill="#FFBE9D"/>
<path d="M85.7916 62.1441C88.365 62.0691 90.8582 61.2193 92.9541 59.7029C92.9541 59.7029 91.4347 63.8486 85.8494 63.6081L85.7916 62.1441Z" fill="#EB996E"/>
<path d="M81.8108 46.3629C81.8187 46.5733 81.9073 46.7723 82.0577 46.9174C82.2082 47.0625 82.4085 47.1422 82.6161 47.1397C82.7175 47.1429 82.8186 47.1257 82.9133 47.0888C83.0081 47.052 83.0947 46.9964 83.168 46.9252C83.2413 46.854 83.2998 46.7687 83.3402 46.6743C83.3806 46.5798 83.402 46.4782 83.4031 46.3753C83.3952 46.1646 83.3067 45.9653 83.1564 45.8197C83.006 45.6741 82.8057 45.5937 82.5978 45.5955C82.4963 45.5926 82.3951 45.6102 82.3004 45.6474C82.2056 45.6846 82.1191 45.7405 82.0458 45.8119C81.9725 45.8834 81.914 45.9689 81.8737 46.0635C81.8333 46.1581 81.812 46.2599 81.8108 46.3629Z" fill="#263238"/>
<path d="M81.3151 45.201C81.4184 45.3027 81.9988 44.8219 82.8558 44.7818C83.7127 44.7417 84.36 45.1486 84.4481 45.0376C84.4907 44.9883 84.3813 44.8034 84.0987 44.6123C83.7153 44.3699 83.2674 44.2536 82.8163 44.2794C82.3728 44.3001 81.9471 44.4631 81.6008 44.7448C81.3455 44.9575 81.2635 45.1578 81.3151 45.201Z" fill="#263238"/>
<path d="M89.9214 46.3352C89.9285 46.5445 90.0155 46.7429 90.164 46.8884C90.3126 47.0339 90.5111 47.1151 90.7176 47.115C90.8192 47.1183 90.9205 47.1009 91.0155 47.0639C91.1105 47.0269 91.1972 46.971 91.2705 46.8995C91.3439 46.828 91.4023 46.7423 91.4426 46.6475C91.4828 46.5527 91.5039 46.4507 91.5046 46.3475C91.4968 46.1406 91.4106 45.9447 91.264 45.8006C91.1174 45.6565 90.9217 45.5753 90.7176 45.5739C90.6155 45.5689 90.5136 45.5849 90.4177 45.6208C90.3219 45.6567 90.2342 45.7118 90.1599 45.7829C90.0856 45.8539 90.0262 45.9395 89.9852 46.0344C89.9442 46.1293 89.9225 46.2316 89.9214 46.3352Z" fill="#263238"/>
<path d="M89.7357 44.9575C89.8391 45.0561 90.4195 44.5753 91.2764 44.5383C92.1334 44.5013 92.7958 44.902 92.8688 44.7911C92.9113 44.7417 92.8019 44.5568 92.5193 44.3688C92.1368 44.127 91.69 44.0107 91.24 44.0359C90.7961 44.0551 90.3701 44.2182 90.0244 44.5013C89.7661 44.7202 89.6841 44.9143 89.7357 44.9575Z" fill="#263238"/>
<path d="M86.928 51.5473C86.928 51.498 86.3962 51.4302 85.5271 51.3593C85.3083 51.3593 85.0987 51.313 85.0561 51.162C85.026 50.9343 85.0664 50.7028 85.1716 50.4993C85.3509 49.9507 85.5393 49.3805 85.7368 48.7794C86.5239 46.3321 87.08 44.3256 86.9827 44.2948C86.8855 44.264 86.1592 46.2212 85.3843 48.6562C85.1959 49.2582 85.0166 49.8336 84.8464 50.3822C84.7202 50.6559 84.6944 50.9663 84.7735 51.2576C84.8089 51.3342 84.8608 51.4017 84.9256 51.4551C84.9903 51.5085 85.0661 51.5463 85.1473 51.5658C85.2701 51.5924 85.3956 51.6038 85.5211 51.5997C86.3902 51.6182 86.928 51.5966 86.928 51.5473Z" fill="#263238"/>
<path d="M89.4747 52.025C89.3379 52.025 89.3774 52.9497 88.6147 53.674C87.852 54.3984 86.8583 54.3244 86.8552 54.4569C86.8552 54.5155 87.0862 54.6295 87.5025 54.6203C88.0472 54.6018 88.568 54.3889 88.9733 54.0193C89.3636 53.6658 89.6014 53.1711 89.6357 52.6415C89.654 52.247 89.5385 52.0158 89.4747 52.025Z" fill="#263238"/>
<path d="M89.356 41.567C89.4502 41.8013 90.3011 41.6472 91.31 41.7211C92.3189 41.7951 93.1333 42.0293 93.267 41.8167C93.3217 41.7119 93.1728 41.5084 92.8324 41.2865C92.3824 41.0275 91.8801 40.8757 91.3636 40.8426C90.8471 40.8095 90.33 40.8959 89.8514 41.0954C89.5019 41.2588 89.3135 41.4591 89.356 41.567Z" fill="#263238"/>
<path d="M81.5129 42.6736C81.6739 42.8647 82.2513 42.6304 82.9624 42.5872C83.6735 42.5441 84.2752 42.6581 84.4058 42.4455C84.4605 42.3407 84.3572 42.1372 84.0867 41.9739C83.7236 41.7681 83.3085 41.6759 82.8938 41.7088C82.479 41.7417 82.0832 41.8983 81.756 42.1588C81.5159 42.3746 81.443 42.5811 81.5129 42.6736Z" fill="#263238"/>
<path d="M94.2789 37.2519L94.3124 37.2735C95.232 37.9411 95.8631 38.9422 96.0749 40.069C96.0749 40.1091 96.0749 40.1461 96.0962 40.1831C96.4 41.7828 96.4243 43.4256 96.7343 45.0222C97.0443 46.6188 97.6672 48.2308 98.8919 49.2818C99.3963 49.7164 100.262 49.9877 100.636 49.436C100.758 49.2064 100.815 48.9472 100.8 48.687C100.916 44.7818 101.8 41.2896 101.606 37.2149C101.581 36.6698 101.43 36.1383 101.163 35.6645C100.896 35.1907 100.522 34.7882 100.071 34.4902C99.2018 33.92 98.1474 33.3374 97.2357 33.8275C96.3241 34.3176 95.1967 36.1515 94.5008 36.9375" fill="#263238"/>
<path d="M98.8586 45.8112C98.9498 45.7649 102.63 44.4796 102.688 48.3479C102.745 52.2161 98.9073 51.4763 98.8981 51.3654C98.889 51.2544 98.8586 45.8112 98.8586 45.8112Z" fill="#FFBE9D"/>
<path d="M100.041 49.889C100.059 49.889 100.108 49.9353 100.22 49.9846C100.38 50.0491 100.558 50.0491 100.718 49.9846C101.12 49.8274 101.448 49.1739 101.457 48.4774C101.461 48.1456 101.393 47.8171 101.256 47.5157C101.219 47.3951 101.153 47.2855 101.065 47.1963C100.976 47.1072 100.868 47.0412 100.749 47.004C100.672 46.9847 100.591 46.9932 100.52 47.0281C100.449 47.063 100.392 47.1221 100.36 47.1951C100.308 47.3061 100.335 47.3832 100.314 47.3893C100.293 47.3955 100.232 47.3246 100.26 47.1643C100.279 47.0686 100.331 46.9826 100.405 46.9208C100.51 46.839 100.642 46.8014 100.773 46.816C100.93 46.8448 101.077 46.9141 101.2 47.0172C101.323 47.1203 101.418 47.2538 101.475 47.4047C101.642 47.7376 101.727 48.1069 101.721 48.4804C101.721 49.2602 101.326 49.9938 100.779 50.1633C100.677 50.195 100.57 50.2031 100.465 50.1871C100.36 50.1711 100.259 50.1314 100.171 50.0709C100.05 49.9753 100.029 49.889 100.041 49.889Z" fill="#EB996E"/>
<path d="M97.81 35.0234C98.91 33.5902 96.5945 31.0997 94.7712 30.2922C92.9479 29.4846 90.4044 30.1412 88.4747 30.5603C87.2592 30.8254 86.0285 31.2477 84.7977 31.0597C83.9806 30.883 83.1941 30.5838 82.4639 30.172C81.731 29.7609 80.9237 29.504 80.0906 29.4168C79.258 29.3829 78.3585 29.7251 77.9634 30.4802C77.5684 31.2354 77.8996 32.3296 78.7079 32.5484C77.7234 31.8456 76.1249 32.4467 75.8241 33.6303C75.5232 34.8138 76.6385 36.1207 77.8358 35.9913C77.3435 35.5166 76.441 36.1084 76.4349 36.7988C76.4288 37.4892 76.9849 38.0533 77.5744 38.3985C79.0939 39.2769 80.9445 39.2553 82.6402 38.8793C84.3358 38.5033 85.9464 37.7974 87.633 37.3783C89.3195 36.9591 92.1517 36.1823 93.7106 36.9467C94.8654 37.5077 95.5339 39.0642 96.2511 38.8146C96.589 38.6777 96.8905 38.4622 97.1312 38.1854C97.3719 37.9086 97.5451 37.5782 97.6368 37.2211C97.8075 36.5022 97.8619 35.76 97.7978 35.0234" fill="#263238"/>
<path d="M78.9206 32.8289C78.9206 32.8289 78.8477 32.8628 78.7292 32.9491C78.5553 33.076 78.4205 33.2502 78.3402 33.4515C78.2092 33.7672 78.1804 34.1169 78.2582 34.4502C78.3084 34.6691 78.4019 34.8754 78.533 35.0566C78.6641 35.2377 78.8301 35.3901 79.0209 35.5043C79.4911 35.7808 80.0242 35.9284 80.5677 35.9327C81.1937 35.9364 81.8166 35.8439 82.4153 35.6584C83.6946 35.2824 84.9618 34.5149 86.2989 33.7351C87.636 32.9553 89.0004 32.3049 90.3557 32.1385C90.9936 32.054 91.6415 32.0948 92.2641 32.2587C92.8099 32.4026 93.3249 32.6471 93.7835 32.9799C94.4493 33.4524 94.9858 34.0888 95.3425 34.8293C95.4802 35.0948 95.5824 35.3778 95.6463 35.6707C95.6281 35.6707 95.5552 35.3625 95.2969 34.857C94.9243 34.1447 94.386 33.5354 93.7288 33.0817C93.2824 32.7651 92.783 32.5333 92.255 32.3974C91.6472 32.2429 91.0159 32.2083 90.3952 32.2957C89.0764 32.4652 87.7302 33.1125 86.4022 33.8861C85.0743 34.6598 83.7858 35.4272 82.4821 35.8094C81.8675 35.9971 81.2277 36.0865 80.5859 36.0745C80.0205 36.0659 79.4676 35.9042 78.9845 35.606C78.7761 35.4698 78.5947 35.2952 78.4496 35.0913C78.2886 34.8501 78.1909 34.5712 78.1659 34.281C78.141 33.9908 78.1894 33.6989 78.3068 33.433C78.3978 33.2265 78.5468 33.0517 78.7353 32.9306C78.7921 32.8881 78.8545 32.8539 78.9206 32.8289Z" fill="#455A64"/>
<path d="M92.3919 30.8747C92.4743 30.8603 92.5586 30.8603 92.641 30.8747C92.8655 30.8902 93.0877 30.9305 93.3035 30.9949C94.0274 31.2019 94.6726 31.6262 95.1542 32.2121C95.6359 32.798 95.9314 33.518 96.002 34.2775C96.024 34.505 96.024 34.7342 96.002 34.9618C95.999 35.0454 95.9815 35.1278 95.9503 35.2053C95.9199 35.2053 95.9716 34.8508 95.8926 34.2806C95.7968 33.5517 95.4998 32.8651 95.0357 32.3001C94.5717 31.735 93.9596 31.3146 93.2701 31.0874C92.7413 30.9179 92.3888 30.9055 92.3919 30.8747Z" fill="#455A64"/>
<path d="M101.527 40.7841C101.434 40.8374 101.329 40.867 101.223 40.8704C100.924 40.8964 100.624 40.8309 100.363 40.6824C99.9714 40.4678 99.6535 40.1379 99.4511 39.7361C99.2154 39.2525 99.0398 38.741 98.9284 38.2135C98.82 37.6981 98.6495 37.1981 98.421 36.7248C98.2314 36.3449 97.934 36.0315 97.567 35.8248C97.3211 35.6831 97.0414 35.6127 96.7587 35.6213C96.5612 35.6213 96.4548 35.6737 96.4548 35.6583C96.5469 35.6014 96.6511 35.5676 96.7587 35.5597C97.056 35.5253 97.3567 35.5822 97.6217 35.723C98.0177 35.9274 98.3423 36.2502 98.5516 36.6477C98.7916 37.1317 98.9674 37.6457 99.0743 38.1765C99.1831 38.6916 99.3504 39.1922 99.5727 39.6683C99.7572 40.052 100.047 40.3732 100.408 40.593C100.651 40.7393 100.928 40.817 101.211 40.818C101.411 40.8057 101.521 40.7687 101.527 40.7841Z" fill="#455A64"/>
<path d="M101.326 43.3393C101.326 43.3393 101.296 43.3393 101.232 43.364C101.142 43.3833 101.05 43.3957 100.958 43.401C100.618 43.4265 100.276 43.3995 99.9434 43.3208C98.8287 43.0577 97.8524 42.3788 97.2084 41.4191C96.579 40.4691 96.1936 39.3746 96.0871 38.2352C96.0759 38.0437 96.0464 37.8537 95.999 37.668C95.9614 37.5327 95.884 37.4123 95.7772 37.3228C95.6824 37.2489 95.5682 37.2049 95.449 37.1964C95.5114 37.1758 95.578 37.1717 95.6424 37.1847C95.7068 37.1976 95.7668 37.2271 95.8167 37.2704C95.94 37.3621 96.0323 37.4902 96.081 37.6372C96.1397 37.8267 96.1784 38.022 96.1965 38.2197C96.3333 39.3316 96.7246 40.3955 97.3391 41.3266C97.9625 42.2515 98.8917 42.9195 99.9586 43.2099C100.407 43.3128 100.867 43.3563 101.326 43.3393Z" fill="#455A64"/>
<path d="M74.666 140.972L117.817 140.689L113.463 114.237L112.706 68.7585L104.088 66.0893L99.8336 63.6544L85.8337 65.4513L84.0317 67.7661C84.0317 67.7661 77.9054 69.862 75.2556 71.0918L75.0732 71.175C73.1939 72.0445 71.6017 73.4454 70.4876 75.2097L58.8094 93.6384L41.7312 83.5379L35.7144 92.424C35.7144 92.424 56.6822 110.128 60.4838 109.768C64.2854 109.407 65.6042 109.404 66.917 107.592C67.9229 106.198 71.8764 101.48 73.7605 98.3264L75.684 120.115L74.666 140.972Z" fill="#EBEBEB"/>
<path d="M88.3379 141C88.2924 141 87.9459 131.309 87.5661 119.353C87.1862 107.397 86.9066 97.7007 86.9583 97.7007C87.01 97.7007 87.3473 107.388 87.7302 119.35C88.1131 131.312 88.3805 141 88.3379 141Z" fill="#263238"/>
<path d="M85.8885 65.2725L86.9734 98.3573L99.8216 63.6544L85.8885 65.2725Z" fill="#FFBE9D"/>
<path d="M87.0705 100.222C87.0525 100.19 87.0382 100.156 87.028 100.12C86.9976 100.046 86.9611 99.9477 86.9155 99.8121C86.8092 99.5409 86.6633 99.1587 86.4749 98.6686C86.0829 97.6823 85.5086 96.2552 84.7124 94.5322C84.3052 93.6723 83.8494 92.7384 83.3085 91.7582C82.749 90.7235 82.074 89.7576 81.2968 88.8794C80.8713 88.4356 80.3638 87.9701 80.1845 87.289C80.1075 86.9512 80.1158 86.5992 80.2089 86.2657C80.2909 85.9328 80.4064 85.6122 80.5127 85.2886C80.9351 83.9848 81.3758 82.6379 81.8225 81.2601L81.8498 81.1738L81.9319 81.2786L76.7659 81.7533V81.5992L79.5221 76.0511C80.3699 74.3621 81.1357 72.8733 81.7951 71.6466C82.4546 70.4199 83.0107 69.4521 83.3966 68.8017C83.5941 68.475 83.7521 68.2253 83.8615 68.0589L83.9861 67.8739C84.0165 67.8308 84.0317 67.8092 84.0347 67.8123L83.9983 67.8801L83.8828 68.0743C83.7795 68.2561 83.6306 68.5058 83.4422 68.8294C83.0623 69.489 82.5305 70.4599 81.8802 71.6928C81.2299 72.9257 80.4763 74.4175 79.6376 76.1128L78.3187 78.7943L77.6107 80.2306L77.243 80.9704L77.0515 81.3433L76.9512 81.5283L76.8996 81.6238L76.8692 81.67C76.8478 81.7043 76.8157 81.7304 76.778 81.744V81.5899L81.944 81.1091H82.0625L82.0261 81.2262L81.9987 81.3094C81.549 82.6872 81.1083 84.0341 80.686 85.3379C80.4854 85.9821 80.1937 86.6294 80.3578 87.252C80.5219 87.8746 81.002 88.3308 81.4274 88.7746C82.2141 89.6698 82.8944 90.6557 83.4543 91.712C83.9952 92.6921 84.445 93.6322 84.8461 94.486C85.6301 96.2182 86.1923 97.6545 86.5661 98.6501C86.7484 99.1494 86.8882 99.5378 86.9763 99.8028C87.0229 99.9344 87.0563 100.037 87.0766 100.111C87.077 100.148 87.0749 100.185 87.0705 100.222Z" fill="#263238"/>
<path d="M87.0283 100.533C87.0236 100.497 87.0236 100.461 87.0283 100.425L87.0769 100.117C87.1486 99.7138 87.2554 99.3178 87.396 98.9336C87.9475 97.5255 88.6474 96.1821 89.4837 94.9266C90.0033 94.1253 90.5959 93.2622 91.2675 92.3561C91.9761 91.3894 92.7369 90.4633 93.5466 89.582C94.4468 88.5929 95.4323 87.6873 96.4912 86.8758C97.0569 86.4513 97.6442 86.0572 98.2507 85.6954C98.8584 85.3255 99.4966 84.9741 100.104 84.5642L100.083 84.6751C99.2548 83.4206 98.1323 82.3943 96.8164 81.6884L96.707 81.6299L96.8072 81.5559C98.6862 80.1352 100.875 79.1952 103.189 78.8158L103.131 78.8805L103.79 69.6831C103.876 68.5735 103.942 67.692 103.991 67.0817C104.015 66.7735 104.034 66.5577 104.049 66.3944L104.067 66.2187C104.063 66.1983 104.063 66.1774 104.067 66.157C104.069 66.1775 104.069 66.1982 104.067 66.2187V66.3944C104.067 66.5608 104.046 66.792 104.031 67.0848C103.994 67.7012 103.939 68.5766 103.873 69.6893C103.724 71.9362 103.517 75.114 103.265 78.8929V78.9483H103.21C100.919 79.3293 98.7522 80.2638 96.8923 81.673V81.5405C98.2314 82.2574 99.3739 83.3007 100.217 84.5765L100.262 84.6412L100.196 84.6875C99.5878 85.1005 98.9435 85.4549 98.3327 85.8248C97.7304 86.1815 97.1471 86.5704 96.5854 86.9899C95.5361 87.7949 94.5579 88.6911 93.6621 89.6684C92.8516 90.5489 92.0907 91.475 91.3829 92.4424C90.7083 93.3393 90.1097 94.1962 89.587 94.9945C88.7432 96.2355 88.0302 97.563 87.4598 98.9551C87.3126 99.3341 87.1968 99.7249 87.1134 100.123C87.086 100.253 87.0648 100.358 87.0496 100.432C87.0461 100.466 87.039 100.5 87.0283 100.533Z" fill="#263238"/>
<path d="M103.371 90.4452H94.297V92.236H103.371V90.4452Z" fill="#263238"/>
<path d="M101.323 106.574C101.273 106.597 101.221 106.613 101.168 106.621L100.718 106.719C100.163 106.836 99.6021 106.918 99.0374 106.963C98.1927 107.04 97.3413 106.935 96.5395 106.655C95.5417 106.302 94.7151 105.575 94.23 104.623C93.7994 103.663 93.5846 102.618 93.601 101.563C93.601 100.598 93.6314 99.7443 93.6344 99.0169C93.6374 98.2894 93.6587 97.7069 93.68 97.3C93.68 97.0966 93.7013 96.9394 93.7104 96.8346C93.7101 96.7792 93.7183 96.7241 93.7347 96.6713C93.7385 96.7257 93.7385 96.7802 93.7347 96.8346C93.7347 96.961 93.7347 97.1151 93.7347 97.3031C93.7347 97.7316 93.7347 98.311 93.7347 99.0169V101.56C93.7261 102.592 93.9397 103.613 94.3607 104.553C94.8261 105.469 95.6183 106.171 96.576 106.516C97.3554 106.794 98.183 106.906 99.007 106.846C99.568 106.811 100.127 106.747 100.681 106.655L101.137 106.587C101.198 106.575 101.261 106.571 101.323 106.574Z" fill="#263238"/>
<path d="M102.964 96.4586C102.964 96.5017 100.897 96.588 98.3507 96.6466C95.8042 96.7051 93.7347 96.7206 93.7347 96.6743C93.7347 96.6281 95.7981 96.5479 98.3477 96.4863C100.897 96.4247 102.964 96.4308 102.964 96.4586Z" fill="#263238"/>
<path d="M98.4696 96.5233V93.4688C98.4696 93.231 98.5628 93.0028 98.7286 92.8346C98.8944 92.6664 99.1194 92.5719 99.3539 92.5719C99.5884 92.5719 99.8134 92.6664 99.9792 92.8346C100.145 93.0028 100.238 93.231 100.238 93.4688V98.5021C100.241 98.5426 100.236 98.5832 100.223 98.6217C100.211 98.6602 100.19 98.6958 100.164 98.7264C100.111 98.7882 100.036 98.8262 99.9556 98.8319C99.875 98.8376 99.7955 98.8107 99.7345 98.7569C99.6735 98.7031 99.6361 98.627 99.6304 98.5453C99.6304 98.5083 99.6304 98.4651 99.6304 98.4251C99.6304 97.6576 99.5453 96.4863 99.5453 96.4863L98.4696 96.5233Z" fill="#FF9902"/>
<path d="M98.3145 101.8C98.2361 101.084 98.2097 100.363 98.2355 99.6426C98.2095 98.9224 98.2359 98.2012 98.3145 97.485C98.3932 98.2012 98.4196 98.9224 98.3935 99.6426C98.4194 100.363 98.3929 101.084 98.3145 101.8Z" fill="#263238"/>
<path d="M100.025 105.798C99.9825 105.798 99.946 104.257 99.946 102.364C99.946 100.472 99.9825 98.9305 100.025 98.9305C100.068 98.9305 100.104 100.472 100.104 102.364C100.104 104.257 100.071 105.798 100.025 105.798Z" fill="#263238"/>
<path d="M86.1165 72.2322L90.3374 77.4566C93.3185 74.4052 95.4608 71.3907 97.3267 70.0592C97.3267 70.0592 86.9765 98.8226 86.9613 98.3449C86.9461 97.8671 86.1165 72.2322 86.1165 72.2322Z" fill="#FF9902"/>
<path d="M97.3389 70.0716C97.3074 70.1151 97.2718 70.1553 97.2325 70.1918L96.9043 70.5C96.6187 70.7743 96.2115 71.1812 95.7131 71.6867C94.7133 72.6946 93.3854 74.1525 91.9359 75.7552C90.4863 77.358 89.1401 78.8066 88.1191 79.7991C87.6086 80.2954 87.1892 80.6868 86.8884 80.9488L86.5419 81.257C86.5033 81.2948 86.4605 81.3279 86.4143 81.3556C86.4143 81.3556 86.4477 81.3094 86.5207 81.2354L86.8458 80.9272C87.1345 80.6529 87.5417 80.246 88.0401 79.7406C89.0368 78.7327 90.3648 77.2748 91.8173 75.672C93.2699 74.0692 94.6131 72.6206 95.6341 71.6281C96.1446 71.1319 96.564 70.7404 96.8648 70.4784L97.2082 70.1702C97.2903 70.0993 97.3328 70.0654 97.3389 70.0716Z" fill="#263238"/>
<path d="M90.3104 77.4351C90.277 77.4628 89.3107 76.3224 88.1529 74.8861C86.9951 73.4497 86.0834 72.26 86.1169 72.2322C86.1503 72.2045 87.1166 73.3449 88.2744 74.7843C89.4322 76.2237 90.3439 77.4073 90.3104 77.4351Z" fill="#263238"/>
<path d="M72.3688 82.2248C72.3884 82.2952 72.4006 82.3675 72.4052 82.4405C72.4265 82.5977 72.4508 82.8042 72.4812 83.057C72.545 83.5964 72.6271 84.3762 72.7243 85.344C72.9158 87.2766 73.1437 89.9489 73.3807 92.9017C73.6177 95.8544 73.8365 98.5113 73.9885 100.462C74.0675 101.415 74.1313 102.195 74.1769 102.752C74.1981 103.011 74.2133 103.218 74.2255 103.369C74.2309 103.442 74.2309 103.515 74.2255 103.588C74.2056 103.517 74.1923 103.445 74.186 103.372C74.1678 103.215 74.1434 103.008 74.11 102.756C74.0462 102.216 73.9641 101.436 73.8699 100.469C73.6785 98.536 73.4476 95.8637 73.2105 92.9109C72.9735 89.9581 72.7577 87.3012 72.6028 85.3502C72.5237 84.3978 72.4599 83.618 72.4113 83.0601C72.3931 82.8012 72.3779 82.5947 72.3657 82.4436C72.3593 82.3708 72.3603 82.2974 72.3688 82.2248Z" fill="#263238"/>
<path d="M112.083 68.6907C112.083 68.6907 118.848 68.6907 120.543 81.8888C122.239 95.087 125.968 119.292 119.188 123.881C112.408 128.471 80.993 128.147 80.993 128.147V115.362L106.768 112.477C106.768 112.477 106.671 110.097 107.984 110.116L106.519 79.947C106.519 79.947 106.215 69.264 112.083 68.6907Z" fill="#EBEBEB"/>
<path d="M106.586 89.9735C106.586 89.9735 106.586 90.0968 106.614 90.3372C106.641 90.5776 106.647 90.9537 106.674 91.4098C106.723 92.3561 106.796 93.7369 106.89 95.5061C107.069 99.0538 107.328 104.152 107.644 110.363V110.427H107.577C107.359 110.433 107.15 110.514 106.984 110.658C106.817 110.821 106.691 111.023 106.62 111.247C106.467 111.722 106.401 112.221 106.425 112.72V112.785H106.364L81.0024 115.433L81.0723 115.353V128.147L80.9964 128.07C91.9696 128.19 101.539 127.762 108.3 126.883C109.993 126.664 111.503 126.415 112.819 126.153C113.938 125.929 115.044 125.646 116.134 125.305C116.575 125.154 116.964 124.997 117.298 124.877C117.632 124.757 117.906 124.612 118.122 124.498L118.602 124.22L118.769 124.131C118.769 124.131 118.717 124.168 118.611 124.233L118.134 124.522C117.918 124.639 117.639 124.76 117.313 124.917C116.988 125.074 116.593 125.2 116.15 125.355C115.061 125.706 113.954 125.998 112.834 126.23C111.518 126.501 110.005 126.757 108.315 126.982C101.548 127.873 91.9726 128.338 80.9933 128.215H80.9174V128.138C80.9174 124.439 80.9174 120.537 80.9174 116.521V115.288H80.9903L106.352 112.668L106.292 112.739C106.264 112.217 106.334 111.694 106.498 111.198C106.577 110.955 106.713 110.736 106.896 110.56C107.086 110.396 107.325 110.303 107.574 110.295L107.513 110.363C107.209 104.152 106.981 99.0538 106.817 95.503C106.738 93.7338 106.674 92.353 106.632 91.4068C106.614 90.9383 106.602 90.5807 106.589 90.3341C106.577 90.0876 106.586 89.9735 106.586 89.9735Z" fill="#263238"/>
<path d="M111.29 113.476C111.263 113.476 111.162 113.21 110.931 112.81C110.627 112.289 110.238 111.826 109.78 111.438C109.319 111.054 108.799 110.75 108.239 110.541C107.811 110.384 107.525 110.335 107.531 110.307C107.785 110.304 108.037 110.347 108.275 110.433C108.863 110.616 109.409 110.915 109.882 111.314C110.354 111.712 110.744 112.202 111.029 112.754C111.158 112.977 111.246 113.221 111.29 113.476Z" fill="#263238"/>
<path d="M108.26 115.849C107.896 114.629 107.223 113.528 106.309 112.653C106.48 112.733 106.634 112.846 106.762 112.986C107.098 113.293 107.389 113.648 107.625 114.04C107.865 114.429 108.049 114.85 108.172 115.291C108.238 115.469 108.268 115.659 108.26 115.849Z" fill="#263238"/>
<path d="M19.2045 78.3505L37.6805 128.178L76.8723 128.982L60.7209 78.6926L19.2045 78.3505Z" fill="#FF9902"/>
<g opacity="0.5">
<path d="M43.8829 128.267C43.8829 128.267 34.499 109.993 31.5848 97.7993C29.9225 90.9044 28.4426 78.412 28.4426 78.412L52.9052 78.6309C52.9052 78.6309 61.0188 91.7273 65.6895 104.814C68.4867 112.622 70.5382 120.684 71.8158 128.89L59.2624 128.609L55.1326 116.398C55.1326 116.398 53.8442 117.103 52.0725 116.191L56.3269 128.545L43.8829 128.267Z" fill="white"/>
</g>
<path d="M57.2903 108.64C57.0624 107.968 56.0748 105.594 56.2328 104.411C56.3908 103.227 57.5455 101.945 57.6094 100.758C57.6732 99.5716 57.7066 96.927 57.4088 95.6387C57.0956 94.4991 56.7109 93.3811 56.2571 92.2914C56.2571 92.2914 54.4854 89.4464 52.7047 89.3817L50.538 89.3016C50.538 89.3016 48.97 89.6838 49.7297 91.6502C50.4894 93.6167 52.2823 96.9918 52.5406 97.5743C52.7989 98.1568 54.0083 100.407 53.7349 101.849C53.4614 103.292 51.3919 107.317 51.6654 108.297L50.5562 108.257C50.5562 108.257 49.5322 106.457 48.0948 105.696C46.6574 104.935 43.573 101.649 42.9288 99.6856C42.2846 97.7222 41.5613 93.1544 41.1268 91.7705C40.6922 90.3865 40.0206 89.1721 38.8932 88.8639C37.7658 88.5557 36.2555 88.944 36.2555 88.944C36.2555 88.944 34.2347 89.6499 35.1372 92.7321C36.0398 95.8143 36.5473 96.0024 37.6169 97.8055C38.6866 99.6086 38.957 100.148 39.8049 100.931C40.6527 101.714 42.6583 102.58 43.5214 104.463C44.3844 106.346 44.8311 108.532 46.3748 111.226C47.9185 113.919 48.502 114.924 49.7175 114.924C50.9331 114.924 51.3281 113.528 51.3737 112.69C51.4031 112.249 51.4031 111.808 51.3737 111.367L52.8445 111.423C52.8445 111.423 54.5067 114.573 56.251 115.165C57.9953 115.756 57.8737 114.166 57.9619 113.55C58.05 112.933 57.5303 109.308 57.2903 108.64ZM48.6752 112.277C48.2133 112.036 47.408 110.458 46.6088 109.09C46.001 108.066 46.0649 107.527 46.1287 107.32C46.1389 107.284 46.1543 107.25 46.1743 107.219L46.1499 107.253C46.2107 106.895 46.8033 107.052 47.2378 107.228C47.5569 107.357 49.0763 107.958 49.5717 110.19C50.067 112.421 49.1493 112.514 48.6843 112.277H48.6752ZM56.2966 112.557C55.9927 112.767 54.9686 112.603 53.9506 110.353C52.9326 108.103 54.0782 107.598 54.3183 107.49C54.6435 107.342 55.1449 107.225 55.4488 107.595L55.4032 107.561C55.444 107.593 55.4826 107.628 55.5186 107.666C55.9534 108.158 56.2077 108.787 56.2388 109.447C56.3786 110.788 56.6157 112.347 56.3057 112.557H56.2966Z" fill="white"/>
<path d="M51.0758 107.527C51.4405 107.502 51.1822 106.097 51.1822 106.097C51.2213 105.567 51.2213 105.036 51.1822 104.506C51.1153 103.844 51.4527 103.236 51.6866 102.623C51.9206 102.01 51.6866 100.373 51.3828 99.5408C51.0789 98.7086 51.2916 98.6439 51.2916 98.6439C52.2276 98.3357 51.3645 96.3599 50.7355 94.5137C50.1065 92.6674 49.4805 92.8 49.4805 92.8C49.4805 92.8 49.0611 92.7845 48.821 94.2887C48.581 95.7928 48.1707 96.326 47.2712 96.323H46.7911C45.8794 96.323 45.0802 95.6757 43.8039 94.1161C42.5276 92.5565 42.1113 92.5411 42.1113 92.5411C42.1113 92.5411 41.3789 92.3592 41.9989 94.2055C42.6188 96.0517 43.0837 98.0059 44.2567 98.4004C44.2567 98.4004 44.4998 98.4867 44.7764 99.3251C45.0529 100.163 45.922 101.812 46.5814 102.457C47.2408 103.101 48.0036 103.751 48.3865 104.423C48.7694 105.095 49.4835 106.054 49.4835 106.054C49.4835 106.054 50.3556 107.484 50.7446 107.536L51.0758 107.527Z" fill="white"/>
<path d="M39.7015 78.8621C39.7015 78.8621 39.2244 79.0008 39.5678 79.8114C39.9112 80.622 39.8717 81.0998 40.0692 81.3186C40.2787 81.5384 40.502 81.7444 40.7377 81.935C40.7377 81.935 40.1907 82.1261 40.5949 82.9923C40.9991 83.8584 41.1024 84.7121 41.2877 85.0913C41.4731 85.4704 41.8651 85.5937 42.0474 85.8125C42.2298 86.0313 41.4397 85.7878 41.6463 86.5399C41.853 87.292 42.3209 87.8406 42.3179 88.5341C42.3149 89.2276 42.6491 90.14 43.2994 90.4821C43.9498 90.8242 43.8282 91.2989 43.8464 91.6718C43.885 92.1832 43.9871 92.6875 44.1503 93.1729C44.4056 94.1376 45.8673 95.6387 46.7637 95.5555C47.6602 95.4722 48.5201 94.3996 48.3044 93.7523C47.9375 92.8693 47.4461 92.0449 46.8458 91.305C46.4659 90.9198 46.1438 90.9074 46.2137 90.4852C46.2836 90.0629 46.7516 90.7163 46.7303 90.1307C46.7478 89.5271 46.5938 88.9311 46.2866 88.4139C45.925 87.8684 45.8156 87.3351 45.4692 86.6293C45.1227 85.9235 44.4451 85.794 44.4998 85.6368C44.5545 85.4796 44.9252 85.5474 44.6183 84.8447C44.3114 84.1419 44.2931 84.6197 43.9649 83.544C43.6368 82.4683 43.4879 81.8241 43.1688 81.9196C42.8497 82.0152 42.8983 81.5374 42.7859 80.7885C42.6734 80.0395 42.9409 80.3169 42.482 79.5032C42.0231 78.6894 39.7015 78.8621 39.7015 78.8621Z" fill="white"/>
<path d="M40.3152 105.339L40.7194 104.358L40.066 102.389C40.066 102.389 41.16 101.714 42.6824 103.955C44.2049 106.195 44.1046 107.259 44.1046 107.259L42.2996 107.194C42.0479 107.836 42.0253 108.547 42.2357 109.204C42.6034 110.215 43.1474 110.091 43.6306 111.864C43.883 112.675 44.0631 113.507 44.1684 114.351L49.7963 128.178L47.2832 128.085L41.2056 113.436C41.2056 113.436 40.5158 112.983 39.3823 110.76C38.2488 108.538 37.1852 105.65 37.9115 104.87C38.6378 104.09 40.3152 105.339 40.3152 105.339Z" fill="white"/>
<path d="M60.3869 106.081L59.3021 105.061L58.6244 103.092C58.6244 103.092 57.0381 102.318 57.0108 104.5C56.9834 106.682 57.8161 107.783 57.8161 107.783L59.6211 107.847C59.6211 107.847 60.7485 108.908 61.0615 109.913C61.3745 110.917 60.7577 110.754 61.4505 112.536C61.7723 113.399 62.1562 114.238 62.5992 115.044L66.2822 128.794L68.7984 128.887L65.0059 114.308C65.0059 114.308 65.4071 113.895 65.0333 111.7C64.6595 109.506 63.7934 106.63 62.5111 105.776C62.1893 105.532 61.785 105.426 61.3868 105.484C60.9887 105.541 60.6291 105.756 60.3869 106.081Z" fill="white"/>
<path d="M19.2045 78.3505L60.7209 78.6248H60.7665L60.7817 78.671C65.3186 92.7815 70.7733 109.752 76.6413 127.987L76.9452 128.945L76.9817 129.053H76.8692L37.6684 128.243H37.6198L37.6015 128.196L19.2045 78.3505C19.4233 78.9453 26.7559 98.6316 37.7413 128.153L37.6775 128.107L76.8783 128.902L76.8024 129.007C76.699 128.699 76.5957 128.372 76.4985 128.048L60.6662 78.7142L60.727 78.7604L19.2045 78.3505Z" fill="#263238"/>
<path d="M81.0537 116.404H77.1245C77.1245 116.404 75.1128 114.434 74.5659 114.157C74.0189 113.879 71.3325 113.056 71.3325 113.056L72.3688 115.972C72.5309 116.019 72.6903 116.076 72.8459 116.142C73.5326 116.413 73.3412 117.029 72.7942 117.029H68.8377C68.8377 117.029 64.7839 115.057 64.1822 115.417C63.6777 115.726 63.5015 116.265 64.0181 117.029C64.5347 117.794 68.0871 119.591 68.4943 119.729L69.6551 120.075L68.5642 120.42L63.3982 118.592C63.0609 118.531 62.599 118.475 62.447 118.672C62.3815 118.739 62.33 118.819 62.2957 118.907C62.2615 118.995 62.2451 119.089 62.2477 119.184C62.2503 119.278 62.2717 119.371 62.3106 119.457C62.3496 119.543 62.4053 119.62 62.4744 119.683C63.2105 120.358 63.9912 120.981 64.8112 121.548C64.8112 121.548 63.9877 122.781 64.6684 123.397C65.3491 124.014 67.3304 125.891 67.3304 125.891C67.3304 125.891 67.537 126.93 68.1509 127.414C68.7647 127.897 75.5231 127.897 76.0002 127.897C76.4773 127.897 79.2092 126.307 79.2092 126.307L80.996 126.116L81.0537 116.404Z" fill="#FFBE9D"/>
<path d="M69.3394 123.527C69.1011 123.605 68.8511 123.639 68.6009 123.629C68.3252 123.629 68.0514 123.58 67.7926 123.484C67.4831 123.36 67.1885 123.2 66.9144 123.009C66.3279 122.624 65.8052 122.266 65.4284 122.001C65.2173 121.871 65.0207 121.718 64.8419 121.545C65.0708 121.641 65.2888 121.762 65.4922 121.906C65.8812 122.146 66.4039 122.488 67.0116 122.873C67.2773 123.058 67.5603 123.216 67.8564 123.345C68.0984 123.445 68.3553 123.502 68.6161 123.515C69.0537 123.536 69.3394 123.499 69.3394 123.527Z" fill="#EB996E"/>
<path d="M69.6494 126.091C69.6646 126.091 69.5035 126.289 69.1389 126.384C68.6611 126.488 68.1623 126.403 67.744 126.147C67.334 125.91 66.9543 125.624 66.6136 125.293C66.4617 125.168 66.3313 125.018 66.2277 124.849C66.2641 124.806 66.884 125.466 67.82 126.005C68.2078 126.244 68.6654 126.339 69.1145 126.273C69.2977 126.229 69.4767 126.168 69.6494 126.091Z" fill="#EB996E"/>
<path d="M71.5729 120.417C71.2145 120.462 70.8507 120.434 70.5032 120.334C70.1454 120.286 69.8004 120.166 69.4883 119.982C69.8429 120.014 70.1939 120.079 70.5367 120.176C70.8886 120.224 71.2354 120.305 71.5729 120.417Z" fill="#EB996E"/>
<path d="M17.6731 87.3599C17.4805 87.2486 17.3121 87.0991 17.1779 86.9202C17.0438 86.7412 16.9467 86.5367 16.8925 86.3187C16.8383 86.1008 16.8281 85.874 16.8625 85.6519C16.8969 85.4299 16.9752 85.2172 17.0927 85.0266C17.2365 84.7553 17.4455 84.5252 17.7004 84.3577C18.3599 84.0033 24.1944 82.8937 24.8204 82.8166C25.4464 82.7396 25.5619 83.9478 24.7444 84.5489C23.927 85.1499 17.6883 87.366 17.6883 87.366L17.6731 87.3599Z" fill="#FFBE9D"/>
<path d="M19.0315 91.6502C18.8401 91.5387 18.6727 91.3892 18.5394 91.2108C18.406 91.0323 18.3094 90.8285 18.2553 90.6114C18.2011 90.3943 18.1906 90.1684 18.2242 89.9471C18.2578 89.7258 18.335 89.5136 18.4511 89.3231C18.594 89.0512 18.8033 88.8209 19.0589 88.6543C19.7183 88.2998 25.6744 86.7125 26.1788 87.1132C26.7866 87.5755 26.9203 88.2413 26.1029 88.8454C25.2854 89.4495 19.0467 91.6626 19.0467 91.6626L19.0315 91.6502Z" fill="#FFBE9D"/>
<path d="M20.2165 90.7627C19.9413 90.8271 19.6835 90.9521 19.4613 91.129C19.2392 91.3059 19.0581 91.5302 18.9311 91.786C18.7917 92.0613 18.7499 92.3769 18.8126 92.6798C18.9089 93.1334 19.1249 93.5519 19.4374 93.8906C19.75 94.2294 20.1474 94.4756 20.5872 94.6031C21.6539 94.9422 25.1272 94.1501 25.1272 94.1501L24.325 91.8784L26.7561 91.0709C27.7467 90.6702 27.2666 89.0983 26.0754 89.4034C25.6864 89.502 21.6083 90.4113 20.2165 90.7627Z" fill="#FFBE9D"/>
<path d="M18.3931 89.3849C18.2013 89.2736 18.0337 89.1243 17.9001 88.9459C17.7665 88.7675 17.6697 88.5636 17.6155 88.3464C17.5613 88.1292 17.5509 87.9031 17.5848 87.6817C17.6186 87.4603 17.6961 87.2481 17.8127 87.0578C17.9564 86.7864 18.1655 86.5564 18.4204 86.3889C19.0799 86.0345 24.3856 85.0759 25.0025 84.9434C25.6194 84.8108 26.2819 85.9667 25.4644 86.5677C24.647 87.1687 18.3931 89.3849 18.3931 89.3849Z" fill="#FFBE9D"/>
<path d="M24.3887 87.2242C24.0855 87.3294 23.7746 87.4098 23.4588 87.4647C22.8814 87.5941 22.0822 87.7729 21.1979 87.9393C20.4446 88.0596 19.7218 88.3287 19.0707 88.7315C18.8157 88.9231 18.5877 89.1491 18.3931 89.4034C18.3931 89.4034 18.4174 89.3109 18.5055 89.166C18.6358 88.9628 18.8004 88.7844 18.9917 88.639C19.2697 88.4263 19.5768 88.256 19.9034 88.1335C20.3054 87.9854 20.7178 87.868 21.1371 87.7821C22.0245 87.6034 22.8298 87.4554 23.4132 87.3537C23.734 87.2815 24.0604 87.2382 24.3887 87.2242Z" fill="#EB996E"/>
<path d="M23.3646 85.2577C23.0747 85.357 22.7768 85.4302 22.4742 85.4765L20.3076 85.9019C19.5885 86.0228 18.9023 86.2947 18.2928 86.7002C18.0685 86.8983 17.8648 87.1193 17.6851 87.3598C17.6851 87.3598 17.7094 87.2704 17.7914 87.1317C17.9097 86.9342 18.0597 86.7582 18.2351 86.6108C18.6757 86.2163 19.4506 85.9327 20.2863 85.7478C21.122 85.5628 21.906 85.458 22.4651 85.3656C22.7614 85.304 23.0623 85.2679 23.3646 85.2577Z" fill="#EB996E"/>
<path d="M24.4709 89.7424C24.2001 89.8527 23.9205 89.9393 23.6352 90.0013C23.1155 90.1431 22.3893 90.3311 21.5809 90.4667C20.8873 90.5572 20.2175 90.7833 19.6087 91.1325C19.3832 91.3028 19.1791 91.5005 19.001 91.7212C19.001 91.7212 19.0222 91.6379 19.1073 91.5085C19.2334 91.3274 19.3885 91.1691 19.5662 91.04C20.1689 90.6538 20.8469 90.4046 21.5536 90.3095C22.365 90.1739 23.073 90.0013 23.6139 89.8934C23.8943 89.8161 24.1812 89.7655 24.4709 89.7424Z" fill="#EB996E"/>
<path d="M24.7991 91.7213C24.3971 91.9406 23.9721 92.1132 23.532 92.236C23.1052 92.4067 22.6607 92.5277 22.207 92.5966C22.6085 92.377 23.0338 92.2053 23.4742 92.085C23.9009 91.9134 24.3454 91.7914 24.7991 91.7213Z" fill="#EB996E"/>
<path d="M148.853 56.1338C149.223 55.5846 149.715 55.1304 150.288 54.8073C150.862 54.4842 151.501 54.301 152.157 54.2723C152.812 54.2435 153.465 54.37 154.064 54.6416C154.663 54.9133 155.191 55.3227 155.607 55.8374C156.022 56.3521 156.314 56.9579 156.459 57.6069C156.604 58.2558 156.598 58.9301 156.441 59.5762C156.284 60.2223 155.981 60.8225 155.556 61.3292C155.131 61.8359 154.595 62.2352 153.991 62.4955C154.664 62.8305 155.179 63.4209 155.424 64.1385C155.67 64.8562 155.627 65.6432 155.304 66.3287C154.981 67.0142 154.405 67.5428 153.7 67.7998C152.995 68.0568 152.218 68.0215 151.539 67.7014C151.208 68.885 149.901 69.6001 148.692 69.5168C147.482 69.4336 146.391 68.7062 145.565 67.8062C144.705 66.8707 144.086 65.7338 143.764 64.4968C143.442 63.2598 143.427 61.9613 143.72 60.7171C144.365 58.2513 146.455 56.1862 148.95 55.7608" fill="#263238"/>
<path d="M150.773 54.2042C150.773 54.2042 150.795 54.232 150.825 54.2905C150.869 54.3762 150.908 54.4648 150.941 54.5556C151.068 54.8959 151.147 55.2529 151.175 55.6159C151.221 56.1701 151.16 56.7281 150.995 57.2587C150.79 57.937 150.416 58.5504 149.91 59.0403V58.9385C150.329 59.5186 150.605 60.1918 150.716 60.9019C150.865 61.7705 150.752 62.6645 150.393 63.4672C150.033 64.2699 149.444 64.9442 148.701 65.402C148.26 65.6832 147.772 65.8806 147.261 65.9845C147.123 66.0128 146.984 66.0314 146.844 66.04C146.795 66.0448 146.745 66.0448 146.695 66.04C146.695 66.0215 146.896 66.0061 147.248 65.9229C147.742 65.7956 148.212 65.5874 148.64 65.3064C149.133 64.9803 149.556 64.556 149.882 64.0593C150.209 63.5626 150.433 63.0038 150.54 62.4167C150.648 61.8297 150.636 61.2266 150.507 60.6441C150.378 60.0616 150.134 59.5118 149.789 59.0279L149.749 58.9724L149.798 58.9262C150.29 58.4585 150.657 57.8706 150.862 57.2187C151.03 56.7046 151.101 56.1629 151.071 55.6221C151.038 55.1376 150.938 54.6603 150.773 54.2042Z" fill="#455A64"/>
<path d="M162.926 53.3475C162.783 53.4494 162.632 53.5401 162.476 53.6187C162.172 53.7821 161.753 54.0132 161.221 54.2906C160.151 54.8485 158.662 55.5852 156.988 56.3434C155.313 57.1016 153.776 57.7304 152.654 58.165C152.095 58.3808 151.639 58.5534 151.32 58.6643C151.159 58.729 150.994 58.7816 150.825 58.8215C150.977 58.7368 151.136 58.6647 151.299 58.6058L152.615 58.0602C153.724 57.5979 155.253 56.9506 156.924 56.2109C158.595 55.4711 160.09 54.7345 161.178 54.2043L162.458 53.5879C162.607 53.4958 162.764 53.4155 162.926 53.3475Z" fill="#FF9902"/>
<path d="M158.966 49.3528C158.993 49.3867 157.325 51.0049 155.238 52.9652C153.15 54.9255 151.433 56.4944 151.403 56.4604C151.372 56.4265 153.043 54.8207 155.14 52.8481C157.237 50.8754 158.936 49.322 158.966 49.3528Z" fill="#FF9902"/>
<path d="M140.794 42.6767C140.794 39.3602 136.886 39.1969 134.911 40.026C133.847 38.5465 133.087 37.8006 130.641 37.6465C128.845 37.5294 126.107 38.4448 124.728 40.2788C124.05 41.2108 123.626 42.3067 123.497 43.4571C123.368 44.6075 123.539 45.7722 123.992 46.8347C124.296 47.5343 124.731 48.2371 124.646 48.9922C124.521 50.0895 123.412 50.7306 122.695 51.5597C122.107 52.2714 121.769 53.1611 121.733 54.0889C121.698 55.0167 121.968 55.9301 122.5 56.6855C123.196 57.6102 124.302 58.279 124.67 59.3886C124.974 60.3133 124.688 61.3335 124.746 62.3137C124.852 64.1168 126.201 65.7041 127.855 66.3545C129.508 67.0048 131.401 66.86 133.072 66.2435" fill="#263238"/>
<path d="M126.499 77.4659L132.628 74.6919L132.838 70.534C132.838 70.534 128.231 69.8436 127.171 63.7839C126.645 60.7695 126.709 55.8101 126.888 51.7632C127.052 48.1107 130.863 44.3997 134.452 44.7202L146.109 46.7514V48.7148L146.215 73.7549L152.244 76.7046L138.569 93.0898L126.499 77.4659Z" fill="#A36957"/>
<path d="M129.067 56.0537C129.069 56.2565 129.149 56.4506 129.289 56.5946C129.43 56.7386 129.621 56.821 129.821 56.8242C129.919 56.83 130.017 56.8161 130.109 56.7832C130.201 56.7503 130.286 56.699 130.359 56.6325C130.432 56.566 130.491 56.4854 130.532 56.3956C130.574 56.3057 130.598 56.2084 130.602 56.1091C130.6 55.906 130.521 55.7116 130.38 55.5671C130.239 55.4226 130.048 55.3395 129.848 55.3355C129.75 55.3293 129.652 55.343 129.559 55.376C129.466 55.4089 129.381 55.4604 129.308 55.5273C129.235 55.5943 129.177 55.6754 129.135 55.7658C129.094 55.8562 129.071 55.9541 129.067 56.0537Z" fill="#263238"/>
<path d="M127.995 54.3028C128.092 54.4015 128.666 53.9546 129.493 53.9422C130.319 53.9299 130.933 54.3398 131.012 54.235C131.058 54.1888 130.957 54.007 130.69 53.8159C130.33 53.5733 129.906 53.4475 129.474 53.4552C129.044 53.4616 128.626 53.6074 128.283 53.8713C128.031 54.0717 127.946 54.2566 127.995 54.3028Z" fill="#263238"/>
<path d="M136.795 56.0537C136.796 56.257 136.875 56.4519 137.016 56.5966C137.157 56.7412 137.348 56.8241 137.549 56.8273C137.647 56.8331 137.745 56.8191 137.837 56.786C137.93 56.7529 138.015 56.7014 138.088 56.6345C138.161 56.5676 138.219 56.4867 138.261 56.3965C138.303 56.3063 138.326 56.2086 138.33 56.1091C138.327 55.9063 138.248 55.7122 138.107 55.5679C137.966 55.4236 137.776 55.3403 137.576 55.3355C137.478 55.3293 137.38 55.343 137.287 55.376C137.194 55.4089 137.109 55.4604 137.036 55.5273C136.963 55.5943 136.905 55.6754 136.863 55.7658C136.822 55.8562 136.799 55.9541 136.795 56.0537Z" fill="#263238"/>
<path d="M136.126 54.3122C136.223 54.4139 136.801 53.9639 137.627 53.9516C138.454 53.9392 139.068 54.3492 139.147 54.2444C139.189 54.1981 139.089 54.0163 138.822 53.8252C138.462 53.5837 138.038 53.459 137.606 53.4676C137.176 53.4734 136.759 53.618 136.415 53.8807C136.163 54.0841 136.081 54.269 136.126 54.3122Z" fill="#263238"/>
<path d="M133.236 60.5876C133.236 60.5414 132.723 60.4612 131.887 60.3657C131.674 60.3472 131.474 60.3102 131.437 60.1653C131.415 59.9441 131.461 59.7212 131.568 59.5273C131.756 59.0033 131.954 58.4578 132.176 57.8845C133.002 55.545 133.595 53.6248 133.504 53.5909C133.413 53.557 132.665 55.4402 131.839 57.7643C131.638 58.3406 131.45 58.8924 131.267 59.4163C131.139 59.678 131.106 59.9768 131.173 60.2609C131.205 60.336 131.253 60.4028 131.314 60.4562C131.375 60.5096 131.448 60.5482 131.526 60.5691C131.643 60.5991 131.763 60.6146 131.884 60.6153C132.714 60.64 133.233 60.6369 133.236 60.5876Z" fill="#263238"/>
<path d="M132.838 70.5401C135.66 70.533 138.425 69.7317 140.824 68.2253C140.824 68.2253 138.77 72.5096 132.762 72.0504L132.838 70.5401Z" fill="#7C3B29"/>
<path d="M133.619 62.6034C133.774 62.3999 133.977 62.2395 134.209 62.1371C134.441 62.0346 134.695 61.9936 134.947 62.0178C135.13 62.0321 135.307 62.0831 135.47 62.1678C135.633 62.2525 135.778 62.3691 135.895 62.511C136.009 62.6494 136.077 62.8196 136.092 62.9987C136.106 63.1779 136.066 63.3572 135.977 63.5127C135.849 63.6678 135.677 63.7802 135.485 63.8351C135.292 63.8901 135.088 63.8851 134.899 63.8209C134.506 63.6883 134.142 63.4789 133.829 63.2045C133.735 63.1386 133.654 63.0561 133.589 62.961C133.56 62.9151 133.544 62.8615 133.544 62.8068C133.544 62.7522 133.56 62.6986 133.589 62.6527" fill="#7C3B29"/>
<path d="M135.692 61.1239C135.558 61.1239 135.57 62.0301 134.814 62.6897C134.057 63.3493 133.1 63.2661 133.094 63.3955C133.094 63.451 133.309 63.5681 133.701 63.5712C134.228 63.5696 134.737 63.3797 135.139 63.0349C135.524 62.7032 135.767 62.2322 135.816 61.7219C135.844 61.3427 135.74 61.1177 135.692 61.1239Z" fill="#263238"/>
<path d="M135.856 51.0296C135.941 51.2546 136.768 51.1313 137.737 51.2331C138.706 51.3348 139.5 51.5906 139.624 51.381C139.682 51.2824 139.542 51.0728 139.22 50.857C138.793 50.5937 138.313 50.4323 137.815 50.3854C137.317 50.3384 136.816 50.4069 136.348 50.5858C135.996 50.7399 135.82 50.9218 135.856 51.0296Z" fill="#263238"/>
<path d="M128.256 51.871C128.405 52.056 128.973 51.8494 129.657 51.8279C130.34 51.8063 130.924 51.9327 131.055 51.7323C131.112 51.6337 131.015 51.4426 130.751 51.2669C130.406 51.0578 130.008 50.957 129.606 50.9773C129.205 50.9976 128.819 51.1381 128.496 51.381C128.268 51.5813 128.192 51.7786 128.256 51.871Z" fill="#263238"/>
<path d="M125.308 44.3411C126.22 46.4987 128.314 49.6981 130.605 49.9816C131.754 50.1073 132.915 49.9332 133.979 49.4757C135.042 49.0183 135.973 48.2927 136.683 47.3679C137.029 49.1001 138.925 50.0186 140.633 50.3053C141.849 50.5087 143.131 50.521 144.28 50.0556C145.429 49.5902 146.407 48.5792 146.586 47.3463C146.766 46.1134 145.04 43.0743 143.827 42.8463" fill="#263238"/>
<path d="M141.064 48.6563C140.663 49.5659 140.633 50.5993 140.98 51.5315C141.326 52.4638 142.022 53.2194 142.915 53.6341C142.07 54.6975 141.918 56.2047 142.24 57.5332C142.562 58.8616 143.301 60.0483 144.094 61.1548C144.094 61.1548 142.034 64.1785 146.182 66.3946C146.182 66.3946 149.093 65.4699 147.792 61.0284C147.689 60.7105 147.708 60.3645 147.847 60.0606C148.028 59.8029 148.278 59.603 148.567 59.4842C149.661 58.8665 150.471 57.8372 150.823 56.6187C151.175 55.4002 151.04 54.0901 150.448 52.9715C150.265 52.6872 150.129 52.375 150.044 52.0468C149.962 51.5475 149.585 50.2437 149.74 49.7659C150.63 47.2724 149.485 44.1747 146.601 42.6367C144.288 41.4038 141.392 41.1973 139.612 43.1484" fill="#263238"/>
<path d="M157.167 97.143L161.118 81.4698L150.035 75.2838L139.338 92.008L129.648 75.7461L119.665 80.3294C119.009 80.6318 118.481 81.1634 118.179 81.8273L109.148 106.602L121.352 110.609L122.749 104.867L124.357 114.783L119.714 140.803L159.562 140.655L152.5 113.941L153.481 107.983L157.167 97.143Z" fill="#FF9902"/>
<g opacity="0.3">
<path d="M123.713 117.458C126.448 117.926 128.909 115.47 131.681 115.448C134.236 115.43 136.357 117.461 138.846 118.05C139.943 118.309 141.14 118.299 142.089 118.91C142.818 119.378 143.304 120.143 143.802 120.855C146.236 124.224 149.785 126.591 153.8 127.521C154.408 127.66 155.769 128.138 156.143 127.617L155.748 126.02L155.402 121.178L142.049 111.315L126.809 112.073L123.713 117.458Z" fill="black"/>
</g>
<path d="M152.983 94.7758H144.738V96.1597H152.983V94.7758Z" fill="#263238"/>
<path d="M153.542 111.685C156.885 112.887 160.531 112.705 164.02 112.184C164.849 112.058 165.715 111.898 166.369 111.364C166.588 111.189 167.116 110.748 167.107 110.631C167.083 110.307 166.499 109.876 166.168 109.608C164.899 108.613 163.434 107.905 161.873 107.533C160.311 107.161 158.689 107.133 157.116 107.45C156.277 107.603 155.474 107.917 154.751 108.375C154.043 108.855 153.6 109.121 153.357 109.95" fill="#FF9902"/>
<g opacity="0.3">
<path d="M153.542 111.685C156.885 112.887 160.531 112.705 164.02 112.184C164.849 112.058 165.715 111.898 166.369 111.364C166.588 111.189 167.116 110.748 167.107 110.631C167.083 110.307 166.499 109.876 166.168 109.608C164.899 108.613 163.434 107.905 161.873 107.533C160.311 107.161 158.689 107.133 157.116 107.45C156.277 107.603 155.474 107.917 154.751 108.375C154.043 108.855 153.6 109.121 153.357 109.95" fill="black"/>
</g>
<path d="M167.107 110.631C167.107 110.631 163.607 89.4527 163.391 87.5633C162.847 82.8783 161.109 81.3803 161.109 81.3803L152.983 106.602L153.545 111.685C153.545 111.685 156.113 107.764 167.107 110.631Z" fill="#FF9902"/>
<path d="M162.628 93.623C162.591 93.8014 162.54 93.9766 162.476 94.147C162.373 94.483 162.2 94.9607 161.975 95.5464C161.377 97.0694 160.666 98.5439 159.847 99.957C159.025 101.366 158.092 102.706 157.058 103.964C156.66 104.445 156.325 104.827 156.085 105.08C155.966 105.215 155.838 105.343 155.703 105.462C155.803 105.311 155.916 105.169 156.04 105.037C156.265 104.771 156.587 104.38 156.973 103.89C157.975 102.614 158.888 101.269 159.708 99.8646C160.523 98.4617 161.245 97.0057 161.871 95.5063C162.108 94.9268 162.297 94.4552 162.418 94.1285C162.476 93.955 162.546 93.786 162.628 93.623Z" fill="#263238"/>
<path d="M124.305 114.256C124.295 114.234 124.289 114.211 124.287 114.188C124.287 114.132 124.266 114.064 124.251 113.981C124.223 113.787 124.181 113.525 124.129 113.192C124.014 112.493 123.852 111.506 123.652 110.295C123.233 107.835 122.625 104.476 121.962 100.746C121.3 97.0166 120.692 93.657 120.251 91.1912L119.75 88.2939C119.701 87.9641 119.659 87.699 119.629 87.5048L119.607 87.2983C119.603 87.2749 119.603 87.2508 119.607 87.2274C119.617 87.249 119.623 87.2718 119.625 87.2952C119.625 87.3507 119.65 87.4185 119.665 87.4986C119.701 87.6928 119.75 87.9548 119.814 88.2846C119.948 88.9812 120.133 89.9614 120.364 91.1696C120.823 93.6076 121.452 96.9796 122.123 100.706C122.795 104.432 123.375 107.811 123.764 110.261C123.959 111.494 124.102 112.48 124.193 113.168C124.232 113.503 124.263 113.769 124.287 113.963C124.287 114.046 124.287 114.114 124.305 114.169C124.309 114.198 124.309 114.227 124.305 114.256Z" fill="#263238"/>
<path d="M157.769 88.7254C157.762 88.8057 157.748 88.8852 157.726 88.9627C157.69 89.1323 157.641 89.3573 157.577 89.6377C157.441 90.2388 157.249 91.0833 157.012 92.1035C156.529 94.1964 155.86 97.0844 155.152 100.284C154.444 103.483 153.827 106.384 153.42 108.492C153.22 109.546 153.056 110.4 152.955 110.991C152.907 111.275 152.864 111.5 152.834 111.673C152.824 111.752 152.807 111.831 152.782 111.907C152.782 111.826 152.789 111.746 152.803 111.666C152.828 111.494 152.858 111.266 152.895 110.982C152.977 110.384 153.122 109.527 153.311 108.47C153.691 106.356 154.286 103.449 154.997 100.247C155.709 97.0444 156.392 94.1625 156.903 92.0758C157.158 91.0463 157.368 90.208 157.511 89.61C157.583 89.3326 157.644 89.1107 157.687 88.9412C157.707 88.8667 157.735 88.7944 157.769 88.7254Z" fill="#263238"/>
<path d="M127.08 76.831C127.106 76.8603 127.128 76.8923 127.147 76.9266L127.335 77.2348C127.502 77.4999 127.739 77.8821 128.043 78.3722L130.62 82.5609L139.129 96.545H138.998L139.399 95.9686C139.834 95.3522 140.259 94.7358 140.66 94.1686V94.2734L132.808 81.066C131.824 79.3985 131.03 78.0516 130.48 77.1146L129.857 76.0451L129.699 75.7646C129.679 75.7338 129.661 75.7007 129.648 75.666C129.671 75.6941 129.693 75.7239 129.712 75.7553L129.882 76.0297C130.034 76.2762 130.252 76.6461 130.529 77.0869C131.091 78.0115 131.9 79.3523 132.899 81.0106L140.8 94.1902L140.825 94.2333L140.797 94.2765C140.393 94.8498 139.968 95.4601 139.536 96.0765L139.132 96.6529L139.062 96.7515L139.001 96.6498L130.526 82.6256C129.456 80.841 128.59 79.3985 127.989 78.3907C127.685 77.8975 127.466 77.5091 127.305 77.2379L127.132 76.9297C127.111 76.8987 127.094 76.8656 127.08 76.831Z" fill="#263238"/>
<path d="M150.026 75.1913C150.016 75.2234 150 75.2536 149.98 75.2807L149.825 75.5334L149.218 76.5012L146.969 80.0612L139.39 91.9587V91.8724C139.724 92.4272 140.08 93.0189 140.442 93.6138L140.782 94.1779H140.648C142.271 91.7121 143.766 89.3511 145.137 87.2089C146.507 85.0668 147.756 83.1527 148.844 81.5746C149.932 79.9965 150.84 78.7451 151.479 77.8759L152.223 76.8988L152.421 76.6461C152.442 76.6175 152.465 76.5907 152.49 76.566C152.475 76.5989 152.455 76.63 152.433 76.6584L152.247 76.9173C152.077 77.1516 151.837 77.4876 151.527 77.9129C150.919 78.779 150.008 80.0396 148.935 81.6116C147.862 83.1835 146.616 85.113 145.258 87.2613C143.9 89.4096 142.411 91.8076 140.788 94.2734L140.718 94.3782L140.654 94.2703L140.314 93.7063L139.266 91.9648L139.238 91.9248L139.266 91.8816L146.887 80.0119L149.175 76.4797L149.801 75.5272L149.965 75.2838L150.026 75.1913Z" fill="#263238"/>
<path d="M128.265 104.839C127.663 104.576 126.987 104.547 126.365 104.759C125.744 104.97 125.221 105.407 124.898 105.986C124.653 106.479 124.557 107.035 124.622 107.583C124.687 108.131 124.91 108.648 125.263 109.068C125.983 109.845 127.727 110.375 128.539 109.438L128.265 104.839Z" fill="#EBEBEB"/>
<path d="M128.265 104.839C128.286 104.947 128.299 105.056 128.304 105.166C128.323 105.406 128.35 105.721 128.38 106.106C128.438 106.948 128.517 108.097 128.608 109.447V109.478L128.59 109.5C128.409 109.691 128.187 109.838 127.941 109.929C127.695 110.02 127.431 110.052 127.171 110.024C126.616 109.987 126.08 109.802 125.618 109.487C125.17 109.187 124.836 108.74 124.673 108.22C124.521 107.743 124.487 107.235 124.573 106.741C124.648 106.292 124.842 105.872 125.135 105.527C125.387 105.231 125.698 104.993 126.047 104.827C126.556 104.586 127.128 104.518 127.678 104.633C127.878 104.672 128.071 104.741 128.25 104.839C128.235 104.839 128.049 104.762 127.669 104.694C127.133 104.607 126.583 104.69 126.095 104.932C125.734 105.099 125.418 105.354 125.176 105.673C124.934 105.993 124.773 106.368 124.706 106.766C124.626 107.236 124.662 107.718 124.81 108.171C124.963 108.656 125.275 109.074 125.694 109.355C126.133 109.652 126.641 109.829 127.168 109.866C127.405 109.895 127.646 109.868 127.871 109.788C128.096 109.708 128.301 109.577 128.469 109.404L128.45 109.456C128.383 108.119 128.329 106.991 128.286 106.146C128.271 105.755 128.259 105.434 128.25 105.191C128.247 105.073 128.252 104.956 128.265 104.839Z" fill="#263238"/>
<path d="M126.092 104.839C126.092 104.839 126.958 86.7342 127.405 84.1389C127.852 81.5437 129 77.358 130.808 74.809C132.538 72.3833 132.708 72.2137 132.708 72.2137L132.592 74.473C130.952 77.3973 129.781 80.5674 129.122 83.8646C128.159 88.9935 127.496 104.824 127.496 104.824L126.092 104.839Z" fill="#263238"/>
<path d="M151.46 108.076C150.953 108.07 150.452 107.965 149.984 107.767L150.214 107.197C150.834 107.472 151.526 107.528 152.181 107.354C152.503 107.258 152.8 107.089 153.049 106.859C153.298 106.629 153.493 106.346 153.618 106.029C153.816 105.403 153.826 104.732 153.648 104.1C153.526 103.631 153.375 103.171 153.196 102.722C153.12 102.521 153.044 102.321 152.971 102.105C151.694 98.4652 151.916 94.3998 152.111 90.7966L152.718 90.8305C152.527 94.3659 152.311 98.3758 153.548 101.899C153.618 102.099 153.691 102.293 153.764 102.491C153.954 102.964 154.115 103.449 154.244 103.942C154.455 104.696 154.436 105.496 154.189 106.239C154.033 106.644 153.788 107.007 153.472 107.301C153.156 107.595 152.777 107.812 152.366 107.934C152.073 108.026 151.767 108.074 151.46 108.076Z" fill="#E0E0E0"/>
<path d="M151.403 108.347C150.388 108.347 149.5 107.863 148.729 106.895C147.726 105.644 147.565 102.54 147.425 99.8061C147.376 98.8259 147.328 97.9012 147.243 97.2293C146.939 94.8621 145.605 91.6813 145.593 91.6535L146.149 91.41C146.206 91.5426 147.534 94.6957 147.844 97.1522C147.932 97.8457 147.981 98.7827 148.033 99.7721C148.16 102.287 148.321 105.419 149.2 106.513C150.525 108.168 152.132 108.153 154.411 106.461L154.77 106.96C153.515 107.882 152.406 108.347 151.403 108.347Z" fill="#EBEBEB"/>
<path d="M153.545 106.988C153.658 106.671 153.815 106.372 154.01 106.1C154.196 105.834 154.478 105.653 154.794 105.597C154.952 105.578 155.112 105.61 155.252 105.688C155.391 105.766 155.503 105.886 155.572 106.032C155.632 106.185 155.651 106.351 155.626 106.514C155.601 106.676 155.535 106.829 155.432 106.957C155.234 107.192 154.959 107.347 154.657 107.394C154.364 107.433 154.067 107.433 153.773 107.394" fill="#263238"/>
<path d="M147.48 80.126C149.86 83.2246 151.287 86.9662 151.582 90.883H152.846C152.585 86.3937 150.848 82.1226 147.914 78.7513C148.233 77.7282 148.466 76.6796 148.61 75.6167C148.89 73.2094 146.285 71.7515 146.285 71.7515V73.5762C146.614 73.7654 146.886 74.041 147.074 74.3741C147.261 74.7072 147.356 75.0854 147.349 75.4687C147.291 76.7663 146.331 79.5249 145.392 81.9044C144.601 83.8562 144.247 85.9616 144.356 88.0689C144.444 90.7659 145.483 91.9895 145.483 91.9895L146.738 91.4501C146.738 91.4501 145.987 90.4977 145.662 87.8932C145.413 85.9021 145.994 84.3455 146.498 82.9061C146.753 82.1911 147.121 81.2048 147.48 80.126Z" fill="#263238"/>
<path d="M111.16 107.188L109.64 113.066C109.385 113.999 109.373 114.983 109.606 115.922C109.839 116.861 110.308 117.723 110.968 118.423C111.05 118.506 111.135 118.589 111.22 118.666C112.014 119.386 112.99 119.868 114.038 120.057C115.086 120.246 116.166 120.134 117.155 119.736L132.893 113.383L130.569 106.186L118.653 109.629L111.16 107.188Z" fill="#A36957"/>
<path d="M124.08 97.3927L126.934 112.804C126.993 113.129 127.167 113.422 127.422 113.629C127.677 113.835 127.996 113.942 128.323 113.929L150.123 113.075C150.483 113.061 150.822 112.903 151.068 112.635C151.313 112.368 151.444 112.013 151.433 111.648L150.934 97.0875C150.923 96.7296 150.774 96.3905 150.52 96.142C150.266 95.8934 149.926 95.755 149.573 95.756H125.417C125.217 95.7555 125.019 95.8 124.838 95.8862C124.657 95.9725 124.496 96.0983 124.369 96.2547C124.241 96.4111 124.149 96.5942 124.099 96.7909C124.049 96.9877 124.043 97.1932 124.08 97.3927Z" fill="#455A64"/>
<path d="M147.899 103.668C147.49 103.667 147.091 103.791 146.754 104.025C146.417 104.258 146.157 104.589 146.008 104.975C145.705 105.81 145.231 106.784 144.72 107.065C143.775 107.589 142.14 108.008 141.283 107.579C140.426 107.151 136.986 104.016 136.384 104.365C135.783 104.713 135.266 105.496 135.868 106.196C136.47 106.895 139.642 108.985 139.034 109.685C138.427 110.384 131.741 107.311 130.699 107.583C129.657 107.854 129.067 108.507 129.669 108.917C130.27 109.327 134.835 111.075 135.081 111.691C135.081 111.691 128.207 109.86 127.949 110.298C127.69 110.736 127.262 111.429 127.949 111.691C128.635 111.953 134.567 113.522 135.081 113.784C135.934 114.144 136.824 114.406 137.734 114.567C137.919 114.567 139.253 115.026 140.502 115.458C141.894 115.948 143.414 115.908 144.778 115.344L145.474 115.054C146.001 114.835 146.447 114.454 146.751 113.965C147.054 113.476 147.199 112.903 147.166 112.326L147.026 109.95L147.777 107.986L147.899 103.668Z" fill="#A36957"/>
<path d="M142.392 115.79C142.392 115.79 154.937 127.309 159.161 127.343C163.612 127.377 166.119 122.692 165.645 119.779C165.39 118.238 164.734 110.104 164.734 110.104C161.753 109.278 157.298 108.908 154.122 111.05L155.28 115.79L146.905 111.685L142.392 115.79Z" fill="#A36957"/>
<path d="M167.107 110.631C167.059 110.628 167.011 110.62 166.964 110.606L166.557 110.507C166.208 110.421 165.7 110.295 165.071 110.15C163.439 109.751 161.766 109.555 160.088 109.564C159.169 109.594 158.255 109.697 157.353 109.873C156.612 110.004 155.888 110.22 155.195 110.517C154.73 110.722 154.296 110.992 153.907 111.321C153.636 111.559 153.505 111.713 153.493 111.703C153.516 111.659 153.544 111.619 153.578 111.583C153.668 111.474 153.765 111.371 153.867 111.275C154.247 110.922 154.68 110.632 155.149 110.415C155.844 110.097 156.575 109.866 157.325 109.728C158.238 109.539 159.165 109.428 160.097 109.398C161.787 109.384 163.472 109.598 165.108 110.033C165.737 110.193 166.241 110.341 166.588 110.443L166.983 110.569C167.062 110.609 167.11 110.625 167.107 110.631Z" fill="#263238"/>
<path d="M203.701 140.723C203.701 140.766 159.508 140.803 105.006 140.803C50.5049 140.803 6.29907 140.766 6.29907 140.723C6.29907 140.68 50.4836 140.643 105.006 140.643C159.529 140.643 203.701 140.68 203.701 140.723Z" fill="#263238"/>
</svg>
