<svg width="124" height="128" viewBox="0 0 124 128" fill="none" xmlns="http://www.w3.org/2000/svg">
<path d="M72.7059 101.112V109.609H69.9015L75.9457 116.936L81.616 109.76H78.7501V101.112H72.7059Z" fill="#EBEBEB"/>
<path d="M83.3995 37.12V40.1101H82.4131L84.541 42.6906L86.5385 40.1638H85.5274V37.12H83.3995Z" fill="#EBEBEB"/>
<path d="M108.912 64.8601V71.0015H106.885L111.254 76.2982L115.352 71.1091H113.281V64.8601H108.912Z" fill="#EBEBEB"/>
<path d="M15.4666 89.6768V95.8182H13.4396L17.8085 101.112L21.9094 95.9257H19.8356V89.6768H15.4666Z" fill="#EBEBEB"/>
<path d="M51.7517 99.7145V104.297H50.2388L53.5007 108.25L56.5585 104.379H55.0136V99.7145H51.7517Z" fill="#EBEBEB"/>
<path d="M41.8994 24.7552C42.106 23.1961 39.9904 21.9136 38.4012 21.7805C37.646 21.7165 36.8588 21.8394 36.1405 21.5782C34.5858 21.015 33.9634 18.9235 32.4505 18.2502C31.3164 17.751 30.0126 18.1939 28.9106 18.7622C27.8085 19.3306 26.7261 20.0653 25.4961 20.1472C24.4284 20.2163 23.2673 19.8042 22.3325 20.3469C21.6363 20.7539 21.2698 21.5885 20.6277 22.08C19.9857 22.5715 19.1813 22.6662 18.4137 22.7098C17.6462 22.7533 16.827 22.761 16.1161 23.0989C15.4052 23.4368 14.8197 24.2202 14.9673 25.0163L41.8994 24.7552Z" fill="#F5F5F5"/>
<path d="M115.756 53.8419C115.935 52.4851 114.095 51.3689 112.713 51.2537C112.054 51.1974 111.37 51.3024 110.745 51.0771C109.394 50.5856 108.853 48.7731 107.532 48.1894C106.548 47.7542 105.409 48.1408 104.455 48.6425C103.5 49.1443 102.551 49.7741 101.483 49.8457C100.553 49.9072 99.5445 49.5488 98.7302 50.0198C98.125 50.3731 97.8077 51.1001 97.2542 51.5276C96.7007 51.9552 95.9947 52.0396 95.3182 52.0755C94.6417 52.1113 93.9381 52.1216 93.3207 52.4134C92.7032 52.7053 92.1915 53.3888 92.3194 54.0825L115.756 53.8419Z" fill="#F5F5F5"/>
<path d="M55.5351 12.544C55.6237 11.8809 54.7233 11.3356 54.0468 11.2793C53.724 11.2918 53.4009 11.2626 53.085 11.1923C52.4232 10.9516 52.16 10.0633 51.513 9.77916C51.021 9.56924 50.4749 9.75612 50.0075 10.0019C49.5401 10.2476 49.0776 10.5548 48.5561 10.5907C48.101 10.6214 47.6065 10.4448 47.208 10.6752C46.9128 10.8492 46.7578 11.2025 46.4848 11.4124C46.1989 11.5897 45.8703 11.6785 45.5377 11.6684C45.2024 11.6574 44.8683 11.7139 44.5537 11.8348C44.3981 11.8969 44.266 12.0097 44.1773 12.1565C44.0886 12.3033 44.048 12.4761 44.0617 12.6489L55.5351 12.544Z" fill="#E0E0E0"/>
<path d="M114.573 110.769C114.735 109.547 113.079 108.547 111.837 108.442C111.244 108.39 110.629 108.485 110.068 108.283C108.853 107.84 108.366 106.207 107.18 105.684C106.292 105.295 105.271 105.643 104.41 106.094C103.549 106.545 102.701 107.118 101.739 107.174C100.905 107.231 99.9971 106.918 99.2641 107.333C98.7204 107.648 98.435 108.303 97.9332 108.687C97.4314 109.071 96.7991 109.146 96.1891 109.179C95.579 109.212 94.9591 109.22 94.3933 109.486C93.8275 109.752 93.3797 110.362 93.4954 110.984L114.573 110.769Z" fill="#E0E0E0"/>
<path d="M52.7947 36.667L50.8981 33.1879C52.0705 31.2073 52.4886 28.8419 52.0703 26.5567C51.6519 24.2715 50.4274 22.2318 48.6372 20.8385C46.8471 19.4452 44.621 18.799 42.3963 19.0271C40.1716 19.2551 38.1094 20.3409 36.6149 22.0709C35.1205 23.8009 34.3019 26.05 34.32 28.3762C34.3381 30.7025 35.1917 32.9375 36.713 34.642C38.2343 36.3466 40.3132 37.3973 42.5411 37.5877C44.769 37.7782 46.9848 37.0945 48.753 35.6711L52.7947 36.667Z" fill="#FAFAFA"/>
<path d="M52.7947 36.6669L48.7407 35.7069H48.6939L48.7234 35.6659L48.7702 35.712C47.5235 36.7242 46.0416 37.3752 44.475 37.5987C44.005 37.6677 43.5299 37.6926 43.0556 37.673C42.8096 37.673 42.5636 37.6525 42.3176 37.632L41.5624 37.5117C40.3597 37.2726 39.2168 36.7797 38.2041 36.0635C37.1914 35.3473 36.3303 34.4229 35.6739 33.3472C35.0176 32.2715 34.5798 31.0674 34.3876 29.809C34.1954 28.5506 34.2528 27.2645 34.5563 26.0301C34.8936 24.6091 35.5523 23.2925 36.4776 22.1901C37.4127 21.0628 38.5936 20.185 39.9216 19.6301C41.1966 19.1053 42.5687 18.8857 43.9363 18.9875C45.2314 19.0788 46.4913 19.466 47.6263 20.1216C49.6619 21.3009 51.1839 23.2495 51.8772 25.5642C52.1529 26.5483 52.2839 27.5702 52.2658 28.5952C52.2164 30.2269 51.7549 31.8162 50.9276 33.2032V33.1699L52.7972 36.6669L50.8735 33.2032V33.1853V33.1699C51.6871 31.7853 52.1368 30.2023 52.1773 28.5798C52.1905 27.5656 52.057 26.555 51.7812 25.5821C51.0908 23.2949 49.5833 21.3706 47.5697 20.2061C46.4511 19.5614 45.2097 19.1811 43.9338 19.0925C42.5852 18.9926 41.2322 19.2104 39.9757 19.7299C38.6613 20.2809 37.4936 21.1527 36.571 22.272C35.6602 23.3571 35.0109 24.6524 34.6768 26.0506C34.3514 27.391 34.3153 28.7898 34.5711 30.1466C34.8173 31.4289 35.3248 32.6414 36.0594 33.7024C37.3837 35.6173 39.3579 36.9369 41.5821 37.3939L42.3201 37.5142C42.5661 37.5373 42.8121 37.545 43.0581 37.5578C43.5272 37.5786 43.9973 37.5563 44.4627 37.4912C46.0166 37.277 47.4887 36.6404 48.7308 35.6454L48.9276 35.4867L48.7751 35.6915L48.7554 35.6403L52.7947 36.6669Z" fill="#263238"/>
<path d="M45.8944 23.4701H40.0987C39.8188 23.4701 39.5919 23.7062 39.5919 23.9975V32.9114C39.5919 33.2026 39.8188 33.4387 40.0987 33.4387H45.8944C46.1743 33.4387 46.4012 33.2026 46.4012 32.9114V23.9975C46.4012 23.7062 46.1743 23.4701 45.8944 23.4701Z" fill="#263238"/>
<path d="M46.0518 24.0691H39.9067V31.5187H46.0518V24.0691Z" fill="#FAFAFA"/>
<path d="M42.9966 33.0112C43.2819 33.0112 43.5132 32.7705 43.5132 32.4736C43.5132 32.1767 43.2819 31.936 42.9966 31.936C42.7113 31.936 42.48 32.1767 42.48 32.4736C42.48 32.7705 42.7113 33.0112 42.9966 33.0112Z" fill="#455A64"/>
<path d="M43.8575 26.3399L46.1257 29.1251L48.2486 26.3399H47.1466V22.5075L44.9424 22.4794L44.9695 26.345L43.8575 26.3399Z" fill="#FF9902"/>
<path d="M43.9978 27.392C43.7075 27.803 43.3841 28.1875 43.031 28.5414C42.7089 28.9245 42.3558 29.2782 41.9757 29.5987C42.2638 29.1865 42.5865 28.8019 42.94 28.4492C43.2619 28.065 43.6159 27.7112 43.9978 27.392Z" fill="#263238"/>
<path d="M43.55 27.0515C43.4034 27.2918 43.2225 27.5076 43.0137 27.6915C42.8355 27.9042 42.6263 28.0865 42.3938 28.2317C42.5395 27.9906 42.7204 27.7747 42.9301 27.5917C43.1079 27.3785 43.3171 27.1962 43.55 27.0515Z" fill="#263238"/>
<path d="M99.488 26.1658V30.4947H98.0587L101.141 34.2298L104.032 30.5715H102.57V26.1658H99.488Z" fill="#FF9902"/>
<path opacity="0.3" d="M99.488 26.1658V30.4947H98.0587L101.141 34.2298L104.032 30.5715H102.57V26.1658H99.488Z" fill="black"/>
<path d="M109.535 16.5069C109.152 14.9572 108.361 13.5492 107.252 12.4409C106.143 11.3326 104.759 10.568 103.256 10.2327C101.752 9.89745 100.189 10.0049 98.7405 10.5429C97.2923 11.081 96.017 12.0284 95.0575 13.2788C94.7931 13.2448 94.5269 13.2277 94.2605 13.2276C93.3301 13.1827 92.4006 13.3347 91.5283 13.6743C90.6559 14.0139 89.8588 14.5341 89.1852 15.2034C88.5115 15.8727 87.9753 16.6772 87.609 17.5684C87.2426 18.4595 87.0537 19.4187 87.0537 20.3879C87.0537 21.3571 87.2426 22.3163 87.609 23.2074C87.9753 24.0985 88.5115 24.9031 89.1852 25.5724C89.8588 26.2417 90.6559 26.7619 91.5283 27.1015C92.4006 27.4411 93.3301 27.5931 94.2605 27.5482H109.244C110.629 27.5511 111.96 26.9909 112.953 25.9871C113.947 24.9832 114.524 23.6152 114.562 22.1748C114.6 20.7344 114.095 19.3356 113.156 18.2768C112.217 17.2179 110.917 16.5828 109.535 16.5069Z" fill="#FF9902"/>
<path d="M111.119 25.618C111.107 25.5975 111.404 25.4055 111.798 24.9934C112.314 24.4598 112.711 23.8135 112.958 23.1012C113.206 22.389 113.299 21.6284 113.23 20.8743C113.178 20.2958 113.07 19.9476 113.092 19.9425C113.132 20.017 113.162 20.0972 113.18 20.1806C113.244 20.4043 113.291 20.6328 113.321 20.8641C113.417 21.6339 113.335 22.4164 113.081 23.1464C112.827 23.8763 112.409 24.5324 111.862 25.0599C111.698 25.2203 111.522 25.3659 111.335 25.4951C111.27 25.5481 111.197 25.5896 111.119 25.618Z" fill="#263238"/>
<path d="M95.2494 15.3729C95.2494 15.3959 94.8681 15.2961 94.2531 15.2833C93.4507 15.2609 92.6534 15.4227 91.9179 15.7572C91.1823 16.0917 90.5266 16.5907 89.9973 17.2187C89.5889 17.6999 89.4069 18.0558 89.3848 18.0404C89.4133 17.9497 89.4538 17.8635 89.5053 17.7844C89.6305 17.5626 89.7719 17.3512 89.9284 17.1521C90.4503 16.4931 91.114 15.9715 91.8658 15.6294C92.6177 15.2874 93.4364 15.1346 94.2556 15.1835C94.5038 15.197 94.7506 15.2313 94.9936 15.2859C95.0821 15.3033 95.1681 15.3325 95.2494 15.3729Z" fill="#263238"/>
<path d="M99.8963 11.8349C99.8963 11.8605 99.6233 11.8784 99.2002 11.9936C98.6482 12.1512 98.1281 12.4114 97.6651 12.7616C97.2047 13.1108 96.8095 13.5446 96.4991 14.0416C96.2531 14.4231 96.1596 14.6893 96.1375 14.6816C96.1457 14.6142 96.1639 14.5486 96.1916 14.4871C96.2532 14.3147 96.3298 14.1484 96.4204 13.9904C96.5519 13.7497 96.7051 13.5226 96.8779 13.312C97.0929 13.062 97.3319 12.8355 97.5913 12.6362C97.8528 12.4408 98.1331 12.2744 98.4277 12.1396C98.6696 12.0302 98.9208 11.9445 99.178 11.8836C99.3504 11.8443 99.5257 11.8203 99.702 11.8119C99.7675 11.809 99.8331 11.8167 99.8963 11.8349Z" fill="#263238"/>
<path d="M106.339 27.4867C106.339 27.5251 104.317 27.5533 101.822 27.5533C99.328 27.5533 97.3035 27.5251 97.3035 27.4867C97.3035 27.4483 99.3256 27.4202 101.822 27.4202C104.319 27.4202 106.339 27.4509 106.339 27.4867Z" fill="#263238"/>
<path d="M106.846 40.3867C106.811 40.3867 106.782 38.6612 106.782 36.5467C106.782 34.4321 106.811 32.7067 106.846 32.7067C106.88 32.7067 106.912 34.4295 106.912 36.5467C106.912 38.6638 106.883 40.3867 106.846 40.3867Z" fill="#263238"/>
<path d="M108.292 43.7504C108.258 43.7504 108.228 41.5309 108.228 38.7917C108.228 36.0525 108.258 33.833 108.292 33.833C108.327 33.833 108.359 36.0525 108.359 38.7917C108.359 41.5309 108.329 43.7504 108.292 43.7504Z" fill="#263238"/>
<path d="M15.8037 48.151V50.8032H14.928L16.8148 53.0918L18.586 50.8518H17.6906V48.151H15.8037Z" fill="#FF9902"/>
<path opacity="0.3" d="M15.8037 48.151V50.8032H14.928L16.8148 53.0918L18.586 50.8518H17.6906V48.151H15.8037Z" fill="black"/>
<path d="M21.9586 42.24C21.7238 41.2906 21.2395 40.428 20.5599 39.749C19.8803 39.07 19.0324 38.6015 18.1113 38.396C17.1901 38.1905 16.2321 38.2562 15.3448 38.5856C14.4575 38.9151 13.676 39.4952 13.0879 40.2611C12.9245 40.2416 12.7603 40.2314 12.5959 40.2304C12.0337 40.2163 11.4746 40.3193 10.9513 40.5334C10.428 40.7475 9.95115 41.0683 9.54878 41.477C9.14641 41.8858 8.82667 42.3741 8.60836 42.9133C8.39005 43.4526 8.27759 44.0318 8.27759 44.617C8.27759 45.2021 8.39005 45.7813 8.60836 46.3206C8.82667 46.8598 9.14641 47.3481 9.54878 47.7569C9.95115 48.1656 10.428 48.4864 10.9513 48.7005C11.4746 48.9146 12.0337 49.0176 12.5959 49.0035H21.779C22.6261 49.0037 23.4399 48.66 24.0472 48.0454C24.6544 47.4308 25.0073 46.5939 25.0307 45.7127C25.0541 44.8315 24.7462 43.9756 24.1724 43.327C23.5987 42.6785 22.8044 42.2885 21.9586 42.24Z" fill="#FF9902"/>
<path d="M22.9279 47.8157C22.9279 47.7978 23.0951 47.6749 23.3313 47.4215C23.6404 47.0922 23.8793 46.6988 24.0324 46.2669C24.1792 45.8327 24.2378 45.3716 24.2046 44.9127C24.1775 44.5594 24.116 44.3444 24.1357 44.3392C24.2259 44.5133 24.2795 44.7052 24.2932 44.9024C24.3574 45.3769 24.3092 45.8606 24.1527 46.3112C23.9962 46.7619 23.7361 47.1659 23.3953 47.488C23.2633 47.6303 23.1041 47.7419 22.9279 47.8157Z" fill="#263238"/>
<path d="M13.206 41.5386C13.206 41.5616 12.96 41.5078 12.5934 41.5027C12.105 41.4932 11.6205 41.5938 11.1729 41.7975C10.7254 42.0012 10.3255 42.3032 10.0006 42.6829C9.7546 42.9722 9.6316 43.1949 9.61438 43.1744C9.68354 42.9698 9.79145 42.7818 9.93172 42.6214C10.2504 42.2118 10.659 41.8878 11.123 41.6766C11.587 41.4655 12.093 41.3734 12.5984 41.408C12.8072 41.4096 13.0137 41.4539 13.206 41.5386Z" fill="#263238"/>
<path d="M16.0521 39.3728C15.9134 39.4198 15.7721 39.4583 15.629 39.488C15.2959 39.5863 14.9819 39.7449 14.7016 39.9564C14.4225 40.1679 14.1804 40.4277 13.9857 40.7244C13.9121 40.8581 13.83 40.9864 13.7397 41.1084C13.7611 40.9535 13.8157 40.8057 13.8996 40.6758C14.0774 40.3477 14.3217 40.0637 14.6155 39.8438C14.9083 39.6208 15.244 39.4662 15.5995 39.3907C15.747 39.3482 15.902 39.342 16.0521 39.3728Z" fill="#263238"/>
<path d="M20.0005 48.9626C20.0005 48.9984 18.7705 49.0291 17.233 49.0291C15.6955 49.0291 14.463 48.9984 14.463 48.9626C14.463 48.9267 15.7029 48.896 17.2281 48.896C18.7533 48.896 20.0005 48.9242 20.0005 48.9626Z" fill="#263238"/>
<path d="M20.3104 56.8627C20.2471 56.0787 20.2257 55.2915 20.2465 54.505C20.2257 53.7176 20.247 52.9296 20.3104 52.1447C20.3753 52.9295 20.3967 53.7176 20.3744 54.505C20.3966 55.2915 20.3753 56.0787 20.3104 56.8627Z" fill="#263238"/>
<path d="M21.196 58.9261C21.1616 58.9261 21.1321 57.5642 21.1321 55.8874C21.1321 54.2106 21.1616 52.8486 21.196 52.8486C21.2305 52.8486 21.26 54.2106 21.26 55.8874C21.26 57.5642 21.2329 58.9261 21.196 58.9261Z" fill="#263238"/>
<path d="M60.3469 92.8538V105.262H56.251L65.0799 115.963L73.3627 105.48H69.1758V92.8538H60.3469Z" fill="#FF9902"/>
<path opacity="0.3" d="M60.3469 92.8538V105.262H56.251L65.0799 115.963L73.3627 105.48H69.1758V92.8538H60.3469Z" fill="black"/>
<path d="M89.1387 65.1726C88.0402 60.7321 85.7745 56.698 82.596 53.5226C79.4174 50.3472 75.4515 48.1561 71.1432 47.1952C66.8349 46.2342 62.3545 46.5413 58.2046 48.0821C54.0546 49.6228 50.3992 52.3363 47.6484 55.9182C46.8908 55.8233 46.1286 55.7737 45.3655 55.7697C40.1349 55.7697 35.1186 57.932 31.4201 61.7809C27.7215 65.6298 25.6437 70.85 25.6437 76.2932C25.6437 81.7364 27.7215 86.9566 31.4201 90.8055C35.1186 94.6544 40.1349 96.8167 45.3655 96.8167H88.3073C92.2724 96.8197 96.0821 95.2117 98.925 92.3352C101.768 89.4586 103.419 85.5408 103.528 81.4159C103.636 77.2911 102.193 73.2852 99.5053 70.2512C96.8177 67.2173 93.0982 65.3951 89.1387 65.1726Z" fill="#FF9902"/>
<path d="M50.2289 68.9076C50.2156 68.8637 50.209 68.8179 50.2092 68.7719C50.2092 68.6695 50.1944 68.5415 50.1846 68.3853C50.1846 68.2983 50.1846 68.2061 50.1698 68.1037C50.1551 68.0013 50.1452 67.8912 50.1329 67.7735C50.101 67.5354 50.0813 67.2615 50.0173 66.9696C49.9903 66.8212 49.9607 66.665 49.9288 66.5037C49.8968 66.3424 49.8476 66.1812 49.8058 66.0096C49.7295 65.664 49.6016 65.3082 49.4786 64.9319C49.183 64.1294 48.8148 63.3579 48.379 62.6279C47.9289 61.9024 47.4141 61.2227 46.8415 60.5978C46.5684 60.3213 46.3126 60.05 46.0469 59.8298C45.9165 59.7172 45.8009 59.602 45.6705 59.5021L45.304 59.2205C45.0776 59.0336 44.8489 58.898 44.657 58.7674L44.3864 58.5882L44.1404 58.4551L43.8157 58.2631C43.7754 58.2443 43.738 58.2193 43.705 58.1888C43.7466 58.202 43.7869 58.2191 43.8255 58.24L44.165 58.409L44.411 58.5344C44.4971 58.5831 44.5881 58.642 44.689 58.7034C44.9177 58.8378 45.1394 58.9848 45.3532 59.1437L45.7246 59.4202C45.855 59.5175 45.9706 59.6352 46.1108 59.7453C46.3933 59.9864 46.6635 60.2428 46.9202 60.5133C48.1036 61.7585 49.0127 63.2566 49.5844 64.9037C49.7093 65.2611 49.816 65.6252 49.9042 65.9943C49.9435 66.1684 49.9927 66.3322 50.0222 66.5063C50.0518 66.6804 50.0764 66.8263 50.101 66.9748C50.1472 67.2442 50.1801 67.5159 50.1994 67.7888C50.1994 67.9092 50.2215 68.0192 50.2264 68.1242C50.2313 68.2292 50.2264 68.3188 50.2264 68.4058V68.7949C50.2294 68.8324 50.2303 68.87 50.2289 68.9076Z" fill="#263238"/>
<path d="M42.1601 64.9395C42.1429 64.9575 41.8846 64.6835 41.4221 64.3277C40.1963 63.3802 38.7398 62.8091 37.218 62.6791C36.635 62.6279 36.2709 62.6509 36.2709 62.6279C36.3508 62.6035 36.4336 62.5914 36.5169 62.592C36.7495 62.5756 36.9829 62.5756 37.2155 62.592C38.7668 62.6682 40.2557 63.2504 41.4713 64.256C41.6549 64.4055 41.8283 64.5681 41.9904 64.7424C42.0541 64.8011 42.111 64.8672 42.1601 64.9395Z" fill="#263238"/>
<path d="M51.1932 82.4577C51.064 82.4714 50.9338 82.4714 50.8045 82.4577C50.5585 82.4577 50.1895 82.4577 49.7418 82.4347C48.8464 82.4014 47.609 82.3246 46.2462 82.1787C44.8833 82.0328 43.6558 81.8638 42.7702 81.7128C42.3274 81.6385 41.9707 81.5745 41.7247 81.5233C41.5953 81.504 41.4677 81.4732 41.3434 81.4312C41.4737 81.4351 41.6036 81.4488 41.7321 81.4721L42.7849 81.6206C43.6705 81.746 44.8981 81.9073 46.2585 82.0456C47.6188 82.1838 48.8538 82.2759 49.7467 82.3323L50.8045 82.3988C50.9353 82.409 51.0651 82.4287 51.1932 82.4577Z" fill="#263238"/>
<path d="M88.4942 65.0471C88.449 65.0577 88.4029 65.0637 88.3565 65.065L87.9604 65.0932C87.7907 65.0932 87.5791 65.1136 87.338 65.1469C87.097 65.1802 86.8165 65.1956 86.5139 65.2519L86.0367 65.3312C85.8719 65.3594 85.7021 65.4029 85.525 65.4388C85.1708 65.5079 84.7993 65.618 84.4057 65.7255C82.7086 66.2279 81.0999 67.0101 79.6407 68.0423C79.3086 68.2855 78.9888 68.5108 78.7108 68.7514C78.5681 68.8692 78.4279 68.9767 78.3025 69.0893L77.9384 69.4196C77.6924 69.6244 77.5079 69.8343 77.3308 70.0084C77.1536 70.1824 77.0085 70.3412 76.8904 70.4743L76.6174 70.7712C76.5865 70.8076 76.5519 70.8402 76.514 70.8685C76.5378 70.8271 76.5659 70.7885 76.5977 70.7533C76.6641 70.6688 76.7502 70.5664 76.8437 70.4384C76.9372 70.3104 77.0897 70.1364 77.2717 69.9571C77.4538 69.778 77.6333 69.5604 77.867 69.3504L78.2287 69.0125C78.3541 68.8947 78.4943 68.7847 78.6346 68.6644C78.9125 68.4084 79.2323 68.1882 79.5644 67.9399C81.0347 66.8869 82.6646 66.0985 84.386 65.6077C84.7821 65.5028 85.1585 65.3952 85.5152 65.3312C85.6948 65.2954 85.867 65.2544 86.0342 65.2288L86.5262 65.1597C86.8313 65.1085 87.1117 65.0957 87.3553 65.0727C87.5645 65.0513 87.7747 65.041 87.985 65.042H88.3811C88.4189 65.0395 88.4568 65.0413 88.4942 65.0471Z" fill="#263238"/>
<path d="M87.279 96.955C87.279 96.9934 77.7711 97.0215 66.0467 97.0215C54.3224 97.0215 44.812 96.9934 44.812 96.955C44.812 96.9166 54.3175 96.8884 66.0467 96.8884C77.776 96.8884 87.279 96.9192 87.279 96.955Z" fill="#263238"/>
<path d="M36.0002 105.836C35.9658 105.836 35.9363 103.985 35.9363 101.704C35.9363 99.4228 35.9658 97.5693 36.0002 97.5693C36.0347 97.5693 36.0642 99.4177 36.0642 101.704C36.0642 103.99 36.0347 105.836 36.0002 105.836Z" fill="#263238"/>
<path d="M37.614 113.459C37.5796 113.459 37.55 110.856 37.55 107.646C37.55 104.435 37.5796 101.832 37.614 101.832C37.6484 101.832 37.678 104.433 37.678 107.646C37.678 110.858 37.646 113.459 37.614 113.459Z" fill="#263238"/>
<g opacity="0.3">
<path d="M94.5852 73.3953C94.0932 70.4743 90.3712 67.5073 87.1634 68.1754C84.3688 68.754 81.3603 69.4298 78.5977 70.1569C77.4562 70.4564 76.2754 69.0151 75.321 68.3009C74.829 67.9271 74.5239 67.3281 74.2115 66.7649C72.4329 63.6186 69.5055 61.2583 66.2362 59.9399C62.9668 58.6215 59.3703 58.3066 55.8845 58.7034C53.1785 59.0132 50.2265 59.9834 48.9596 62.4922C48.4528 63.5034 48.2511 64.7169 47.4664 65.5105C46.4184 66.5652 44.7604 66.4807 43.3951 67.0157C40.6645 68.0858 39.282 72.1485 39.6264 75.1617C39.9708 78.1748 42.5464 82.0583 47.9608 82.6778C47.9608 82.6778 67.5744 82.857 77.2594 83.346C80.6173 83.5149 81.6309 83.0337 84.9888 82.9415C90.9149 82.793 95.4708 78.7533 94.5852 73.3953Z" fill="black"/>
</g>
<path d="M58.5561 88.0768C58.8857 87.9898 59.2547 87.6365 59.5401 87.447C60.2387 86.9794 60.93 86.499 61.6138 86.0058C59.1538 85.2634 57.0751 84.6771 54.6201 83.9578C54.5358 84.9819 54.6274 86.0135 54.8907 87.0042C55.117 87.7952 55.5499 88.6374 56.3175 88.8474C57.0136 89.0368 57.7221 88.6374 58.3371 88.2432L58.5069 88.1331" fill="#E0E0E0"/>
<path d="M58.9767 86.6637C58.9398 86.6637 58.9546 86.3283 58.8685 85.9367C58.7824 85.545 58.6225 85.2531 58.6668 85.2327C58.8275 85.4263 58.9399 85.6582 58.9939 85.9078C59.048 86.1574 59.0421 86.417 58.9767 86.6637Z" fill="#263238"/>
<path d="M59.5055 86.5281C59.4802 86.3381 59.4671 86.1465 59.4662 85.9547C59.428 85.7673 59.4025 85.5774 59.3899 85.3864C59.5034 85.5495 59.5738 85.7408 59.5941 85.9412C59.6144 86.1415 59.5839 86.3439 59.5055 86.5281Z" fill="#263238"/>
<path d="M56.2633 84.434C56.2855 84.434 56.2142 84.69 56.2092 85.1277C56.2014 85.6838 56.3346 86.2321 56.5954 86.7175C56.8448 87.2094 57.186 87.6446 57.5991 87.9975C57.7837 88.1253 57.9788 88.2358 58.1821 88.3277C58.12 88.3314 58.0579 88.3209 58.0001 88.297C57.8393 88.247 57.6867 88.1719 57.5475 88.0743C57.1039 87.7317 56.7399 87.2899 56.4823 86.7815C56.2106 86.2763 56.085 85.7003 56.1207 85.1226C56.1286 84.9496 56.1542 84.778 56.1969 84.6106C56.208 84.5478 56.2305 84.4879 56.2633 84.434Z" fill="#455A64"/>
<path d="M58.1821 85.0254C58.3975 85.4985 58.5324 86.007 58.5806 86.5281C58.6675 87.0413 58.6675 87.5663 58.5806 88.0795C58.5413 88.0795 58.5683 87.3857 58.4576 86.5435C58.3469 85.7012 58.1427 85.0382 58.1821 85.0254Z" fill="#455A64"/>
<path d="M57.6261 87.7491C57.4798 87.6622 57.3478 87.5516 57.235 87.4214C56.935 87.134 56.6853 86.7944 56.497 86.4179C56.309 86.0361 56.2312 85.6057 56.2731 85.1789C56.2803 85.0006 56.3367 84.8281 56.4355 84.6823C56.4552 84.6823 56.3814 84.8743 56.3642 85.1943C56.3498 85.6004 56.4344 86.0038 56.6102 86.3667C56.7939 86.7301 57.0239 87.0659 57.294 87.3651C57.4165 87.4816 57.5277 87.6102 57.6261 87.7491Z" fill="#FF9902"/>
<path d="M61.0652 86.3617C60.8 86.5853 60.5091 86.7736 60.1993 86.9223C59.9093 87.1091 59.5987 87.2586 59.2743 87.3678C59.5382 87.1417 59.8293 86.9524 60.1402 86.8046C60.4298 86.6177 60.7404 86.469 61.0652 86.3617Z" fill="#FF9902"/>
<path d="M57.1488 87.785C56.9449 88.0163 56.6877 88.1899 56.4015 88.2893C56.1153 88.3887 55.8096 88.4107 55.5129 88.3533C55.5129 88.3149 55.909 88.3226 56.3616 88.1613C56.8143 88 57.1267 87.7543 57.1488 87.785Z" fill="#455A64"/>
<path d="M56.3149 86.4743C56.3149 86.5127 55.9828 86.5614 55.6138 86.7303C55.2448 86.8993 54.9865 87.1348 54.9595 87.1067C55.1023 86.8775 55.313 86.7032 55.5597 86.61C55.7899 86.4785 56.0557 86.4307 56.3149 86.4743Z" fill="#455A64"/>
<path d="M56.1526 85.3095C55.8875 85.2144 55.6173 85.1358 55.3433 85.074C55.063 85.0588 54.7822 85.0588 54.502 85.074C54.7652 84.9288 55.069 84.8844 55.3605 84.9485C55.6578 84.9651 55.9393 85.0934 56.1526 85.3095Z" fill="#455A64"/>
<path d="M74.9864 81.6077C75.0011 81.6307 65.7589 83.9501 65.7589 83.9501L64.401 80.64L65.0234 79.639C65.0234 79.639 68.9299 78.72 72.1082 76.8486L74.9864 81.6077Z" fill="#FFBE9D"/>
<path d="M53.299 72.1767C53.299 72.1767 52.8758 71.5341 51.085 70.6202C49.5967 69.8522 45.7763 69.2276 44.2289 72.338C42.6816 75.4483 43.8698 80.2202 46.4429 81.2391C49.0161 82.2579 53.299 83.6531 55.0529 84.2419C56.8069 84.8307 62.5756 86.3335 62.5756 86.3335L64.9471 84.8871L65.2275 80.2791C65.2275 80.2791 61.9582 76.7847 59.1759 75.8196C56.3936 74.8544 53.299 72.1767 53.299 72.1767Z" fill="#263238"/>
<path d="M47.9608 70.0058C47.9854 69.9674 50.5832 70.0442 52.4798 70.7891C53.1932 71.0682 53.8919 71.3677 53.8919 71.3677L54.9398 68.2599L62.7946 65.536H71.4907L74.3197 71.3677V71.6621C74.3197 71.6621 77.717 71.721 79.1881 71.0144C80.6591 70.3078 85.2421 68.2445 86.4303 67.8323C87.6185 67.4202 92.9395 66.6291 94.1276 69.9981C95.3158 73.367 94.4745 76.8819 92.4868 78.1671C91.5496 78.7712 75.7367 83.031 75.7367 83.031L71.9999 76.8461C71.9999 76.8461 66.3075 79.7824 64.401 79.4624C62.4945 79.1424 47.9608 70.0058 47.9608 70.0058Z" fill="#263238"/>
<path d="M64 67.0388C64.0168 67.0775 64.03 67.1178 64.0394 67.1591C64.0615 67.2513 64.0911 67.3665 64.1255 67.5047C64.1968 67.8068 64.2879 68.2497 64.3715 68.7975C64.5634 69.8932 64.7553 71.4215 64.9029 73.1137C65.0505 74.8059 65.1292 76.3419 65.1612 77.4657C65.1784 78.0212 65.1833 78.4718 65.1833 78.7841C65.1833 78.9275 65.1833 79.0401 65.1833 79.1425C65.19 79.184 65.19 79.2264 65.1833 79.2679C65.1753 79.2266 65.1704 79.1846 65.1685 79.1425C65.1685 79.0452 65.1685 78.9275 65.1513 78.7841C65.1341 78.4539 65.1144 78.0161 65.0874 77.4708C65.0332 76.3598 64.9373 74.8263 64.7922 73.1342C64.647 71.442 64.4674 69.9214 64.3002 68.8231C64.219 68.2753 64.1403 67.8324 64.0837 67.5278C64.0591 67.387 64.0369 67.2718 64.0197 67.1745C64.0061 67.1307 63.9994 67.0849 64 67.0388Z" fill="#455A64"/>
<path d="M74.2336 71.8055C74.2336 71.8413 72.2656 72.0999 69.8277 72.3815C67.3899 72.6631 65.4145 72.8628 65.3997 72.8244C65.385 72.786 67.3677 72.53 69.8056 72.2484C72.2435 71.9668 74.2287 71.7696 74.2336 71.8055Z" fill="#455A64"/>
<path d="M72.9347 71.8182C72.8406 71.8226 72.7464 71.8149 72.6542 71.7952C72.4746 71.7696 72.2163 71.7363 71.8941 71.703C71.0585 71.6083 70.218 71.5681 69.3775 71.5827C68.5378 71.5996 67.6998 71.6697 66.8683 71.7926L66.1131 71.913C66.021 71.9348 65.9271 71.9468 65.8326 71.9488C65.919 71.9087 66.0099 71.8803 66.1032 71.8643C66.2779 71.8157 66.5337 71.7594 66.8535 71.7005C68.523 71.3969 70.2277 71.3658 71.9064 71.6083C72.2262 71.657 72.4845 71.703 72.6616 71.744C72.7548 71.7592 72.8463 71.7841 72.9347 71.8182Z" fill="#455A64"/>
<path d="M74.1376 71.465C73.5985 71.1895 73.0339 70.9716 72.4525 70.8147C71.8612 70.7018 71.2602 70.6529 70.6592 70.6688C70.8292 70.607 71.008 70.5759 71.1881 70.5766C72.0587 70.5244 72.9263 70.7237 73.6948 71.1526C73.8574 71.2316 74.0069 71.337 74.1376 71.465Z" fill="#455A64"/>
<path d="M66.8954 76.5261C66.6719 76.7593 66.3989 76.9347 66.0983 77.0381C65.8141 77.1807 65.5011 77.25 65.1857 77.2403C65.1857 77.2019 65.5817 77.1098 66.0491 76.9126C66.5165 76.7155 66.8732 76.4954 66.8954 76.5261Z" fill="#455A64"/>
<path d="M66.4772 77.673C66.0699 77.9001 65.5988 77.9708 65.1464 77.8727C65.3631 77.8102 65.5859 77.7733 65.8106 77.7626C66.029 77.7079 66.2526 77.6778 66.4772 77.673Z" fill="#455A64"/>
<path d="M79.8424 71.2397C79.8066 71.271 79.7679 71.2985 79.7268 71.3217L79.3848 71.5341L78.1106 72.3021L73.8843 74.7751L69.6383 77.2148L68.3444 77.9418L67.9877 78.1338C67.9468 78.1573 67.904 78.1771 67.8597 78.1927C67.8952 78.1609 67.934 78.1334 67.9754 78.1108L68.3198 77.8957L69.594 77.1277L73.8203 74.6548L78.0663 72.2151L79.3602 71.4906L79.7145 71.2986C79.754 71.2723 79.7971 71.2525 79.8424 71.2397Z" fill="#455A64"/>
<path d="M86.477 69.9367C86.4248 69.9544 86.3713 69.9681 86.3171 69.9777L85.8596 70.0749C85.4611 70.162 84.8879 70.3002 84.1892 70.505C82.3726 71.0554 80.61 71.7831 78.9248 72.6785C76.9421 73.7025 75.2348 74.8033 73.9852 75.5892L72.5092 76.5261L72.1057 76.7821C72.0594 76.8125 72.0109 76.8391 71.9606 76.8615C72.0013 76.8227 72.0459 76.7884 72.0934 76.7591L72.4821 76.4877C72.8216 76.2548 73.3136 75.9194 73.9286 75.5149C75.1586 74.706 76.8806 73.6026 78.8609 72.5633C80.5521 71.6637 82.3266 70.9449 84.1573 70.418C84.8633 70.2234 85.4414 70.1005 85.8424 70.0314C86.0416 69.9905 86.199 69.9725 86.3048 69.9572C86.3612 69.9428 86.419 69.936 86.477 69.9367Z" fill="#455A64"/>
<path d="M90.3712 68.7719C90.3712 68.795 90.0859 68.7719 89.6332 68.7719C89.0368 68.7904 88.4446 68.8832 87.8694 69.0484C87.2952 69.2155 86.7419 69.4527 86.2212 69.755C85.8202 69.9905 85.589 70.1646 85.5767 70.1467C85.5644 70.1287 85.6234 70.0878 85.7243 70.0033C85.8676 69.8843 86.0179 69.7748 86.1745 69.6756C86.6902 69.3422 87.2495 69.0878 87.835 68.9204C88.4196 68.7518 89.0241 68.6699 89.6308 68.6772C89.8143 68.679 89.9975 68.6927 90.1793 68.7182C90.2455 68.7263 90.3101 68.7445 90.3712 68.7719Z" fill="#455A64"/>
<path d="M89.0034 69.8548C89.0034 69.8932 88.3441 69.8036 87.5274 69.8343C86.7107 69.865 86.076 69.9982 86.0686 69.9598C86.5348 69.7855 87.0271 69.6988 87.5225 69.7038C88.0208 69.6626 88.5222 69.7137 89.0034 69.8548Z" fill="#455A64"/>
<path d="M86.1499 68.8103C86.1671 68.8461 85.6013 69.1585 84.9715 69.6474C84.3418 70.1364 83.8867 70.6074 83.8596 70.5793C84.1433 70.172 84.4939 69.8202 84.8953 69.5399C85.2699 69.2232 85.6944 68.9763 86.1499 68.8103Z" fill="#455A64"/>
<path d="M94.4721 71.7312C94.4639 71.7496 94.4549 71.7675 94.445 71.785L94.3638 71.936C94.2876 72.0717 94.1744 72.2637 94.0096 72.5018C93.5479 73.1828 92.9897 73.787 92.354 74.2938C91.407 75.0304 90.3838 75.6546 89.3036 76.1549C88.0933 76.736 86.7132 77.248 85.2667 77.7754L77.8523 80.4762L75.5989 81.2774L74.9864 81.4899L74.824 81.5437C74.8059 81.551 74.7868 81.5553 74.7675 81.5565L74.8191 81.5309L74.9766 81.4643L75.5842 81.2288L77.8228 80.3866L85.2249 77.6499C86.6714 77.1226 88.049 76.6259 89.2569 76.0422C90.3313 75.5504 91.3515 74.9393 92.2999 74.2195C92.9363 73.723 93.5019 73.1352 93.9801 72.4736C94.1473 72.2406 94.2703 72.0512 94.3515 71.9232L94.445 71.7773C94.463 71.7449 94.4721 71.7295 94.4721 71.7312Z" fill="#455A64"/>
<path d="M64.6839 85.0509C64.6228 85.0326 64.5628 85.0104 64.5044 84.9843L63.9976 84.7719C63.5597 84.585 62.9275 84.3059 62.1526 83.9501C60.6003 83.241 58.4626 82.2272 56.1502 81.0471C53.8378 79.8669 51.7542 78.7431 50.2856 77.8471C49.5476 77.4067 48.967 77.033 48.5636 76.7642L48.1085 76.4493C48.0539 76.4155 48.0028 76.376 47.9559 76.3315C48.0141 76.3584 48.07 76.3901 48.1232 76.4263L48.5882 76.7207C48.9941 76.9767 49.5845 77.3376 50.3249 77.7626C51.8009 78.6253 53.8821 79.7415 56.2018 80.9267C58.5216 82.112 60.6446 83.1335 62.1846 83.8631L64.0173 84.736L64.5093 84.969C64.57 84.9901 64.6285 85.0175 64.6839 85.0509Z" fill="#455A64"/>
<path d="M48.5709 71.6212C48.6364 71.5613 48.7102 71.5122 48.7899 71.4753C48.9971 71.3607 49.2126 71.2631 49.4344 71.1835C50.1734 70.9179 50.9607 70.8304 51.7369 70.9275C52.5123 71.0045 53.2676 71.2284 53.9657 71.5879C54.174 71.7022 54.3689 71.8414 54.5463 72.0027C54.615 72.057 54.6755 72.1217 54.7258 72.1947C54.4697 72.0019 54.2018 71.8266 53.9239 71.6698C53.2231 71.3415 52.475 71.1357 51.7099 71.0606C50.9524 70.9642 50.184 71.034 49.4541 71.2654C48.9006 71.4523 48.5808 71.6442 48.5709 71.6212Z" fill="#455A64"/>
<path d="M65.2251 80.2817C65.1823 80.2571 65.1434 80.2261 65.1095 80.1895L64.7946 79.9105C64.5215 79.6545 64.1181 79.3217 63.6162 78.9019C62.6125 78.0647 61.1956 76.9435 59.6335 75.7019L58.497 74.7931C58.1255 74.5063 57.759 74.2606 57.385 74.0251C56.647 73.5719 55.9828 73.1854 55.449 72.804C55.0219 72.5113 54.6239 72.1752 54.2608 71.8004C54.1621 71.6998 54.0685 71.5938 53.9804 71.483C53.9461 71.447 53.9163 71.4065 53.8918 71.3627C53.8918 71.3627 54.0321 71.5111 54.2953 71.7646C54.6684 72.1207 55.071 72.4419 55.4982 72.7246C56.0345 73.0932 56.711 73.4695 57.4465 73.9201C57.8131 74.1479 58.1845 74.3937 58.5708 74.6881C58.957 74.9825 59.3088 75.2871 59.7097 75.5969C61.2718 76.8385 62.6814 77.97 63.6728 78.8302C64.1648 79.2577 64.5658 79.6135 64.8265 79.8695C64.9618 79.9975 65.0602 80.1 65.1267 80.1716C65.1627 80.2051 65.1956 80.2419 65.2251 80.2817Z" fill="#455A64"/>
<path d="M58.738 73.8995C59.0359 73.9958 59.3283 74.1095 59.6138 74.24C60.1525 74.4576 60.8979 74.752 61.7368 75.0208C62.5756 75.2896 63.3432 75.5098 63.9016 75.6531C64.2074 75.722 64.5096 75.8075 64.8069 75.9091C64.7241 75.9128 64.6413 75.9042 64.5609 75.8835C64.401 75.8605 64.1697 75.817 63.8868 75.7555C63.1492 75.5953 62.4201 75.3953 61.7023 75.1565C60.9834 74.9209 60.2765 74.6475 59.5843 74.3373C59.3211 74.217 59.107 74.1146 58.9619 74.0403C58.8823 74.0025 58.8072 73.9553 58.738 73.8995Z" fill="#455A64"/>
<path d="M61.4588 71.6314C61.1677 71.7024 60.8728 71.7554 60.5756 71.7901C60.0295 71.8746 59.2743 71.9949 58.4453 72.1485C57.6163 72.3021 56.8684 72.4634 56.3272 72.5811C56.0375 72.6573 55.7433 72.7137 55.4465 72.7501C55.5182 72.7119 55.5942 72.6835 55.6729 72.6656C55.8205 72.6195 56.0369 72.5581 56.3051 72.489C56.8438 72.3482 57.5892 72.1741 58.4231 72.0179C59.2571 71.8618 60.0123 71.7619 60.5633 71.6954C60.8389 71.6647 61.0553 71.6442 61.2177 71.6339C61.2975 71.6208 61.3787 71.62 61.4588 71.6314Z" fill="#455A64"/>
<path d="M60.2928 70.1287C60.2928 70.1492 59.9533 70.1799 59.4121 70.2644C57.9955 70.4818 56.6198 70.9256 55.3334 71.5802C54.8414 71.8362 54.5438 72.0078 54.5339 71.9873C54.5918 71.9294 54.6572 71.8803 54.7283 71.8414C54.8562 71.7518 55.0481 71.634 55.2916 71.4958C55.9288 71.1423 56.5969 70.8526 57.2867 70.6305C57.9758 70.4091 58.6832 70.2548 59.3998 70.1697C59.6753 70.139 59.8918 70.1236 60.0517 70.121C60.132 70.1104 60.2133 70.113 60.2928 70.1287Z" fill="#455A64"/>
<path d="M70.177 83.0541L68.701 86.6381C69.2447 87.1501 71.3111 87.4778 72.0393 87.4394C72.7674 87.401 73.8203 87.4087 74.546 87.3242C75.4706 87.2465 76.3999 87.2534 77.3234 87.3447C78.2473 87.4357 79.1782 87.4177 80.0982 87.2909C81.0205 87.1591 81.8804 86.7314 82.5582 86.0672C82.8859 85.766 83.1337 85.3822 83.2778 84.9527C83.4219 84.5231 83.4575 84.0622 83.3811 83.6143C83.3048 83.1663 83.1192 82.7462 82.8419 82.3944C82.5647 82.0426 82.2053 81.7708 81.7981 81.6051C81.0562 81.2768 80.2433 81.161 79.4439 81.2698C78.6486 81.3789 77.8646 81.564 77.102 81.8227C76.2828 82.0787 75.4439 82.3347 74.5928 82.2579C74.4206 82.2426 74.2484 82.2579 74.0786 82.217C72.9667 82.0019 71.808 81.9917 70.8068 82.6471C70.61 82.7776 70.3861 82.8928 70.177 83.0541Z" fill="#E0E0E0"/>
<path d="M70.3911 83.4561C70.4305 83.4092 70.4742 83.3663 70.5215 83.3281C70.654 83.2143 70.7955 83.1123 70.9446 83.0234C71.4995 82.6912 72.1401 82.5471 72.7773 82.6113C73.1758 82.6523 73.6039 82.7367 74.0664 82.8084C74.5533 82.8987 75.0493 82.9237 75.5424 82.8827C76.0839 82.807 76.6175 82.6793 77.1364 82.5012C77.7016 82.3065 78.2857 82.1778 78.8781 82.1172C79.4745 82.0571 80.0764 82.1109 80.6542 82.2759C80.9285 82.3583 81.194 82.4699 81.4464 82.6087C81.6916 82.7382 81.9131 82.9115 82.1007 83.1207C82.4464 83.5117 82.6895 83.9886 82.8067 84.5057C82.8642 84.741 82.8718 84.9864 82.8289 85.2251C82.7823 85.4441 82.699 85.653 82.5829 85.842C82.3884 86.163 82.1269 86.4343 81.8178 86.6356C81.5881 86.7879 81.3451 86.9173 81.0921 87.0222C80.8855 87.1118 80.7231 87.1707 80.6124 87.2116C80.5571 87.2355 80.4993 87.2526 80.4402 87.2628C80.4921 87.2324 80.5464 87.2067 80.6026 87.186C80.7108 87.1374 80.8707 87.0708 81.0724 86.9761C81.3178 86.8621 81.5539 86.7276 81.7785 86.5742C82.0733 86.3735 82.3213 86.1067 82.5042 85.7934C82.617 85.6072 82.692 85.3989 82.7246 85.1814C82.7572 84.9639 82.7466 84.7418 82.6936 84.5287C82.5749 84.0342 82.3379 83.5789 82.0048 83.2052C81.6183 82.8092 81.1365 82.5289 80.61 82.3937C80.0493 82.2361 79.4662 82.1841 78.888 82.2401C77.6875 82.3323 76.6223 82.9031 75.5547 83.0081C75.0529 83.0464 74.5486 83.0171 74.0541 82.9211C73.5916 82.8417 73.166 82.7521 72.7724 82.706C72.1508 82.6392 71.5241 82.7657 70.9717 83.0695C70.7717 83.1876 70.5779 83.3166 70.3911 83.4561Z" fill="#455A64"/>
<path d="M80.4501 87.2781C80.4501 87.2781 80.3959 87.2295 80.3172 87.122C80.2677 87.0588 80.2224 86.9921 80.1819 86.9223C80.1245 86.832 80.0727 86.7379 80.0269 86.6407C79.9016 86.3908 79.7987 86.1294 79.7194 85.8599C79.6233 85.5257 79.5574 85.1829 79.5226 84.8359C79.4933 84.491 79.4933 84.144 79.5226 83.7991C79.5484 83.5185 79.5987 83.2408 79.6727 82.9697C79.6992 82.8643 79.7321 82.7609 79.7711 82.6599C79.7965 82.5828 79.8269 82.5075 79.8621 82.4346C79.9212 82.3143 79.9556 82.2503 79.963 82.2554C79.9704 82.2605 79.8646 82.5319 79.7613 82.9927C79.6995 83.261 79.6592 83.5341 79.6407 83.8093C79.6214 84.1463 79.6263 84.4843 79.6555 84.8205C79.6926 85.156 79.7543 85.4881 79.84 85.8138C79.9123 86.077 80.0044 86.3338 80.1155 86.5818C80.2951 87.0401 80.4648 87.2653 80.4501 87.2781Z" fill="#263238"/>
<path d="M71.0848 82.5523C71.1168 82.5702 71.0848 82.7034 71.0135 82.857C70.9421 83.0106 70.8855 83.1334 70.8511 83.113C70.8166 83.0925 70.8314 82.9594 70.8954 82.7981C70.9593 82.6368 71.0553 82.5344 71.0848 82.5523Z" fill="#455A64"/>
<path d="M72.1352 82.1274C72.1672 82.1428 72.1352 82.2733 72.0934 82.4269C72.0516 82.5805 71.9901 82.7034 71.9556 82.6829C71.9212 82.6625 71.9212 82.5344 71.9704 82.3732C72.0196 82.2119 72.1032 82.112 72.1352 82.1274Z" fill="#455A64"/>
<path d="M73.4858 82.0993C73.5177 82.1121 73.5005 82.2631 73.4464 82.4372C73.3923 82.6113 73.3185 82.7444 73.2865 82.7316C73.2545 82.7188 73.2693 82.5703 73.3234 82.3963C73.3775 82.2222 73.4513 82.0891 73.4858 82.0993Z" fill="#455A64"/>
<path d="M74.7526 82.2657C74.787 82.2657 74.7748 82.427 74.7256 82.6036C74.6764 82.7803 74.6075 82.9159 74.5755 82.9057C74.5435 82.8955 74.5534 82.7444 74.6026 82.5652C74.6518 82.386 74.7182 82.2555 74.7526 82.2657Z" fill="#455A64"/>
<path d="M75.8203 82.9619C75.7859 82.9619 75.7564 82.7827 75.7588 82.5626C75.7613 82.3424 75.7883 82.1658 75.8252 82.1658C75.8621 82.1658 75.8867 82.345 75.8867 82.5626C75.8867 82.7802 75.8548 82.9619 75.8203 82.9619Z" fill="#455A64"/>
<path d="M77.006 82.6471C76.9691 82.6471 76.9199 82.4935 76.8929 82.2938C76.8658 82.0941 76.8732 81.9277 76.9076 81.9226C76.9421 81.9175 76.9937 82.0762 77.0208 82.2759C77.0479 82.4756 77.0454 82.642 77.006 82.6471Z" fill="#455A64"/>
<path d="M78.1032 81.5283C78.1377 81.5283 78.1942 81.6717 78.2287 81.8637C78.2631 82.0557 78.2631 82.217 78.2287 82.2221C78.1942 82.2272 78.1377 82.0787 78.1032 81.8867C78.0688 81.6947 78.0688 81.5334 78.1032 81.5283Z" fill="#455A64"/>
<path d="M79.5202 81.2571C79.5546 81.2571 79.5399 81.4746 79.4907 81.7255C79.4415 81.9764 79.3677 82.1761 79.3332 82.1684C79.2988 82.1607 79.3135 81.9508 79.3652 81.6999C79.4169 81.4491 79.4857 81.2494 79.5202 81.2571Z" fill="#455A64"/>
<path d="M80.7354 81.2928C80.7673 81.3082 80.6812 81.5488 80.541 81.8048C80.4008 82.0608 80.263 82.281 80.2335 82.263C80.2604 82.0793 80.3269 81.9043 80.4279 81.751C80.5656 81.4822 80.696 81.2774 80.7354 81.2928Z" fill="#455A64"/>
<path d="M81.9728 81.6308C82.0023 81.6513 81.8891 81.8868 81.7268 82.1582C81.5644 82.4295 81.3947 82.6343 81.3652 82.6138C81.3356 82.5934 81.4488 82.3578 81.6112 82.0865C81.7735 81.8151 81.9433 81.6103 81.9728 81.6308Z" fill="#455A64"/>
<path d="M82.7698 82.409C82.7968 82.4295 82.6886 82.6419 82.5238 82.8851C82.359 83.1283 82.2064 83.3075 82.1794 83.2871C82.1523 83.2666 82.2581 83.0515 82.4254 82.8083C82.5927 82.5651 82.7403 82.3859 82.7698 82.409Z" fill="#455A64"/>
<path d="M83.3258 83.3972C83.3553 83.4176 83.2446 83.625 83.0576 83.84C82.8707 84.0551 82.6837 84.1882 82.6616 84.1626C82.6394 84.137 82.7821 83.9604 82.9642 83.7504C83.1462 83.5405 83.2963 83.3741 83.3258 83.3972Z" fill="#455A64"/>
<path d="M83.2445 84.9051C83.2716 84.9255 83.2101 85.051 83.0649 85.1175C82.9198 85.1841 82.787 85.1483 82.7919 85.1175C82.7968 85.0868 82.8977 85.0535 83.0133 84.9998C83.1289 84.946 83.2175 84.8795 83.2445 84.9051Z" fill="#455A64"/>
<path d="M82.4574 86.1952C82.4574 86.2285 82.4352 86.272 82.3811 86.2643C82.327 86.2567 82.3098 86.2003 82.3319 86.1722C82.3398 86.1599 82.3504 86.1498 82.3628 86.1427C82.3752 86.1355 82.3891 86.1316 82.4032 86.1312C82.4167 86.1364 82.4286 86.1449 82.4381 86.1561C82.4475 86.1673 82.4542 86.1807 82.4574 86.1952Z" fill="#455A64"/>
<path d="M73.8794 86.7046C74.0541 86.3215 74.1886 85.9198 74.2804 85.5066C74.3328 85.0821 74.3411 84.6529 74.305 84.2266C74.4473 84.6408 74.4828 85.0865 74.4082 85.5195C74.3335 85.9525 74.1512 86.3575 73.8794 86.6944V86.7046Z" fill="#263238"/>
<path d="M74.8928 86.5844C75.0548 86.2312 75.1786 85.8602 75.2618 85.4785C75.3052 85.089 75.3052 84.6956 75.2618 84.306C75.4101 84.6838 75.4544 85.097 75.3896 85.4994C75.3249 85.9019 75.1537 86.2776 74.8953 86.5844H74.8928Z" fill="#263238"/>
<path d="M76.1697 86.592C76.6123 85.8584 76.769 84.9765 76.6076 84.1267C76.6777 84.2354 76.7215 84.3601 76.7355 84.4902C76.793 84.7997 76.793 85.1177 76.7355 85.4272C76.6824 85.7377 76.5713 86.0343 76.4083 86.3001C76.2878 86.5024 76.182 86.6022 76.1697 86.592Z" fill="#263238"/>
<path d="M77.6112 86.5024C77.7588 86.1038 77.87 85.6915 77.9433 85.2711C77.9723 84.8445 77.9641 84.4161 77.9187 83.9911C78.0709 84.404 78.1225 84.8496 78.0688 85.2883C78.0152 85.727 77.8579 86.145 77.6112 86.505V86.5024Z" fill="#263238"/>
<path d="M73.621 85.3787C73.5553 85.4085 73.483 85.4191 73.4119 85.4094C73.2168 85.3963 73.0281 85.332 72.8633 85.2225C72.6271 85.0563 72.4206 84.8484 72.2532 84.6081C72.1398 84.4725 72.0499 84.3175 71.9876 84.1498C71.9567 84.0534 71.9491 83.9506 71.9654 83.8503C71.9842 83.7427 72.0381 83.645 72.1179 83.5738C72.1956 83.5091 72.2874 83.4652 72.3852 83.446C72.483 83.4268 72.5838 83.4329 72.6788 83.4638C72.8462 83.5211 72.9974 83.6204 73.1192 83.7531C73.3219 83.9653 73.4787 84.2202 73.5792 84.5006C73.6474 84.6868 73.6881 84.8827 73.6997 85.0817C73.7107 85.1543 73.7065 85.2285 73.6874 85.2993C73.6497 85.037 73.5854 84.7795 73.4955 84.5313C73.3881 84.2705 73.2317 84.0346 73.0355 83.8375C72.9275 83.7198 72.7931 83.6319 72.6444 83.5815C72.5692 83.5583 72.4899 83.5541 72.4128 83.5692C72.3358 83.5843 72.2634 83.6184 72.2016 83.6686C72.1456 83.7228 72.1067 83.7934 72.09 83.8711C72.0733 83.9488 72.0796 84.0299 72.1081 84.1038C72.1662 84.2582 72.2494 84.4011 72.3541 84.5262C72.5092 84.7603 72.7004 84.9661 72.9199 85.1355C73.1265 85.2845 73.3698 85.3689 73.621 85.3787Z" fill="#263238"/>
<path d="M73.5621 85.3402C73.5575 85.4074 73.5417 85.4732 73.5153 85.5348C73.4602 85.7119 73.3893 85.8833 73.3038 86.0468C73.1794 86.2958 72.9901 86.5034 72.7576 86.6458C72.6149 86.73 72.4543 86.7758 72.2902 86.7789C72.1951 86.7857 72.0998 86.7669 72.0137 86.7243C71.9275 86.6817 71.8533 86.6168 71.7982 86.5357C71.7551 86.4479 71.7373 86.349 71.7469 86.2509C71.7565 86.1528 71.7931 86.0597 71.8524 85.9828C71.9478 85.8451 72.0746 85.7342 72.2214 85.6602C72.4626 85.5487 72.7176 85.4729 72.979 85.4349C73.2113 85.3748 73.4485 85.338 73.6875 85.3248C73.4639 85.4127 73.2335 85.4804 72.9987 85.5271C72.7491 85.5774 72.5062 85.6591 72.2755 85.7703C72.1481 85.8374 72.0383 85.9358 71.9557 86.057C71.9118 86.1138 71.8841 86.1824 71.8759 86.2548C71.8676 86.3272 71.8791 86.4006 71.9089 86.4666C71.9518 86.5256 72.0077 86.573 72.072 86.6047C72.1362 86.6363 72.2069 86.6513 72.2779 86.6484C72.4215 86.6478 72.5628 86.6099 72.6888 86.5383C72.9065 86.409 73.0879 86.2228 73.2152 85.9981C73.4391 85.6039 73.5301 85.3274 73.5621 85.3402Z" fill="#263238"/>
<path d="M73.4611 86.4308C73.4316 86.4052 73.5743 86.2081 73.6161 85.9188C73.6579 85.6295 73.5891 85.4068 73.6161 85.3864C73.6785 85.4615 73.722 85.5516 73.7426 85.6486C73.7632 85.7456 73.7603 85.8463 73.7342 85.9419C73.6924 86.2721 73.4808 86.459 73.4611 86.4308Z" fill="#263238"/>
<path d="M74.0097 84.6413C74.0417 84.6413 74.0097 84.8461 73.904 85.056C73.7982 85.2659 73.658 85.3991 73.6309 85.3786C73.6038 85.3581 73.6899 85.1917 73.7908 84.9946C73.8916 84.7975 73.9753 84.6285 74.0097 84.6413Z" fill="#263238"/>
<path d="M77.9481 82.7367C77.7795 82.8532 77.5956 82.9437 77.402 83.0055C76.4824 83.3625 75.5012 83.516 74.5214 83.4561C74.3191 83.4551 74.1179 83.425 73.9236 83.3665C74.6057 83.3751 75.2877 83.3384 75.9654 83.2564C76.6365 83.1283 77.2988 82.9547 77.9481 82.7367Z" fill="#FF9902"/>
<path d="M77.3381 86.8865C76.894 86.9859 76.4417 87.0408 75.9876 87.0503C75.5368 87.1043 75.0822 87.1146 74.6296 87.081C75.0737 86.9816 75.526 86.9267 75.9802 86.9172C76.4309 86.8632 76.8855 86.8529 77.3381 86.8865Z" fill="#FF9902"/>
<path d="M80.6025 86.9863C80.9107 86.9411 81.206 86.8276 81.4685 86.6535C81.7455 86.4567 81.9678 86.1874 82.113 85.8727C82.2799 85.4841 82.3264 85.051 82.2458 84.6336C82.1676 84.2135 81.9785 83.8244 81.6997 83.5098C81.4695 83.2553 81.1937 83.0501 80.8879 82.9056C80.5975 82.7828 80.2958 82.6911 79.9875 82.6317C80.073 82.6156 80.1605 82.6156 80.2459 82.6317C80.4782 82.66 80.7058 82.7212 80.9224 82.8135C81.2477 82.9508 81.5419 83.1574 81.7858 83.4202C82.0859 83.7479 82.2891 84.1584 82.3713 84.6029C82.4583 85.048 82.4048 85.5105 82.2188 85.9213C82.0603 86.2518 81.8178 86.5307 81.5177 86.7277C81.3172 86.8594 81.0927 86.9465 80.8584 86.9837C80.774 87.0013 80.6872 87.0021 80.6025 86.9863Z" fill="#FF9902"/>
<path d="M65.0406 80.6938L71.4366 83.6507C71.4989 84.4968 71.3639 85.346 71.043 86.1262C70.5756 87.1246 69.1562 86.9249 69.1562 86.9249L63.5277 85.563L64.7823 84.795L65.0406 80.6938Z" fill="#FFBE9D"/>
<path d="M70.7577 86.651C70.5046 86.4667 70.2734 86.2519 70.0689 86.011C69.8646 85.7673 69.7496 85.4563 69.7441 85.1329C69.7719 84.8417 69.8664 84.5616 70.0197 84.3162C70.1505 84.0198 70.3755 83.7793 70.6568 83.6353C71.011 83.4971 71.3948 83.6558 71.7417 83.8324L71.8081 85.3172L70.7577 86.651Z" fill="#E0E0E0"/>
<path d="M71.4464 83.6506C71.4317 83.6839 69.9877 83.049 68.2189 82.2324C66.4502 81.4158 65.0209 80.7271 65.0406 80.6964C65.0603 80.6657 66.5018 81.2954 68.2706 82.1121C70.0393 82.9287 71.4612 83.6148 71.4464 83.6506Z" fill="#EB996E"/>
<path d="M78.728 56.809C78.7896 56.8124 78.8513 56.8031 78.9094 56.7817C78.9675 56.7602 79.021 56.727 79.0668 56.6839C79.1125 56.6408 79.1496 56.5888 79.1759 56.5307C79.2022 56.4726 79.2172 56.4097 79.22 56.3456C79.2914 54.2413 77.958 49.4746 77.3184 47.4957C76.9273 46.2874 75.5964 45.4042 74.6813 44.7539C73.5645 43.968 69.6162 43.0054 68.3149 42.6317H67.877L61.8278 42.1632L58.5044 43.8195C58.5044 43.8195 53.8968 45.6371 52.561 48.1715C51.2252 50.7059 50.2093 58.112 50.2093 58.112C50.2093 58.112 49.5967 60.2291 50.2093 61.184C50.5906 61.7805 52.01 62.2976 53.2867 62.551C52.5955 64.9472 53.1416 66.7264 53.117 67.031C53.0653 67.6608 52.6004 69.1277 53.6902 69.0381C54.7799 68.9485 63.3014 66.6061 65.8327 66.5011C67.9759 66.4407 70.0951 66.9819 71.9679 68.0679C73.2447 68.8128 73.2348 68.8666 73.6899 67.5559C74.145 66.2451 72.6912 64.768 72.6912 64.768C72.6912 64.768 73.995 59.8656 74.6026 56.6605L78.728 56.809Z" fill="#455A64"/>
<path d="M58.4354 53.9623C58.4354 53.9623 58.3592 53.8932 58.2436 53.7498C58.1279 53.6065 57.9459 53.3838 57.7516 53.1431C57.2226 52.4745 56.6471 51.8473 56.0296 51.2666C55.6857 50.9517 55.317 50.6674 54.9275 50.4167C54.6093 50.2148 54.2742 50.0435 53.9263 49.9047C53.3285 49.6692 52.9423 49.6103 52.9423 49.5847C53.0358 49.5827 53.1292 49.593 53.2202 49.6154C53.3291 49.6316 53.4368 49.6556 53.5425 49.6871C53.6845 49.7212 53.8242 49.7648 53.9607 49.8177C54.3203 49.9478 54.6664 50.115 54.9939 50.3169C55.3922 50.5657 55.7685 50.851 56.1181 51.1694C56.7472 51.7533 57.3236 52.396 57.8401 53.0894C58.0394 53.3454 58.1968 53.5706 58.3001 53.7242C58.3522 53.7991 58.3975 53.8788 58.4354 53.9623Z" fill="#263238"/>
<path d="M57.326 61.0407C57.2279 61.0596 57.1281 61.0674 57.0283 61.0638C56.8364 61.0638 56.5585 61.0766 56.2141 61.0638C55.3192 61.0581 54.4258 60.9888 53.54 60.8564C52.6541 60.727 51.785 60.4934 50.9497 60.1601C50.6977 60.0593 50.4513 59.9439 50.2117 59.8145C50.1197 59.7737 50.033 59.7213 49.9534 59.6583C49.9534 59.6379 50.342 59.8324 50.9866 60.0731C51.8262 60.3785 52.692 60.5996 53.572 60.7335C54.4531 60.8615 55.3398 60.9427 56.2288 60.9767L57.0406 61.01C57.1365 61.0095 57.2322 61.0198 57.326 61.0407Z" fill="#263238"/>
<path d="M70.118 63.442C70.0982 63.5103 70.0683 63.5751 70.0294 63.634C69.937 63.7992 69.836 63.959 69.7268 64.1127C69.0012 65.1357 68.0203 65.9325 66.8904 66.4167C66.7207 66.4915 66.5465 66.5548 66.3689 66.6061C66.3058 66.6307 66.2394 66.6453 66.1721 66.6496C66.1721 66.6266 66.4353 66.5319 66.8535 66.3322C67.3954 66.068 67.9077 65.7426 68.3812 65.362C68.8516 64.9768 69.279 64.538 69.6555 64.0538C69.9335 63.6826 70.0884 63.4317 70.118 63.442Z" fill="#263238"/>
<path d="M70.2164 65.4081C70.1024 65.5419 69.9667 65.6537 69.8154 65.7383C69.469 65.9714 69.0974 66.1613 68.7084 66.3041C68.3191 66.4467 67.9156 66.5429 67.5055 66.5908C67.3362 66.6213 67.1631 66.6213 66.9938 66.5908C67.5591 66.4917 68.1172 66.3523 68.6641 66.1735C69.1979 65.956 69.7166 65.7002 70.2164 65.4081Z" fill="#263238"/>
<path d="M77.3013 47.4957C77.3015 47.5693 77.2915 47.6426 77.2717 47.7133C77.2334 47.9079 77.1849 48.1001 77.1266 48.2893C76.9385 48.9144 76.6836 49.5155 76.3664 50.0813C76.0474 50.6482 75.6696 51.177 75.2398 51.6582C75.075 51.84 74.9347 51.9808 74.8314 52.073C74.7281 52.1651 74.6715 52.2137 74.6641 52.2061C74.6568 52.1984 74.8609 51.9731 75.1733 51.5942C75.5785 51.1022 75.9408 50.5736 76.2558 50.0147C76.5676 49.4533 76.8303 48.8639 77.0405 48.2534C77.2029 47.7901 77.2816 47.4906 77.3013 47.4957Z" fill="#263238"/>
<path d="M78.851 55.6826C78.655 55.7224 78.4553 55.7387 78.2557 55.7312C77.8867 55.7312 77.3775 55.7312 76.8166 55.7312C76.2557 55.7312 75.7465 55.6698 75.38 55.6288C75.1802 55.6199 74.9821 55.5872 74.7896 55.5315C74.9875 55.5115 75.1869 55.5115 75.3849 55.5315L76.8215 55.5955L78.2557 55.6467C78.4548 55.6376 78.6543 55.6496 78.851 55.6826Z" fill="#263238"/>
<path d="M74.0541 48.3431C74.0916 48.453 74.1195 48.5661 74.1377 48.6811C74.1869 48.9371 74.2509 49.2366 74.3247 49.6103C74.4772 50.3963 74.6961 51.4843 74.8167 52.7054C74.9309 53.7494 74.9259 54.8037 74.8019 55.8465C74.7453 56.2433 74.6887 56.5633 74.6346 56.7809C74.6139 56.8961 74.5834 57.0092 74.5436 57.1188C74.5461 57.0016 74.5601 56.8849 74.5854 56.7707C74.6248 56.5531 74.6691 56.2305 74.7109 55.8337C74.8089 54.7973 74.8015 53.753 74.6887 52.7182C74.5584 51.5073 74.3542 50.4142 74.2263 49.6283C74.1598 49.234 74.1082 48.9115 74.0787 48.6913C74.0578 48.5766 74.0495 48.4598 74.0541 48.3431Z" fill="#263238"/>
<path d="M58.4355 54.848C58.4402 54.9474 58.4344 55.0469 58.4183 55.145C58.3986 55.3344 58.3666 55.6058 58.3248 55.9411C58.2387 56.6144 58.1083 57.5437 57.9288 58.5626C57.7833 59.4354 57.5894 60.2987 57.3482 61.1482C57.2737 61.405 57.1849 61.6572 57.0825 61.9034C57.047 61.9938 57.0016 62.0797 56.9472 62.1594C56.9275 62.1594 57.0997 61.7703 57.2621 61.1149C57.4245 60.4595 57.6237 59.5482 57.8033 58.5319C57.9829 57.5155 58.1256 56.5914 58.2363 55.9232C58.2871 55.6109 58.3314 55.3472 58.3691 55.1322C58.3804 55.0351 58.4027 54.9397 58.4355 54.848Z" fill="#263238"/>
<path d="M57.6065 50.77C57.7115 50.9276 57.7944 51.1 57.8525 51.282C58.186 52.1236 58.4014 53.0108 58.4921 53.9163C58.5185 54.103 58.5185 54.2927 58.4921 54.4795C58.4527 54.4795 58.3764 53.6295 58.1255 52.6081C57.8746 51.5867 57.572 50.7854 57.6065 50.77Z" fill="#263238"/>
<g opacity="0.3">
<path d="M68.9815 66.8545C69.2718 66.9338 69.8277 66.0199 70.15 65.4593C69.166 66.0276 68.2164 66.7086 67.1143 66.4602C67.7269 66.2897 68.2897 65.9649 68.7531 65.5144C69.2164 65.0639 69.5661 64.5016 69.7711 63.8772C69.0016 65.0992 67.865 66.0219 66.5387 66.5012C66.5387 66.5012 68.5215 66.729 68.9815 66.8545Z" fill="black"/>
</g>
<path d="M57.6064 39.68C57.6064 39.68 57.7737 39.7517 58.0984 39.8234C58.5426 39.9339 59.0095 39.8861 59.4244 39.6877C59.7037 39.5449 59.9364 39.3196 60.0935 39.04C60.1849 38.8842 60.242 38.7093 60.2607 38.5278C60.2794 38.3464 60.2593 38.1628 60.2017 37.9904C60.1436 37.7988 60.0375 37.6267 59.8944 37.4918C59.7514 37.3568 59.5764 37.2639 59.3875 37.2224C59.1839 37.1984 58.9784 37.2432 58.8012 37.3502C58.624 37.4571 58.4845 37.6206 58.4035 37.8163C58.3663 37.9148 58.3491 38.0202 58.3529 38.1259C58.3567 38.2317 58.3815 38.3354 58.4256 38.4307C58.5184 38.6179 58.6645 38.7708 58.8438 38.8685C59.0146 38.9697 59.2082 39.0218 59.4047 39.0195C59.5944 39.0149 59.7812 38.9696 59.9533 38.8864C60.2765 38.7244 60.5581 38.4849 60.7749 38.1875C60.9716 37.9327 61.1307 37.6488 61.2472 37.3453C61.4156 36.9022 61.4992 36.4291 61.4932 35.9527C61.4932 35.6173 61.4514 35.4407 61.4637 35.4279C61.4813 35.4703 61.4929 35.5151 61.4982 35.561C61.5213 35.6904 61.5361 35.8212 61.5424 35.9527C61.5651 36.4391 61.4888 36.925 61.3186 37.3786C61.2042 37.6942 61.045 37.9902 60.8463 38.2567C60.6222 38.5713 60.3286 38.8251 59.9902 38.9965C59.8038 39.0888 59.6012 39.1402 59.3949 39.1475C59.1764 39.1507 58.961 39.0942 58.77 38.9837C58.5677 38.8729 58.4035 38.6993 58.3002 38.4871C58.2472 38.3759 58.2174 38.2544 58.2128 38.1304C58.2081 38.0064 58.2287 37.8828 58.2731 37.7677C58.3638 37.5445 58.5218 37.3581 58.7233 37.2367C58.9248 37.1152 59.1588 37.0653 59.3899 37.0944C59.5998 37.1378 59.7945 37.2392 59.9538 37.3878C60.113 37.5364 60.231 37.7269 60.2952 37.9392C60.3566 38.1282 60.3772 38.329 60.3555 38.5272C60.3339 38.7255 60.2704 38.9163 60.1698 39.0861C59.9981 39.3798 59.7476 39.6148 59.449 39.7619C59.0145 39.9626 58.5263 39.9988 58.0689 39.8643C57.9465 39.8321 57.8271 39.7884 57.7122 39.7338C57.6752 39.7198 57.6398 39.7018 57.6064 39.68Z" fill="#263238"/>
<path d="M76.8929 34.0301C76.9445 33.5098 76.8884 32.984 76.7285 32.4881C76.5685 31.9922 76.3083 31.5377 75.9655 31.1552C75.6161 30.7783 75.1805 30.4997 74.6995 30.3457C74.2185 30.1917 73.7078 30.1672 73.2152 30.2746C72.5062 30.4117 71.8537 30.7687 71.3431 31.2986C71.1859 31.4626 71.0577 31.6541 70.9643 31.8643C70.9471 31.8951 70.9323 31.9283 70.9151 31.9616C70.8979 31.9949 70.8782 32.0461 70.861 32.0896V32.1101C70.5565 32.835 70.4807 33.6416 70.6445 34.4141C70.7764 34.9971 71.049 35.5355 71.4363 35.9785C71.8237 36.4215 72.3132 36.7544 72.8585 36.9459C73.4101 37.1187 73.9966 37.1308 74.5544 36.981C75.1121 36.8311 75.6197 36.5251 76.022 36.096C76.5233 35.5262 76.8295 34.7998 76.8929 34.0301Z" fill="#263238"/>
<path d="M76.4525 35.7402C76.4304 35.7402 76.3861 35.4484 76.2065 35.0106C75.984 34.4392 75.6382 33.9287 75.1959 33.5186C74.7535 33.1084 74.2265 32.8096 73.6555 32.6452C73.2176 32.5172 72.9175 32.5069 72.9323 32.4813C72.9991 32.4698 73.0672 32.4698 73.134 32.4813C73.3172 32.4915 73.4992 32.5189 73.6777 32.5632C74.2735 32.7061 74.8252 33.0029 75.2818 33.4261C75.7384 33.8494 76.0852 34.3855 76.2902 34.985C76.3524 35.1647 76.3993 35.3497 76.4304 35.538C76.4484 35.6037 76.4558 35.672 76.4525 35.7402Z" fill="#455A64"/>
<path d="M75.4906 33.7178C75.4458 33.929 75.3703 34.1319 75.2668 34.3194C75.0373 34.785 74.7421 35.2121 74.391 35.5866C74.0373 35.9577 73.6318 36.271 73.1881 36.5159C73.0104 36.6305 72.8171 36.7168 72.6149 36.7719C72.5903 36.7284 73.4906 36.3648 74.3 35.4919C75.1093 34.6189 75.4513 33.6922 75.4906 33.7178Z" fill="#455A64"/>
<path d="M72.8363 32.617C72.7994 32.5939 73.0946 32.105 73.3283 31.4496C73.4596 31.0491 73.5463 30.6342 73.5866 30.2131C73.6295 30.3341 73.6447 30.4639 73.6309 30.592C73.618 30.9016 73.5565 31.2068 73.4488 31.4957C73.3153 31.9067 73.1073 32.2873 72.8363 32.617Z" fill="#FF9902"/>
<path d="M72.8732 31.7262C72.9333 30.2652 72.4591 28.8349 71.5461 27.7233C70.6332 26.6117 69.3493 25.9015 67.9532 25.7358C67.2325 25.6521 66.5029 25.7206 65.8082 25.937C65.1135 26.1534 64.4678 26.5134 63.9098 26.9954C63.3518 27.4774 62.8929 28.0716 62.5605 28.7423C62.2281 29.4131 62.0291 30.1467 61.9754 30.8993L61.4834 43.5354C61.4746 43.78 61.5447 44.0207 61.6827 44.219C62.4484 45.3127 63.5974 46.0485 64.8807 46.267C65.9928 46.38 67.1102 46.116 68.0664 45.5143C68.2221 45.4184 68.3508 45.2816 68.4398 45.1176C68.5287 44.9536 68.5747 44.7682 68.5731 44.5799V41.7639C68.5731 41.7592 68.5749 41.7546 68.5782 41.7512C68.5814 41.7479 68.5858 41.746 68.5903 41.746C68.8442 41.7611 69.0989 41.7491 69.3505 41.7101C70.0663 41.513 71.8843 40.745 72.4476 37.9367C72.6124 36.9844 72.7724 34.3476 72.8732 31.7262Z" fill="#FFBE9D"/>
<path d="M68.9594 35.9297C69.216 35.8628 69.4795 35.8284 69.7441 35.8273C69.8671 35.8273 69.9901 35.8017 70.0098 35.7172C70.0242 35.5885 70.0011 35.4583 69.9434 35.3435C69.8425 35.0337 69.7342 34.7086 69.6235 34.3707C69.1807 32.9857 68.8659 31.8516 68.92 31.8337C68.9741 31.8158 69.3776 32.9243 69.8204 34.3067C69.9261 34.6497 70.0295 34.9748 70.1254 35.2846C70.1956 35.4388 70.2104 35.6141 70.1672 35.7787C70.1472 35.8222 70.118 35.8605 70.0818 35.8906C70.0456 35.9208 70.0033 35.942 69.9581 35.9528C69.8895 35.9682 69.8192 35.9742 69.749 35.9707C69.4852 35.9908 69.22 35.9771 68.9594 35.9297Z" fill="#263238"/>
<path d="M71.7047 33.6103C71.699 33.7298 71.6488 33.8423 71.5648 33.924C71.4808 34.0057 71.3695 34.0502 71.2546 34.048C71.198 34.0501 71.1417 34.0404 71.0889 34.0195C71.036 33.9987 70.9877 33.9671 70.9467 33.9266C70.9057 33.886 70.8728 33.8374 70.8501 33.7836C70.8274 33.7297 70.8152 33.6717 70.8142 33.6128C70.8187 33.4929 70.8685 33.3796 70.9528 33.2976C71.0371 33.2157 71.1491 33.1716 71.2644 33.1751C71.3209 33.173 71.3772 33.1827 71.4301 33.2036C71.483 33.2244 71.5313 33.256 71.5723 33.2966C71.6133 33.3371 71.6461 33.3857 71.6688 33.4395C71.6916 33.4934 71.7038 33.5514 71.7047 33.6103Z" fill="#263238"/>
<path d="M72.1475 32.2202C72.1032 32.2688 71.7465 32.2458 71.2939 32.4045C70.8413 32.5632 70.5411 32.8115 70.4821 32.7987C70.4231 32.7859 70.4821 32.7168 70.6223 32.6042C70.8132 32.4486 71.0289 32.329 71.2595 32.2509C71.481 32.1689 71.7158 32.1324 71.9507 32.1434C72.1057 32.1562 72.1697 32.1946 72.1475 32.2202Z" fill="#263238"/>
<path d="M67.0897 33.2955C67.084 33.415 67.0338 33.5275 66.9498 33.6092C66.8658 33.6909 66.7545 33.7354 66.6396 33.7332C66.5831 33.7349 66.527 33.725 66.4742 33.704C66.4215 33.683 66.3733 33.6514 66.3324 33.6109C66.2915 33.5705 66.2586 33.522 66.2358 33.4683C66.2129 33.4146 66.2005 33.3567 66.1992 33.298C66.2043 33.1783 66.2543 33.0654 66.3385 32.9836C66.4226 32.9017 66.5343 32.8575 66.6494 32.8603C66.7059 32.8582 66.7622 32.8679 66.8151 32.8888C66.868 32.9096 66.9163 32.9412 66.9573 32.9817C66.9983 33.0223 67.0311 33.0709 67.0539 33.1247C67.0766 33.1786 67.0888 33.2366 67.0897 33.2955Z" fill="#263238"/>
<path d="M67.2472 32.6298C67.1758 32.6298 66.9151 32.338 66.4477 32.1178C65.9803 31.8977 65.5719 31.8413 65.5375 31.785C65.503 31.7287 65.6039 31.7313 65.7835 31.7492C66.0403 31.7817 66.2898 31.8596 66.5215 31.9796C66.7522 32.0887 66.9609 32.2425 67.1365 32.4327C67.2595 32.5505 67.2791 32.6273 67.2472 32.6298Z" fill="#263238"/>
<path d="M68.551 41.7281C68.551 41.7281 66.6937 41.7844 64.4403 40.2382C64.4403 40.2382 65.0602 42.7802 68.551 42.6318V41.7281Z" fill="#EB996E"/>
<path d="M68.706 37.0995C68.6184 36.9775 68.5031 36.88 68.3705 36.8156C68.2378 36.7513 68.0919 36.7222 67.9458 36.7309C67.8401 36.7354 67.7363 36.7617 67.6405 36.8083C67.5446 36.8549 67.4586 36.9208 67.3874 37.0022C67.321 37.0807 67.2793 37.1785 67.2678 37.2824C67.2564 37.3862 67.2758 37.4913 67.3235 37.5834C67.3972 37.676 67.4956 37.7441 67.6062 37.7792C67.7168 37.8142 67.8349 37.8147 67.9458 37.7805C68.1744 37.7097 68.3875 37.5932 68.5731 37.4374C68.6293 37.4011 68.6785 37.3542 68.7183 37.2992C68.7355 37.2723 68.7447 37.2407 68.7447 37.2083C68.7447 37.176 68.7355 37.1444 68.7183 37.1174" fill="#EB996E"/>
<path d="M67.535 36.1934C67.6113 36.1934 67.5891 36.7259 68.027 37.1278C68.4649 37.5297 69.011 37.499 69.011 37.5732C69.011 37.6065 68.8831 37.6705 68.6494 37.6654C68.345 37.653 68.054 37.5318 67.8253 37.3223C67.6112 37.1253 67.4774 36.8506 67.4514 36.5543C67.4342 36.3188 67.4981 36.1883 67.535 36.1934Z" fill="#263238"/>
<path d="M67.5695 30.6484C67.5031 30.7713 67.0406 30.6254 66.4748 30.5921C65.909 30.5588 65.4342 30.6356 65.3801 30.5025C65.3579 30.4411 65.4539 30.331 65.6556 30.2465C65.9231 30.1309 66.213 30.0827 66.5018 30.1057C66.7914 30.1215 67.0732 30.2093 67.3235 30.3617C67.5154 30.4641 67.6015 30.5895 67.5695 30.6484Z" fill="#263238"/>
<path d="M72.1377 30.7201C72.0492 30.8276 71.7244 30.6945 71.3284 30.6689C70.9323 30.6433 70.5904 30.7047 70.519 30.5844C70.4871 30.5255 70.5461 30.4154 70.6962 30.3284C70.9009 30.2137 71.1332 30.163 71.3649 30.1826C71.5967 30.2021 71.8181 30.291 72.0024 30.4385C72.1377 30.5562 72.1771 30.674 72.1377 30.7201Z" fill="#263238"/>
<path d="M68.3566 25.0881C68.1106 24.6503 67.6186 24.4583 67.107 24.3841C64.9766 24.0922 62.6298 25.4695 61.4736 27.3537C60.3174 29.2378 60.3026 32.0257 61.2103 34.0481L62.0098 34.1786C63.6679 34.0429 66.3739 29.1764 68.6518 26.473C68.9347 26.1402 68.583 25.4772 68.3566 25.0881Z" fill="#263238"/>
<path d="M72.4502 26.4679C71.5449 25.4439 70.0763 24.1793 68.246 24.9319C67.9828 25.4747 68.5437 26.1633 69.0062 26.5601C69.6876 27.1463 70.2804 27.538 70.7282 27.9553C71.631 28.8027 72.7577 30.2107 72.8733 31.7953C72.8733 31.8951 72.9545 31.9079 73.0504 31.89C73.1463 31.8721 73.4465 31.2167 73.5793 30.354C73.8548 28.5211 73.3579 27.5022 72.4502 26.4679Z" fill="#263238"/>
<path d="M62.1402 31.2883C62.0421 30.8649 61.85 30.4712 61.5793 30.1389C61.4025 29.9205 61.1932 29.733 60.9594 29.5834C60.5223 29.3234 60.029 29.1831 59.5257 29.1755C59.0223 29.1679 58.5253 29.2933 58.0812 29.5399C57.6438 29.7948 57.2638 30.1442 56.9668 30.5645C56.6698 30.9849 56.4626 31.4665 56.3592 31.977C56.1896 32.7311 56.2649 33.5224 56.5732 34.2272C56.8307 34.7634 57.2248 35.2157 57.7123 35.5349C58.1999 35.854 58.7623 36.0278 59.3382 36.0372C59.9144 36.0306 60.4795 35.8713 60.9801 35.5743C61.4807 35.2774 61.9003 34.8525 62.1992 34.3399C62.6076 33.6179 62.492 32.3431 62.1402 31.2883Z" fill="#263238"/>
<path d="M62.519 33.1622C62.4698 33.1366 60.492 32.3661 60.4059 34.5165C60.3198 36.6669 62.4133 36.3085 62.4182 36.2522C62.4231 36.1958 62.519 33.1622 62.519 33.1622Z" fill="#FFBE9D"/>
<path d="M61.8205 35.41C61.8205 35.41 61.7836 35.4356 61.7221 35.4612C61.6352 35.4971 61.5384 35.4971 61.4515 35.4612C61.2374 35.3665 61.0677 34.9979 61.0726 34.6113C61.0743 34.4264 61.1163 34.2443 61.1956 34.0788C61.2178 34.0124 61.2551 33.9525 61.3044 33.9044C61.3536 33.8562 61.4134 33.8212 61.4785 33.8023C61.5202 33.793 61.5637 33.7991 61.6014 33.8197C61.6392 33.8403 61.6688 33.874 61.6852 33.915C61.7122 33.9764 61.6975 34.0174 61.7073 34.0225C61.7171 34.0276 61.754 33.9892 61.7393 33.8996C61.7316 33.8452 61.7043 33.7958 61.663 33.7614C61.6081 33.7139 61.5374 33.6908 61.4662 33.6974C61.3809 33.7116 61.3004 33.7482 61.2324 33.8038C61.1644 33.8593 61.1111 33.9319 61.0775 34.0148C60.9828 34.1974 60.9321 34.4012 60.9299 34.6087C60.9299 35.0414 61.1218 35.4561 61.4219 35.5611C61.4769 35.5802 61.5353 35.5862 61.5927 35.5787C61.6502 35.5711 61.7054 35.5503 61.754 35.5175C61.8155 35.4612 61.8278 35.4151 61.8205 35.41Z" fill="#EB996E"/>
<path d="M72.8757 26.898C72.6794 26.9542 72.4765 26.9818 72.273 26.9799C71.7846 27.0085 71.2947 26.9914 70.8093 26.9287C70.3253 26.8702 69.8471 26.7683 69.38 26.6241C69.182 26.575 68.9916 26.4975 68.8142 26.3937C69.0141 26.4252 69.2115 26.4722 69.4046 26.5345C69.875 26.6524 70.3513 26.743 70.8314 26.8058C71.3116 26.8632 71.7945 26.8931 72.2779 26.8954C72.4769 26.8797 72.6768 26.8805 72.8757 26.898Z" fill="#455A64"/>
<path d="M73.562 28.4417C73.421 28.5083 73.2689 28.5457 73.1143 28.5518C72.7412 28.5945 72.364 28.5737 71.9974 28.4903C71.6316 28.4066 71.2811 28.2622 70.9593 28.0628C70.8198 27.9906 70.6959 27.8896 70.5952 27.7659C71.0461 28.0247 71.5262 28.2242 72.0245 28.3598C72.532 28.4508 73.0482 28.4783 73.562 28.4417Z" fill="#455A64"/>
<path d="M61.2103 28.096C61.2103 28.0678 61.658 28.1498 62.3788 28.1293C62.8013 28.1173 63.2222 28.0728 63.6383 27.9962C64.1459 27.8967 64.6464 27.7615 65.1365 27.5917C65.6259 27.416 66.1041 27.2083 66.5682 26.9696C66.9456 26.7721 67.3119 26.5524 67.6654 26.3117C68.2705 25.9021 68.6075 25.5923 68.6248 25.6102C68.5558 25.6945 68.4792 25.7717 68.396 25.8406C68.3222 25.9123 68.2262 25.9942 68.1106 26.0966C67.995 26.199 67.8646 26.2963 67.717 26.4013C67.3659 26.6551 66.9994 26.8851 66.6199 27.0899C66.1541 27.3369 65.6724 27.5499 65.1783 27.7274C64.6821 27.9006 64.1738 28.0341 63.658 28.1267C63.236 28.1986 62.809 28.2345 62.3813 28.2342C62.217 28.2373 62.0528 28.2304 61.8893 28.2138C61.7655 28.2089 61.6422 28.1952 61.5203 28.1728C61.4149 28.1572 61.3111 28.1315 61.2103 28.096Z" fill="#455A64"/>
<path d="M68.487 26.3681C68.4423 26.4736 68.387 26.574 68.3222 26.6676C68.2656 26.7624 68.1943 26.8776 68.1033 27.003C68.0123 27.1284 67.9163 27.2795 67.7884 27.428C67.5054 27.7892 67.1953 28.1264 66.861 28.4366C66.4485 28.8129 66.0048 29.1505 65.535 29.4452C65.0598 29.734 64.5599 29.9765 64.0418 30.1697C63.6191 30.3238 63.1846 30.4403 62.7429 30.5179C62.556 30.5588 62.3838 30.5716 62.2337 30.5896C62.1049 30.6082 61.9751 30.6185 61.845 30.6203C61.7345 30.6297 61.6235 30.6297 61.5129 30.6203C61.5129 30.5921 61.9853 30.5819 62.7257 30.4283C63.1596 30.3379 63.5864 30.2138 64.0025 30.0571C65.023 29.6702 65.9655 29.0895 66.7823 28.3444C67.1171 28.0435 67.4304 27.7175 67.7195 27.3691C68.2164 26.7649 68.4649 26.3502 68.487 26.3681Z" fill="#455A64"/>
<path d="M67.1069 24.392C67.2457 24.3637 67.3892 24.3743 67.5227 24.4227C67.8506 24.5201 68.145 24.7128 68.3714 24.9782C68.4364 25.0577 68.4941 25.1434 68.5436 25.2342C68.5867 25.3155 68.6213 25.4013 68.6469 25.4902C68.6967 25.637 68.7353 25.7877 68.7625 25.9408C68.7992 26.0844 68.7888 26.2366 68.733 26.3734C68.7109 26.3734 68.733 26.207 68.674 25.9612C68.6353 25.8152 68.5885 25.6716 68.5337 25.5312C68.509 25.4476 68.4761 25.367 68.4353 25.2905C68.3889 25.2112 68.3353 25.1367 68.2754 25.0678C68.0627 24.8195 67.795 24.6288 67.4956 24.5123C67.2644 24.4278 67.1069 24.415 67.1069 24.392Z" fill="#455A64"/>
<path d="M61.6531 32.9755C61.6334 32.9755 61.6949 32.7527 61.7392 32.3995C61.7946 31.9385 61.7688 31.4709 61.663 31.0196C61.5507 30.5713 61.3364 30.1578 61.0381 29.8139C60.7921 29.5579 60.6199 29.4324 60.6347 29.4094C60.6494 29.3863 60.6863 29.4273 60.7724 29.4811C60.8912 29.5532 61.0018 29.6391 61.1021 29.7371C61.4344 30.0774 61.6709 30.5059 61.786 30.9761C61.9 31.4425 61.9143 31.9293 61.8278 32.402C61.804 32.6027 61.7448 32.7972 61.6531 32.9755Z" fill="#FF9902"/>
<path d="M61.8082 32.512C61.7959 32.5299 61.5425 32.361 61.1071 32.1357C59.9716 31.5518 58.7177 31.2612 57.4515 31.2883C56.9595 31.2883 56.6692 31.3395 56.6643 31.3191C56.73 31.2897 56.7997 31.2716 56.8709 31.2653C57.0621 31.2294 57.2551 31.2054 57.449 31.1936C58.7322 31.1146 60.0109 31.4126 61.139 32.0538C61.3094 32.1485 61.4738 32.2545 61.631 32.3712C61.754 32.4455 61.8131 32.4941 61.8082 32.512Z" fill="#455A64"/>
<path d="M59.9262 31.6467C59.9049 31.8643 59.8526 32.0774 59.7712 32.279C59.6 32.7742 59.3676 33.244 59.0799 33.6768C58.7911 34.1091 58.4486 34.4999 58.0615 34.839C57.9093 34.9893 57.7359 35.1145 57.5474 35.2102C58.0771 34.7283 58.5555 34.1885 58.9742 33.6C59.3572 32.9859 59.6764 32.3311 59.9262 31.6467Z" fill="#455A64"/>
<path d="M61.2866 35.8247C61.3014 35.7837 61.3752 35.7581 61.4982 35.7914C61.6762 35.8477 61.8294 35.9673 61.9311 36.1293C62.0677 36.3424 62.1206 36.6018 62.0789 36.8541C62.0373 37.1065 61.9043 37.3327 61.7073 37.4861C61.5421 37.6091 61.3453 37.6778 61.1423 37.6833C60.9393 37.6888 60.7394 37.6308 60.5683 37.5169C60.4172 37.4141 60.2937 37.2732 60.2091 37.1072C60.1312 36.9571 60.0907 36.789 60.0911 36.6183C60.096 36.4803 60.1269 36.3446 60.1821 36.2189C60.2518 36.0341 60.3876 35.8846 60.5609 35.8017C60.6913 35.7505 60.77 35.7863 60.7799 35.8272C60.7946 35.9194 60.6396 36.0423 60.615 36.3572C60.6039 36.4335 60.6039 36.5112 60.615 36.5876C60.6346 36.6622 60.6671 36.7325 60.711 36.7949C60.7562 36.8636 60.8167 36.9197 60.8875 36.9586C60.9582 36.9974 61.0369 37.0176 61.1169 37.0177C61.1926 37.0189 61.2671 36.998 61.332 36.9572C61.3968 36.9165 61.4493 36.8576 61.4834 36.7872C61.5513 36.6516 61.5663 36.4938 61.5252 36.3469C61.4514 36.0628 61.262 35.9117 61.2866 35.8247Z" fill="#455A64"/>
<path d="M63.3801 32.4225C63.8015 32.3913 64.2186 32.315 64.6249 32.1946C65.5947 31.8586 66.4496 31.236 67.0849 30.4026C67.7076 29.5608 68.1748 28.606 68.4625 27.5866C68.5806 27.195 68.6617 26.875 68.7085 26.6548C68.7293 26.5377 68.7606 26.4228 68.802 26.3118C68.7973 26.4308 68.7816 26.5491 68.7552 26.665C68.7183 26.8903 68.6494 27.2154 68.5437 27.6122C68.2764 28.6558 67.8113 29.6332 67.1759 30.4871C66.5269 31.3373 65.645 31.9622 64.647 32.2791C64.3453 32.3708 64.0338 32.4233 63.7196 32.4353C63.6377 32.4394 63.5556 32.4394 63.4736 32.4353C63.4121 32.4302 63.3801 32.4276 63.3801 32.4225Z" fill="#263238"/>
<path d="M68.4822 43.6199C68.5274 43.6332 68.5699 43.6549 68.6076 43.6839C68.7195 43.7614 68.8183 43.8574 68.9004 43.9681C69.0304 44.1446 69.1227 44.348 69.171 44.5646C69.2394 44.8523 69.2317 45.154 69.1488 45.4375C69.0267 45.8001 68.8278 46.1294 68.5667 46.4011C68.3057 46.6727 67.9892 46.8798 67.6408 47.0068C67.2385 47.1662 66.8188 47.2728 66.3912 47.3243C65.9346 47.3871 65.4735 47.406 65.0136 47.3806C64.1166 47.3476 63.2451 47.0618 62.4921 46.5537C61.8756 46.1356 61.394 45.5345 61.1095 44.8283C60.9995 44.5578 60.9434 44.2669 60.9447 43.9732C60.9475 43.7494 61.005 43.53 61.112 43.3358C61.179 43.2138 61.2695 43.1075 61.3777 43.0235C61.4138 42.9935 61.4546 42.9701 61.4982 42.9543C61.3566 43.0619 61.2398 43.201 61.1563 43.3614C61.0614 43.55 61.0132 43.7603 61.0161 43.9732C61.0238 44.2564 61.0839 44.5355 61.1932 44.795C61.4822 45.4746 61.957 46.0506 62.5585 46.4513C63.296 46.9394 64.1451 47.2142 65.0185 47.2475C65.4709 47.2724 65.9246 47.2544 66.3739 47.1937C66.7946 47.1475 67.2079 47.046 67.6039 46.8916C67.9406 46.7756 68.248 46.5824 68.5035 46.3263C68.7589 46.0702 68.9559 45.7578 69.0799 45.4119C69.1514 45.1759 69.1704 44.926 69.1354 44.6812C69.1005 44.4364 69.0125 44.2031 68.8782 43.9988C68.7669 43.8509 68.6332 43.7229 68.4822 43.6199Z" fill="#263238"/>
<path d="M63.0701 46.9376C63.0321 46.7251 63.0754 46.5056 63.1906 46.3258C63.348 46.0083 63.5867 45.8471 63.6063 45.8752C63.626 45.9034 63.4464 46.0979 63.3038 46.3872C63.1611 46.6765 63.107 46.9427 63.0701 46.9376Z" fill="#263238"/>
<path d="M65.3776 47.3933C65.3229 47.2201 65.3086 47.0358 65.3358 46.8557C65.3358 46.5613 65.3825 46.3232 65.4194 46.3232C65.4743 46.4964 65.4894 46.6805 65.4637 46.8608C65.444 47.1552 65.4145 47.3933 65.3776 47.3933Z" fill="#263238"/>
<path d="M67.6949 47.0374C67.5341 46.6633 67.4543 46.2569 67.4612 45.847C67.5604 46.0251 67.6217 46.2233 67.6408 46.4282C67.6999 46.625 67.7184 46.8327 67.6949 47.0374Z" fill="#263238"/>
<path d="M69.0479 45.5015C69.0159 45.5195 68.92 45.3863 68.7601 45.2788C68.6002 45.1713 68.4476 45.1252 68.4501 45.0868C68.4526 45.0484 68.642 45.0356 68.8314 45.1662C69.0208 45.2967 69.0799 45.4887 69.0479 45.5015Z" fill="#263238"/>
<path d="M61.8475 44.5441C61.8475 44.5799 61.7171 44.6285 61.5867 44.7412C61.4563 44.8538 61.3751 44.9741 61.3407 44.9613C61.3063 44.9485 61.3407 44.7693 61.5055 44.6362C61.6703 44.5031 61.845 44.5108 61.8475 44.5441Z" fill="#263238"/>
<path d="M65.8942 61.6756C65.811 61.6713 65.7301 61.6463 65.6582 61.6025C65.5864 61.5587 65.5258 61.4975 65.4816 61.4241C65.4374 61.3507 65.4109 61.2672 65.4043 61.1809C65.3978 61.0945 65.4114 61.0078 65.444 60.928C66.1082 59.3716 67.9212 56.3764 68.0393 56.1818C68.2115 55.9104 68.3025 55.5751 68.8535 55.506C69.0651 55.4804 72.3861 55.401 73.1659 55.3831C73.2289 55.3805 73.2918 55.3909 73.3509 55.4138C73.41 55.4366 73.4642 55.4714 73.5103 55.5162C73.6653 55.6698 73.8277 55.9616 73.5817 56.4199C73.3061 56.9319 71.2988 60.1754 70.4845 61.4247C70.405 61.5463 70.2972 61.6451 70.1712 61.7117C70.0452 61.7784 69.905 61.8109 69.7637 61.8061L65.8942 61.6756Z" fill="#263238"/>
<path d="M71.0184 56.4993C70.9866 56.4603 70.9443 56.4322 70.8969 56.4185C70.8496 56.4048 70.7993 56.4062 70.7527 56.4225C70.6634 56.453 70.5829 56.5068 70.5191 56.5787C70.4815 56.6107 70.4561 56.6554 70.4471 56.705C70.4381 56.7546 70.4461 56.806 70.4698 56.85C70.4978 56.8818 70.5329 56.9057 70.572 56.9195C70.6111 56.9334 70.653 56.9368 70.6937 56.9294C70.7986 56.9229 70.8976 56.8764 70.9717 56.7988C71.0073 56.7594 71.0307 56.7099 71.0391 56.6565C71.0474 56.6031 71.0402 56.5484 71.0184 56.4993Z" fill="white"/>
<path d="M72.7256 57.2032C72.7592 57.099 72.8029 56.9987 72.856 56.9037C72.9052 56.8039 72.9593 56.6887 73.0233 56.5632C73.0577 56.4967 73.0922 56.425 73.1291 56.3507C73.1742 56.2829 73.2029 56.2047 73.2127 56.1229C73.214 56.0812 73.2055 56.0398 73.1879 56.0024C73.1704 55.9649 73.1442 55.9324 73.1119 55.9079C73.0735 55.8825 73.0307 55.8654 72.9859 55.8575C72.9412 55.8496 72.8953 55.8511 72.8511 55.8618L72.1721 55.8899L70.6199 55.9463L69.0652 55.9949H68.893C68.8465 55.999 68.8022 56.0168 68.765 56.0461C68.6972 56.1244 68.6378 56.2103 68.5879 56.3021C68.4748 56.4864 68.369 56.6605 68.2681 56.8141L67.8007 57.5591C67.7471 57.6509 67.6844 57.7367 67.6138 57.8151C67.6516 57.7125 67.7003 57.6146 67.7589 57.5232L68.1919 56.7552L68.4969 56.2279L68.5805 56.0845C68.6095 56.0277 68.6478 55.9766 68.6937 55.9335C68.7467 55.8872 68.8119 55.8587 68.8807 55.8515H69.0627L70.61 55.808L72.1648 55.7619L72.8413 55.7466C72.9554 55.7269 73.0725 55.7535 73.1684 55.8208C73.2113 55.8566 73.2454 55.9023 73.268 55.9544C73.2907 56.0064 73.3012 56.0633 73.2988 56.1203C73.2966 56.1734 73.2823 56.2252 73.257 56.2714L73.1955 56.3866L73.0799 56.5939C73.011 56.7168 72.9495 56.8269 72.8929 56.9242C72.8474 57.0234 72.7913 57.117 72.7256 57.2032Z" fill="#455A64"/>
<path d="M78.2853 56.8141C78.2853 56.8141 77.9483 59.2512 77.6039 60.818C77.2964 62.2132 76.8068 66.9287 75.5621 67.5226C74.3173 68.1165 72.765 67.7453 72.1919 66.5959C71.6187 65.4465 71.0037 62.3872 71.0037 62.3872L68.3961 61.2455C68.3961 61.2455 67.7958 58.9696 68.1378 58.7136C68.4797 58.4576 71.845 58.8416 71.845 58.8416L72.7478 58.6292C72.7478 58.6292 71.3112 58.4141 71.0037 58.3296C70.9338 58.3192 70.8667 58.2941 70.8064 58.2559C70.7462 58.2176 70.694 58.1671 70.653 58.1072C70.6121 58.0474 70.5833 57.9795 70.5683 57.9077C70.5533 57.836 70.5524 57.7618 70.5658 57.6896C70.6371 57.3901 70.6962 57.0906 71.4735 57.0906C72.2509 57.0906 73.4711 56.9703 73.6875 57.0496C73.9631 57.1469 74.273 57.3056 74.3345 58.0301C74.396 58.7546 74.0688 60.0781 74.0688 60.0781L74.1402 60.1908L74.6002 56.6631L78.2853 56.8141Z" fill="#FFBE9D"/>
<path d="M73.9065 61.0228C73.8413 61.0643 73.7697 61.0938 73.6949 61.1098C73.499 61.1783 73.2994 61.2347 73.0971 61.2788C72.4294 61.43 71.7447 61.4843 71.0627 61.44C70.3795 61.3944 69.7069 61.2417 69.0676 60.9869C68.8739 60.9145 68.6848 60.829 68.5018 60.7309C68.4317 60.7 68.3662 60.6586 68.3075 60.608C68.3075 60.5876 68.6076 60.7309 69.0996 60.905C69.7364 61.127 70.3977 61.2638 71.0676 61.312C71.7376 61.3507 72.4096 61.3078 73.0701 61.184C73.5916 61.0919 73.9015 61.0023 73.9065 61.0228Z" fill="#EB996E"/>
<path d="M73.412 60.0448C73.3452 60.0788 73.2739 60.1021 73.2004 60.1139C73.0627 60.1498 72.861 60.1958 72.61 60.2394C71.9518 60.3542 71.282 60.38 70.6174 60.3162C69.9503 60.2498 69.301 60.0536 68.7036 59.7376C68.5237 59.6415 68.3517 59.5302 68.1894 59.4048C68.0763 59.3152 68.0172 59.2589 68.0221 59.2512C68.0271 59.2435 68.2878 59.4304 68.7429 59.6531C69.3403 59.937 69.9787 60.1161 70.6322 60.183C71.2876 60.2454 71.9475 60.2325 72.6002 60.1446C73.0996 60.0832 73.4095 60.0243 73.412 60.0448Z" fill="#EB996E"/>
<path d="M74.2263 57.5283C74.241 57.5283 74.2878 57.6486 74.2755 57.856C74.2718 57.9826 74.2389 58.1064 74.1795 58.217C74.1383 58.2844 74.0805 58.3391 74.0122 58.3757C73.9466 58.4144 73.8774 58.4462 73.8056 58.4704C73.5622 58.549 73.3099 58.5938 73.0553 58.6035C72.9534 58.6185 72.8507 58.6271 72.7478 58.6291C72.7478 58.6112 72.8511 58.5472 73.043 58.5114C73.2873 58.4726 73.5289 58.417 73.7662 58.345C73.8869 58.3127 73.9962 58.2452 74.0811 58.1504C74.1353 58.0571 74.1712 57.9536 74.1869 57.8458C74.1934 57.7392 74.2065 57.6331 74.2263 57.5283Z" fill="#EB996E"/>
<path d="M72.9864 61.6295C73.0183 61.6986 73.0348 61.7743 73.0348 61.851C73.0348 61.9276 73.0183 62.0033 72.9864 62.0724C72.9354 62.2317 72.8446 62.374 72.7232 62.4846C72.574 62.6191 72.3917 62.7078 72.1967 62.7406C72.0053 62.7751 71.809 62.7663 71.6211 62.715C71.4724 62.6709 71.3289 62.6099 71.1931 62.5332C71.0643 62.4749 70.9422 62.4019 70.829 62.3156C70.9696 62.3314 71.1058 62.3757 71.23 62.4462C71.5219 62.5982 71.851 62.6553 72.1746 62.61C72.3471 62.5814 72.5097 62.5074 72.6469 62.395C72.7539 62.2994 72.8381 62.1794 72.8929 62.0442C72.9424 61.9112 72.9739 61.7716 72.9864 61.6295Z" fill="#EB996E"/>
<path d="M74.0712 57.2826C74.0712 57.2826 74.0884 57.2826 74.118 57.3108C74.1598 57.3463 74.1948 57.3897 74.2213 57.4388C74.3134 57.6215 74.3639 57.8238 74.3689 58.0301C74.3832 58.7283 74.3003 59.4251 74.1229 60.0986V60.0628C74.2495 60.4124 74.405 60.7498 74.5878 61.0714C74.8409 61.518 75.1237 61.9458 75.434 62.3514C75.7167 62.6689 75.9642 63.0184 76.172 63.3933C76.3008 63.6627 76.3263 63.9729 76.2434 64.2612C76.2184 64.338 76.1809 64.4099 76.1327 64.4736C76.1007 64.5146 76.0786 64.5325 76.0761 64.53C76.1236 64.4391 76.1631 64.344 76.1942 64.2458C76.255 63.9712 76.2183 63.6829 76.0909 63.4343C75.8775 63.0743 75.6303 62.7373 75.3529 62.4282C75.0334 62.025 74.744 61.5971 74.487 61.1482C74.3014 60.8221 74.1442 60.4794 74.0171 60.1242V60.1037V60.0858C74.1923 59.4223 74.2865 58.7386 74.2975 58.0506C74.2988 57.8541 74.2628 57.6592 74.1917 57.4772C74.1554 57.4098 74.1151 57.3448 74.0712 57.2826Z" fill="#EB996E"/>
<path d="M51.0505 61.8369C51.0505 61.8369 50.6692 67.2794 53.1022 68.1908C56.4551 69.4503 60.278 65.9738 60.2927 65.9175C60.3075 65.8612 64.3616 62.4641 64.3616 62.4641L63.0996 58.8468C63.0996 58.8468 62.5928 58.8468 61.7737 59.4561C61.476 59.6762 56.7774 62.2542 56.7774 62.2542C56.7774 62.2542 54.7258 62.2362 51.0505 61.8369Z" fill="#FFBE9D"/>
<path d="M56.9472 62.1722C56.9644 62.2132 56.0788 62.587 55.0087 63.0862C54.4749 63.3422 54.005 63.5982 53.668 63.7825C53.4923 63.8982 53.308 63.9992 53.1169 64.0846C53.2685 63.9345 53.438 63.8055 53.6212 63.7006C54.0509 63.4261 54.4971 63.1807 54.957 62.9658C55.4933 62.7098 55.9902 62.5102 56.3518 62.3719C56.5436 62.2856 56.743 62.2187 56.9472 62.1722Z" fill="#EB996E"/>
<path d="M67.5941 56.8756C67.5941 56.8756 66.9594 55.9412 66.7085 55.9437C66.4576 55.9463 64.9447 56.1997 64.9447 56.1997L62.807 58.6241C62.807 58.6241 62.6594 59.41 63.1218 59.6941C63.1218 59.6941 62.9669 60.9306 63.5376 61.2864C63.5376 61.2864 63.9632 62.4487 64.3617 62.4717C64.5303 62.4874 64.6998 62.4874 64.8684 62.4717C64.8684 62.4717 64.7823 63.1706 65.39 63.2141C65.9925 63.2047 66.5933 63.1422 67.1857 63.0273C67.2733 63.012 67.3571 62.9787 67.4323 62.9295C67.5075 62.8803 67.5725 62.8161 67.6236 62.7405L68.1452 61.9725C68.2274 61.8536 68.2717 61.7108 68.2717 61.5642C68.2717 61.4177 68.2274 61.2748 68.1452 61.1559C68.2822 60.9868 68.3889 60.7934 68.46 60.585C68.4944 60.3431 68.4944 60.0973 68.46 59.8554C68.46 59.8554 69.3628 59.0593 69.385 58.8519C69.4071 58.6445 69.3629 58.4449 68.9643 58.4679C68.9643 58.4679 68.8807 57.8253 68.3764 57.8407C67.8721 57.8561 65.4834 57.8407 65.4834 57.8407L65.9385 57.3799C65.9385 57.3799 67.1267 57.8509 67.2522 57.5386L67.5941 56.8756Z" fill="#FFBE9D"/>
<path d="M64.1648 59.6609C64.2935 59.6414 64.4234 59.632 64.5535 59.6327C64.7995 59.6174 65.1636 59.5943 65.6113 59.5406C66.1385 59.4755 66.6617 59.3789 67.1783 59.2513C67.471 59.177 67.7761 59.09 68.091 58.9953C68.4038 58.87 68.6861 58.6742 68.9175 58.4218L68.9323 58.409H68.9495C69.0665 58.3797 69.1896 58.3923 69.2988 58.4449C69.3575 58.4834 69.4011 58.5424 69.4218 58.6113C69.4385 58.672 69.446 58.7351 69.444 58.7982C69.4475 58.8262 69.4475 58.8546 69.444 58.8826C69.4379 58.9165 69.4253 58.9487 69.4071 58.9774C69.3795 59.0221 69.3491 59.0649 69.316 59.1054C69.2545 59.1822 69.1857 59.2538 69.1192 59.3255C68.9839 59.4663 68.8486 59.5969 68.7109 59.7223C68.2387 60.114 67.7459 60.4781 67.2349 60.8129C66.8172 61.0748 66.3542 61.2488 65.872 61.3249C65.5533 61.3752 65.2285 61.3665 64.9126 61.2993C64.8289 61.2812 64.7467 61.2564 64.6666 61.225C64.6377 61.2172 64.6102 61.2042 64.5855 61.1866C65.0027 61.2977 65.4377 61.316 65.8622 61.2404C66.3294 61.1571 66.7775 60.9835 67.1832 60.7284C67.6482 60.4391 68.118 60.0372 68.6371 59.6302C68.7724 59.5047 68.9077 59.3742 69.0381 59.2359C69.1045 59.1668 69.1684 59.0977 69.2275 59.0234C69.2865 58.9492 69.2841 58.9492 69.3087 58.9134C69.3333 58.8775 69.3283 58.8724 69.3283 58.8698C69.3309 58.8477 69.3309 58.8254 69.3283 58.8033C69.3283 58.6958 69.3111 58.601 69.2447 58.5652C69.1622 58.5294 69.0707 58.5222 68.9839 58.5447L69.0184 58.5294C68.889 58.6555 68.7518 58.7727 68.6076 58.8801C68.4688 58.9956 68.3102 59.0825 68.1402 59.1361C67.8228 59.2385 67.5129 59.323 67.2152 59.3921C66.6939 59.5137 66.1655 59.5992 65.6334 59.6481C65.1808 59.6942 64.8167 59.7018 64.5658 59.7018C64.4403 59.7018 64.3444 59.7018 64.278 59.7018C64.2385 59.6941 64.2004 59.6803 64.1648 59.6609Z" fill="#EB996E"/>
<path d="M68.4576 59.8503C68.4957 59.9761 68.5132 60.1077 68.5092 60.2395C68.5092 60.3009 68.5092 60.37 68.5092 60.4468C68.5092 60.4852 68.5092 60.5236 68.5092 60.5646C68.5057 60.6111 68.4931 60.6564 68.4723 60.6977C68.4366 60.7857 68.3956 60.8712 68.3493 60.9537L68.2755 61.0817L68.2362 61.1457C68.2288 61.1599 68.2206 61.1736 68.2116 61.1867L68.1943 61.202C68.182 61.202 68.1943 61.2199 68.1353 61.202C68.1241 61.1946 68.1158 61.1834 68.1118 61.1703C68.1077 61.1573 68.1082 61.1431 68.1132 61.1303C68.1123 61.1261 68.1123 61.1218 68.1132 61.1175L68.1255 61.0996L68.2239 61.1611C68.063 61.4654 67.8505 61.7369 67.5966 61.9623C67.169 62.3456 66.6342 62.5754 66.0714 62.6177C65.9073 62.6303 65.7424 62.6252 65.5794 62.6023C65.5176 62.5982 65.457 62.5834 65.3998 62.5588C65.3998 62.5332 65.6605 62.5793 66.0738 62.5255C66.6097 62.4559 67.1143 62.2245 67.5252 61.8599C67.7673 61.6408 67.9727 61.3813 68.1328 61.0919L68.2337 61.1534C68.3882 60.7381 68.4642 60.2956 68.4576 59.8503Z" fill="#EB996E"/>
<path d="M65.9925 57.3953C65.9925 57.426 65.7465 57.3313 65.626 57.0343C65.5838 56.9119 65.5769 56.7793 65.6063 56.6529C65.6309 56.5581 65.6654 56.5069 65.6801 56.5121C65.6949 56.5172 65.6604 56.7501 65.7465 56.9882C65.8326 57.2263 66.0171 57.362 65.9925 57.3953Z" fill="#EB996E"/>
<path d="M64.9224 62.4871C64.8642 62.5192 64.7989 62.5351 64.733 62.5332C64.5536 62.5469 64.3738 62.5116 64.2115 62.4308C63.9651 62.3095 63.7712 62.0968 63.6678 61.8343C63.6088 61.6813 63.5787 61.5179 63.5793 61.353C63.5794 61.3199 63.5721 61.2871 63.558 61.2574C63.5439 61.2276 63.5234 61.2016 63.4981 61.1815C63.3664 61.0913 63.2583 60.9685 63.1831 60.8243C63.108 60.68 63.0684 60.5187 63.0676 60.3546C63.0571 60.1521 63.0645 59.949 63.0897 59.7479L63.1168 59.8042C62.9864 59.7176 62.8798 59.5974 62.8074 59.4551C62.735 59.3129 62.6992 59.1536 62.7035 58.9927C62.6961 58.8718 62.7301 58.7521 62.7995 58.6548C62.7828 58.7658 62.7729 58.8778 62.7699 58.9901C62.7757 59.1345 62.8156 59.2752 62.8859 59.3997C62.9563 59.5243 63.055 59.6289 63.1734 59.7044L63.2029 59.7223V59.7581C63.1867 59.9532 63.1867 60.1493 63.2029 60.3444C63.2154 60.5536 63.2892 60.7537 63.4145 60.9178C63.4673 60.9786 63.5267 61.0327 63.5916 61.0791C63.6288 61.11 63.6592 61.1489 63.6809 61.193C63.7025 61.2372 63.7148 61.2856 63.717 61.3351C63.7138 61.4869 63.738 61.638 63.7884 61.7805C63.8774 62.0197 64.0459 62.2176 64.2632 62.3386C64.4686 62.4415 64.6945 62.4924 64.9224 62.4871Z" fill="#EB996E"/>
<g opacity="0.3">
<path d="M58.3888 55.1707C58.101 57.8868 57.6951 59.9604 57.0825 61.8267C57.9423 61.0689 58.5102 60.0134 58.6815 58.8545C58.8439 57.7102 58.5856 56.3201 58.3888 55.1707Z" fill="black"/>
</g>
<g opacity="0.3">
<path d="M75.1463 53.6781C75.05 52.7144 74.8179 51.7708 74.4575 50.8774C74.8437 52.7975 74.8879 54.775 74.5879 56.7117L74.6765 56.5043C75.0783 55.6246 75.2408 54.6471 75.1463 53.6781Z" fill="black"/>
</g>
</svg>
