<svg width="148" height="134" viewBox="0 0 148 134" fill="none" xmlns="http://www.w3.org/2000/svg">
<path d="M137.766 92.9628H89.582V65.0798H137.766V92.9628ZM89.876 92.6688H137.472V65.3738H89.876V92.6688Z" fill="#E0E0E0"/>
<path d="M127.825 79.9475H96.0353V80.8795H127.825V79.9475Z" fill="#F0F0F0"/>
<path d="M130.016 83.4225H96.0353V84.4397H130.016V83.4225Z" fill="#F0F0F0"/>
<path d="M130.016 86.9387H96.0353V87.956H130.016V86.9387Z" fill="#F0F0F0"/>
<path d="M107.146 74.8995H96.0353V77.3192H107.146V74.8995Z" fill="#F0F0F0"/>
<path d="M137.619 65.2269H89.7378V69.6663H137.619V65.2269Z" fill="#E0E0E0"/>
<path d="M133.935 69.0018C133.873 68.943 134.49 68.1992 135.311 67.3407C136.131 66.4822 136.851 65.8325 136.91 65.8884C136.969 65.9442 136.354 66.691 135.534 67.5524C134.714 68.4138 133.994 69.0606 133.935 69.0018Z" fill="white"/>
<path d="M136.916 69.0018C136.857 69.0606 136.14 68.4138 135.317 67.5524C134.493 66.691 133.879 65.9472 133.941 65.8884C134.002 65.8296 134.717 66.4764 135.54 67.3407C136.363 68.2051 136.972 68.943 136.916 69.0018Z" fill="white"/>
<path d="M78.4747 10.0107H30.5938V37.6026H78.4747V10.0107Z" fill="#E6E6E6"/>
<path d="M68.6844 24.7343H36.8942V25.6662H68.6844V24.7343Z" fill="#F0F0F0"/>
<path d="M70.8747 28.2094H36.8942V29.2266H70.8747V28.2094Z" fill="#F0F0F0"/>
<path d="M70.8747 31.7256H36.8942V32.7428H70.8747V31.7256Z" fill="#F0F0F0"/>
<path d="M48.0045 19.6863H36.8942V22.1059H48.0045V19.6863Z" fill="#F0F0F0"/>
<path d="M78.4747 10.0107H30.5938V14.4501H78.4747V10.0107Z" fill="#E0E0E0"/>
<path d="M74.6291 13.7651C74.5674 13.7092 75.1848 12.9625 76.0051 12.104C76.8253 11.2455 77.5456 10.5958 77.6044 10.6546C77.6632 10.7134 77.0487 11.4572 76.2285 12.3157C75.4082 13.1742 74.6879 13.818 74.6291 13.7651Z" fill="white"/>
<path d="M77.6044 13.7651C77.5456 13.8239 76.8283 13.1771 76.0051 12.3157C75.1819 11.4543 74.5674 10.7134 74.6292 10.6546C74.6909 10.5958 75.4053 11.2426 76.2285 12.104C77.0517 12.9654 77.6662 13.7092 77.6044 13.7651Z" fill="white"/>
<path d="M60.3407 61.2668H12.1659V33.3809H60.3407V61.2668ZM12.4599 60.9728H60.0467V33.6749H12.4599V60.9728Z" fill="#E0E0E0"/>
<path d="M50.4036 48.2513H18.6133V49.1833H50.4036V48.2513Z" fill="#F0F0F0"/>
<path d="M52.5939 51.7264H18.6133V52.7437H52.5939V51.7264Z" fill="#F0F0F0"/>
<path d="M52.5939 55.2427H18.6133V56.2599H52.5939V55.2427Z" fill="#F0F0F0"/>
<path d="M29.7236 43.2034H18.6133V45.623H29.7236V43.2034Z" fill="#F0F0F0"/>
<path d="M60.1937 33.5278H12.3129V37.9672H60.1937V33.5278Z" fill="#E0E0E0"/>
<path d="M115.939 67.6553H59.4029V118.27H115.939V67.6553Z" fill="#E6E6E6"/>
<path d="M62.2459 51.7117H17.9577V97.7256H62.2459V51.7117Z" fill="#F0F0F0"/>
<path d="M62.2459 51.7117H17.9577V56.7244H62.2459V51.7117Z" fill="#E0E0E0"/>
<path d="M21.615 54.1666C21.607 54.3484 21.5457 54.5238 21.4389 54.6711C21.332 54.8183 21.1842 54.931 21.0139 54.995C20.8436 55.0591 20.6583 55.0717 20.4808 55.0313C20.3034 54.991 20.1417 54.8994 20.0159 54.768C19.8901 54.6366 19.8056 54.4711 19.7729 54.2921C19.7403 54.1131 19.761 53.9284 19.8323 53.7611C19.9037 53.5937 20.0226 53.451 20.1744 53.3506C20.3261 53.2502 20.504 53.1966 20.686 53.1964C20.9376 53.2026 21.1766 53.3081 21.3506 53.4899C21.5247 53.6717 21.6198 53.915 21.615 54.1666Z" fill="white"/>
<path d="M25.3871 54.1666C25.3796 54.3493 25.3186 54.5257 25.2116 54.6739C25.1046 54.8221 24.9564 54.9356 24.7854 55.0002C24.6144 55.0648 24.4282 55.0777 24.2499 55.0373C24.0717 54.9969 23.9092 54.905 23.7828 54.773C23.6564 54.6409 23.5715 54.4747 23.5389 54.2948C23.5063 54.1149 23.5272 53.9295 23.5992 53.7614C23.6712 53.5934 23.791 53.4503 23.9437 53.3498C24.0964 53.2493 24.2753 53.196 24.4581 53.1964C24.7097 53.2026 24.9486 53.3081 25.1227 53.4899C25.2968 53.6717 25.3918 53.915 25.3871 54.1666Z" fill="white"/>
<path d="M29.1591 54.1666C29.1516 54.3493 29.0905 54.5257 28.9836 54.6739C28.8766 54.8221 28.7284 54.9356 28.5574 55.0002C28.3864 55.0648 28.2002 55.0777 28.0219 55.0373C27.8436 54.9969 27.6812 54.905 27.5547 54.773C27.4283 54.6409 27.3435 54.4747 27.3109 54.2948C27.2782 54.1149 27.2992 53.9295 27.3712 53.7614C27.4432 53.5934 27.5629 53.4503 27.7157 53.3498C27.8684 53.2493 28.0472 53.196 28.23 53.1964C28.4817 53.2026 28.7206 53.3081 28.8947 53.4899C29.0688 53.6717 29.1638 53.915 29.1591 54.1666Z" fill="white"/>
<path d="M131.442 20.0743H74.9055V76.4224H131.442V20.0743Z" fill="#F0F0F0"/>
<path d="M131.442 20.0743H74.9055V26.6746H131.442V20.0743Z" fill="#E0E0E0"/>
<path d="M79.7212 23.3083C79.7108 23.5483 79.6302 23.7799 79.4894 23.9744C79.3485 24.1689 79.1536 24.3178 78.9289 24.4026C78.7041 24.4873 78.4595 24.5041 78.2252 24.451C77.991 24.3979 77.7776 24.2772 77.6114 24.1038C77.4452 23.9304 77.3335 23.712 77.2904 23.4758C77.2472 23.2395 77.2744 22.9958 77.3685 22.7748C77.4626 22.5539 77.6196 22.3654 77.8199 22.2329C78.0202 22.1004 78.2551 22.0296 78.4952 22.0294C78.8272 22.0371 79.1425 22.176 79.3723 22.4157C79.6021 22.6554 79.7275 22.9764 79.7212 23.3083Z" fill="white"/>
<path d="M84.3282 22.444C84.4912 22.621 84.5985 22.842 84.6368 23.0796C84.675 23.3171 84.6425 23.5607 84.5433 23.7799C84.4441 23.9991 84.2826 24.1843 84.0789 24.3123C83.8752 24.4404 83.6383 24.5057 83.3978 24.5001C83.1572 24.4945 82.9236 24.4182 82.7261 24.2808C82.5286 24.1434 82.3759 23.9508 82.2871 23.7272C82.1982 23.5036 82.1771 23.2588 82.2264 23.0233C82.2757 22.7878 82.3932 22.572 82.5642 22.4028C82.8038 22.1748 83.1241 22.0511 83.4547 22.0588C83.7854 22.0665 84.0995 22.205 84.3282 22.444Z" fill="white"/>
<path d="M89.6525 23.3083C89.6422 23.5483 89.5616 23.7799 89.4207 23.9744C89.2798 24.1689 89.0849 24.3178 88.8602 24.4026C88.6355 24.4873 88.3908 24.5041 88.1566 24.451C87.9224 24.3979 87.7089 24.2772 87.5427 24.1038C87.3765 23.9304 87.2649 23.712 87.2217 23.4758C87.1785 23.2395 87.2057 22.9958 87.2998 22.7748C87.394 22.5539 87.551 22.3654 87.7513 22.2329C87.9516 22.1004 88.1864 22.0296 88.4266 22.0294C88.7585 22.0371 89.0739 22.176 89.3036 22.4157C89.5334 22.6554 89.6588 22.9764 89.6525 23.3083Z" fill="white"/>
<path d="M119.229 133.22C119.229 133.261 98.8136 133.297 73.6384 133.297C48.4632 133.297 28.039 133.261 28.039 133.22C28.039 133.179 48.4514 133.144 73.6384 133.144C98.8254 133.144 119.229 133.182 119.229 133.22Z" fill="#263238"/>
<path d="M109.733 17.5459L108.219 18.0869L107.569 16.1083C106.375 12.4597 102.571 10.5223 99.0752 11.7541C95.5796 12.986 93.7186 16.9873 94.9122 20.6359L95.5619 22.6145L94.042 23.1584C93.4624 23.3832 92.9917 23.8227 92.7278 24.3856C92.4639 24.9485 92.427 25.5914 92.6249 26.1807L96.8379 39.055C96.9254 39.3467 97.0706 39.6179 97.2649 39.8524C97.4592 40.0869 97.6987 40.28 97.9691 40.4202C98.2395 40.5603 98.5353 40.6447 98.839 40.6682C99.1427 40.6918 99.448 40.6541 99.7367 40.5573L115.428 34.9449C116.015 34.7204 116.492 34.277 116.759 33.7079C117.026 33.1387 117.062 32.4882 116.859 31.8931L112.643 19.0189C112.554 18.728 112.406 18.4581 112.21 18.2254C112.014 17.9927 111.772 17.8019 111.501 17.6644C111.229 17.5269 110.933 17.4456 110.629 17.4252C110.325 17.4049 110.02 17.4459 109.733 17.5459ZM97.7728 19.6039C97.451 18.6553 97.5088 17.6188 97.934 16.7118C98.3593 15.8048 99.1191 15.0975 100.054 14.7382C100.516 14.5803 101.005 14.5169 101.492 14.552C101.978 14.587 102.453 14.7198 102.888 14.9423C103.322 15.1648 103.707 15.4726 104.02 15.8472C104.333 16.2217 104.567 16.6555 104.708 17.1226L105.355 19.1012L98.4196 21.5826L97.7728 19.6039ZM106.593 31.0288L107.669 34.3157C107.689 34.3816 107.682 34.4526 107.651 34.5139C107.62 34.5752 107.566 34.6222 107.501 34.645L105.993 35.183C105.933 35.1996 105.869 35.1924 105.814 35.1628C105.759 35.1332 105.718 35.0836 105.699 35.0242L104.614 31.752C104.016 31.7194 103.442 31.5049 102.969 31.1371C102.496 30.7693 102.147 30.2658 101.968 29.694C101.713 28.9381 101.759 28.1126 102.098 27.3903C102.438 26.6681 103.043 26.105 103.788 25.8191C104.156 25.6934 104.545 25.6431 104.933 25.6711C105.321 25.6991 105.699 25.8049 106.045 25.9821C106.391 26.1593 106.697 26.4044 106.947 26.7027C107.196 27.001 107.382 27.3464 107.495 27.7183C107.685 28.2991 107.7 28.9225 107.54 29.5121C107.381 30.1017 107.052 30.6318 106.596 31.0376L106.593 31.0288Z" fill="#FF9902"/>
<path d="M108.151 18.0516C108.151 18.0927 105.343 19.1482 101.851 20.4036C98.3579 21.659 95.509 22.6674 95.4943 22.638C95.4796 22.6086 98.302 21.5443 101.798 20.286C105.293 19.0277 108.136 18.0134 108.151 18.0516Z" fill="#263238"/>
<path d="M111.485 18.5925C111.498 18.618 111.509 18.6446 111.517 18.6719C111.541 18.7307 111.567 18.8071 111.603 18.9012C111.679 19.1158 111.785 19.4128 111.917 19.7832L113.046 23.0701C113.517 24.4637 114.078 26.116 114.701 27.9505C114.995 28.8708 115.342 29.8292 115.666 30.8376C115.839 31.3573 115.914 31.9046 115.886 32.4517C115.861 32.7362 115.78 33.013 115.648 33.2661C115.507 33.5183 115.318 33.7409 115.092 33.9217C114.638 34.2533 114.134 34.5103 113.599 34.6831L112.085 35.227L109.218 36.2531L104.364 37.9818L101.086 39.1343L100.204 39.4283L99.969 39.5047C99.9439 39.5159 99.9171 39.5229 99.8896 39.5253C99.8896 39.5253 99.9132 39.5253 99.9631 39.49L100.192 39.3989L101.074 39.0667L104.335 37.8672L109.18 36.1032L112.041 35.0683L113.555 34.5214C114.075 34.3556 114.564 34.1064 115.004 33.7835C115.214 33.6158 115.39 33.4092 115.522 33.1749C115.646 32.9408 115.721 32.6837 115.742 32.4193C115.769 31.8923 115.697 31.3648 115.53 30.8641C115.213 29.8645 114.878 28.8972 114.575 27.977C113.963 26.1395 113.399 24.4813 112.952 23.0878C112.505 21.6942 112.129 20.5741 111.87 19.7862C111.747 19.401 111.653 19.1011 111.576 18.8836L111.506 18.6484C111.497 18.6306 111.49 18.6118 111.485 18.5925Z" fill="#263238"/>
<path d="M103.206 14.5384C103.206 14.5384 103.05 14.4619 102.762 14.3443C102.351 14.1865 101.917 14.0991 101.477 14.0856C100.825 14.0633 100.177 14.1858 99.578 14.4443C98.8498 14.7662 98.2272 15.2869 97.7816 15.9466C97.333 16.6045 97.0923 17.3819 97.0907 18.1781C97.0968 18.8307 97.1958 19.4791 97.3847 20.1038C97.5376 20.6389 97.6964 21.0652 97.8022 21.3621C97.8646 21.5129 97.9157 21.6682 97.9551 21.8266C97.8716 21.6856 97.8017 21.537 97.7463 21.3827C97.6258 21.0887 97.4523 20.6712 97.2818 20.1332C97.0725 19.5019 96.9586 18.843 96.9437 18.1781C96.9359 17.3518 97.1822 16.543 97.6493 15.8614C98.1105 15.1775 98.7585 14.6407 99.5162 14.3149C100.134 14.055 100.803 13.9403 101.471 13.9798C101.921 14.0027 102.362 14.1073 102.774 14.2885C102.884 14.3393 102.99 14.3982 103.091 14.4649C103.133 14.4832 103.172 14.508 103.206 14.5384Z" fill="#263238"/>
<path d="M103.341 26.0426C103.388 26.0142 103.437 25.9896 103.488 25.9691C103.635 25.9027 103.788 25.8486 103.944 25.8074C104.192 25.7343 104.447 25.6908 104.705 25.678C105.056 25.6592 105.408 25.7122 105.737 25.8339C106.49 26.0985 107.181 26.8658 107.522 27.8919C107.685 28.4425 107.685 29.0288 107.522 29.5794C107.341 30.1771 107.015 30.7211 106.575 31.1641L106.593 31.0847C106.984 32.1578 107.41 33.322 107.851 34.5363L107.878 34.6098L107.804 34.6362L107.131 34.8597L105.661 35.3506L105.587 35.3742L105.564 35.3007C105.161 34.0835 104.72 32.9487 104.388 31.8344L104.453 31.8844C103.878 31.8366 103.33 31.6209 102.877 31.264C102.467 30.9483 102.131 30.547 101.892 30.088C101.676 29.681 101.569 29.2255 101.58 28.765C101.594 28.2945 101.711 27.8327 101.924 27.4129C102.137 26.9931 102.44 26.6255 102.812 26.3366C102.965 26.2124 103.137 26.1132 103.321 26.0426C103.155 26.1411 102.994 26.2481 102.838 26.3631C102.43 26.7085 102.117 27.1529 101.93 27.6537C101.769 28.0314 101.694 28.44 101.71 28.8502C101.725 29.2604 101.832 29.6621 102.021 30.0263C102.256 30.4678 102.584 30.853 102.983 31.1553C103.415 31.4945 103.937 31.699 104.485 31.7433H104.535L104.55 31.7874C104.873 32.881 105.317 34.0247 105.726 35.2477L105.629 35.2007L107.099 34.7097L107.769 34.4833L107.722 34.5833C107.284 33.3691 106.86 32.2019 106.472 31.1288V31.0847L106.508 31.0494C106.935 30.6248 107.254 30.1034 107.437 29.5294C107.593 29.0027 107.593 28.4421 107.437 27.9154C107.116 26.9275 106.455 26.1778 105.737 25.9132C105.42 25.7908 105.081 25.7338 104.741 25.7457C104.487 25.7515 104.234 25.786 103.988 25.8486C103.55 25.9573 103.344 26.0573 103.341 26.0426Z" fill="#263238"/>
<path d="M94.2537 110.932L64.886 110.797C63.1901 110.788 61.5671 110.105 60.3737 108.9C59.1803 107.695 58.5139 106.066 58.5209 104.37L58.8326 30.7495C58.836 29.9092 59.0051 29.0779 59.33 28.303C59.6549 27.5282 60.1294 26.8249 60.7262 26.2335C61.3231 25.6421 62.0307 25.1741 62.8085 24.8563C63.5863 24.5386 64.4192 24.3772 65.2594 24.3814L94.6241 24.5167C96.3201 24.5252 97.9433 25.2066 99.1373 26.411C100.331 27.6155 100.998 29.2446 100.992 30.9406L100.681 104.558C100.677 105.399 100.508 106.23 100.183 107.005C99.8584 107.781 99.384 108.484 98.7872 109.076C98.1904 109.668 97.4829 110.137 96.705 110.455C95.9272 110.773 95.0942 110.936 94.2537 110.932Z" fill="#455A64"/>
<path d="M94.58 27.048H88.8882C88.7024 27.0515 88.5192 27.0915 88.349 27.1657C88.1787 27.24 88.0248 27.3471 87.8959 27.4809C87.767 27.6146 87.6658 27.7725 87.5979 27.9454C87.5301 28.1183 87.497 28.3029 87.5005 28.4886V29.5206C87.504 29.7062 87.4708 29.8906 87.403 30.0633C87.3351 30.2361 87.2338 30.3937 87.1049 30.5273C86.976 30.6608 86.822 30.7676 86.6518 30.8416C86.4815 30.9155 86.2984 30.9552 86.1128 30.9582L75.0172 30.9083C74.6419 30.8982 74.2858 30.7397 74.0273 30.4674C73.7688 30.1951 73.6289 29.8313 73.6384 29.4559V28.424C73.6479 28.0491 73.5084 27.6857 73.2505 27.4135C72.9926 27.1413 72.6373 26.9824 72.2625 26.9716H70.2603L65.277 26.9481C64.0917 26.941 62.9519 27.4039 62.1072 28.2354C61.2625 29.0669 60.7816 30.1993 60.77 31.3845L60.476 103.244C60.4733 103.832 60.5864 104.415 60.8089 104.959C61.0315 105.503 61.359 105.999 61.7729 106.416C62.1868 106.834 62.6789 107.166 63.2211 107.394C63.7633 107.621 64.345 107.74 64.933 107.742L94.239 107.877C94.8274 107.88 95.4105 107.767 95.9552 107.544C96.4998 107.322 96.9953 106.994 97.4132 106.58C97.8312 106.166 98.1635 105.673 98.3912 105.131C98.6188 104.588 98.7374 104.006 98.7401 103.417L99.0341 31.558C99.0411 30.3694 98.5759 29.2266 97.7407 28.3809C96.9055 27.5352 95.7686 27.0558 94.58 27.048Z" fill="white"/>
<path d="M90.6375 98.29L68.8462 98.1959C68.6198 98.1959 68.4375 97.949 68.4405 97.6491L68.464 91.9484C68.464 91.6544 68.6492 91.4016 68.8756 91.4016L90.6669 91.5016C90.7923 91.5233 90.9045 91.5925 90.9801 91.695C91.0557 91.7974 91.0889 91.9251 91.0726 92.0513L91.052 97.7461C91.052 98.0489 90.8638 98.293 90.6375 98.29Z" fill="#FF9902"/>
<path d="M73.1927 48.172L65.6311 48.1377L65.6248 49.5254L73.1864 49.5597L73.1927 48.172Z" fill="#FF9902"/>
<path opacity="0.1" d="M73.1927 48.172L65.6311 48.1377L65.6248 49.5254L73.1864 49.5597L73.1927 48.172Z" fill="black"/>
<path d="M95.3591 56.692C95.4185 56.686 95.4768 56.6722 95.5326 56.6509C95.614 56.6191 95.6847 56.5649 95.7367 56.4947C95.7887 56.4245 95.8199 56.3411 95.8266 56.254C95.8266 55.7865 95.8266 55.1044 95.8266 54.2283C95.8266 53.7903 95.8266 53.2993 95.8266 52.7583C95.8266 52.626 95.8266 52.4878 95.8266 52.3497C95.8457 52.2156 95.8166 52.0791 95.7443 51.9645C95.7038 51.9096 95.6511 51.8648 95.5904 51.8337C95.5297 51.8026 95.4626 51.786 95.3944 51.7852H94.9358H90.6875L66.0973 51.694C66.0344 51.693 65.9721 51.7071 65.9158 51.7353C65.8595 51.7634 65.8108 51.8047 65.7739 51.8557C65.7029 51.9707 65.6758 52.1075 65.6975 52.2409C65.6975 52.5349 65.6975 52.8289 65.6975 53.1229C65.6975 53.7109 65.6975 54.2989 65.6975 54.8869C65.6975 55.1809 65.6975 55.4749 65.6975 55.7689C65.6853 55.9058 65.6853 56.0435 65.6975 56.1805C65.7129 56.2392 65.7416 56.2936 65.7814 56.3394C65.8211 56.3853 65.8709 56.4214 65.9268 56.4451C65.9847 56.4681 66.0467 56.4791 66.1091 56.4774H67.6055L74.1353 56.5127L85.1897 56.5803L92.6426 56.6391L94.6682 56.6626H95.1945C95.315 56.6626 95.3738 56.6626 95.3738 56.6626H95.1945H94.6682H92.6426H85.1897L74.1353 56.6274L67.6055 56.6009H66.1091C66.0267 56.6042 65.9446 56.5902 65.868 56.5597C65.7906 56.5267 65.7217 56.4764 65.6667 56.4127C65.6117 56.349 65.5719 56.2736 65.5505 56.1922C65.5335 56.1151 65.5275 56.0359 65.5328 55.957V55.7395C65.5328 55.4455 65.5328 55.1515 65.5328 54.8575C65.5328 54.2695 65.5328 53.6815 65.5328 53.0935C65.5328 52.7995 65.5328 52.5055 65.5328 52.2115C65.5272 52.1332 65.5272 52.0546 65.5328 51.9763C65.5438 51.8898 65.5773 51.8077 65.6299 51.7381C65.6806 51.6672 65.7477 51.6095 65.8255 51.5701C65.9033 51.5307 65.9895 51.5107 66.0767 51.5118L90.6669 51.647L94.9152 51.6764H95.3738C95.4546 51.6765 95.5342 51.696 95.6059 51.7334C95.6775 51.7707 95.7391 51.8248 95.7854 51.891C95.8683 52.0188 95.9018 52.1725 95.8795 52.3232C95.8795 52.4614 95.8795 52.5996 95.8795 52.7319C95.8795 53.2669 95.8795 53.7579 95.8795 54.2019C95.8795 55.0839 95.8589 55.7601 95.853 56.2305C95.8459 56.3209 95.813 56.4074 95.7583 56.4798C95.7036 56.5522 95.6294 56.6075 95.5444 56.6391C95.4887 56.6736 95.4246 56.6919 95.3591 56.692Z" fill="#E0E0E0"/>
<path d="M81.7322 53.1699H67.9025V54.4665H81.7322V53.1699Z" fill="#FF9902"/>
<path opacity="0.2" d="M81.7322 53.1699H67.9025V54.4665H81.7322V53.1699Z" fill="white"/>
<path d="M73.1412 60.8312L65.5796 60.7969L65.5733 62.1845L73.1349 62.2189L73.1412 60.8312Z" fill="#FF9902"/>
<path opacity="0.1" d="M73.1412 60.8312L65.5796 60.7969L65.5733 62.1845L73.1349 62.2189L73.1412 60.8312Z" fill="black"/>
<path d="M95.168 69.3517C95.2274 69.3444 95.2863 69.3336 95.3444 69.3193C95.4266 69.2932 95.5021 69.2498 95.566 69.1919C95.6299 69.1341 95.6807 69.0633 95.7149 68.9842C95.7612 68.8655 95.7793 68.7377 95.7678 68.6108C95.7678 68.4697 95.7678 68.3168 95.7678 68.1463C95.7678 67.8052 95.7678 67.4172 95.7678 66.9703V65.1034C95.7818 64.9682 95.7519 64.8321 95.6825 64.7153C95.61 64.5955 95.496 64.5065 95.3621 64.4654C95.2156 64.4393 95.0665 64.4314 94.9181 64.4419H90.6875L66.1826 64.3507C66.0508 64.351 65.9236 64.3992 65.8246 64.4863C65.7256 64.5733 65.6616 64.6934 65.6446 64.8241C65.6446 65.1034 65.6446 65.4121 65.6446 65.7061C65.6446 66.2941 65.6446 66.8821 65.6446 67.4701C65.6446 67.7641 65.6446 68.0581 65.6446 68.3521C65.6336 68.4895 65.6395 68.6277 65.6622 68.7637C65.6989 68.8829 65.7744 68.9864 65.8768 69.0577C65.9854 69.1266 66.113 69.1595 66.2414 69.1518H66.65H67.4997L74.0059 69.1841L85.0221 69.2517L92.4485 69.3105L94.4683 69.334H92.4485H85.0221L74 69.3223L67.4938 69.2988H66.2149C66.0559 69.3082 65.8981 69.2659 65.7651 69.1782C65.6313 69.0855 65.5337 68.9495 65.4887 68.7931C65.4624 68.6437 65.4545 68.4916 65.4652 68.3403C65.4652 68.0463 65.4652 67.7523 65.4652 67.4583C65.4652 66.8703 65.4652 66.2823 65.4652 65.6943C65.4652 65.4003 65.4652 65.1063 65.4652 64.8123C65.4867 64.6442 65.5686 64.4897 65.6958 64.3777C65.823 64.2656 65.9866 64.2038 66.1561 64.2037L90.661 64.339L94.8917 64.3713C95.0492 64.3616 95.2073 64.3725 95.3621 64.4037C95.5148 64.4536 95.6437 64.5583 95.7237 64.6977C95.7998 64.8271 95.8327 64.9775 95.8178 65.1269C95.8178 65.2651 95.8178 65.4003 95.8178 65.5356C95.8178 66.0677 95.8178 66.5557 95.8178 67.0056C95.8178 67.4554 95.8178 67.8346 95.8178 68.1816C95.8178 68.3491 95.8178 68.505 95.8178 68.649C95.8285 68.7805 95.8073 68.9126 95.756 69.0342C95.7179 69.1153 95.6627 69.1872 95.5942 69.2451C95.5257 69.3029 95.4455 69.3453 95.3591 69.3693C95.2949 69.3746 95.2302 69.3687 95.168 69.3517Z" fill="#E0E0E0"/>
<path d="M73.0842 74.0403L65.5226 74.006L65.5163 75.3937L73.0779 75.428L73.0842 74.0403Z" fill="#FF9902"/>
<path opacity="0.1" d="M73.0842 74.0403L65.5226 74.006L65.5163 75.3937L73.0779 75.428L73.0842 74.0403Z" fill="black"/>
<path d="M95.1092 82.5552C95.1686 82.5482 95.2276 82.5374 95.2856 82.5228C95.3674 82.4969 95.4427 82.4538 95.5065 82.3965C95.5704 82.3393 95.6214 82.2691 95.6561 82.1906C95.7022 82.0719 95.7203 81.9441 95.709 81.8172C95.709 81.6732 95.709 81.5232 95.709 81.3498C95.709 81.0117 95.709 80.6207 95.709 80.1738V78.3069C95.723 78.1717 95.6931 78.0356 95.6237 77.9188C95.5495 77.8012 95.4359 77.7137 95.3033 77.6718C95.1569 77.6447 95.0078 77.6358 94.8593 77.6454H90.6287L66.1238 77.5542C65.992 77.5546 65.8647 77.6027 65.7658 77.6898C65.6668 77.7768 65.6028 77.8969 65.5857 78.0276C65.5857 78.3216 65.5857 78.6156 65.5857 78.9096C65.5857 79.4976 65.5857 80.0856 65.5857 80.6736C65.5857 80.9676 65.5857 81.2616 65.5857 81.5556C65.5748 81.692 65.5807 81.8293 65.6034 81.9642C65.6386 82.0842 65.7145 82.1882 65.818 82.2582C65.9259 82.3287 66.054 82.3618 66.1826 82.3523H67.4615L73.9677 82.3876L84.9839 82.4552L92.4103 82.514L94.4301 82.5375H92.4103H84.9839L73.9677 82.5052L67.4615 82.4787H66.1826C66.0234 82.4895 65.8652 82.4471 65.7327 82.3582C65.599 82.2655 65.5013 82.1295 65.4564 81.9731C65.43 81.8237 65.4221 81.6716 65.4329 81.5203C65.4329 81.2263 65.4329 80.9323 65.4329 80.6383C65.4329 80.0503 65.4329 79.4623 65.4329 78.8743C65.4329 78.5803 65.4329 78.2863 65.4329 77.9776C65.4536 77.8097 65.535 77.6552 65.6617 77.5432C65.7884 77.4311 65.9517 77.3692 66.1208 77.369L90.6257 77.5043L94.8564 77.5366C95.0139 77.5269 95.1721 77.5378 95.3268 77.5689C95.4795 77.6188 95.6084 77.7236 95.6884 77.8629C95.7645 77.9924 95.7974 78.1427 95.7825 78.2922C95.7825 78.4304 95.7825 78.5685 95.7825 78.7008C95.7825 79.233 95.7825 79.721 95.7825 80.1708C95.7825 80.6207 95.7825 80.9999 95.7825 81.3468C95.7825 81.5144 95.7825 81.6702 95.7825 81.8143C95.7938 81.9458 95.7726 82.0781 95.7207 82.1994C95.6826 82.2806 95.6274 82.3525 95.5589 82.4103C95.4904 82.4682 95.4102 82.5106 95.3238 82.5346C95.2549 82.5582 95.1814 82.5652 95.1092 82.5552Z" fill="#E0E0E0"/>
<path d="M81.437 66.1961L67.6074 66.1333L67.6015 67.4298L81.4311 67.4926L81.437 66.1961Z" fill="#FF9902"/>
<path opacity="0.2" d="M81.437 66.1961L67.6074 66.1333L67.6015 67.4298L81.4311 67.4926L81.437 66.1961Z" fill="white"/>
<path d="M68.858 80.1562C68.8493 80.2744 68.8061 80.3876 68.7337 80.4815C68.6614 80.5754 68.563 80.646 68.4509 80.6846C68.3387 80.7232 68.2178 80.7279 68.1029 80.6984C67.9881 80.6688 67.8845 80.6062 67.8049 80.5183C67.7253 80.4303 67.6733 80.321 67.6553 80.2038C67.6373 80.0866 67.6541 79.9667 67.7037 79.8589C67.7532 79.7512 67.8332 79.6604 67.9339 79.5977C68.0346 79.535 68.1514 79.5033 68.27 79.5064C68.4338 79.5156 68.5874 79.5889 68.6974 79.7105C68.8075 79.8322 68.8652 79.9923 68.858 80.1562Z" fill="#FF9902"/>
<path d="M70.7307 80.165C70.7365 80.2479 70.7252 80.3311 70.6975 80.4094C70.6697 80.4877 70.6262 80.5595 70.5695 80.6203C70.5128 80.681 70.4443 80.7295 70.3681 80.7626C70.2919 80.7957 70.2097 80.8128 70.1266 80.8128C70.0435 80.8128 69.9613 80.7957 69.8851 80.7626C69.8089 80.7295 69.7403 80.681 69.6837 80.6203C69.627 80.5595 69.5834 80.4877 69.5557 80.4094C69.5279 80.3311 69.5166 80.2479 69.5224 80.165C69.5166 80.0821 69.5279 79.999 69.5557 79.9206C69.5834 79.8423 69.627 79.7705 69.6837 79.7098C69.7403 79.649 69.8089 79.6006 69.8851 79.5674C69.9613 79.5343 70.0435 79.5172 70.1266 79.5172C70.2097 79.5172 70.2919 79.5343 70.3681 79.5674C70.4443 79.6006 70.5128 79.649 70.5695 79.7098C70.6262 79.7705 70.6697 79.8423 70.6975 79.9206C70.7252 79.999 70.7365 80.0821 70.7307 80.165Z" fill="#FF9902"/>
<path d="M72.6064 80.1738C72.5978 80.292 72.5546 80.4051 72.4822 80.4991C72.4098 80.593 72.3115 80.6636 72.1994 80.7022C72.0872 80.7407 71.9662 80.7455 71.8514 80.716C71.7366 80.6864 71.6329 80.6238 71.5534 80.5358C71.4738 80.4479 71.4218 80.3386 71.4038 80.2214C71.3858 80.1042 71.4026 79.9842 71.4521 79.8765C71.5017 79.7688 71.5817 79.6779 71.6824 79.6153C71.7831 79.5526 71.8999 79.5209 72.0184 79.524C72.182 79.5339 72.3351 79.6074 72.445 79.7289C72.5549 79.8504 72.6129 80.0101 72.6064 80.1738Z" fill="#FF9902"/>
<path d="M74.4793 80.1827C74.4706 80.3009 74.4274 80.414 74.355 80.508C74.2826 80.6019 74.1843 80.6725 74.0722 80.7111C73.96 80.7496 73.839 80.7544 73.7242 80.7249C73.6094 80.6953 73.5057 80.6327 73.4262 80.5447C73.3466 80.4568 73.2946 80.3475 73.2766 80.2303C73.2586 80.1131 73.2754 79.9932 73.3249 79.8854C73.3745 79.7777 73.4545 79.6868 73.5552 79.6242C73.6559 79.5615 73.7727 79.5298 73.8913 79.5329C74.0548 79.5428 74.2079 79.6164 74.3178 79.7378C74.4277 79.8593 74.4857 80.019 74.4793 80.1827Z" fill="#FF9902"/>
<path d="M76.352 80.1885C76.3439 80.307 76.3012 80.4204 76.2291 80.5147C76.1571 80.6091 76.0589 80.6802 75.9467 80.7192C75.8346 80.7582 75.7135 80.7634 75.5985 80.7341C75.4834 80.7048 75.3795 80.6424 75.2997 80.5545C75.2198 80.4667 75.1675 80.3573 75.1493 80.24C75.1311 80.1227 75.1478 80.0027 75.1973 79.8947C75.2467 79.7868 75.3268 79.6958 75.4276 79.6331C75.5284 79.5703 75.6453 79.5385 75.764 79.5417C75.927 79.5516 76.0797 79.6247 76.1895 79.7456C76.2994 79.8664 76.3577 80.0253 76.352 80.1885Z" fill="#FF9902"/>
<path d="M78.2278 80.1973C78.2197 80.3152 78.1774 80.4281 78.1061 80.5222C78.0347 80.6163 77.9374 80.6874 77.8261 80.7269C77.7148 80.7664 77.5944 80.7725 77.4797 80.7445C77.365 80.7164 77.2609 80.6555 77.1804 80.5691C77.0999 80.4827 77.0464 80.3746 77.0265 80.2582C77.0066 80.1418 77.0212 80.0221 77.0685 79.9139C77.1157 79.8056 77.1936 79.7136 77.2925 79.649C77.3914 79.5845 77.507 79.5502 77.6251 79.5505C77.7907 79.5567 77.9471 79.6282 78.06 79.7494C78.173 79.8707 78.2333 80.0317 78.2278 80.1973Z" fill="#FF9902"/>
<path d="M80.1006 80.2062C80.1063 80.289 80.095 80.3722 80.0673 80.4506C80.0395 80.5289 79.996 80.6006 79.9393 80.6614C79.8826 80.7222 79.8141 80.7706 79.7379 80.8037C79.6617 80.8369 79.5795 80.854 79.4964 80.854C79.4133 80.854 79.3311 80.8369 79.2549 80.8037C79.1787 80.7706 79.1101 80.7222 79.0535 80.6614C78.9968 80.6006 78.9532 80.5289 78.9255 80.4506C78.8978 80.3722 78.8864 80.289 78.8922 80.2062C78.8864 80.1233 78.8978 80.0401 78.9255 79.9618C78.9532 79.8834 78.9968 79.8117 79.0535 79.7509C79.1101 79.6901 79.1787 79.6417 79.2549 79.6086C79.3311 79.5754 79.4133 79.5583 79.4964 79.5583C79.5795 79.5583 79.6617 79.5754 79.7379 79.6086C79.8141 79.6417 79.8826 79.6901 79.9393 79.7509C79.996 79.8117 80.0395 79.8834 80.0673 79.9618C80.095 80.0401 80.1063 80.1233 80.1006 80.2062Z" fill="#FF9902"/>
<path d="M81.9733 80.2149C81.9653 80.3327 81.923 80.4456 81.8516 80.5397C81.7802 80.6338 81.6829 80.705 81.5716 80.7445C81.4603 80.784 81.3399 80.7901 81.2252 80.7621C81.1105 80.734 81.0065 80.673 80.926 80.5866C80.8455 80.5002 80.792 80.3922 80.7721 80.2758C80.7522 80.1594 80.7668 80.0397 80.814 79.9314C80.8613 79.8232 80.9391 79.7311 81.038 79.6666C81.1369 79.602 81.2525 79.5678 81.3706 79.5681C81.5362 79.5742 81.6926 79.6458 81.8056 79.767C81.9186 79.8882 81.9789 80.0493 81.9733 80.2149Z" fill="#FF9902"/>
<path d="M83.8461 80.2238C83.838 80.3422 83.7952 80.4557 83.7232 80.55C83.6511 80.6444 83.553 80.7154 83.4408 80.7544C83.3287 80.7934 83.2076 80.7986 83.0925 80.7694C82.9775 80.7401 82.8736 80.6777 82.7937 80.5898C82.7139 80.502 82.6616 80.3926 82.6434 80.2753C82.6252 80.158 82.6419 80.0379 82.6913 79.93C82.7408 79.8221 82.8209 79.7311 82.9217 79.6683C83.0224 79.6056 83.1394 79.5738 83.2581 79.577C83.4211 79.5869 83.5738 79.66 83.6836 79.7808C83.7935 79.9017 83.8518 80.0606 83.8461 80.2238Z" fill="#FF9902"/>
<g opacity="0.2">
<path d="M68.858 80.1562C68.8493 80.2744 68.8061 80.3876 68.7337 80.4815C68.6614 80.5754 68.563 80.646 68.4509 80.6846C68.3387 80.7232 68.2178 80.7279 68.1029 80.6984C67.9881 80.6688 67.8845 80.6062 67.8049 80.5183C67.7253 80.4303 67.6733 80.321 67.6553 80.2038C67.6373 80.0866 67.6541 79.9667 67.7037 79.8589C67.7532 79.7512 67.8332 79.6604 67.9339 79.5977C68.0346 79.535 68.1514 79.5033 68.27 79.5064C68.4338 79.5156 68.5874 79.5889 68.6974 79.7105C68.8075 79.8322 68.8652 79.9923 68.858 80.1562Z" fill="white"/>
<path d="M70.7307 80.165C70.7365 80.2479 70.7252 80.3311 70.6975 80.4094C70.6697 80.4877 70.6262 80.5595 70.5695 80.6203C70.5128 80.681 70.4443 80.7295 70.3681 80.7626C70.2919 80.7957 70.2097 80.8128 70.1266 80.8128C70.0435 80.8128 69.9613 80.7957 69.8851 80.7626C69.8089 80.7295 69.7403 80.681 69.6837 80.6203C69.627 80.5595 69.5834 80.4877 69.5557 80.4094C69.5279 80.3311 69.5166 80.2479 69.5224 80.165C69.5166 80.0821 69.5279 79.999 69.5557 79.9206C69.5834 79.8423 69.627 79.7705 69.6837 79.7098C69.7403 79.649 69.8089 79.6006 69.8851 79.5674C69.9613 79.5343 70.0435 79.5172 70.1266 79.5172C70.2097 79.5172 70.2919 79.5343 70.3681 79.5674C70.4443 79.6006 70.5128 79.649 70.5695 79.7098C70.6262 79.7705 70.6697 79.8423 70.6975 79.9206C70.7252 79.999 70.7365 80.0821 70.7307 80.165Z" fill="white"/>
<path d="M72.6064 80.1738C72.5978 80.292 72.5546 80.4051 72.4822 80.4991C72.4098 80.593 72.3115 80.6636 72.1994 80.7022C72.0872 80.7407 71.9662 80.7455 71.8514 80.716C71.7366 80.6864 71.6329 80.6238 71.5534 80.5358C71.4738 80.4479 71.4218 80.3386 71.4038 80.2214C71.3858 80.1042 71.4026 79.9842 71.4521 79.8765C71.5017 79.7688 71.5817 79.6779 71.6824 79.6153C71.7831 79.5526 71.8999 79.5209 72.0184 79.524C72.182 79.5339 72.3351 79.6074 72.445 79.7289C72.5549 79.8504 72.6129 80.0101 72.6064 80.1738Z" fill="white"/>
<path d="M74.4793 80.1827C74.4706 80.3009 74.4274 80.414 74.355 80.508C74.2826 80.6019 74.1843 80.6725 74.0722 80.7111C73.96 80.7496 73.839 80.7544 73.7242 80.7249C73.6094 80.6953 73.5057 80.6327 73.4262 80.5447C73.3466 80.4568 73.2946 80.3475 73.2766 80.2303C73.2586 80.1131 73.2754 79.9932 73.3249 79.8854C73.3745 79.7777 73.4545 79.6868 73.5552 79.6242C73.6559 79.5615 73.7727 79.5298 73.8913 79.5329C74.0548 79.5428 74.2079 79.6164 74.3178 79.7378C74.4277 79.8593 74.4857 80.019 74.4793 80.1827Z" fill="white"/>
<path d="M76.352 80.1885C76.3439 80.307 76.3012 80.4204 76.2291 80.5147C76.1571 80.6091 76.0589 80.6802 75.9467 80.7192C75.8346 80.7582 75.7135 80.7634 75.5985 80.7341C75.4834 80.7048 75.3795 80.6424 75.2997 80.5545C75.2198 80.4667 75.1675 80.3573 75.1493 80.24C75.1311 80.1227 75.1478 80.0027 75.1973 79.8947C75.2467 79.7868 75.3268 79.6958 75.4276 79.6331C75.5284 79.5703 75.6453 79.5385 75.764 79.5417C75.927 79.5516 76.0797 79.6247 76.1895 79.7456C76.2994 79.8664 76.3577 80.0253 76.352 80.1885Z" fill="white"/>
<path d="M78.2278 80.1973C78.2197 80.3152 78.1774 80.4281 78.1061 80.5222C78.0347 80.6163 77.9374 80.6874 77.8261 80.7269C77.7148 80.7664 77.5944 80.7725 77.4797 80.7445C77.365 80.7164 77.2609 80.6555 77.1804 80.5691C77.0999 80.4827 77.0464 80.3746 77.0265 80.2582C77.0066 80.1418 77.0212 80.0221 77.0685 79.9139C77.1157 79.8056 77.1936 79.7136 77.2925 79.649C77.3914 79.5845 77.507 79.5502 77.6251 79.5505C77.7907 79.5567 77.9471 79.6282 78.06 79.7494C78.173 79.8707 78.2333 80.0317 78.2278 80.1973Z" fill="white"/>
<path d="M80.1006 80.2062C80.1063 80.289 80.095 80.3722 80.0673 80.4506C80.0395 80.5289 79.996 80.6006 79.9393 80.6614C79.8826 80.7222 79.8141 80.7706 79.7379 80.8037C79.6617 80.8369 79.5795 80.854 79.4964 80.854C79.4133 80.854 79.3311 80.8369 79.2549 80.8037C79.1787 80.7706 79.1101 80.7222 79.0535 80.6614C78.9968 80.6006 78.9532 80.5289 78.9255 80.4506C78.8978 80.3722 78.8864 80.289 78.8922 80.2062C78.8864 80.1233 78.8978 80.0401 78.9255 79.9618C78.9532 79.8834 78.9968 79.8117 79.0535 79.7509C79.1101 79.6901 79.1787 79.6417 79.2549 79.6086C79.3311 79.5754 79.4133 79.5583 79.4964 79.5583C79.5795 79.5583 79.6617 79.5754 79.7379 79.6086C79.8141 79.6417 79.8826 79.6901 79.9393 79.7509C79.996 79.8117 80.0395 79.8834 80.0673 79.9618C80.095 80.0401 80.1063 80.1233 80.1006 80.2062Z" fill="white"/>
<path d="M81.9733 80.215C81.9653 80.3329 81.923 80.4458 81.8516 80.5399C81.7802 80.634 81.6829 80.7051 81.5716 80.7446C81.4603 80.7841 81.3399 80.7902 81.2252 80.7622C81.1105 80.7341 81.0065 80.6732 80.926 80.5868C80.8455 80.5004 80.792 80.3923 80.7721 80.2759C80.7522 80.1595 80.7668 80.0398 80.814 79.9316C80.8613 79.8233 80.9391 79.7313 81.038 79.6667C81.1369 79.6022 81.2525 79.5679 81.3706 79.5682C81.5362 79.5744 81.6926 79.6459 81.8056 79.7671C81.9186 79.8884 81.9789 80.0494 81.9733 80.215Z" fill="white"/>
<path d="M83.8461 80.2238C83.838 80.3422 83.7952 80.4557 83.7232 80.55C83.6511 80.6444 83.553 80.7154 83.4408 80.7544C83.3287 80.7934 83.2076 80.7986 83.0925 80.7694C82.9775 80.7401 82.8736 80.6777 82.7937 80.5898C82.7139 80.502 82.6616 80.3926 82.6434 80.2753C82.6252 80.158 82.6419 80.0379 82.6913 79.93C82.7408 79.8221 82.8209 79.7311 82.9217 79.6683C83.0224 79.6056 83.1394 79.5738 83.2581 79.577C83.4211 79.5869 83.5738 79.66 83.6836 79.7808C83.7935 79.9017 83.8518 80.0606 83.8461 80.2238Z" fill="white"/>
</g>
<path d="M81.1854 37.7819C81.3896 37.692 81.5629 37.544 81.6836 37.3563C81.8044 37.1686 81.8673 36.9496 81.8645 36.7265C81.8721 36.5814 81.8501 36.4363 81.7998 36.3C81.7496 36.1637 81.6721 36.0391 81.5721 35.9338C81.4721 35.8284 81.3517 35.7445 81.2183 35.6871C81.0848 35.6298 80.9411 35.6002 80.7958 35.6002C80.6506 35.6002 80.5068 35.6298 80.3734 35.6871C80.2399 35.7445 80.1195 35.8284 80.0195 35.9338C79.9195 36.0391 79.8421 36.1637 79.7918 36.3C79.7415 36.4363 79.7195 36.5814 79.7271 36.7265C79.7227 36.9518 79.785 37.1735 79.9064 37.3634C80.0278 37.5534 80.2028 37.7031 80.4092 37.7937C78.7628 38.0406 78.8363 39.8282 78.8363 39.8282L82.7289 39.8458C82.7289 39.8458 82.82 38.0259 81.1854 37.7819Z" fill="#FF9902"/>
<path opacity="0.1" d="M81.1854 37.7819C81.3896 37.692 81.5629 37.544 81.6836 37.3563C81.8044 37.1686 81.8673 36.9496 81.8645 36.7265C81.8721 36.5814 81.8501 36.4363 81.7998 36.3C81.7496 36.1637 81.6721 36.0391 81.5721 35.9338C81.4721 35.8284 81.3517 35.7445 81.2183 35.6871C81.0848 35.6298 80.9411 35.6002 80.7958 35.6002C80.6506 35.6002 80.5068 35.6298 80.3734 35.6871C80.2399 35.7445 80.1195 35.8284 80.0195 35.9338C79.9195 36.0391 79.8421 36.1637 79.7918 36.3C79.7415 36.4363 79.7195 36.5814 79.7271 36.7265C79.7227 36.9518 79.785 37.1735 79.9064 37.3634C80.0278 37.5534 80.2028 37.7031 80.4092 37.7937C78.7628 38.0406 78.8363 39.8282 78.8363 39.8282L82.7289 39.8458C82.7289 39.8458 82.82 38.0259 81.1854 37.7819Z" fill="black"/>
<path d="M87.5107 40.9987L73.637 40.9358L73.6294 42.5939L87.5032 42.6569L87.5107 40.9987Z" fill="#FF9902"/>
<path opacity="0.2" d="M87.5107 40.9987L73.637 40.9358L73.6294 42.5939L87.5032 42.6569L87.5107 40.9987Z" fill="white"/>
<path d="M36.5062 49.5919H36.368L35.9682 49.6213C35.7518 49.6343 35.5366 49.6628 35.3243 49.7066C35.1868 49.7259 35.0504 49.7524 34.9156 49.786L34.4599 49.9124C33.6843 50.1504 32.9525 50.5128 32.2932 50.9855C31.422 51.6178 30.6946 52.4274 30.1587 53.361C29.8438 53.8992 29.5931 54.4725 29.412 55.0692C29.2216 55.7176 29.112 56.3871 29.0856 57.0625C29.0681 57.4172 29.074 57.7728 29.1033 58.1268C29.1033 58.3061 29.1532 58.4854 29.1768 58.6677C29.1965 58.8515 29.2309 59.0333 29.2797 59.2116C29.544 60.3914 30.0804 61.493 30.8461 62.4287C31.6118 63.3643 32.5855 64.1081 33.6897 64.6006C34.4888 64.9455 35.3453 65.1379 36.2151 65.1681C37.1135 65.2175 38.0128 65.0886 38.8611 64.7888L39.1198 64.6918H39.1551L39.1845 64.7094L42.8919 66.591L42.7831 66.6851C42.3862 65.4562 42.004 64.2655 41.6335 63.1218V63.0777L41.6659 63.0454C42.5652 62.1395 43.2329 61.0302 43.6122 59.8114C43.9557 58.6971 44.056 57.5221 43.9062 56.3657C43.7729 55.338 43.4425 54.3457 42.933 53.4433C42.4939 52.6682 41.9274 51.9724 41.2572 51.3853C40.7043 50.9206 40.0924 50.5311 39.4374 50.227C38.9417 50.0132 38.4255 49.8507 37.8968 49.7419L37.3088 49.6449L36.8825 49.6125L36.6238 49.5949H36.5356C36.5649 49.5916 36.5945 49.5916 36.6238 49.5949H36.8854L37.3117 49.6125L37.8997 49.6978C38.435 49.7986 38.9583 49.9553 39.4609 50.1652C40.1272 50.4658 40.7501 50.8544 41.3131 51.3207C41.9955 51.9052 42.5741 52.601 43.0242 53.3787C43.5481 54.2908 43.8886 55.2965 44.0267 56.3392C44.1889 57.5135 44.0957 58.7089 43.7533 59.8437C43.3715 61.0879 42.6935 62.2208 41.7776 63.1453L41.7952 63.0689C42.1657 64.2126 42.5508 65.4033 42.9507 66.6292L43.0065 66.8086L42.8389 66.7233L39.1316 64.8447H39.1963L38.9317 64.9417C38.067 65.2459 37.1511 65.3778 36.2357 65.3298C35.3471 65.2959 34.4727 65.0965 33.6573 64.7418C32.102 64.0756 30.8079 62.9179 29.9735 61.446C29.5895 60.7662 29.3091 60.033 29.1415 59.2704C29.0956 59.0875 29.0612 58.902 29.0386 58.7148C29.0151 58.5295 28.9768 58.3473 28.968 58.165C28.8884 57.1189 28.999 56.067 29.2944 55.0603C29.48 54.4555 29.7377 53.8751 30.0617 53.3316C30.6103 52.3895 31.3529 51.5748 32.2402 50.9414C32.9104 50.4675 33.6545 50.1078 34.4423 49.8771L34.9039 49.7595C35.0397 49.728 35.1771 49.7035 35.3155 49.686C35.53 49.6463 35.7472 49.6227 35.9652 49.6155L36.368 49.6008C36.4138 49.5946 36.46 49.5916 36.5062 49.5919Z" fill="#FF9902"/>
<path d="M38.182 56.448H37.6381L36.4621 54.7957V53.7108C36.4621 53.7108 35.6212 53.6579 35.7212 55.0779C35.8212 56.4979 35.7212 56.1363 35.7212 56.1363C35.7212 56.1363 33.9366 56.1363 33.7896 56.298C33.6426 56.4597 33.6338 58.1826 33.6132 59.1439C33.602 59.3757 33.6685 59.6046 33.8022 59.7942C33.9359 59.9838 34.1291 60.1233 34.3512 60.1906C34.4134 60.2078 34.4777 60.2167 34.5423 60.217C34.9891 60.217 37.2618 59.8554 37.2618 59.8554H38.1996L38.182 56.448Z" fill="#FF9902"/>
<path d="M39.7372 56.157L39.4021 59.8731H38.473V56.2334L39.7372 56.157Z" fill="#FF9902"/>
<path d="M50.8181 131.812V129.298L46.311 129.266L46.2728 133.067L46.5521 133.088C47.7957 133.167 52.879 133.285 53.714 133.026C54.643 132.738 50.8181 131.812 50.8181 131.812Z" fill="#FF9902"/>
<path d="M53.8198 132.791C53.8198 132.832 52.1323 132.867 50.0537 132.867C47.9751 132.867 46.2875 132.832 46.2875 132.791C46.2875 132.75 47.9751 132.715 50.0537 132.715C52.1323 132.715 53.8198 132.75 53.8198 132.791Z" fill="#263238"/>
<path d="M50.8975 132.327C50.8593 132.306 50.8975 132.174 50.9886 132.033C51.0798 131.891 51.2032 131.833 51.2326 131.862C51.262 131.891 51.2003 132.003 51.1121 132.124C51.0239 132.244 50.9357 132.347 50.8975 132.327Z" fill="#263238"/>
<path d="M51.1856 132.491C51.1444 132.491 51.165 132.326 51.2532 132.171C51.3414 132.015 51.459 131.921 51.4914 131.944C51.5237 131.968 51.4708 132.1 51.3884 132.238C51.3061 132.376 51.2238 132.506 51.1856 132.491Z" fill="#263238"/>
<path d="M47.6458 132.779C47.6282 132.779 47.5605 132.726 47.4635 132.615C47.3451 132.471 47.2132 132.339 47.0696 132.221C46.9283 132.108 46.7601 132.034 46.5815 132.006C46.4433 131.988 46.3551 132.006 46.3463 131.988C46.3375 131.971 46.4228 131.909 46.5845 131.897C46.7979 131.893 47.006 131.964 47.1725 132.097C47.3284 132.224 47.4599 132.379 47.5605 132.553C47.6282 132.682 47.6634 132.768 47.6458 132.779Z" fill="#263238"/>
<path d="M50.9122 131.853C50.9328 131.888 50.8563 131.977 50.727 132.024C50.5976 132.071 50.483 132.053 50.4771 132.024C50.4712 131.994 50.5623 131.933 50.6741 131.891C50.7858 131.85 50.8887 131.818 50.9122 131.853Z" fill="#263238"/>
<path d="M50.8416 131.609C50.8416 131.653 50.724 131.689 50.5711 131.692C50.4183 131.694 50.2977 131.659 50.3007 131.618C50.3036 131.577 50.4241 131.539 50.5711 131.536C50.7181 131.533 50.8357 131.568 50.8416 131.609Z" fill="#263238"/>
<path d="M61.9166 131.812V129.298L57.4096 129.266L57.3713 133.029L57.6506 133.05C58.8943 133.129 63.9805 133.285 64.8125 133.026C65.7415 132.738 61.9166 131.812 61.9166 131.812Z" fill="#FF9902"/>
<path d="M64.9183 132.797C64.9183 132.838 63.2337 132.873 61.1522 132.873C59.0707 132.873 57.389 132.838 57.389 132.797C57.389 132.756 59.0736 132.72 61.1522 132.72C63.2308 132.72 64.9183 132.756 64.9183 132.797Z" fill="#263238"/>
<path d="M61.996 132.327C61.9607 132.306 61.996 132.174 62.0871 132.033C62.1782 131.891 62.3017 131.833 62.3311 131.862C62.3605 131.891 62.2988 132.003 62.2106 132.124C62.1224 132.244 62.0342 132.347 61.996 132.327Z" fill="#263238"/>
<path d="M62.2841 132.491C62.2459 132.491 62.2635 132.326 62.3547 132.171C62.4458 132.015 62.5605 131.921 62.5928 131.944C62.6251 131.968 62.5693 132.1 62.487 132.238C62.4046 132.376 62.3253 132.506 62.2841 132.491Z" fill="#263238"/>
<path d="M58.7443 132.779C58.7267 132.779 58.662 132.726 58.562 132.615C58.4436 132.471 58.3117 132.339 58.1681 132.221C58.0269 132.108 57.8586 132.034 57.68 132.006C57.5448 131.988 57.4537 132.006 57.4448 131.988C57.436 131.971 57.5213 131.909 57.683 131.897C57.8964 131.893 58.1045 131.964 58.271 132.097C58.4277 132.223 58.5594 132.378 58.6591 132.553C58.7267 132.682 58.762 132.768 58.7443 132.779Z" fill="#263238"/>
<path d="M62.0106 131.853C62.0312 131.888 61.9548 131.977 61.8254 132.024C61.6961 132.071 61.5814 132.053 61.5755 132.024C61.5696 131.994 61.6608 131.933 61.7725 131.891C61.8842 131.85 61.9871 131.818 62.0106 131.853Z" fill="#263238"/>
<path d="M61.946 131.609C61.946 131.653 61.8284 131.689 61.6755 131.692C61.5226 131.694 61.405 131.659 61.408 131.618C61.4109 131.577 61.5285 131.539 61.6755 131.536C61.8225 131.533 61.946 131.568 61.946 131.609Z" fill="#263238"/>
<path d="M78.5217 57.1654C78.4041 57.0448 78.113 57.1036 78.113 57.1036C78.1422 56.9344 78.1422 56.7614 78.113 56.5921C78.0601 56.4275 77.6897 56.4598 77.6897 56.4598C77.6726 56.3212 77.6726 56.1809 77.6897 56.0423C77.6926 56.0116 77.686 55.9807 77.6708 55.9539C77.6555 55.927 77.6324 55.9055 77.6044 55.8924C77.4292 55.8209 77.2409 55.7869 77.0517 55.7924C76.8253 55.6307 77.7426 54.3459 78.0837 53.9343C78.4247 53.5227 78.363 53.2023 78.0601 53.2023C77.8514 53.2023 76.7812 54.4371 76.452 54.8516C76.1227 55.2662 75.2495 56.4186 75.2201 55.4984C75.1907 54.5782 74.8203 53.8843 74.588 53.7667C74.3557 53.6491 74.1088 53.9255 74.2352 54.1813C74.3463 54.4719 74.4156 54.7768 74.441 55.0868C74.4729 55.3338 74.462 55.5844 74.4087 55.8277C74.3112 56.2803 74.1785 56.7246 74.0117 57.1566H73.9882C73.9882 57.1566 67.5732 63.31 67.1086 63.748C66.6941 64.142 58.3563 63.2806 56.6834 63.1042C56.1149 63.021 55.5409 62.9817 54.9664 62.9866C54.2402 63.0189 54.1109 63.1218 53.3877 63.1306C51.5612 63.1509 49.7389 63.3111 47.9369 63.6099C47.1209 63.7486 46.3588 64.1088 45.7335 64.6511C45.1082 65.1934 44.6439 65.897 44.3913 66.6851C42.7066 71.9477 38.8905 84.4045 38.2173 91.4017C37.7085 92.3243 37.2492 93.2733 36.8413 94.2447C36.368 95.5324 36.4827 95.5765 36.6414 95.6059C37.0707 95.6853 37.5587 93.3744 37.741 93.933C37.9233 94.4916 36.8149 96.6878 37.2647 96.7525C37.8527 96.8348 38.3202 94.4005 38.376 94.2064C38.4319 94.0124 38.7229 94.0742 38.67 94.2564C38.5848 94.5152 37.7586 97.2582 38.3349 97.3464C38.6524 97.3934 38.6877 96.8142 38.6877 96.8142C38.6877 96.8142 39.2757 94.1888 39.5432 94.2417C39.8107 94.2946 39.5256 95.844 39.3903 96.3615C39.2551 96.8789 39.4432 97.1406 39.7196 97.0142C39.9078 96.926 40.3576 95.353 40.4811 94.8415C40.6045 94.3299 40.9132 92.9128 41.3278 93.7331C41.7423 94.5534 42.3715 95.0296 42.6302 95.0414C42.6885 95.0347 42.7434 95.0107 42.788 94.9725C42.8325 94.9342 42.8646 94.8836 42.8801 94.827C42.8956 94.7704 42.8938 94.7104 42.8749 94.6549C42.8561 94.5993 42.821 94.5506 42.7743 94.5152C42.5517 94.2978 42.3607 94.0504 42.2068 93.7802C42.0697 93.5696 41.9702 93.3368 41.9128 93.0922C41.7944 92.6045 41.7254 92.1061 41.707 91.6045L41.66 91.3105C42.3186 88.0501 44.2149 78.4804 46.952 72.3681L48.0751 74.679L48.5631 76.39L45.5702 83.7783L58.3357 83.6107L56.4306 76.2783L58.7443 68.6343C61.2463 68.6902 67.6702 68.7843 68.7403 68.2992C70.0869 67.7112 77.0517 58.9147 77.0517 58.9147C77.5057 58.5619 77.9405 58.1851 78.3541 57.7857C78.3541 57.7857 78.7775 57.43 78.5217 57.1654Z" fill="#FFBE9D"/>
<path d="M45.0086 78.3187C45.3791 77.0545 47.2813 70.8041 47.2813 70.8041C47.2813 70.8041 48.2162 75.8991 47.9692 76.5136C47.742 77.0396 47.4737 77.5469 47.1666 78.0306C45.0086 81.3146 45.2909 82.958 45.2909 82.958L58.3298 82.5611C58.3592 80.7383 57.2802 76.4989 57.0568 75.8227C56.8333 75.1465 57.5771 72.9326 57.5771 72.9326C57.5771 72.9326 59.0471 71.4362 58.9942 70.6659C58.9663 69.974 58.8807 69.2856 58.7384 68.6079L66.6764 68.9019L66.4265 63.5217L55.0252 62.381C54.6283 63.5011 51.0386 62.9513 51.0386 62.9513C47.1637 63.0807 46.9226 63.7922 45.3115 65.0446C43.7003 66.2971 41.0338 77.0457 41.0338 77.0457L45.0086 78.3187Z" fill="#FF9902"/>
<path d="M52.7174 77.0457C52.4914 77.0861 52.2612 77.0979 52.0323 77.081C51.606 77.081 51.021 77.0516 50.3771 76.9869C49.7333 76.9222 49.1511 76.8311 48.7366 76.7488C48.508 76.7193 48.2839 76.6621 48.0692 76.5782C48.2991 76.5783 48.5284 76.6 48.7542 76.6429C49.1717 76.6958 49.7509 76.7693 50.3918 76.834C51.0327 76.8987 51.6149 76.9428 52.0353 76.9722C52.2644 76.9751 52.4928 76.9997 52.7174 77.0457Z" fill="#263238"/>
<path d="M53.6111 75.9374C53.3851 76.0481 53.146 76.1301 52.8996 76.1814C51.7267 76.4896 50.5165 76.6331 49.304 76.6077C49.0531 76.6159 48.8022 76.5922 48.5573 76.5371C48.8049 76.5059 49.0545 76.4931 49.304 76.4989C49.7656 76.4842 50.4006 76.4519 51.1003 76.3696C51.8001 76.2872 52.4233 76.1696 52.8643 76.0756C53.1093 76.0101 53.359 75.9639 53.6111 75.9374Z" fill="#263238"/>
<path d="M57.9976 70.9922C57.9916 71.2163 57.9611 71.4392 57.9064 71.6566C57.83 72.0653 57.7124 72.6239 57.5625 73.2354C57.4125 73.8469 57.2685 74.4114 57.1391 74.7936C57.0871 75.0124 57.0102 75.2245 56.9098 75.4257C56.9262 75.2023 56.9676 74.9814 57.0333 74.7671C57.145 74.3085 57.2714 73.7793 57.4125 73.2001C57.5537 72.6209 57.6889 72.0917 57.8006 71.6331C57.8404 71.4124 57.9065 71.1972 57.9976 70.9922Z" fill="#263238"/>
<path d="M45.1468 77.569C44.4667 77.464 43.7954 77.3077 43.1388 77.1015C42.4679 76.9447 41.8095 76.7383 41.169 76.4841C41.8488 76.5909 42.52 76.7471 43.177 76.9516C43.8481 77.1079 44.5066 77.3143 45.1468 77.569Z" fill="#263238"/>
<path d="M58.8796 68.5432C58.7687 68.5623 58.6553 68.5623 58.5444 68.5432C58.2373 68.5117 57.9358 68.4395 57.6477 68.3286C57.1668 68.1478 56.7289 67.8685 56.3624 67.5085C55.9958 67.1485 55.7086 66.7158 55.5192 66.2382C55.3098 65.7128 55.2204 65.1473 55.2575 64.583C55.2706 64.1175 55.4098 63.6643 55.6603 63.2718C55.8365 63.0073 56.0996 62.8128 56.4041 62.722C56.4855 62.6995 56.5696 62.6886 56.654 62.6896C56.7128 62.6896 56.7422 62.6896 56.7422 62.6896C56.7422 62.6896 56.6187 62.6896 56.4217 62.769C56.1424 62.8722 55.9054 63.0657 55.7485 63.3188C55.3486 63.948 55.2369 65.0975 55.6632 66.1706C55.8616 66.6766 56.1723 67.1309 56.5717 67.4995C56.899 67.801 57.276 68.0437 57.6859 68.2168C58.0707 68.3689 58.471 68.4783 58.8796 68.5432Z" fill="#263238"/>
<path d="M65.7327 68.7961C65.6592 67.8945 65.6356 66.9896 65.6622 66.0854C65.6391 65.182 65.6666 64.278 65.7445 63.3777C65.8181 64.2783 65.8416 65.1822 65.815 66.0854C65.8398 66.9898 65.8123 67.8949 65.7327 68.7961Z" fill="#263238"/>
<path d="M54.9488 62.7103C54.9811 62.0547 55.0487 61.3138 55.0487 61.3138C55.0487 61.3138 56.6716 61.1345 56.7686 59.4587C56.8657 57.7829 56.7686 53.9168 56.7686 53.9168L53.8286 52.4115L50.5652 54.9781L51.068 63.3571L54.0609 63.5482C54.2897 63.5545 54.5116 63.4699 54.6781 63.3128C54.8445 63.1557 54.9419 62.9391 54.9488 62.7103Z" fill="#FFBE9D"/>
<path d="M55.2399 58.1326C55.2399 58.1326 55.2399 58.165 55.2134 58.2032C55.1915 58.2309 55.1632 58.2529 55.131 58.2672C55.0987 58.2816 55.0634 58.2878 55.0282 58.2855C54.84 58.2855 54.6577 58.0679 54.5931 57.8151C54.5623 57.6925 54.5623 57.5643 54.5931 57.4417C54.5991 57.3882 54.6184 57.3371 54.6492 57.2929C54.68 57.2488 54.7213 57.213 54.7695 57.1889C54.809 57.1726 54.8534 57.1726 54.8929 57.1889C54.9223 57.2034 54.946 57.2272 54.9606 57.2565C54.9811 57.3065 54.9606 57.3388 54.9606 57.3359C54.9606 57.3329 54.9606 57.3065 54.9312 57.2771C54.9158 57.256 54.8932 57.2414 54.8677 57.236C54.8422 57.2305 54.8156 57.2347 54.793 57.2477C54.7569 57.2695 54.727 57.3001 54.7059 57.3366C54.6848 57.3731 54.6733 57.4143 54.6724 57.4564C54.6477 57.5658 54.6477 57.6793 54.6724 57.7886C54.7312 58.018 54.89 58.2032 55.0311 58.2208C55.0587 58.2246 55.0868 58.2226 55.1136 58.215C55.1404 58.2074 55.1654 58.1944 55.1869 58.1767C55.2222 58.1532 55.234 58.1297 55.2399 58.1326Z" fill="#EB996E"/>
<path d="M57.7771 53.0112C57.5507 52.2409 56.7304 51.8587 55.9837 51.647C54.8459 51.3236 53.617 51.1825 52.5056 51.5912C51.3943 51.9998 50.0596 52.7172 50.0596 53.9432C49.4039 53.8903 49.0276 54.4636 48.7689 55.175C48.6035 55.6085 48.5044 56.0644 48.4749 56.5274C48.3926 58.1327 47.9428 60.3494 46.902 61.5254C46.314 62.1811 45.4996 62.6338 45.1645 63.4511C44.8705 64.1597 45.0233 65.0005 44.7499 65.7179C44.5059 66.35 43.9679 66.7998 43.5739 67.3496C43.1726 67.9733 42.9364 68.6888 42.8875 69.4288C42.8386 70.1689 42.9787 70.9092 43.2946 71.5802C43.6128 72.2341 44.0607 72.8163 44.6112 73.2914C45.1616 73.7665 45.803 74.1246 46.4963 74.3438C47.8696 74.7616 49.334 74.7759 50.7152 74.385C51.7518 74.1371 52.7187 73.6577 53.5435 72.9826C54.3873 72.2935 54.9669 71.3337 55.184 70.2661C55.3927 69.0665 55.0576 67.8464 54.8077 66.6528C54.0256 62.8808 54.2491 62.6838 55.2369 59.1823C55.2604 59.1205 55.2722 59.0558 55.2898 58.9941C55.3075 58.9324 55.3163 58.903 55.328 58.8559C55.3561 58.7175 55.3709 58.5767 55.3721 58.4355C55.2279 58.4892 55.0713 58.5005 54.9207 58.4682C54.7702 58.4359 54.6321 58.3613 54.5225 58.2532C54.4126 58.1379 54.3361 57.9951 54.3009 57.8398C54.2657 57.6845 54.2732 57.5226 54.3226 57.3712C54.3919 57.2057 54.4953 57.0565 54.626 56.9335C54.7566 56.8104 54.9117 56.7161 55.0811 56.6568C55.4074 56.5216 55.7573 56.451 56.0777 56.3011C56.7569 55.9777 57.2273 55.3073 57.5477 54.6047C57.8112 54.1177 57.8925 53.5527 57.7771 53.0112Z" fill="#263238"/>
<path d="M55.3575 58.212C55.4196 58.3038 55.4709 58.4025 55.5104 58.506C55.5986 58.6913 55.7162 58.9529 55.8455 59.2557L55.869 59.3116H55.8073L55.5133 59.3381C55.3104 59.3381 55.1399 59.3763 54.94 59.3733C54.9226 59.3694 54.9065 59.3612 54.8931 59.3493C54.8797 59.3375 54.8696 59.3225 54.8636 59.3057C54.8548 59.279 54.8548 59.2501 54.8636 59.2234C54.8704 59.1838 54.8792 59.1445 54.89 59.1058L54.9429 58.8971C54.9695 58.7578 55.0109 58.6218 55.0664 58.4913C55.0609 58.6333 55.0402 58.7742 55.0047 58.9118L54.9635 59.1205C54.9488 59.1911 54.9224 59.2998 54.9635 59.291C55.1105 59.291 55.3193 59.2587 55.5133 59.2469L55.8073 59.2205L55.7691 59.2851C55.6427 58.9911 55.5368 58.7148 55.4751 58.5237C55.4209 58.4261 55.3813 58.3211 55.3575 58.212Z" fill="#FF9902"/>
<path d="M45.2909 82.9581L58.3298 82.5612L64.004 104.711L62.9603 130.119H56.066L56.9098 105.252L51.8677 89.8318L52.6438 131.103L45.676 131.206L44.944 92.4131C44.9116 91.3341 44.5588 88.9027 44.6911 87.8326L45.2909 82.9581Z" fill="#263238"/>
<path d="M53.6023 90.1463C53.3888 90.1597 53.1746 90.1469 52.9643 90.1081C52.5703 90.061 52.0323 89.9787 51.4414 89.8611C50.8504 89.7435 50.3212 89.6083 49.939 89.4995C49.7347 89.4546 49.5371 89.3835 49.351 89.2878C49.351 89.2437 50.3095 89.4731 51.4855 89.7112C52.6615 89.9493 53.6081 90.1022 53.6023 90.1463Z" fill="#455A64"/>
<path d="M62.8897 128.725C62.8897 128.766 61.3286 128.801 59.4029 128.801C57.4772 128.801 55.9131 128.766 55.9131 128.725C55.9131 128.684 57.4742 128.649 59.4029 128.649C61.3315 128.649 62.8897 128.681 62.8897 128.725Z" fill="#455A64"/>
<path d="M52.5821 130.03C52.5821 130.075 51.0651 130.107 49.1952 130.107C47.3254 130.107 45.8113 130.075 45.8113 130.03C45.8113 129.986 47.3283 129.954 49.1952 129.954C51.0621 129.954 52.5821 129.989 52.5821 130.03Z" fill="#455A64"/>
<path d="M51.6824 129.925C51.6413 129.925 51.459 120.908 51.2738 109.786C51.0886 98.6635 50.9798 89.6406 51.018 89.6406C51.0562 89.6406 51.2444 98.6547 51.4267 109.783C51.6089 120.91 51.7265 129.925 51.6824 129.925Z" fill="#455A64"/>
<path d="M61.9636 128.725C61.9604 128.685 61.9604 128.645 61.9636 128.604V128.252C61.9636 127.934 61.9871 127.478 62.0048 126.899C62.0459 125.723 62.1047 124.015 62.1782 121.922C62.337 117.712 62.5605 111.908 62.8045 105.502C62.8045 105.44 62.8045 105.381 62.8045 105.328V105.349C61.261 99.175 59.8645 93.5714 58.8502 89.5171L57.6742 84.722C57.5389 84.1605 57.436 83.7224 57.3625 83.4166C57.3273 83.2726 57.3037 83.1609 57.2832 83.0756C57.2717 83.0373 57.2648 82.9979 57.2626 82.958C57.2778 82.9951 57.2897 83.0334 57.2979 83.0727C57.3214 83.155 57.3508 83.2667 57.3919 83.4078C57.4713 83.7018 57.586 84.1487 57.733 84.7073C58.027 85.8421 58.4415 87.4768 58.9589 89.4907C59.9821 93.542 61.3933 99.1309 62.9574 105.314V105.334C62.9574 105.387 62.9574 105.449 62.9574 105.508C62.6957 111.914 62.4575 117.715 62.2841 121.925C62.1929 124.021 62.1165 125.717 62.0636 126.899C62.0342 127.487 62.0107 127.934 61.996 128.252C61.996 128.402 61.9783 128.519 61.9754 128.604C61.9758 128.645 61.9719 128.685 61.9636 128.725Z" fill="#455A64"/>
<path d="M59.7145 104.811C59.2193 104.974 58.7092 105.087 58.1916 105.149C57.5566 105.258 57.0156 105.334 56.7716 105.346V105.287C56.851 105.311 56.8921 105.326 56.8921 105.337C56.8921 105.349 56.8422 105.337 56.7598 105.337H56.5834L56.7598 105.284C56.9892 105.217 57.5301 105.105 58.1652 104.99C58.6745 104.88 59.1934 104.82 59.7145 104.811Z" fill="#455A64"/>
<path d="M59.594 105.655C59.1354 105.676 58.6758 105.655 58.221 105.593C57.7617 105.584 57.3042 105.534 56.8539 105.443C57.7727 105.368 58.6976 105.44 59.594 105.655Z" fill="#455A64"/>
<path opacity="0.2" d="M45.235 83.4255C45.3895 83.6238 45.584 83.7873 45.8059 83.9053C46.0277 84.0234 46.272 84.0933 46.5228 84.1105C47.0479 84.1727 47.5791 84.1629 48.1015 84.0811C51.4678 83.7078 55.0341 83.3638 58.3298 82.5612C54.0639 82.7993 49.5568 82.7199 45.2909 82.9581L45.2468 83.3226" fill="black"/>
<g opacity="0.2">
<path d="M49.6303 89.4377L52.0352 98.7693L51.8677 89.8317L49.6303 89.4377Z" fill="black"/>
</g>
</svg>
