<svg width="148" height="142" viewBox="0 0 148 142" fill="none" xmlns="http://www.w3.org/2000/svg">
<path d="M65.4005 137.489C64.936 137.089 63.8982 135.825 64.6979 134.355C64.9919 133.814 65.6151 133.547 66.1679 133.311C66.7499 133.115 67.2983 132.831 67.7937 132.468C68.6757 131.721 68.9168 130.474 69.5018 129.475C70.1721 128.328 71.4246 127.47 72.7358 127.528C74.2499 127.599 75.5141 128.837 76.0874 130.248C76.6607 131.659 76.6754 133.226 76.6931 134.749C76.6931 135.593 76.6607 136.542 76.0433 137.101C75.473 137.627 74.6145 137.633 73.8413 137.61L65.5593 137.354" fill="#F5F5F5"/>
<path d="M100.187 27.3008H88.8382V49.7977H100.187V27.3008Z" fill="#F5F5F5"/>
<path d="M112.887 27.3008H100.625V49.7977H112.887V27.3008Z" fill="#F5F5F5"/>
<path d="M112.887 51.3706H100.625V73.109H112.887V51.3706Z" fill="#F5F5F5"/>
<path d="M114.46 26.9127H127.373V6.95603H127.811V26.9127H138.318V6.51208H114.46V26.9127Z" fill="#F5F5F5"/>
<path d="M138.321 27.3008H127.811V49.7977H138.321V27.3008Z" fill="#F5F5F5"/>
<path d="M138.321 51.3706H127.811V73.109H138.321V51.3706Z" fill="#F5F5F5"/>
<path d="M100.187 51.3706H88.8382V73.109H100.187V51.3706Z" fill="#F5F5F5"/>
<path d="M127.376 51.3706H114.46V73.109H127.376V51.3706Z" fill="#F5F5F5"/>
<path d="M100.187 73.4971H88.8382V93.0863H100.187V73.4971Z" fill="#F5F5F5"/>
<path d="M138.321 73.4971H127.811V93.0863H138.321V73.4971Z" fill="#F5F5F5"/>
<path d="M100.187 26.9127V6.95603H100.625V26.9127H112.887V6.51208H88.8382V26.9127H100.187Z" fill="#F5F5F5"/>
<path d="M127.376 73.4971H114.46V93.0863H127.376V73.4971Z" fill="#F5F5F5"/>
<path d="M112.887 73.4971H100.625V93.0863H112.887V73.4971Z" fill="#F5F5F5"/>
<path d="M127.376 27.3008H114.46V49.7977H127.376V27.3008Z" fill="#F5F5F5"/>
<path d="M9.37002 61.6605C9.0761 61.7401 8.76267 61.7004 8.49786 61.5501C8.23306 61.3998 8.03828 61.1511 7.95588 60.8579L5.35986 51.1559C5.30333 50.9096 5.34637 50.6509 5.47962 50.4362C5.61287 50.2215 5.82554 50.068 6.07134 50.0093L6.98274 49.7653C7.16155 49.7203 7.32426 49.6263 7.45255 49.4938C7.58084 49.3614 7.66963 49.1958 7.70892 49.0156L7.79712 48.5658C7.83672 48.3858 7.92561 48.2203 8.05386 48.0879C8.1821 47.9555 8.34464 47.8614 8.5233 47.8161L12.848 46.6607C13.0103 46.616 13.1812 46.6128 13.3451 46.6513C13.509 46.6898 13.6605 46.7689 13.7859 46.8812L14.0799 47.1605C14.2056 47.2723 14.3572 47.3508 14.5211 47.3888C14.6849 47.4268 14.8557 47.4231 15.0178 47.378L20.5273 45.908C20.7678 45.8393 21.0257 45.8676 21.2456 45.9868C21.4655 46.1061 21.6298 46.3069 21.7033 46.546L24.3493 56.4479C24.4284 56.7431 24.387 57.0575 24.2343 57.3221C24.0816 57.5867 23.83 57.7799 23.5349 57.8591L9.37002 61.6605Z" fill="#E0E0E0"/>
<path d="M14.4797 47.5222L10.9723 48.4571L10.496 47.9544C10.3389 47.7945 10.1416 47.6798 9.92482 47.6224C9.70808 47.5649 9.47988 47.5669 9.26416 47.628L5.83906 48.5483C5.55356 48.6154 5.3063 48.7929 5.15145 49.042C4.9966 49.2911 4.94679 49.5914 5.01292 49.8771L5.11876 50.277L7.94116 60.7904C7.98923 60.9485 8.06796 61.0956 8.17288 61.2233C8.27779 61.351 8.40682 61.4567 8.5526 61.5345C8.69839 61.6123 8.85807 61.6607 9.02254 61.6768C9.187 61.6928 9.35302 61.6764 9.51112 61.6283L23.432 57.8886C23.593 57.8513 23.745 57.7825 23.8793 57.6862C24.0136 57.59 24.1276 57.4682 24.2147 57.3278C24.3018 57.1874 24.3604 57.0312 24.387 56.8681C24.4137 56.705 24.4078 56.5383 24.3699 56.3775L21.7004 46.452C21.6724 46.3465 21.6238 46.2476 21.5575 46.1608C21.4912 46.0741 21.4084 46.0014 21.3139 45.9467C21.2194 45.8921 21.115 45.8567 21.0067 45.8425C20.8985 45.8283 20.7885 45.8356 20.6831 45.864L14.4797 47.5222Z" fill="#EBEBEB"/>
<path d="M56.3747 46.2668C56.015 46.1797 55.7045 45.9533 55.5116 45.6374C55.3186 45.3215 55.259 44.942 55.3457 44.5821L58.1916 32.8016C58.2734 32.5066 58.4688 32.2561 58.735 32.1051C59.0013 31.954 59.3165 31.9148 59.6117 31.996L60.7201 32.2635C60.9364 32.3188 61.1638 32.3125 61.3767 32.2455C61.5897 32.1785 61.7797 32.0534 61.9254 31.8843L62.2812 31.4609C62.427 31.2928 62.6167 31.1686 62.829 31.1022C63.0414 31.0357 63.268 31.0296 63.4836 31.0846L68.7433 32.3547C68.9439 32.3981 69.1301 32.4918 69.2844 32.6271C69.4387 32.7624 69.556 32.9347 69.6253 33.1279L69.7841 33.6012C69.8538 33.7941 69.9713 33.9662 70.1255 34.1014C70.2797 34.2366 70.4657 34.3306 70.6661 34.3745L77.3693 35.9944C77.6689 36.0567 77.9317 36.2353 78.0998 36.491C78.2679 36.7468 78.3277 37.0588 78.266 37.3586L75.3554 49.4126C75.3126 49.5906 75.2351 49.7584 75.1274 49.9065C75.0197 50.0546 74.8839 50.18 74.7278 50.2755C74.5716 50.3711 74.3981 50.4349 74.2172 50.4634C74.0364 50.4919 73.8517 50.4845 73.6737 50.4416L56.3747 46.2668Z" fill="#E0E0E0"/>
<path d="M69.981 34.2157L65.718 33.1749L65.5093 32.3694C65.4356 32.1068 65.2923 31.8691 65.0946 31.6812C64.8969 31.4934 64.6522 31.3624 64.3862 31.3021L60.2173 30.282C59.875 30.1881 59.5095 30.2338 59.2008 30.4091C58.8922 30.5844 58.6657 30.8749 58.5709 31.2169L58.4533 31.702L55.3634 44.4969C55.2815 44.8913 55.3593 45.3022 55.5797 45.6394C55.8002 45.9766 56.1452 46.2128 56.5394 46.2961L73.4738 50.3857C73.8624 50.4922 74.2775 50.4403 74.628 50.2413C74.9784 50.0424 75.2358 49.7127 75.3436 49.3243L78.263 37.238C78.2941 37.1098 78.2996 36.9767 78.2792 36.8464C78.2587 36.7161 78.2128 36.5911 78.144 36.4786C78.0751 36.3661 77.9848 36.2682 77.8781 36.1907C77.7714 36.1132 77.6504 36.0574 77.5221 36.0267L69.981 34.2157Z" fill="#EBEBEB"/>
<path d="M23.5408 30.723C23.128 30.7684 22.714 30.648 22.3898 30.3884C22.0657 30.1287 21.8579 29.751 21.8121 29.3382L20.3421 15.8142C20.3288 15.6443 20.3492 15.4735 20.402 15.3115C20.4549 15.1494 20.5391 14.9994 20.65 14.87C20.7608 14.7406 20.8961 14.6343 21.0481 14.5572C21.2001 14.4801 21.3658 14.4337 21.5357 14.4207L22.8058 14.2796C23.0551 14.2566 23.293 14.1643 23.4925 14.0131C23.692 13.8619 23.8452 13.6578 23.9347 13.424L24.1464 12.836C24.2368 12.6028 24.3903 12.3993 24.5896 12.2482C24.789 12.0971 25.0264 12.0044 25.2754 11.9805L31.3141 11.316C31.5406 11.2882 31.7704 11.318 31.9822 11.4028C32.1939 11.4877 32.3808 11.6247 32.5254 11.8011L32.8753 12.2392C33.0201 12.4156 33.2069 12.5527 33.4186 12.638C33.6302 12.7232 33.8599 12.7539 34.0866 12.7272L41.7835 11.8805C41.9522 11.856 42.1242 11.865 42.2894 11.907C42.4547 11.949 42.61 12.0232 42.7466 12.1253C42.8831 12.2275 42.9982 12.3556 43.0852 12.5022C43.1722 12.6489 43.2293 12.8113 43.2535 12.9801L44.7735 26.8128C44.7963 27.0173 44.7786 27.2242 44.7214 27.4219C44.6641 27.6195 44.5684 27.8039 44.4398 27.9645C44.3112 28.1251 44.1521 28.2587 43.9718 28.3577C43.7914 28.4567 43.5933 28.5192 43.3887 28.5415L23.5408 30.723Z" fill="#E0E0E0"/>
<path d="M33.3133 12.8125L28.43 13.3388L27.9037 12.5714C27.7262 12.3215 27.4844 12.1242 27.2039 12.0005C26.9233 11.8768 26.6146 11.8313 26.3103 11.8688L21.5122 12.395C21.1147 12.4258 20.7456 12.6131 20.486 12.9157C20.2264 13.2183 20.0974 13.6115 20.1274 14.0091L20.1892 14.5677L21.8032 29.2677C21.8709 29.7116 22.1105 30.1109 22.4704 30.3794C22.8302 30.6479 23.2813 30.764 23.726 30.7024L43.1653 28.565C43.389 28.5479 43.6072 28.4869 43.8074 28.3854C44.0076 28.284 44.1858 28.1441 44.3319 27.9737C44.4779 27.8033 44.589 27.6058 44.6587 27.3925C44.7284 27.1792 44.7554 26.9542 44.7382 26.7305L43.2123 12.8566C43.1962 12.7095 43.1513 12.567 43.08 12.4372C43.0088 12.3074 42.9127 12.193 42.7972 12.1004C42.6817 12.0079 42.549 11.939 42.4069 11.8977C42.2647 11.8565 42.1158 11.8436 41.9687 11.86L33.3133 12.8125Z" fill="#F5F5F5"/>
<path d="M34.1777 21.5061C34.4988 21.3196 34.7583 21.0432 34.9239 20.7108C35.0895 20.3785 35.1541 20.0049 35.1097 19.6362C35.1108 19.3854 35.0589 19.1372 34.9576 18.9077C34.8563 18.6782 34.7077 18.4727 34.5216 18.3046C34.3355 18.1364 34.116 18.0093 33.8775 17.9317C33.639 17.8541 33.3867 17.8276 33.1373 17.854C32.8879 17.8804 32.6468 17.9591 32.4298 18.0849C32.2128 18.2107 32.0248 18.3809 31.878 18.5843C31.7312 18.7877 31.629 19.0198 31.5779 19.2654C31.5268 19.511 31.5281 19.7646 31.5817 20.0096C31.6155 20.3824 31.759 20.7368 31.9939 21.0282C32.2288 21.3196 32.5447 21.535 32.9017 21.6472C30.2263 22.3557 30.6732 25.3016 30.6732 25.3016L37.1148 24.6254C37.1148 24.6254 36.9207 21.6178 34.1777 21.5061Z" fill="#E0E0E0"/>
<path d="M10.79 28.6474C11.0599 28.5254 11.3445 28.4394 11.6367 28.3916L11.8955 27.6125L13.2479 27.7477L13.3478 28.5621C13.6253 28.6664 13.8874 28.8078 14.1269 28.9825L14.8619 28.615L15.7204 29.6646L15.2177 30.3114C15.3396 30.5812 15.4256 30.8659 15.4734 31.1581L16.2496 31.4198L16.1144 32.7692L15.3 32.8721C15.1961 33.1493 15.0557 33.4113 14.8825 33.6512L15.25 34.398L14.2004 35.2594L13.5536 34.7537C13.2829 34.8761 12.9972 34.9621 12.704 35.0095L12.4452 35.7886L11.084 35.6387L10.9811 34.8243C10.7041 34.7165 10.4422 34.5732 10.202 34.398L9.46703 34.7626L8.60855 33.713L9.11423 33.0662C8.99097 32.7969 8.90492 32.512 8.85845 32.2195L8.07935 31.9578L8.21459 30.6083L9.02897 30.5084C9.13217 30.2301 9.27261 29.967 9.44645 29.7263L9.08189 28.9943L10.1315 28.1329L10.79 28.6474ZM11.2957 30.526C11.0693 30.7094 10.9024 30.9559 10.8163 31.2343C10.7303 31.5127 10.7289 31.8103 10.8123 32.0895C10.8958 32.3687 11.0603 32.6167 11.285 32.8022C11.5098 32.9877 11.7845 33.1022 12.0745 33.1312C12.3644 33.1602 12.6564 33.1024 12.9134 32.9651C13.1704 32.8278 13.3808 32.6172 13.5179 32.3601C13.655 32.1029 13.7126 31.8109 13.6833 31.521C13.6541 31.2311 13.5394 30.9564 13.3537 30.7318C13.1069 30.4334 12.7524 30.2443 12.367 30.2058C11.9817 30.1672 11.5967 30.2823 11.2957 30.526Z" fill="#E0E0E0"/>
<path d="M17.6373 83.5753C17.7575 83.5772 17.877 83.5573 17.9901 83.5165C18.1242 83.4624 18.2389 83.3692 18.3193 83.249C18.37 83.1734 18.405 83.0884 18.4222 82.9991C18.4399 82.9021 18.4487 82.7933 18.4634 82.6816C18.5781 81.7702 18.7398 80.4678 18.9426 78.8596L19.1043 77.5954C19.1308 77.3749 19.1602 77.1514 19.1896 76.9221L19.2337 76.5781C19.2535 76.4666 19.2624 76.3533 19.2601 76.24C19.2487 76.1295 19.2099 76.0235 19.1473 75.9316C19.0847 75.8397 19.0002 75.7649 18.9015 75.7138C18.7956 75.6631 18.6806 75.6342 18.5634 75.6285L18.187 75.5785L16.6318 75.3786L9.70221 74.476C9.56492 74.4593 9.42585 74.4861 9.30456 74.5526C9.18326 74.619 9.08585 74.7218 9.02601 74.8465C8.99759 74.9092 8.97781 74.9754 8.96721 75.0435L8.93781 75.2698C8.91723 75.4198 8.89959 75.5638 8.87901 75.7197C8.80061 76.3194 8.72319 76.9074 8.64675 77.4837C8.49093 78.642 8.35275 79.7592 8.20281 80.8264C8.16753 81.091 8.13225 81.3527 8.09991 81.6114C8.09311 81.7266 8.11669 81.8415 8.16829 81.9447C8.21989 82.0479 8.29769 82.1357 8.39391 82.1994C8.49078 82.2655 8.60331 82.3051 8.72025 82.3141L9.08775 82.3641L9.81099 82.4611L12.457 82.8168L16.279 83.3431L17.3139 83.493L17.5814 83.5371C17.6127 83.5391 17.6435 83.546 17.6725 83.5577H17.5814L17.3109 83.5312L16.2702 83.4078L12.4482 82.9315L9.80217 82.5934L9.07893 82.4993L8.71143 82.4523C8.50045 82.4343 8.30513 82.3336 8.16801 82.1723C8.03089 82.0109 7.96309 81.8019 7.97937 81.5908C8.01171 81.3292 8.04405 81.0646 8.07933 80.797C8.21751 79.7328 8.37333 78.6156 8.51445 77.4572C8.59089 76.8692 8.66733 76.2812 8.74671 75.6932C8.76435 75.5433 8.78493 75.3992 8.80551 75.2434L8.83491 75.017C8.8468 74.9337 8.87057 74.8525 8.90547 74.7759C8.97913 74.6212 9.09988 74.4938 9.25039 74.412C9.40091 74.3301 9.57348 74.298 9.74337 74.3202L16.67 75.2346L18.2253 75.4433L18.6016 75.4933C18.7331 75.5029 18.8617 75.5368 18.9808 75.5932C19.0985 75.6545 19.1991 75.7441 19.2735 75.8539C19.3479 75.9638 19.3939 76.0904 19.4071 76.2224C19.4115 76.3456 19.4016 76.4689 19.3777 76.5899C19.3777 76.7075 19.3483 76.8222 19.3307 76.9368C19.3013 77.1661 19.2719 77.3896 19.2396 77.6101C19.1808 78.0481 19.1249 78.4686 19.069 78.8713C18.8485 80.4736 18.6692 81.7731 18.5428 82.6933C18.5251 82.8051 18.5163 82.908 18.4957 83.0109C18.474 83.1058 18.434 83.1957 18.3781 83.2755C18.2905 83.401 18.1663 83.4965 18.0224 83.5489C17.9363 83.582 17.844 83.596 17.7519 83.59C17.7133 83.5898 17.6748 83.5848 17.6373 83.5753Z" fill="#E0E0E0"/>
<path d="M17.846 82.3965C17.8126 82.3626 17.783 82.3251 17.7578 82.2847L17.5314 81.9466C17.3286 81.6291 17.0552 81.2058 16.7229 80.6942L16.1702 79.8122L16.0203 79.577C15.9989 79.5458 15.9698 79.5207 15.9357 79.5042C15.9017 79.4877 15.864 79.4804 15.8262 79.4829C15.7469 79.4829 15.6939 79.5358 15.6116 79.6064L15.3764 79.8093L14.8913 80.2238C14.8464 80.264 14.7982 80.3004 14.7473 80.3326C14.6851 80.3658 14.6143 80.3791 14.5444 80.3708C14.4735 80.3647 14.4064 80.3359 14.3533 80.2885C14.3261 80.2667 14.3023 80.2409 14.2827 80.212L14.2357 80.1415C13.9858 79.7622 13.73 79.3683 13.4654 78.9655L13.0744 78.3775L12.8833 78.0835C12.8614 78.0468 12.8288 78.0176 12.79 77.9998C12.7512 77.982 12.7079 77.9763 12.6657 77.9835C12.6244 77.9899 12.5862 78.0095 12.557 78.0394L12.4394 78.157L12.2042 78.3892L11.7485 78.8391L10.1726 80.3914L9.09658 81.438L8.80258 81.7144C8.76905 81.7482 8.73153 81.7778 8.69086 81.8026C8.71562 81.7619 8.74524 81.7244 8.77906 81.6909L9.07306 81.3969L10.1109 80.3267C10.5578 79.8739 11.084 79.3418 11.6632 78.7509L12.116 78.2981L12.3482 78.0629L12.4688 77.9453C12.5189 77.8945 12.5837 77.8606 12.654 77.8483C12.7251 77.8356 12.7984 77.8445 12.8644 77.8738C12.9305 77.9032 12.9862 77.9516 13.0244 78.0129L13.2155 78.3069L13.6065 78.8949L14.3768 80.0709C14.3908 80.1149 14.4172 80.1539 14.4528 80.1834C14.4883 80.2128 14.5316 80.2314 14.5774 80.237C14.6232 80.2426 14.6697 80.2349 14.7113 80.2148C14.7528 80.1948 14.7878 80.1632 14.8119 80.1238L15.3 79.7122L15.5381 79.5153C15.577 79.4793 15.6183 79.4459 15.6616 79.4153C15.7132 79.3812 15.7732 79.3618 15.8351 79.3594C15.8932 79.3584 15.9507 79.3722 16.0022 79.3994C16.0536 79.4267 16.0972 79.4665 16.1291 79.5153C16.182 79.5976 16.232 79.677 16.279 79.7563L16.817 80.6383L17.5844 81.9172L17.7872 82.27C17.8254 82.3494 17.846 82.3935 17.846 82.3965Z" fill="#E0E0E0"/>
<path d="M15.788 77.5366C15.788 77.5366 15.788 77.4572 15.7586 77.3249C15.7249 77.1405 15.6332 76.9716 15.497 76.8427C15.3984 76.7508 15.2787 76.6845 15.1485 76.6497C15.0183 76.6148 14.8815 76.6125 14.7502 76.6428C14.5909 76.6795 14.4465 76.764 14.3366 76.885C14.2266 77.006 14.1561 77.1577 14.1347 77.3198C14.1133 77.4819 14.1419 77.6467 14.2167 77.7921C14.2915 77.9375 14.4089 78.0566 14.5532 78.1334C14.6725 78.1975 14.8059 78.231 14.9413 78.231C15.0767 78.231 15.2101 78.1975 15.3294 78.1334C15.4946 78.0455 15.6267 77.9062 15.7057 77.7365C15.7616 77.613 15.7733 77.5366 15.788 77.5395C15.7986 77.6134 15.7884 77.6887 15.7586 77.7571C15.6944 77.9543 15.5606 78.1215 15.3823 78.2275C15.2499 78.3066 15.0999 78.3512 14.9458 78.3574C14.7917 78.3635 14.6386 78.331 14.5003 78.2628C14.3234 78.1766 14.178 78.037 14.0848 77.8637C13.9916 77.6904 13.9553 77.4922 13.981 77.2971C14.0067 77.102 14.0931 76.9199 14.228 76.7767C14.3628 76.6334 14.5394 76.5362 14.7326 76.4988C14.8852 76.4663 15.0436 76.4732 15.1928 76.519C15.342 76.5648 15.477 76.6479 15.5852 76.7604C15.7282 76.9132 15.8108 77.1128 15.8174 77.322C15.8277 77.3948 15.8175 77.4692 15.788 77.5366Z" fill="#E0E0E0"/>
<path d="M63.416 25.4427C63.5246 25.4959 63.6424 25.5278 63.763 25.5368C63.9072 25.5408 64.0495 25.5019 64.1716 25.4251C64.2495 25.3778 64.3166 25.3147 64.3686 25.2399C64.4245 25.1605 64.4774 25.0635 64.5362 24.9694L66.5383 21.6825L67.2028 20.5947C67.3204 20.4065 67.438 20.2125 67.5585 20.0067L67.7408 19.7127C67.8051 19.6207 67.8593 19.5222 67.9025 19.4187C67.9377 19.3128 67.9459 19.1998 67.9264 19.0899C67.9069 18.98 67.8603 18.8768 67.7908 18.7895C67.714 18.7013 67.6212 18.6285 67.5173 18.5749L67.1939 18.3779L65.8592 17.5547L59.9027 13.8915C59.8294 13.847 59.748 13.8175 59.6632 13.8045C59.5785 13.7915 59.492 13.7954 59.4087 13.8159C59.3254 13.8364 59.247 13.8731 59.1779 13.9239C59.1088 13.9747 59.0504 14.0386 59.006 14.112L58.8855 14.306L58.6415 14.7C58.324 15.2115 58.0094 15.7172 57.7036 16.2141C57.0862 17.2078 56.4923 18.1662 55.9396 19.0806L55.5251 19.7538C55.4398 19.9091 55.4195 20.0918 55.4685 20.262C55.5175 20.4323 55.6319 20.5762 55.7867 20.6623L56.1043 20.8593L56.7217 21.2415L58.9649 22.638L62.2283 24.696L63.1103 25.2575L63.3367 25.4045L63.4102 25.4604L63.3278 25.4192L63.0926 25.284L62.1959 24.7459L58.909 22.7262L56.654 21.3385L56.0308 20.9592L55.7132 20.7622C55.5918 20.6909 55.4906 20.5897 55.4192 20.4682C55.3439 20.3481 55.3023 20.21 55.2987 20.0683C55.295 19.9266 55.3296 19.7865 55.3987 19.6627C55.5339 19.4363 55.6721 19.2099 55.8132 18.9806L57.5772 16.1112L58.5151 14.5912L58.7532 14.206L58.8708 14.012C58.9167 13.9411 58.9721 13.8768 59.0354 13.8209C59.1664 13.7103 59.3289 13.6437 59.4999 13.6305C59.6708 13.6173 59.8416 13.6582 59.988 13.7474L65.9297 17.4224L67.2616 18.2515L67.585 18.4514C67.6984 18.5133 67.7984 18.5973 67.879 18.6984C67.9613 18.8021 68.0163 18.9248 68.0389 19.0552C68.0615 19.1857 68.051 19.3198 68.0083 19.4451C67.9633 19.5599 67.9041 19.6685 67.8319 19.7685L67.6467 20.0625C67.5262 20.2595 67.4056 20.4506 67.288 20.6505C67.0558 21.0268 66.8294 21.3885 66.6148 21.7324L64.592 24.99C64.5274 25.087 64.4774 25.1781 64.4156 25.2634C64.3572 25.3416 64.2831 25.4066 64.1981 25.4545C64.0672 25.5331 63.9152 25.5691 63.763 25.5574C63.6706 25.5515 63.5805 25.5265 63.4984 25.4839C63.4694 25.4734 63.4418 25.4596 63.416 25.4427Z" fill="#E0E0E0"/>
<path d="M62.6105 19.1864L63.1544 20.2742C63.1835 20.3219 63.1984 20.3769 63.1973 20.4328C63.1963 20.4886 63.1794 20.5431 63.1485 20.5896C63.1177 20.6362 63.0742 20.6731 63.0231 20.6958C62.9721 20.7186 62.9157 20.7263 62.8604 20.7181L61.6226 20.6799L60.4202 20.6446C60.3665 20.641 60.3147 20.6235 60.2698 20.5937C60.225 20.5638 60.1888 20.5228 60.1647 20.4747C60.1407 20.4266 60.1296 20.373 60.1326 20.3192C60.1357 20.2655 60.1527 20.2135 60.182 20.1684L60.8612 19.1305L61.5462 18.0839C61.5729 18.0347 61.613 17.994 61.662 17.9668C61.711 17.9397 61.7667 17.927 61.8226 17.9304C61.8785 17.9338 61.9323 17.9531 61.9776 17.986C62.0229 18.0189 62.0578 18.0641 62.0783 18.1162L62.6105 19.1864Z" fill="#E0E0E0"/>
<path d="M137.504 140.426C137.504 140.47 109.074 140.503 74 140.503C38.9258 140.503 10.496 140.47 10.496 140.426C10.496 140.382 38.9199 140.35 74 140.35C109.08 140.35 137.504 140.385 137.504 140.426Z" fill="#263238"/>
<path d="M61.6755 36.0062H16.9934V140.426H61.6755V36.0062Z" fill="#455A64"/>
<g opacity="0.3">
<path d="M29.2091 36.0062H16.9934V140.426H29.2091V36.0062Z" fill="black"/>
</g>
<path d="M41.5277 40.4162V39.5783L41.122 40.2604H40.925L40.5193 39.6018V40.4162H40.1077V38.8374H40.484L41.0396 39.7488L41.5777 38.8374H41.9452V40.4162H41.5277Z" fill="white"/>
<path d="M43.0977 39.8488V40.4162H42.6508V39.8429L42.0628 38.8374H42.5332L42.9066 39.4636L43.28 38.8374H43.7121L43.0977 39.8488Z" fill="white"/>
<path d="M44.9146 39.1843V39.5312H45.6114V39.8752H44.9146V40.4162H44.4677V38.8374H45.7054V39.1843H44.9146Z" fill="white"/>
<path d="M45.9142 38.8374H46.364V40.4162H45.9171L45.9142 38.8374Z" fill="white"/>
<path d="M46.6786 38.8374H47.1225V40.0604H47.8752V40.4162H46.6786V38.8374Z" fill="white"/>
<path d="M49.304 40.0693V40.4162H48.0398V38.8374H49.2746V39.1843H48.4808V39.4489H49.1805V39.7811H48.4808V40.0751L49.304 40.0693Z" fill="white"/>
<path d="M49.454 40.2781L49.601 39.9517C49.757 40.0497 49.9371 40.1026 50.1214 40.1046C50.3036 40.1046 50.3771 40.0546 50.3771 39.9782C50.3771 39.7283 49.4804 39.9106 49.4804 39.3255C49.4804 39.0315 49.7098 38.814 50.1802 38.814C50.3785 38.8113 50.5745 38.8577 50.7505 38.9492L50.6123 39.2814C50.4799 39.205 50.3301 39.1635 50.1772 39.1609C49.9891 39.1609 49.9214 39.2226 49.9214 39.302C49.9214 39.5431 50.8034 39.3637 50.8034 39.9429C50.8034 40.2193 50.5741 40.4515 50.1067 40.4515C49.8771 40.4563 49.6509 40.3961 49.454 40.2781Z" fill="white"/>
<path d="M60.0703 63.798C60.0703 63.798 60.0703 63.6657 60.0703 63.4158C60.0703 63.1659 60.0703 62.7984 60.0703 62.3192C60.0703 61.3519 60.0703 59.9437 60.0703 58.1385C60.0703 54.5341 60.0497 49.3656 60.038 43.0828L60.0997 43.1445L30.9525 43.1592L31.029 43.0828C31.029 50.4975 31.029 57.5358 31.029 63.798L30.9614 63.7275L51.9735 63.7627L57.9653 63.7804H59.5558H59.9674H60.1115H59.9762H59.5734H57.9947L52.0206 63.801L30.9614 63.8363H30.8908V63.798C30.8908 57.5358 30.8908 50.4975 30.8908 43.0828V43.0063H30.9702L60.1173 43.021H60.1791V43.0828C60.1644 49.3803 60.1526 54.5488 60.1467 58.1797C60.1467 59.976 60.1467 61.3813 60.1291 62.3427C60.1291 62.8161 60.1291 63.1806 60.1291 63.4305C60.1291 63.6804 60.0703 63.798 60.0703 63.798Z" fill="#263238"/>
<g opacity="0.3">
<path d="M51.7001 55.8278H39.8343V57.8358H51.7001V55.8278Z" fill="black"/>
</g>
<path d="M49.5216 46.8931H43.4034C42.9991 46.8931 42.6714 47.2208 42.6714 47.6251V51.9704C42.6714 52.3748 42.9991 52.7025 43.4034 52.7025H49.5216C49.9259 52.7025 50.2536 52.3748 50.2536 51.9704V47.6251C50.2536 47.2208 49.9259 46.8931 49.5216 46.8931Z" fill="white"/>
<path d="M49.7597 51.8411C49.6572 51.7544 49.5654 51.6557 49.4863 51.5471L48.7836 50.7327L48.3044 50.1653L48.1751 50.0124C48.1592 49.9945 48.1389 49.981 48.1162 49.9733C48.0935 49.9655 48.0692 49.9639 48.0457 49.9683C47.9987 49.9683 47.9693 50.0124 47.9163 50.0742L47.7664 50.2388L47.4724 50.5828C47.444 50.6238 47.4068 50.6579 47.3636 50.6828C47.3204 50.7077 47.2722 50.7228 47.2225 50.7269C47.1675 50.727 47.1135 50.7118 47.0667 50.6828C47.0435 50.6684 47.0227 50.6505 47.0049 50.6298L46.9638 50.5828L46.3023 49.8184L45.9701 49.4303L45.8054 49.2392C45.789 49.2177 45.7663 49.2019 45.7405 49.194C45.7146 49.1861 45.687 49.1865 45.6614 49.1951C45.6375 49.2032 45.6163 49.2174 45.5996 49.2363L45.5261 49.3333L45.3791 49.5215C45.285 49.6449 45.187 49.7655 45.0851 49.8831L44.1002 51.1561L43.424 51.9852C43.3457 52.0916 43.2571 52.1901 43.1594 52.2792C43.2196 52.1618 43.2926 52.0513 43.377 51.9499L44.012 51.0826L44.9705 49.8066L45.2498 49.4391C45.2968 49.3774 45.3468 49.3157 45.3938 49.251L45.4673 49.154C45.5032 49.1111 45.5499 49.0787 45.6026 49.0599C45.6549 49.0461 45.7101 49.047 45.762 49.0626C45.8139 49.0781 45.8604 49.1077 45.8966 49.1481L46.0612 49.3392C46.17 49.4656 46.2817 49.5979 46.3964 49.7273C46.6227 49.9889 46.8403 50.2476 47.0549 50.4946C47.1431 50.621 47.246 50.6181 47.3489 50.4946L47.6606 50.1565L47.8105 49.9919C47.8604 49.9202 47.9346 49.8691 48.0192 49.8478C48.0654 49.8393 48.113 49.843 48.1573 49.8584C48.2017 49.8739 48.2412 49.9006 48.2721 49.936L48.4014 50.0977L48.866 50.6857L49.5275 51.5295C49.6149 51.6255 49.6927 51.7299 49.7597 51.8411Z" fill="#263238"/>
<path d="M47.834 48.5629C47.834 48.5629 47.8164 48.5071 47.784 48.4189C47.7426 48.2925 47.661 48.1831 47.5518 48.1072C47.4744 48.0541 47.3855 48.0202 47.2924 48.0085C47.1994 47.9967 47.1048 48.0074 47.0167 48.0396C46.9412 48.0681 46.8728 48.1125 46.8159 48.1697C46.759 48.2269 46.7151 48.2957 46.687 48.3713C46.6589 48.4469 46.6474 48.5277 46.6532 48.6082C46.659 48.6886 46.682 48.7669 46.7206 48.8378C46.7592 48.9086 46.8125 48.9703 46.877 49.0188C46.9414 49.0673 47.0156 49.1014 47.0943 49.1188C47.1731 49.1362 47.2547 49.1366 47.3336 49.1198C47.4125 49.103 47.4869 49.0695 47.5518 49.0216C47.6599 48.9445 47.7411 48.8355 47.784 48.7099C47.8164 48.6188 47.8223 48.5629 47.834 48.5629C47.8458 48.5629 47.8575 48.6217 47.834 48.7246C47.8083 48.8749 47.7289 49.0107 47.6106 49.1068C47.5204 49.1796 47.4132 49.2283 47.299 49.2483C47.1849 49.2684 47.0675 49.2592 46.9579 49.2215C46.8219 49.1735 46.7042 49.0846 46.6209 48.9669C46.5376 48.8492 46.4929 48.7086 46.4929 48.5644C46.4929 48.4202 46.5376 48.2796 46.6209 48.1619C46.7042 48.0442 46.8219 47.9553 46.9579 47.9073C47.0674 47.8688 47.1849 47.8591 47.2992 47.8792C47.4135 47.8993 47.5208 47.9485 47.6106 48.022C47.7293 48.1177 47.8088 48.2537 47.834 48.4042C47.8575 48.51 47.834 48.5659 47.834 48.5629Z" fill="#263238"/>
<g opacity="0.4">
<path d="M55.9896 65.368H30.5792V85.1101H55.9896V65.368Z" fill="black"/>
</g>
<path d="M45.482 66.1177H40.6398L40.3458 65.6326C40.2521 65.4733 40.1185 65.3412 39.9582 65.2495C39.7978 65.1577 39.6162 65.1093 39.4315 65.1093H35.877C35.6045 65.1089 35.3422 65.2134 35.1446 65.4012C34.9471 65.5889 34.8293 65.8455 34.8157 66.1177H33.5485C33.285 66.1177 33.0322 66.2224 32.8459 66.4087C32.6595 66.5951 32.5548 66.8478 32.5548 67.1114V69.5751H46.461V67.1114C46.461 66.8504 46.3584 66.5998 46.1752 66.4139C45.992 66.2279 45.743 66.1215 45.482 66.1177Z" fill="#E0E0E0"/>
<path d="M48.0163 66.1177H43.1888L42.8948 65.6326C42.8014 65.4731 42.6678 65.3409 42.5074 65.2491C42.347 65.1573 42.1653 65.1091 41.9805 65.1093H38.426C38.1538 65.1089 37.8919 65.2136 37.6947 65.4014C37.4976 65.5892 37.3805 65.8457 37.3676 66.1177H36.0975C35.8345 66.1184 35.5825 66.2235 35.3968 66.4098C35.211 66.596 35.1067 66.8484 35.1068 67.1114V69.5751H49.01V67.1114C49.01 66.8478 48.9053 66.5951 48.719 66.4087C48.5326 66.2224 48.2798 66.1177 48.0163 66.1177Z" fill="#EBEBEB"/>
<path d="M51.3326 66.1177H46.5022L46.2082 65.6326C46.1138 65.4733 45.9796 65.3412 45.8188 65.2495C45.658 65.1577 45.476 65.1094 45.2909 65.1093H41.7394C41.4671 65.1089 41.2052 65.2136 41.0081 65.4014C40.811 65.5892 40.6938 65.8457 40.681 66.1177H39.4138C39.1503 66.1177 38.8975 66.2224 38.7112 66.4087C38.5248 66.5951 38.4201 66.8478 38.4201 67.1114V69.5751H52.3234V67.1114C52.3234 66.8484 52.2191 66.596 52.0334 66.4098C51.8476 66.2235 51.5956 66.1184 51.3326 66.1177Z" fill="#F5F5F5"/>
<path d="M40.1283 78.9626V67.1232C40.1405 66.8523 40.2598 66.5973 40.4599 66.4143C40.66 66.2313 40.9246 66.1352 41.1955 66.1471H42.2157C42.4138 66.1503 42.609 66.0988 42.7796 65.9981C42.9503 65.8975 43.0899 65.7517 43.183 65.5768L43.4035 65.1417C43.4972 64.9675 43.637 64.8225 43.8076 64.7224C43.9782 64.6223 44.173 64.5711 44.3707 64.5742H49.2129C49.3943 64.5715 49.5736 64.6141 49.7343 64.6984C49.895 64.7826 50.0321 64.9057 50.1331 65.0564L50.3713 65.4239C50.4722 65.574 50.6089 65.6967 50.769 65.7809C50.9291 65.865 51.1077 65.9081 51.2885 65.9061H57.4625C57.7335 65.8941 57.9981 65.9902 58.1982 66.1732C58.3983 66.3562 58.5176 66.6112 58.5298 66.8821V78.9626H40.1283Z" fill="#FF9902"/>
<g opacity="0.3">
<path d="M40.1283 78.9626V67.1232C40.1405 66.8523 40.2598 66.5973 40.4599 66.4143C40.66 66.2313 40.9246 66.1352 41.1955 66.1471H42.2157C42.4138 66.1503 42.609 66.0988 42.7796 65.9981C42.9503 65.8975 43.0899 65.7517 43.183 65.5768L43.4035 65.1417C43.4972 64.9675 43.637 64.8225 43.8076 64.7224C43.9782 64.6223 44.173 64.5711 44.3707 64.5742H49.2129C49.3943 64.5715 49.5736 64.6141 49.7343 64.6984C49.895 64.7826 50.0321 64.9057 50.1331 65.0564L50.3713 65.4239C50.4722 65.574 50.6089 65.6967 50.769 65.7809C50.9291 65.865 51.1077 65.9081 51.2885 65.9061H57.4625C57.7335 65.8941 57.9981 65.9902 58.1982 66.1732C58.3983 66.3562 58.5176 66.6112 58.5298 66.8821V78.9626H40.1283Z" fill="black"/>
</g>
<path d="M43.9944 69.3194V59.9761C43.994 59.7926 44.0299 59.6108 44.0999 59.4412C44.1699 59.2716 44.2728 59.1175 44.4025 58.9878C44.5323 58.858 44.6864 58.7551 44.856 58.6851C45.0256 58.6151 45.2074 58.5792 45.3909 58.5796H60.282C60.6524 58.5796 61.0076 58.7267 61.2695 58.9886C61.5314 59.2505 61.6785 59.6057 61.6785 59.9761V69.0607L43.9944 69.3194Z" fill="white"/>
<path d="M44.5765 72.0477V60.2112C44.5887 59.9401 44.7079 59.6848 44.9079 59.5013C45.1079 59.3178 45.3725 59.221 45.6437 59.2322H46.658C46.8562 59.2359 47.0517 59.1849 47.2228 59.0848C47.394 58.9847 47.5342 58.8394 47.6282 58.6648L47.8458 58.2297C47.9396 58.0547 48.0797 57.909 48.2509 57.8084C48.422 57.7078 48.6175 57.6562 48.816 57.6593H53.6581C53.839 57.6573 54.0176 57.7003 54.1777 57.7845C54.3378 57.8687 54.4745 57.9913 54.5754 58.1415L54.8136 58.509C54.9144 58.6599 55.0514 58.7831 55.2122 58.8674C55.373 58.9516 55.5523 58.9942 55.7338 58.9911H61.9078C62.1787 58.9792 62.4433 59.0753 62.6434 59.2583C62.8435 59.4413 62.9628 59.6963 62.975 59.9672V72.0477H44.5765Z" fill="#FF9902"/>
<path d="M44.5765 72.0477H44.6676H44.9293H45.9377L49.7215 72.0301L62.9779 71.9948L62.9074 72.0654C62.9074 70.0838 62.9074 67.9817 62.9074 65.7855C62.9074 64.6889 62.9074 63.5688 62.9074 62.431V60.2701C62.9164 60.1291 62.9164 59.9877 62.9074 59.8467C62.8832 59.7133 62.8291 59.5871 62.7492 59.4776C62.6692 59.3682 62.5655 59.2782 62.4458 59.2146C62.3353 59.1536 62.2149 59.1128 62.0901 59.0941C61.9589 59.0851 61.8273 59.0851 61.6961 59.0941H55.772C55.6362 59.0967 55.5009 59.0759 55.3722 59.0323C55.1121 58.9507 54.8905 58.7772 54.7489 58.5443L54.546 58.2268C54.4835 58.1281 54.4039 58.0415 54.3108 57.971C54.1234 57.8312 53.8948 57.7577 53.6611 57.7623H49.3687C49.1423 57.7623 48.9012 57.7623 48.6954 57.7623C48.4841 57.7879 48.2859 57.8783 48.128 58.021C47.8164 58.2885 47.784 58.8295 47.3783 59.097C47.1926 59.2307 46.9719 59.3074 46.7433 59.3175H46.1053C45.9016 59.3056 45.6974 59.3056 45.4938 59.3175C45.3017 59.3436 45.1211 59.4242 44.9734 59.5498C44.8286 59.6708 44.7258 59.8344 44.6794 60.0172C44.6526 60.2071 44.6437 60.399 44.6529 60.5905C44.6529 61.3628 44.6529 62.1056 44.6529 62.8191C44.6529 65.662 44.6323 67.9641 44.6235 69.5634C44.6235 70.3572 44.6235 70.9776 44.6235 71.4068C44.6235 71.6126 44.6235 71.7743 44.6235 71.889C44.6235 72.0036 44.6235 72.0565 44.6235 72.0565C44.6235 72.0565 44.6235 72.0036 44.6235 71.8978C44.6235 71.7919 44.6235 71.6302 44.6235 71.4274C44.6235 71.0011 44.6235 70.3866 44.6235 69.5987C44.6235 67.9964 44.6059 65.6885 44.5941 62.8367C44.5941 62.1223 44.5941 61.3667 44.5941 60.5935C44.5828 60.3912 44.5916 60.1883 44.6206 59.9878C44.6545 59.7839 44.7499 59.5951 44.894 59.4469C45.0619 59.3067 45.2655 59.2161 45.482 59.1852C45.6922 59.1677 45.9032 59.1618 46.1141 59.1676H46.7462C46.9496 59.1585 47.1458 59.0901 47.3107 58.9706C47.6694 58.7442 47.6841 58.2415 48.0457 57.9004C48.2242 57.7392 48.4479 57.6366 48.6866 57.6064C48.9277 57.5859 49.1452 57.6064 49.3775 57.6064H53.6699C53.9354 57.5993 54.1955 57.6822 54.4078 57.8416C54.5156 57.9218 54.6074 58.0216 54.6783 58.1356L54.8841 58.4532C55.008 58.6563 55.2012 58.8077 55.428 58.8795C55.5415 58.9179 55.661 58.9358 55.7808 58.9324H61.702C61.8413 58.9258 61.9809 58.9307 62.1195 58.9471C62.2629 58.9681 62.4013 59.0149 62.5281 59.0853C62.6671 59.1608 62.7874 59.2665 62.88 59.3948C62.9726 59.523 63.0352 59.6704 63.0632 59.8261C63.0781 59.9746 63.0831 60.1239 63.0779 60.273V65.7679C63.0779 67.9641 63.0779 70.0662 63.0779 72.0477V72.1183H63.0073L49.7068 72.083L45.9377 72.0654H44.944H44.6882L44.5765 72.0477Z" fill="#263238"/>
<path d="M52.9908 58.7294C52.342 58.8051 51.6884 58.8307 51.0357 58.8059C50.383 58.8306 49.7293 58.805 49.0806 58.7294C49.7292 58.6521 50.383 58.6265 51.0357 58.653C51.6884 58.6264 52.3421 58.652 52.9908 58.7294Z" fill="white"/>
<path d="M50.3036 77.0281V65.1828C50.3036 64.6448 50.8445 64.2067 51.5119 64.2067H52.6644C52.8802 64.2144 53.0942 64.1662 53.2859 64.0668C53.4775 63.9674 53.6402 63.8201 53.7581 63.6393L54.008 63.2101C54.1259 63.0292 54.2886 62.882 54.4802 62.7826C54.6719 62.6831 54.8859 62.6349 55.1017 62.6426H60.573C60.7721 62.6364 60.9698 62.6768 61.1505 62.7605C61.3312 62.8442 61.4898 62.969 61.6138 63.1248L61.8813 63.4923C62.0054 63.6472 62.1637 63.7714 62.3437 63.855C62.5238 63.9386 62.7207 63.9795 62.9191 63.9745H69.884C70.5514 63.9745 71.0894 64.4125 71.0894 64.9505V77.0281H50.3036Z" fill="#FF9902"/>
<path d="M50.3036 77.0281H50.4094H50.7034H51.85L56.1424 77.0075L71.0982 76.9752L71.0276 77.0457C71.0276 75.0406 71.0276 72.9297 71.0276 70.7571C71.0276 69.6693 71.0276 68.5619 71.0276 67.4349V65.7091C71.0276 65.4298 71.0276 65.1211 71.0276 64.8594C71.0067 64.7283 70.9564 64.6037 70.8805 64.4948C70.8047 64.3858 70.7052 64.2954 70.5896 64.2303C70.3492 64.0882 70.0714 64.0225 69.7928 64.0421H63.0308C62.7454 64.0589 62.4611 63.9947 62.2106 63.8569C62.0836 63.7888 61.9708 63.6969 61.8784 63.5864C61.7872 63.4717 61.7167 63.3688 61.6343 63.2571C61.4977 63.0392 61.29 62.8751 61.0463 62.7926C60.8021 62.7172 60.5456 62.6892 60.2908 62.7103H55.0193C54.7926 62.721 54.5727 62.791 54.3814 62.9131C54.2871 62.9732 54.2036 63.0488 54.1344 63.1366C54.0694 63.2307 54.0105 63.3289 53.958 63.4306C53.8992 63.5335 53.8463 63.6305 53.7816 63.7246C53.714 63.8264 53.6295 63.9159 53.5317 63.9892C53.3407 64.1323 53.1158 64.2234 52.879 64.2538C52.4116 64.2832 51.997 64.2538 51.5443 64.2538C51.3405 64.2419 51.1371 64.2815 50.9527 64.3688C50.7682 64.4562 50.6087 64.5885 50.4888 64.7536C50.3851 64.9214 50.3405 65.1191 50.3624 65.3151V65.9208C50.3624 66.3206 50.3624 66.7116 50.3624 67.0968C50.3624 70.1514 50.3389 72.621 50.333 74.338C50.333 75.1906 50.333 75.858 50.3183 76.3137C50.3183 76.5371 50.3183 76.7106 50.3183 76.8311C50.3183 76.9516 50.3183 77.0134 50.3183 77.0134C50.3183 77.0134 50.3183 76.9575 50.3183 76.8429C50.3183 76.7282 50.3183 76.5489 50.3183 76.3372C50.3183 75.8815 50.3183 75.22 50.3036 74.3703C50.3036 72.6504 50.2859 70.172 50.2742 67.1115C50.2742 66.7263 50.2742 66.3324 50.2742 65.9355V65.3239C50.253 65.1055 50.3025 64.886 50.4153 64.6977C50.546 64.5156 50.7202 64.3691 50.922 64.2716C51.1238 64.174 51.3468 64.1285 51.5707 64.1391C52 64.1391 52.4527 64.1391 52.8878 64.1215C53.1014 64.0933 53.304 64.0102 53.4758 63.8804C53.6449 63.735 53.7786 63.553 53.8669 63.3483C53.9242 63.2469 53.987 63.1488 54.055 63.0543C54.1318 62.9554 54.2253 62.8708 54.3314 62.8044C54.5413 62.6674 54.7837 62.5883 55.034 62.575H57.9976H60.3143C60.5862 62.5517 60.86 62.5827 61.1198 62.6662C61.3872 62.76 61.6151 62.9412 61.7666 63.1807C61.846 63.2865 61.9254 63.4012 62.0018 63.5011C62.0853 63.5962 62.1848 63.6758 62.2958 63.7363C62.5254 63.8603 62.7852 63.9174 63.0455 63.901H69.8075C70.1159 63.8802 70.4233 63.9529 70.6895 64.1097C70.8251 64.1875 70.9412 64.2951 71.0288 64.4246C71.1165 64.554 71.1734 64.7017 71.1952 64.8565C71.1952 65.1505 71.1952 65.4445 71.1952 65.7208V70.7453C71.1952 72.9268 71.1952 75.0289 71.1952 77.034V77.1045H71.1247L56.1307 77.0692L51.8206 77.0281H50.6887H50.3947H50.3036Z" fill="#263238"/>
<path d="M60.3349 63.8627C59.4767 63.9384 58.6148 63.9639 57.7536 63.9392C56.8924 63.9639 56.0305 63.9384 55.1722 63.8627C56.0304 63.7852 56.8924 63.7597 57.7536 63.7863C58.6148 63.7597 59.4768 63.7852 60.3349 63.8627Z" fill="white"/>
<path d="M49.0718 69.3135H30.5792V85.2542H49.0718V69.3135Z" fill="#455A64"/>
<g opacity="0.3">
<path d="M49.0718 69.3135H30.5792V85.2542H49.0718V69.3135Z" fill="black"/>
</g>
<path d="M78.2219 65.1093H49.0718V85.8245H78.2219V65.1093Z" fill="#455A64"/>
<path d="M78.2218 85.8216C78.2218 85.8216 78.2218 85.6922 78.2218 85.4423C78.2218 85.1924 78.2218 84.822 78.2218 84.3428C78.2218 83.3784 78.2218 81.9672 78.2071 80.165C78.2071 76.5606 78.1866 71.3891 78.1748 65.1093L78.2366 65.171L49.0894 65.1857L49.1658 65.1093C49.1658 72.524 49.1658 79.5594 49.1658 85.8216L49.0953 85.7539L70.1074 85.7863L76.0992 85.8069H77.6897H78.2454H78.1101H77.7073H76.1286L70.1545 85.8245L49.0953 85.8598H49.01V85.7892C49.01 79.527 49.01 72.4916 49.01 65.0769V65.0005H49.0894H78.2366H78.2983V65.0652C78.2836 71.3626 78.2718 76.5312 78.266 80.1591C78.266 81.9555 78.266 83.3608 78.2483 84.3222C78.2483 84.7984 78.2483 85.1601 78.2483 85.41C78.2483 85.6599 78.2218 85.8216 78.2218 85.8216Z" fill="#263238"/>
<g opacity="0.3">
<path d="M71.9832 78.7538H58.4592V80.7618H71.9832V78.7538Z" fill="black"/>
</g>
<path d="M67.8377 70.9834H61.7196C61.3153 70.9834 60.9875 71.3111 60.9875 71.7155V76.0608C60.9875 76.4651 61.3153 76.7928 61.7196 76.7928H67.8377C68.2421 76.7928 68.5698 76.4651 68.5698 76.0608V71.7155C68.5698 71.3111 68.2421 70.9834 67.8377 70.9834Z" fill="white"/>
<path d="M62.5957 72.7032H64.1451V73.2236H64.0716C64.0695 73.1488 64.0494 73.0755 64.0131 73.01C63.9768 72.9445 63.9253 72.8887 63.8629 72.8473C63.7708 72.8051 63.6701 72.7849 63.5689 72.7885V74.1438C63.5602 74.2103 63.577 74.2775 63.6159 74.332C63.6779 74.3714 63.7517 74.388 63.8246 74.3791V74.4467H62.9162V74.382C62.9863 74.3909 63.0573 74.3742 63.1161 74.3349C63.1558 74.2807 63.1736 74.2136 63.1661 74.1468V72.7914C63.0649 72.7888 62.9644 72.8089 62.8721 72.8502C62.8078 72.8897 62.7549 72.9451 62.7183 73.011C62.6817 73.0769 62.6628 73.1512 62.6633 73.2266H62.5898L62.5957 72.7032Z" fill="#263238"/>
<path d="M67.0293 72.8415C66.222 72.9434 65.4052 72.9434 64.5979 72.8415C65.4052 72.7395 66.222 72.7395 67.0293 72.8415Z" fill="#263238"/>
<path d="M67.0792 73.9292C66.271 74.0311 65.4531 74.0311 64.6449 73.9292C65.4531 73.8273 66.271 73.8273 67.0792 73.9292Z" fill="#263238"/>
<path d="M67.4026 75.0171C66.6496 75.0928 65.8923 75.1183 65.1359 75.0936C64.3794 75.1183 63.6222 75.0928 62.8691 75.0171C63.6221 74.9397 64.3794 74.9141 65.1359 74.9407C65.8923 74.9141 66.6497 74.9397 67.4026 75.0171Z" fill="#263238"/>
<path d="M60.0703 108.895C60.0703 108.895 60.0703 108.762 60.0703 108.512C60.0703 108.263 60.0703 107.892 60.0703 107.413C60.0703 106.449 60.0703 105.037 60.0703 103.235C60.0703 99.6308 60.0497 94.4593 60.038 88.1795L60.0997 88.2412L30.9525 88.2559L31.029 88.1795C31.029 95.5941 31.029 102.633 31.029 108.895L30.9614 108.824L51.9735 108.859L57.9653 108.877H59.5558H59.9674H60.1115H59.5734H57.9947L52.0206 108.895L30.9614 108.93H30.8908V108.862C30.8908 102.6 30.8908 95.5618 30.8908 88.1471V88.0707H30.9702L60.1173 88.0854H60.1791V88.1471C60.1644 94.4446 60.1526 99.6278 60.1467 103.241C60.1467 105.04 60.1467 106.446 60.1291 107.407C60.1291 107.88 60.1291 108.245 60.1291 108.495C60.1291 108.745 60.0703 108.895 60.0703 108.895Z" fill="#263238"/>
<g opacity="0.3">
<path d="M52.1646 100.913H39.8343V102.921H52.1646V100.913Z" fill="black"/>
</g>
<path d="M49.2716 93.1069H43.1535C42.7492 93.1069 42.4214 93.4347 42.4214 93.839V98.1843C42.4214 98.5886 42.7492 98.9164 43.1535 98.9164H49.2716C49.676 98.9164 50.0037 98.5886 50.0037 98.1843V93.839C50.0037 93.4347 49.676 93.1069 49.2716 93.1069Z" fill="white"/>
<path d="M45.6848 96.8789C45.6461 96.9593 45.5841 97.0262 45.507 97.071C45.4299 97.1158 45.3411 97.1366 45.2521 97.1305C45.1631 97.1245 45.078 97.092 45.0076 97.0371C44.9373 96.9823 44.885 96.9076 44.8574 96.8228C44.8298 96.738 44.8283 96.6468 44.8529 96.5611C44.8776 96.4754 44.9274 96.399 44.9958 96.3418C45.0642 96.2846 45.1482 96.2492 45.237 96.2401C45.3257 96.231 45.4151 96.2487 45.4937 96.2909C45.5958 96.3449 45.6728 96.4364 45.7085 96.5462C45.7442 96.656 45.7357 96.7753 45.6848 96.8789Z" fill="#263238"/>
<path d="M45.6967 96.726C45.5744 96.3955 45.5233 96.0428 45.5467 95.6912C45.5204 95.3434 45.5382 94.9937 45.5996 94.6504C45.6924 94.988 45.7272 95.3389 45.7025 95.6882C45.7307 96.0337 45.7287 96.3809 45.6967 96.726Z" fill="#263238"/>
<path d="M47.0255 94.9032C46.8264 95.0197 46.5988 95.0784 46.3682 95.0727C46.1377 95.0669 45.9132 94.9971 45.7202 94.8709C45.5996 94.7797 45.5673 94.6856 45.5849 94.6768C45.6026 94.668 45.6614 94.7239 45.7819 94.7797C45.9361 94.8529 46.1026 94.8968 46.2729 94.9091C46.6786 94.962 47.0108 94.8562 47.0255 94.9032Z" fill="#263238"/>
<path d="M47.1108 97.1406C47.0701 97.219 47.007 97.2836 46.9296 97.3262C46.8522 97.3688 46.7639 97.3875 46.6758 97.3799C46.5878 97.3723 46.504 97.3388 46.435 97.2836C46.366 97.2284 46.3149 97.154 46.2882 97.0697C46.2615 96.9855 46.2603 96.8952 46.2849 96.8104C46.3095 96.7255 46.3587 96.6498 46.4263 96.5929C46.4939 96.5359 46.5768 96.5003 46.6646 96.4905C46.7525 96.4808 46.8412 96.4972 46.9197 96.5379C46.9721 96.5646 47.0187 96.6014 47.0567 96.6463C47.0948 96.6912 47.1235 96.7432 47.1413 96.7992C47.1591 96.8553 47.1655 96.9144 47.1603 96.973C47.1551 97.0316 47.1382 97.0885 47.1108 97.1406Z" fill="#263238"/>
<path d="M47.1225 96.9788C47.0022 96.6478 46.9522 96.2954 46.9755 95.944C46.9492 95.5963 46.966 95.2467 47.0255 94.9032C47.1182 95.2408 47.153 95.5917 47.1284 95.941C47.1566 96.2865 47.1546 96.6337 47.1225 96.9788Z" fill="#263238"/>
<path d="M47.0432 95.2089C46.9445 95.2889 46.8303 95.3475 46.7078 95.3809C46.5854 95.4143 46.4572 95.4218 46.3317 95.403C46.2052 95.4095 46.0789 95.3887 45.9612 95.342C45.8435 95.2954 45.7372 95.2239 45.6496 95.1325C45.6702 95.0943 45.9612 95.2295 46.3405 95.2472C46.7198 95.2648 47.0255 95.1648 47.0432 95.2089Z" fill="#263238"/>
<path d="M60.0703 131.439C60.0703 131.439 60.0703 131.306 60.0703 131.056C60.0703 130.807 60.0703 130.439 60.0703 129.96C60.0703 128.996 60.0703 127.584 60.0703 125.779C60.0703 122.175 60.0497 117.006 60.0379 110.723L60.0997 110.785L30.9525 110.8L31.029 110.723C31.029 118.138 31.029 125.176 31.029 131.439L30.9613 131.368L51.9735 131.403L57.9652 131.421H59.5558H59.9674H59.5646H57.9858L52.0117 131.439L30.9525 131.474H30.882V131.403C30.882 125.141 30.882 118.103 30.882 110.688V110.612H30.9613H60.1085H60.1702V110.673C60.1555 116.971 60.1438 122.154 60.1379 125.77C60.1379 127.567 60.1379 128.972 60.1203 129.933C60.1203 130.407 60.1203 130.771 60.1203 131.021C60.1203 131.271 60.0703 131.439 60.0703 131.439Z" fill="#263238"/>
<g opacity="0.3">
<path d="M52.1646 123.457H39.8343V125.465H52.1646V123.457Z" fill="black"/>
</g>
<path d="M49.2716 115.577H43.1535C42.7492 115.577 42.4214 115.905 42.4214 116.309V120.655C42.4214 121.059 42.7492 121.387 43.1535 121.387H49.2716C49.676 121.387 50.0037 121.059 50.0037 120.655V116.309C50.0037 115.905 49.676 115.577 49.2716 115.577Z" fill="white"/>
<path d="M46.6198 117.844L47.2078 118.191C47.2327 118.207 47.2532 118.228 47.2674 118.254C47.2817 118.28 47.2891 118.309 47.2891 118.338C47.2891 118.367 47.2817 118.396 47.2674 118.422C47.2532 118.448 47.2327 118.469 47.2078 118.485L46.6198 118.855L46.0318 119.214C46.0053 119.23 45.975 119.239 45.9439 119.24C45.9128 119.241 45.8821 119.233 45.8551 119.217C45.828 119.202 45.8056 119.18 45.7901 119.153C45.7747 119.126 45.7667 119.095 45.7672 119.064V117.647C45.7671 117.616 45.7751 117.586 45.7904 117.56C45.8057 117.533 45.8278 117.511 45.8544 117.496C45.881 117.481 45.9111 117.473 45.9418 117.473C45.9724 117.473 46.0024 117.482 46.0288 117.497L46.6198 117.844Z" fill="#263238"/>
<path d="M102.533 52.5437C102.095 44.6704 98.5755 41.0101 97.5347 34.8567C97.0173 31.7667 97.1496 28.6033 94.9593 26.3659C94.1713 25.5604 92.7013 24.7313 91.5812 24.6019C90.9697 24.5255 90.0171 24.549 89.4615 24.8107C88.4236 24.6578 87.9591 24.6078 87.2271 24.8107C86.3656 25.0547 85.1691 25.7191 84.5958 26.413C83.0346 28.3181 82.7142 30.9376 82.6877 33.4014C82.6609 37.3862 83.2145 41.3537 84.3312 45.179C84.3971 45.5553 84.5914 45.8971 84.8809 46.1463C85.2161 46.3756 85.663 46.3315 86.0569 46.2668C87.573 46.0269 89.0619 45.6389 90.5022 45.1084C90.7094 45.0522 90.9019 44.9519 91.0667 44.8144C91.4636 44.4087 91.296 43.7384 91.1137 43.2004L95.1033 39.787C94.8387 42.1626 94.0743 44.4528 93.7362 46.8166C93.3417 49.6488 93.5624 52.5328 94.383 55.272C95.9312 54.9478 97.5258 54.9119 99.087 55.1662C99.4604 55.225 100.069 58.1856 100.401 58.0003C100.977 57.674 102.571 53.214 102.533 52.5437Z" fill="#263238"/>
<path d="M88.3737 26.4924L89.5056 26.366L93.8274 28.1064C94.1305 28.1233 94.4161 28.2537 94.6275 28.4716C94.8388 28.6895 94.9604 28.979 94.9681 29.2824L94.9299 43.368C94.9774 44.2782 94.7084 45.1768 94.1684 45.9111L93.5598 46.7137C92.1751 48.5394 89.3292 48.3895 88.2326 46.3756C88.1664 46.261 88.1151 46.1385 88.0797 46.011C88.0511 45.9077 88.0295 45.8027 88.015 45.6965C87.8952 44.9986 87.8498 44.29 87.8798 43.5826C87.8033 42.336 87.7769 41.8186 87.7769 41.8392C87.7769 41.8598 85.1309 41.5452 84.4135 38.1348C84.0578 36.4443 84.0019 33.6454 84.0313 31.3551C84.0578 29.2883 85.8276 26.4894 88.3737 26.4924Z" fill="#FFBE9D"/>
<path d="M84.8516 34.0276C84.8576 34.142 84.9073 34.2497 84.9905 34.3285C85.0736 34.4073 85.1839 34.4512 85.2984 34.451C85.3546 34.4526 85.4106 34.4429 85.4629 34.4224C85.5153 34.402 85.5631 34.3713 85.6034 34.3321C85.6437 34.2929 85.6757 34.246 85.6975 34.1942C85.7194 34.1424 85.7306 34.0868 85.7306 34.0306C85.726 33.9162 85.6772 33.8081 85.5943 33.7291C85.5115 33.6501 85.4012 33.6064 85.2867 33.6072C85.2304 33.6057 85.1743 33.6153 85.1217 33.6357C85.0692 33.6561 85.0213 33.6868 84.9807 33.726C84.9402 33.7651 84.9079 33.812 84.8857 33.8638C84.8635 33.9156 84.8519 33.9713 84.8516 34.0276Z" fill="#263238"/>
<path d="M89.2498 33.7512C89.2536 33.8664 89.3027 33.9754 89.3863 34.0546C89.4699 34.1339 89.5814 34.177 89.6966 34.1746C89.7526 34.1762 89.8083 34.1665 89.8605 34.1463C89.9126 34.1261 89.9602 34.0956 90.0005 34.0567C90.0408 34.0178 90.0728 33.9713 90.0949 33.9199C90.1169 33.8684 90.1284 33.8131 90.1288 33.7571C90.125 33.6425 90.0763 33.5339 89.9933 33.4548C89.9103 33.3756 89.7996 33.3321 89.6849 33.3338C89.6287 33.3318 89.5727 33.3411 89.5202 33.3612C89.4676 33.3812 89.4197 33.4116 89.3791 33.4505C89.3385 33.4895 89.3062 33.5361 89.284 33.5878C89.2618 33.6394 89.2501 33.695 89.2498 33.7512Z" fill="#263238"/>
<path d="M84.6898 32.7634C84.7457 32.8193 85.0662 32.5547 85.5395 32.5341C86.0128 32.5135 86.3715 32.7281 86.4215 32.6693C86.4715 32.6105 86.3862 32.54 86.2304 32.44C86.0185 32.308 85.7711 32.2444 85.5219 32.2577C85.2762 32.2705 85.0407 32.3599 84.8486 32.5135C84.7045 32.634 84.6604 32.7399 84.6898 32.7634Z" fill="#263238"/>
<path d="M89.1763 32.5193C89.2351 32.5723 89.5467 32.3018 90.0201 32.2636C90.4934 32.2253 90.855 32.437 90.9021 32.3753C90.9491 32.3135 90.8638 32.2489 90.7021 32.1518C90.4881 32.0239 90.239 31.9672 89.9907 31.9901C89.7447 32.01 89.5112 32.1066 89.3233 32.2665C89.188 32.39 89.1469 32.4958 89.1763 32.5193Z" fill="#263238"/>
<path d="M87.8357 36.2061C87.5819 36.1419 87.3213 36.1083 87.0595 36.1061C86.939 36.1061 86.8243 36.0826 86.8008 36.0003C86.7823 35.8762 86.8039 35.7495 86.8625 35.6387C86.9625 35.3447 87.0654 35.0301 87.1742 34.7008C87.6034 33.369 87.9092 32.2753 87.8533 32.2577C87.7974 32.24 87.4094 33.3072 86.9713 34.642L86.6773 35.5828C86.6069 35.7325 86.5923 35.9025 86.6361 36.062C86.6556 36.1039 86.6846 36.1407 86.7208 36.1693C86.7571 36.1979 86.7996 36.2175 86.8449 36.2267C86.9124 36.2419 86.9816 36.2478 87.0507 36.2443C87.3129 36.2676 87.577 36.2548 87.8357 36.2061Z" fill="#263238"/>
<path d="M87.7886 41.8186C89.403 41.7621 90.9702 41.2594 92.3162 40.3662C92.3162 40.3662 91.2813 42.7947 87.8356 42.6447L87.7886 41.8186Z" fill="#EB996E"/>
<path d="M88.0914 37.338C88.1757 37.2198 88.2889 37.125 88.4201 37.0628C88.5513 37.0005 88.6962 36.9728 88.8411 36.9823C88.9457 36.9862 89.0484 37.0115 89.143 37.0565C89.2375 37.1015 89.3219 37.1653 89.3909 37.2439C89.4591 37.3189 89.5022 37.4133 89.5144 37.5139C89.5265 37.6145 89.507 37.7164 89.4585 37.8055C89.3856 37.8925 89.2891 37.9566 89.1806 37.99C89.0721 38.0234 88.9562 38.0247 88.847 37.9936C88.619 37.926 88.407 37.813 88.2237 37.6614C88.168 37.6276 88.1199 37.5826 88.0826 37.5291C88.0648 37.5032 88.0552 37.4724 88.0552 37.4409C88.0552 37.4094 88.0648 37.3787 88.0826 37.3527" fill="#EB996E"/>
<path d="M89.2439 36.4561C89.1675 36.4561 89.191 36.9676 88.7706 37.3557C88.3501 37.7438 87.8004 37.7114 87.8004 37.7849C87.8004 37.8584 87.9268 37.879 88.159 37.8731C88.4597 37.8618 88.7469 37.7453 88.9705 37.5439C89.184 37.3493 89.3137 37.0795 89.3321 36.7912C89.3409 36.5854 89.288 36.4561 89.2439 36.4561Z" fill="#263238"/>
<path d="M89.1763 30.8054C89.2468 30.92 89.6408 30.7613 90.1347 30.7083C90.6286 30.6554 91.0549 30.7083 91.0902 30.579C91.1049 30.5202 91.0108 30.4173 90.8227 30.335C90.5842 30.2348 90.3236 30.1993 90.0671 30.2321C89.8126 30.2588 89.57 30.3532 89.3644 30.5055C89.2086 30.629 89.1439 30.7495 89.1763 30.8054Z" fill="#263238"/>
<path d="M84.584 30.97C84.6722 31.0758 84.9927 30.9465 85.3837 30.9229C85.7747 30.8994 86.1099 30.9582 86.1834 30.8406C86.2128 30.7848 86.154 30.6819 86.004 30.5848C85.8048 30.4697 85.5744 30.4203 85.3455 30.4437C85.1151 30.4583 84.8951 30.5447 84.7163 30.6907C84.584 30.8083 84.5487 30.92 84.584 30.97Z" fill="#263238"/>
<path d="M94.286 35.0507C94.286 34.7979 94.5388 34.1687 94.7887 34.1276C95.4561 33.9894 96.6733 33.9835 96.7703 35.6916C96.9026 38.026 94.53 37.6761 94.5212 37.6115C94.5124 37.5468 94.3389 35.9327 94.286 35.0507Z" fill="#FFBE9D"/>
<path d="M95.1974 36.6854C95.1974 36.6854 95.2386 36.7118 95.3091 36.7383C95.4034 36.7762 95.5088 36.7762 95.6031 36.7383C95.8442 36.6324 96.0294 36.2297 96.0177 35.8063C96.0148 35.6016 95.9645 35.4003 95.8707 35.2183C95.8441 35.147 95.8009 35.0832 95.7447 35.032C95.6884 34.9809 95.6207 34.9439 95.5473 34.9243C95.4995 34.9152 95.45 34.9227 95.4072 34.9458C95.3644 34.9688 95.3308 35.0058 95.3121 35.0507C95.2856 35.1183 95.3121 35.1624 95.2915 35.1683C95.2709 35.1742 95.2386 35.1301 95.2503 35.0331C95.2612 34.975 95.2912 34.9222 95.3356 34.8831C95.3654 34.8566 95.4003 34.8363 95.4383 34.8237C95.4762 34.811 95.5163 34.8063 95.5561 34.8096C95.6528 34.8244 95.7443 34.863 95.8224 34.922C95.9004 34.9811 95.9625 35.0587 96.003 35.1477C96.1135 35.3447 96.1741 35.5658 96.1794 35.7916C96.1794 36.262 95.9765 36.7177 95.6443 36.8324C95.5826 36.8547 95.5166 36.8626 95.4513 36.8555C95.3861 36.8484 95.3234 36.8264 95.268 36.7912C95.2033 36.75 95.1886 36.6912 95.1974 36.6854Z" fill="#EB996E"/>
<path d="M95.5414 31.5521C95.706 30.6201 95.3562 29.3148 95.1151 28.4063C94.8761 27.6499 94.3813 27.0003 93.7157 26.5688C92.6901 25.8328 91.4491 25.4585 90.1877 25.5045L89.7202 25.6574C89.0293 25.6015 88.2914 25.7485 87.9121 26.3071V25.6809C86.6538 25.8367 85.5601 26.6688 84.828 27.7036C84.096 28.7385 83.6932 29.9616 83.358 31.1846C84.9015 29.8028 86.5744 28.2769 87.8621 26.6482C89.2116 28.4122 91.2108 29.547 93.0336 30.8671C93.3465 31.7247 93.4835 32.6366 93.4364 33.5484C93.4364 35.8416 93.9215 37.9143 94.1008 40.2045C94.2037 41.5246 94.1949 42.6535 95.5443 42.5389C95.7178 38.3112 94.8152 35.7063 95.5414 31.5521Z" fill="#263238"/>
<path d="M97.076 31.3728C96.8666 31.4445 96.6476 31.4842 96.4263 31.4904C95.8966 31.5369 95.3632 31.5162 94.8387 31.4286C94.3159 31.3361 93.8044 31.1882 93.3129 30.9876C93.1041 30.9176 92.9061 30.8187 92.7249 30.6936C92.7454 30.6436 93.6598 31.0699 94.8652 31.2816C96.0706 31.4933 97.0702 31.3198 97.076 31.3728Z" fill="#455A64"/>
<path d="M96.7203 30.1203C96.5954 30.1238 96.4704 30.116 96.3469 30.0968C96.1058 30.0733 95.7589 30.0233 95.3385 29.9439C93.1273 29.5192 91.0208 28.6652 89.138 27.4302C88.7823 27.1921 88.4971 26.9863 88.309 26.8422C88.2016 26.7729 88.1029 26.6909 88.015 26.5982C88.1271 26.6532 88.2334 26.7192 88.3325 26.7952C88.5324 26.9304 88.8234 27.1186 89.1851 27.345C90.1336 27.9296 91.1287 28.4351 92.1603 28.8561C93.1939 29.272 94.2598 29.6024 95.3473 29.844C95.7648 29.9351 96.1058 30.0027 96.344 30.0439C96.4721 30.0539 96.5984 30.0795 96.7203 30.1203Z" fill="#455A64"/>
<path d="M84.0166 30.3908C83.8769 30.6306 83.6945 30.8428 83.4786 31.017C83.297 31.2278 83.0789 31.4041 82.8347 31.5374C82.8053 31.5051 83.0464 31.2258 83.3727 30.9082C83.5539 30.6978 83.7721 30.5225 84.0166 30.3908Z" fill="#455A64"/>
<path d="M87.818 45.8963C88.0797 45.4406 87.8827 43.5767 87.8827 43.5767L87.277 44.6674C85.9981 45.1643 84.24 45.8728 83.749 46.2197C83.0111 46.7372 82.0115 48.9186 82.0115 48.9186L75.8375 56.7332L64.298 54.7104L63.2131 60.5052L67.1116 61.3137L73.9677 62.1957C75.8934 62.6102 77.7661 62.7631 79.2597 61.4989L79.3626 61.299C78.8187 69.09 79.5684 77.6807 79.8241 85.4834C79.8019 86.0959 79.9132 86.7058 80.1505 87.2709C80.5444 88.0412 82.0027 88.4469 82.8582 88.3323C83.7138 88.2176 83.4462 87.6708 83.6256 86.827C83.7255 86.3654 83.2933 85.7245 83.2375 85.257C82.3966 78.4754 81.5568 71.6948 80.7179 64.9152C80.6914 64.4977 80.662 64.1096 80.6326 63.7656C80.3386 60.1818 80.2945 59.2145 80.4533 57.574C80.7003 55.0427 86.054 48.9745 87.818 45.8963Z" fill="#FF9902"/>
<path d="M81.35 50.959C81.3043 51.0827 81.2451 51.201 81.1736 51.3118C81.0501 51.5293 80.8796 51.8527 80.6885 52.2585C79.6653 54.3767 79.1222 56.6946 79.098 59.0469C79.098 59.4967 79.098 59.8613 79.1127 60.1112C79.128 60.2421 79.128 60.3743 79.1127 60.5052C79.0818 60.3778 79.0621 60.2479 79.0539 60.1171C79.0142 59.7617 78.9926 59.4045 78.9892 59.0469C78.9707 57.8598 79.0981 56.675 79.3684 55.5189C79.6405 54.3672 80.0512 53.2526 80.5915 52.1997C80.7528 51.8801 80.9304 51.569 81.1236 51.2677C81.189 51.1577 81.2648 51.0544 81.35 50.959Z" fill="#263238"/>
<g opacity="0.3">
<path d="M80.5445 52.3085C79.6448 53.6109 78.8128 55.0103 78.4159 56.5509C78.019 58.0915 78.2689 58.9646 78.2336 60.5816L79.1597 60.7904C78.9539 57.8915 79.0509 55.9776 80.5445 52.3085Z" fill="black"/>
</g>
<path d="M80.2063 56.551C80.1997 56.5002 80.1997 56.4488 80.2063 56.3981C80.224 56.3011 80.2328 56.1511 80.2769 55.9659C80.4013 55.4437 80.5594 54.93 80.7502 54.4283C81.3864 52.7795 82.1187 51.1696 82.9435 49.6067C83.214 49.0833 83.4815 48.5777 83.7461 48.0955L83.7667 48.0573H83.8108L84.7839 48.0396L84.7192 48.1396C84.6383 47.9628 84.5062 47.8143 84.34 47.7133L84.2724 47.6692L84.3253 47.6104C84.9706 46.8329 85.668 46.1001 86.4127 45.4172C86.6832 45.1702 86.9037 44.9821 87.0566 44.8556C87.1312 44.7856 87.213 44.7235 87.3006 44.6704C87.2366 44.75 87.1647 44.8229 87.086 44.888L86.4686 45.476C85.7481 46.1758 85.0679 46.9159 84.4311 47.6927L84.4135 47.5928C84.6045 47.7065 84.7562 47.8757 84.8486 48.0779L84.8956 48.1749H84.7869L83.8137 48.2013L83.8755 48.1631C83.6167 48.6424 83.3492 49.148 83.0787 49.6713C82.135 51.5088 81.3382 53.1994 80.8502 54.4606C80.6509 54.9554 80.4792 55.4609 80.3357 55.9747C80.2563 56.3451 80.221 56.551 80.2063 56.551Z" fill="#263238"/>
<path d="M91.934 126.544L95.7237 132.644C95.7237 132.644 90.7962 138.548 91.3872 139.741L103.482 132.818L97.9522 123.068L91.934 126.544Z" fill="#FF9902"/>
<path d="M99.1517 129.98C99.2882 129.949 99.4317 129.969 99.5544 130.037C99.6771 130.104 99.7703 130.215 99.8161 130.348C99.8524 130.483 99.8354 130.627 99.7686 130.75C99.7019 130.873 99.5905 130.966 99.4574 131.009C99.3126 131.045 99.1597 131.024 99.0298 130.95C98.8999 130.877 98.8027 130.758 98.7577 130.615C98.7336 130.47 98.7671 130.321 98.8511 130.201C98.9351 130.08 99.063 129.996 99.2075 129.969" fill="#E0E0E0"/>
<g opacity="0.6">
<path d="M103.471 132.817L102.883 131.856L91.5018 138.856C91.5018 138.856 91.0961 139.397 91.3754 139.738L103.471 132.817Z" fill="white"/>
</g>
<path d="M95.4826 132.694C95.5178 132.753 95.8295 132.612 96.2264 132.635C96.6233 132.659 96.9232 132.817 96.9643 132.762C97.0055 132.706 96.7232 132.418 96.2381 132.397C95.753 132.376 95.4385 132.647 95.4826 132.694Z" fill="#263238"/>
<path d="M94.5124 133.946C94.5329 134.011 94.8446 133.964 95.1886 134.099C95.5325 134.235 95.7413 134.467 95.8001 134.429C95.8589 134.39 95.7031 134.038 95.2738 133.879C94.8446 133.72 94.483 133.888 94.5124 133.946Z" fill="#263238"/>
<path d="M94.6623 135.878C94.7241 135.857 94.6359 135.516 94.3007 135.29C93.9655 135.064 93.6127 135.081 93.6157 135.146C93.6186 135.211 93.8891 135.284 94.1625 135.481C94.4359 135.678 94.6006 135.904 94.6623 135.878Z" fill="#263238"/>
<path d="M94.7711 131.209C94.8269 131.247 95.0651 131.012 95.3973 130.845C95.7295 130.677 96.0647 130.63 96.0676 130.551C96.0705 130.471 95.7001 130.415 95.2944 130.618C94.8887 130.821 94.7152 131.18 94.7711 131.209Z" fill="#263238"/>
<path d="M92.4485 129.048L92.8571 136.222C92.8571 136.222 85.7041 139.044 85.6512 140.376L99.5838 140.082L99.4074 128.881L92.4485 129.048Z" fill="#FF9902"/>
<path d="M97.1525 135.534C97.286 135.575 97.4005 135.663 97.4754 135.781C97.5502 135.899 97.5807 136.039 97.5612 136.178C97.5275 136.314 97.4434 136.431 97.326 136.507C97.2086 136.583 97.0666 136.612 96.929 136.586C96.7863 136.545 96.6637 136.453 96.5845 136.327C96.5054 136.201 96.4752 136.051 96.4998 135.904C96.5493 135.766 96.6503 135.652 96.7818 135.586C96.9132 135.521 97.065 135.508 97.2054 135.552" fill="#E0E0E0"/>
<g opacity="0.6">
<path d="M99.578 140.085L99.5163 138.956L86.1863 139.65C86.1863 139.65 85.5719 139.944 85.6512 140.367L99.578 140.085Z" fill="white"/>
</g>
<path d="M92.6308 136.154C92.6308 136.222 92.9748 136.245 93.3129 136.448C93.651 136.651 93.8362 136.942 93.9009 136.916C93.9656 136.889 93.8538 136.495 93.4393 136.245C93.0248 135.996 92.6132 136.093 92.6308 136.154Z" fill="#263238"/>
<path d="M91.1814 136.789C91.1667 136.857 91.4753 136.966 91.7017 137.248C91.9281 137.53 92.0104 137.836 92.078 137.836C92.1457 137.836 92.181 137.445 91.8811 137.101C91.5812 136.757 91.1814 136.725 91.1814 136.789Z" fill="#263238"/>
<path d="M90.3875 138.556C90.4493 138.571 90.5375 138.227 90.3552 137.86C90.1729 137.492 89.8495 137.348 89.8231 137.407C89.7966 137.466 89.9965 137.657 90.1406 137.962C90.2846 138.268 90.3199 138.55 90.3875 138.556Z" fill="#263238"/>
<path d="M92.719 134.511C92.7484 134.573 93.0571 134.47 93.4422 134.49C93.8273 134.511 94.1302 134.623 94.1654 134.564C94.2007 134.505 93.9067 134.27 93.451 134.252C92.9953 134.235 92.6837 134.458 92.719 134.511Z" fill="#263238"/>
<path d="M82.0585 75.4728C82.0585 75.4728 81.4176 105.993 81.9938 108.107C82.5701 110.221 94.3653 131.821 94.3653 131.821L101.483 128.325L92.0457 105.517L94.1272 76.1901L82.0585 75.4728Z" fill="#263238"/>
<path d="M97.667 73.7676C97.667 73.7676 101.759 80.4502 101.036 84.4574C100.742 86.1009 98.499 89.7494 98.499 89.7494V109.309L100.228 135.428H91.934L88.3678 112.396C88.3678 112.396 87.1183 110.282 86.639 108.46C86.1598 106.637 84.5987 85.0689 84.5987 85.0689L82.1173 76.2989L97.667 73.7676Z" fill="#263238"/>
<path d="M99.4133 121.634C99.3993 121.817 99.3993 122 99.4133 122.183C99.4133 122.536 99.4486 123.048 99.4839 123.68C99.5544 124.941 99.6809 126.682 99.8279 128.604C99.9749 130.527 100.098 132.268 100.181 133.529C100.219 134.137 100.254 134.64 100.278 135.022C100.283 135.206 100.301 135.389 100.334 135.569C100.35 135.386 100.35 135.202 100.334 135.019C100.334 134.667 100.316 134.155 100.289 133.523C100.239 132.259 100.134 130.515 99.9955 128.593C99.8573 126.67 99.7014 124.959 99.6044 123.671C99.5515 123.063 99.5103 122.56 99.4751 122.178C99.4691 121.995 99.4485 121.813 99.4133 121.634Z" fill="#455A64"/>
<path d="M96.782 77.1838C96.7205 77.2787 96.6452 77.3639 96.5586 77.4367C96.3402 77.6543 96.102 77.8512 95.8471 78.0247C95.0027 78.5958 94.0201 78.9288 93.0024 78.9888C91.9848 79.0488 90.9698 78.8336 90.0642 78.3657C89.7909 78.2262 89.5311 78.0619 89.288 77.8747C89.1949 77.8119 89.1109 77.7368 89.0381 77.6513C89.0557 77.6278 89.4232 77.9453 90.1112 78.2658C91.0095 78.6946 92.0024 78.887 92.9959 78.8247C93.9894 78.7624 94.9505 78.4476 95.7883 77.91C96.4351 77.5161 96.7615 77.1633 96.782 77.1838Z" fill="#455A64"/>
<path d="M84.6693 83.3256C84.6734 83.3617 84.6734 83.3982 84.6693 83.4343C84.6693 83.5137 84.6839 83.6166 84.6957 83.7489C84.7163 84.0429 84.7486 84.4457 84.7868 84.969C84.8574 86.0362 84.9632 87.565 85.0808 89.4496C85.3454 93.2304 85.6688 98.4607 86.1833 104.22C86.2539 105.005 86.3333 105.781 86.4215 106.537C86.4715 106.916 86.5126 107.295 86.5949 107.651C86.6884 108.009 86.8043 108.36 86.9419 108.704C87.4534 110.082 88.0003 111.385 88.5236 112.602V112.62C89.0763 116.165 89.5438 119.167 89.876 121.29L90.2758 123.751C90.3258 124.03 90.364 124.244 90.3934 124.4C90.4228 124.556 90.4434 124.621 90.4405 124.624C90.4113 124.553 90.3877 124.48 90.3699 124.406C90.3376 124.259 90.2876 124.045 90.2317 123.759C90.12 123.192 89.973 122.36 89.7907 121.304C89.4291 119.194 88.944 116.195 88.3854 112.64V112.658C87.8562 111.441 87.3064 110.138 86.789 108.757C86.65 108.41 86.5331 108.054 86.4391 107.692C86.3509 107.313 86.3098 106.937 86.2598 106.557C86.1687 105.796 86.0893 105.02 86.0217 104.235C85.516 98.4695 85.2014 93.2392 84.9633 89.4555L84.7398 84.9661C84.7133 84.4428 84.6928 84.0341 84.681 83.746C84.681 83.6137 84.681 83.5078 84.681 83.4285C84.6736 83.3946 84.6697 83.3602 84.6693 83.3256Z" fill="#455A64"/>
<path d="M87.9091 44.885C87.9091 44.885 87.8209 46.2227 88.9087 46.2227C90.4375 46.2227 93.6421 43.2827 93.6421 43.2827L87.4681 58.018V75.852L82.232 76.3871C82.232 76.3871 81.6175 76.2989 81.4941 75.4169C81.25 73.6911 81.2853 70.5453 81.0854 69.2429C80.4621 65.2151 79.2391 63.0219 79.4125 59.8349C79.6683 55.0927 86.3421 46.8989 86.3421 46.8989L87.9091 44.885Z" fill="white"/>
<path d="M94.3595 41.4276C93.5846 42.8713 92.7226 44.2664 91.7782 45.6054C90.4434 47.4605 81.988 60.4141 81.988 60.4141L85.366 86.6918L85.7424 88.9174C85.7669 89.0657 85.8212 89.2075 85.9021 89.3343C85.983 89.461 86.0888 89.5699 86.213 89.6546C86.3372 89.7392 86.4773 89.7978 86.6249 89.8267C86.7724 89.8557 86.9242 89.8544 87.0712 89.8229L102.006 87.1975C102.196 87.1643 102.375 87.0912 102.534 86.9832C102.693 86.8752 102.827 86.7346 102.927 86.5709C103.028 86.4072 103.092 86.224 103.116 86.0335C103.141 85.843 103.124 85.6495 103.068 85.4659L96.3999 66.7381L100.707 50.1065C100.707 50.1065 100.548 47.6839 97.9257 45.2261C97.4259 44.7586 95.365 43.0505 95.0239 42.5801L94.3595 41.4276Z" fill="#FF9902"/>
<g opacity="0.3">
<path d="M83.0493 68.6726C83.0493 68.6726 89.926 74.1263 93.2717 74.1763C96.6174 74.2262 98.3579 71.3921 98.3579 71.3921L91.6282 71.5773L82.8082 66.7292L83.0493 68.6726Z" fill="black"/>
</g>
<path d="M77.9455 63.504C77.9455 63.504 84.1489 67.6024 85.2955 68.3815C86.4421 69.1606 91.8546 72.3005 92.5602 72.5269C93.2658 72.7533 97.6435 72.7827 98.4402 71.295C99.237 69.8074 99.7867 66.6322 99.7867 66.6322L100.842 51.7705C100.946 50.3901 100.568 49.0166 99.7721 47.8838C99.1311 46.9783 98.2844 46.161 97.3671 46.2991C95.412 46.5931 91.2078 51.3177 91.4107 53.7462C91.6136 56.1746 91.6194 62.9366 91.6194 62.9366L80.5445 59.2704L77.9455 63.504Z" fill="#FF9902"/>
<path d="M99.7808 47.8838C99.8538 47.978 99.9215 48.0762 99.9837 48.1778C100.169 48.4631 100.326 48.7653 100.454 49.0804C100.663 49.588 100.799 50.1224 100.86 50.668C100.91 51.4059 100.894 52.1469 100.81 52.8818C100.581 56.1922 100.251 60.905 99.8602 66.544C99.7485 67.179 99.6133 67.8209 99.4545 68.4697C99.2986 69.1328 99.1022 69.7857 98.8665 70.4248C98.7523 70.7616 98.5941 71.0819 98.3961 71.3773C98.1706 71.6651 97.8806 71.8958 97.5494 72.0506C96.8902 72.3735 96.1817 72.5842 95.4532 72.6739C94.7107 72.7863 93.9572 72.806 93.2099 72.7327C92.8232 72.7062 92.4451 72.6064 92.0957 72.4387C91.7517 72.2681 91.4165 72.08 91.0814 71.8948C89.7349 71.1421 88.3766 70.3581 87.0065 69.5428C85.3631 68.5902 83.8372 67.5142 82.3202 66.5234L77.9102 63.5834L77.8514 63.5452L77.8896 63.4864L80.4974 59.1822L80.5268 59.1352L80.5797 59.1528L91.64 62.8984L91.5753 62.9425C91.8017 60.1818 91.981 57.9827 92.1045 56.4745C92.1692 55.7248 92.2192 55.1456 92.2544 54.7487C92.2721 54.5576 92.2838 54.4077 92.2956 54.3048C92.3074 54.2019 92.3132 54.1519 92.3132 54.1519C92.3132 54.1519 92.3132 54.2048 92.3132 54.3048C92.3132 54.4047 92.2956 54.5576 92.2838 54.7516C92.2544 55.1485 92.2133 55.7306 92.1604 56.4803C92.0486 57.9944 91.884 60.1906 91.6753 62.9483V63.013L91.6135 62.9924L80.5327 59.2733L80.615 59.2439L78.0101 63.5511L77.9896 63.454L82.3996 66.3793C83.9225 67.373 85.4395 68.4373 87.0771 69.3928C88.4491 70.2101 89.8064 70.9941 91.149 71.7448C91.4842 71.93 91.8193 72.1153 92.1574 72.2858C92.4904 72.4501 92.8516 72.5499 93.2217 72.5798C93.9562 72.6526 94.6968 72.6338 95.4267 72.5239C96.1413 72.4382 96.8368 72.2346 97.4847 71.9212C97.7962 71.7747 98.0699 71.5584 98.2844 71.2891C98.4753 71.0048 98.6276 70.6963 98.7371 70.3718C98.9728 69.7377 99.1691 69.0897 99.3251 68.4314C99.4868 67.7876 99.6191 67.1467 99.7338 66.5204C100.148 60.8845 100.492 56.1717 100.736 52.8612C100.825 52.1307 100.848 51.3937 100.804 50.6591C100.751 50.1176 100.622 49.5862 100.422 49.0804C100.298 48.7663 100.147 48.4634 99.9719 48.1749C99.9131 48.0749 99.8632 48.0043 99.8338 47.9544L99.7808 47.8838Z" fill="#263238"/>
<path d="M83.8725 57.5005C83.9126 57.4445 83.9579 57.3923 84.0077 57.3447C84.1077 57.233 84.2429 57.0889 84.4076 56.9096L85.8776 55.3131L88.0855 52.9611C88.9293 52.0791 89.8319 51.0972 90.8991 50.1623V50.274L90.8109 50.174L90.0641 49.3479L89.9407 49.2097H90.1259L91.5077 49.2803L91.4401 49.3185L94.2213 44.4763L95.0445 43.071L95.2709 42.6976C95.3238 42.6123 95.3532 42.5682 95.3591 42.5712C95.3413 42.6189 95.3197 42.6652 95.2944 42.7094C95.2415 42.8093 95.1739 42.9387 95.0886 43.0945L94.3036 44.5233L91.5665 49.392L91.543 49.4302H91.4959L90.1141 49.3596L90.1759 49.2332L90.9197 50.0594L91.0108 50.1593L91.0608 50.2152L91.002 50.2681C89.9524 51.1883 89.041 52.1762 88.1914 53.0464L85.9628 55.3808C85.3278 56.0452 84.8104 56.5803 84.4487 56.9448C84.2694 57.1271 84.1283 57.2682 84.0283 57.3594C83.9822 57.4125 83.9299 57.4598 83.8725 57.5005Z" fill="#263238"/>
<g opacity="0.3">
<path d="M83.3757 58.3238L91.787 50.3946L91.0696 49.6096H91.787L91.9752 48.5277L91.5018 49.3627L90.1171 49.2921L90.9344 50.0389L83.946 57.4271L83.3757 58.3238Z" fill="black"/>
</g>
<path d="M88.7 78.986L88.8411 78.9508L89.2704 78.8596L90.8932 78.5186L96.5616 77.3661H96.6116L96.638 77.4102L98.1992 79.9533L98.258 80.0474L98.1492 80.0679L97.964 80.1032L89.6967 81.6555H89.6555L89.6408 81.6144L88.9352 79.671C88.8617 79.4594 88.8 79.2918 88.7559 79.1624C88.7329 79.1061 88.7143 79.0481 88.7 78.989C88.731 79.0491 88.7585 79.1109 88.7823 79.1742C88.8323 79.3035 88.9029 79.4682 88.9881 79.6887L89.7349 81.5791L89.679 81.5468L97.9346 79.9445L98.1198 79.9092L98.0698 80.0239L96.5116 77.4778L96.588 77.5131L90.9609 78.5833L89.3115 78.8773L88.8647 78.9537C88.8107 78.9686 88.7556 78.9794 88.7 78.986Z" fill="#263238"/>
<g opacity="0.3">
<path d="M88.7794 79.236L89.3762 82.32L97.9375 80.7765L97.6993 80.0621L89.6731 81.5938L88.7794 79.236Z" fill="black"/>
</g>
<path d="M93.7891 65.5385C93.745 65.559 93.3893 64.8534 92.7513 64.1331C92.1133 63.4128 91.4606 62.9571 91.4871 62.9248C92.5337 63.5035 93.3473 64.4272 93.7891 65.5385Z" fill="#263238"/>
<path d="M62.9632 55.9717C62.9632 55.9717 60.817 54.6869 59.9586 53.8637C59.9586 53.8637 58.7091 53.4698 58.1358 54.2577C58.1358 54.2577 56.8128 54.6223 56.6364 54.8692C56.46 55.1162 55.3486 56.8302 55.3486 56.8302C55.3486 56.8302 55.9366 58.8735 55.9925 58.9764C56.0983 59.1998 56.3394 59.435 56.5423 59.1881C56.609 59.1051 56.6425 59.0004 56.6364 58.8941V58.7588L56.9568 58.5325C56.9568 58.5325 57.1009 59.3263 57.5301 59.2028C58.0238 58.9751 58.4911 58.6941 58.9237 58.3649C58.9237 58.3649 60.282 59.1381 60.9964 59.2175C61.7892 59.3506 62.5744 59.5263 63.3484 59.7437L64.0716 55.86L62.9632 55.9717Z" fill="#FFBE9D"/>
<path d="M56.5746 58.9323C56.5746 58.9323 56.5246 58.9881 56.407 58.9646C56.3302 58.9388 56.262 58.8921 56.2101 58.8298C56.1582 58.7675 56.1246 58.6921 56.113 58.6118C56.0543 58.1157 56.0543 57.6144 56.113 57.1183C56.1646 56.6244 56.2431 56.1337 56.3483 55.6483C56.3772 55.4466 56.4305 55.2492 56.507 55.0603C56.5599 55.0603 56.3923 55.9923 56.2659 57.1183C56.2069 57.6059 56.1892 58.0977 56.213 58.5883C56.2172 58.6556 56.2397 58.7204 56.278 58.7758C56.3164 58.8313 56.3691 58.8752 56.4306 58.9029C56.5129 58.944 56.5717 58.9205 56.5746 58.9323Z" fill="#EB996E"/>
<path d="M59.0912 55.5807C58.8151 55.8463 58.4581 56.0118 58.077 56.0511L58.1387 55.9952L58.1211 56.0717C58.0507 56.463 57.9322 56.8442 57.7682 57.2065C57.7853 56.8075 57.8535 56.4122 57.9711 56.0305L57.9917 55.957V55.907H58.0417C58.399 55.8239 58.7498 55.7149 59.0912 55.5807Z" fill="#EB996E"/>
<path d="M60.8317 55.8601C60.6834 55.7052 60.4914 55.5991 60.2813 55.556C60.0713 55.513 59.853 55.5349 59.6557 55.619L59.4323 55.913L57.7389 57.3242C57.4257 57.5496 57.1666 57.8418 56.9803 58.1797C56.8907 58.3503 56.8594 58.5456 56.8913 58.7357C56.9231 58.9258 57.0164 59.1002 57.1567 59.2322C57.5037 59.4968 58.0182 59.3469 58.3563 59.0735C58.6944 58.8001 58.9443 58.4179 59.2912 58.1621C59.838 57.7593 60.6318 57.6505 60.967 57.0625C61.0704 56.8724 61.113 56.6551 61.0888 56.44C61.0646 56.2249 60.9749 56.0224 60.8317 55.8601Z" fill="#FFBE9D"/>
<path d="M59.5264 55.3162C59.5491 55.5322 59.4961 55.7493 59.3764 55.9306C59.2632 56.1346 59.1195 56.32 58.9501 56.4804C58.7428 56.6682 58.5217 56.8401 58.2886 56.9949C57.8604 57.2452 57.4809 57.5709 57.1685 57.9563C57.0555 58.128 56.9571 58.309 56.8745 58.4972C56.8724 58.2802 56.9416 58.0684 57.0715 57.8945C57.1978 57.7003 57.3502 57.5242 57.5242 57.3712C57.7376 57.1906 57.9614 57.0227 58.1946 56.8685C58.4233 56.7191 58.6414 56.5541 58.8472 56.3746C59.0127 56.2297 59.1571 56.0624 59.2765 55.8777C59.3785 55.6994 59.4623 55.5113 59.5264 55.3162Z" fill="#EB996E"/>
<path d="M68.0436 62.1075C68.0436 62.1075 68.1053 60.0024 68.6316 59.3762C69.1578 58.75 72.2831 57.9532 72.2831 57.9532L80.1152 59.7702L78.2954 62.7102L77.7456 62.1927C77.7456 62.1927 75.2819 62.9336 74.0647 62.6661C73.3414 62.5124 72.6315 62.3011 71.942 62.034L70.6661 62.1222C70.6661 62.1222 69.7458 63.0747 69.4489 63.0747C69.152 63.0747 68.8256 62.8072 68.9726 62.5102L68.708 62.0634C68.708 62.0634 68.1641 62.375 68.0436 62.1075Z" fill="#FFBE9D"/>
<path d="M72.1566 60.6404C71.9872 60.7455 71.7963 60.8108 71.598 60.8315C71.1364 60.8875 70.6795 60.9769 70.2309 61.0991C69.8062 61.2713 69.4576 61.5906 69.249 61.9987C69.166 62.1747 69.0676 62.3429 68.955 62.5014C68.9876 62.3066 69.0553 62.1193 69.1549 61.9487C69.2477 61.7518 69.3674 61.5688 69.5106 61.4048C69.6921 61.2016 69.9215 61.047 70.178 60.955C70.6356 60.8268 71.1059 60.7489 71.5804 60.7227C71.942 60.6845 72.1478 60.6198 72.1566 60.6404Z" fill="#EB996E"/>
<path d="M71.5363 59.094C71.5363 59.1146 71.2864 59.1557 70.8983 59.2939C70.672 59.3706 70.4502 59.46 70.2339 59.5615C69.9683 59.6747 69.7192 59.8231 69.493 60.0025C69.3939 60.1098 69.3089 60.2293 69.2402 60.3582C69.1667 60.4846 69.099 60.6081 69.0402 60.7286C68.933 60.941 68.8473 61.1636 68.7845 61.3931C68.6816 61.7871 68.6992 62.0428 68.6727 62.0458C68.6154 61.824 68.6154 61.5913 68.6727 61.3696C68.7219 61.1269 68.7998 60.891 68.905 60.6669C68.9638 60.5405 69.0314 60.4111 69.1049 60.2818C69.1789 60.1379 69.273 60.0053 69.3842 59.8878C69.6243 59.6929 69.8918 59.5344 70.178 59.4174C70.4037 59.3208 70.6354 59.2393 70.8719 59.1734C71.0853 59.1006 71.3117 59.0736 71.5363 59.094Z" fill="#EB996E"/>
</svg>
