<svg width="193" height="388" viewBox="0 0 193 388" fill="none" xmlns="http://www.w3.org/2000/svg">
<path fill-rule="evenodd" clip-rule="evenodd" d="M162.11 387.07L29.2998 386.47C13.3198 386.4 0.429795 373.54 0.499795 357.74V357.7L1.8998 28.4798C1.9698 12.6798 14.9898 -0.0702014 30.9698 -0.000201421L163.79 0.609799C179.77 0.699799 192.65 13.5698 192.56 29.3698V29.3898L191.15 358.61C191.07 374.39 178.07 387.13 162.11 387.07ZM164.23 11.1698L138.48 11.0498C134.95 11.1098 132.14 14.0198 132.2 17.5498V17.5598V22.2298C132.26 25.7598 129.45 28.6698 125.92 28.7398L75.7198 28.4998C72.1898 28.4098 69.4098 25.4698 69.4998 21.9398V17.2698C69.5798 13.7398 66.7998 10.7998 63.2698 10.6998H54.2098L31.6798 10.5898C20.4898 10.5398 11.3698 19.5698 11.3198 30.7698L9.9498 355.77C9.90979 366.96 18.9298 376.06 30.1198 376.11L162.67 376.73C173.86 376.77 182.97 367.74 183.03 356.55L183.361 277.914C183.451 277.286 183.5 276.611 183.5 275.908V245.053L184.4 31.5498C184.47 20.3598 175.45 11.2398 164.26 11.1698H164.23Z" fill="#263238"/>
</svg>
