<svg width="408" height="428" viewBox="0 0 408 428" fill="none" xmlns="http://www.w3.org/2000/svg">
<path d="M379.344 396.97C379.344 397.099 300.833 397.193 204.008 397.193C107.183 397.193 28.6562 397.099 28.6562 396.97C28.6562 396.842 107.15 396.748 204.008 396.748C300.866 396.748 379.344 396.85 379.344 396.97Z" fill="#263238"/>
<path d="M115.673 106.589L115.738 110.013C115.738 110.013 117.065 136.549 116.983 140.538C116.902 144.527 104.244 167.288 104.244 167.288L112.018 180.616L130.577 145.52L126.133 107.856L126.019 106.923" fill="#FFBE9D"/>
<path d="M125.099 102.489L122.6 92.8247L112.832 98.7653C112.832 99.6213 115.754 106.589 115.754 106.589L117.447 108.438C117.447 108.438 125.937 107.497 126.116 107.402C126.295 107.308 125.099 102.489 125.099 102.489Z" fill="#FFBE9D"/>
<path d="M122.901 93.5094C122.901 93.5094 122.958 93.5864 122.999 93.7148C123.373 94.7591 124.464 99.4757 123.967 99.8267C123.471 100.178 121.794 100.263 121.525 99.6726C121.257 99.0819 120.329 93.6806 120.329 93.6806C120.329 93.6806 120.231 92.8246 121.517 92.2511C122.315 91.9258 122.901 93.5094 122.901 93.5094Z" fill="#FFBE9D"/>
<path d="M119.808 92.5509C119.808 92.5509 119.865 92.628 119.906 92.7478C120.28 93.8007 121.371 98.5087 120.874 98.8596C120.378 99.2106 118.701 99.2962 118.432 98.7056C118.164 98.1149 117.236 92.7136 117.236 92.7136C117.236 92.7136 117.146 91.8576 118.424 91.2926C119.222 90.9588 119.808 92.5509 119.808 92.5509Z" fill="#FFBE9D"/>
<path d="M116.983 92.4483C117.031 92.5078 117.064 92.5781 117.081 92.6537C117.455 93.698 118.538 98.4146 118.041 98.7656C117.545 99.1165 115.876 99.2021 115.599 98.6115C115.323 98.0208 114.403 92.6195 114.403 92.6195C114.403 92.6195 114.305 91.7635 115.591 91.1985C116.397 90.8304 116.983 92.4483 116.983 92.4483Z" fill="#FFBE9D"/>
<path d="M114.183 92.3283C114.231 92.3878 114.264 92.4582 114.281 92.5337C114.655 93.578 115.738 98.2946 115.241 98.6456C114.745 98.9965 113.068 99.0821 112.799 98.4915C112.531 97.9008 111.603 92.4995 111.603 92.4995C111.603 92.4995 111.505 91.6435 112.791 91.0785C113.597 90.7361 114.183 92.3283 114.183 92.3283Z" fill="#FFBE9D"/>
<path d="M121.175 98.303C121.155 97.5086 121.038 96.7202 120.825 95.9576C120.71 95.1856 120.502 94.432 120.207 93.7148C120.227 94.5093 120.344 95.2976 120.557 96.0603C120.672 96.8323 120.88 97.5858 121.175 98.303Z" fill="#EB996E"/>
<path d="M118.53 99.0309C118.447 97.911 118.265 96.8019 117.984 95.7181C117.813 94.6089 117.54 93.5196 117.17 92.4653C117.263 93.5838 117.446 94.692 117.716 95.7781C117.898 96.8849 118.17 97.9732 118.53 99.0309Z" fill="#EB996E"/>
<g opacity="0.78">
<path d="M115.819 99.5272C115.727 98.4059 115.545 97.2948 115.274 96.2059C115.092 95.0991 114.82 94.0108 114.46 92.9531C114.542 94.0757 114.725 95.1877 115.005 96.2744C115.178 97.3833 115.451 98.4725 115.819 99.5272Z" fill="#EB996E"/>
</g>
<path d="M117.936 105.648L114.973 103.131C113.675 102.031 112.832 100.445 112.62 98.7056L112.458 97.3788L121.412 95.4785C121.412 95.4785 121.412 98.9796 118.888 99.0224L122.038 100.734L117.936 105.648Z" fill="#FFBE9D"/>
<path d="M121.607 101.411C121.566 101.411 121.371 101.025 120.833 100.503C120.091 99.7831 119.124 99.3723 118.115 99.3477H117.154L118.058 98.9967L120.125 98.1921C120.539 97.9596 120.88 97.6067 121.109 97.1756C121.337 96.7445 121.442 96.2534 121.411 95.7611C121.404 95.6857 121.391 95.6113 121.371 95.5385L121.623 95.684C119.124 96.3346 116.861 96.8824 115.209 97.182C114.395 97.3361 113.711 97.4302 113.239 97.4902C112.999 97.526 112.755 97.526 112.514 97.4902C113.38 97.2256 114.257 97.0084 115.144 96.8396C116.772 96.4715 119.018 95.8723 121.517 95.2218L121.713 95.1704L121.77 95.3673C121.798 95.4654 121.82 95.5655 121.835 95.6669C121.897 96.2667 121.762 96.8708 121.452 97.3789C121.163 97.834 120.782 98.2168 120.337 98.5002L118.245 99.2535L118.188 98.894C119.278 98.9405 120.307 99.4354 121.053 100.272C121.337 100.589 121.529 100.984 121.607 101.411Z" fill="#EB996E"/>
<path d="M121.062 97.0532C121.135 97.0532 121.281 97.4812 121.737 97.9092C121.853 98.0273 122 98.1041 122.16 98.1287C122.319 98.1533 122.482 98.1244 122.624 98.0462C122.783 97.9069 122.904 97.7256 122.974 97.521C123.044 97.3164 123.061 97.0958 123.023 96.882C122.917 95.8206 122.86 94.8276 122.771 94.1428C122.681 93.458 122.567 93.0215 122.633 92.9958C122.698 92.9701 122.885 93.3724 123.064 94.0829C123.25 94.9974 123.378 95.924 123.447 96.8563C123.491 97.1484 123.457 97.4477 123.348 97.7202C123.238 97.9927 123.058 98.2273 122.828 98.3971C122.616 98.511 122.375 98.5483 122.141 98.5035C121.907 98.4586 121.694 98.334 121.534 98.1489C121.341 97.9277 121.196 97.6647 121.11 97.3785C121.053 97.1816 121.037 97.0703 121.062 97.0532Z" fill="#EB996E"/>
<path d="M90.6342 128.109C92.7994 127.972 94.81 129.359 96.3322 131.019C97.8544 132.68 98.9777 134.649 100.532 136.25C101.688 137.439 103.088 138.467 103.788 139.999C104.904 142.447 103.968 145.606 105.416 147.883C106.23 149.158 107.606 149.911 108.428 151.17C109.446 152.753 109.372 154.825 109.145 156.725C109.09 158.061 108.644 159.347 107.867 160.406C107.141 161.117 106.261 161.628 105.302 161.895C98.1976 164.423 90.526 164.596 83.3245 162.392" fill="#263238"/>
<path d="M75.7135 143.372C75.527 141.808 75.641 140.221 76.0488 138.704C76.4566 137.188 77.1498 135.773 78.0874 134.544C79.025 133.314 80.1878 132.295 81.5068 131.547C82.8259 130.799 84.2744 130.338 85.7664 130.189C88.6554 129.955 91.5209 130.886 93.78 132.795C96.0391 134.703 97.5222 137.444 97.9275 140.461C98.6229 144.757 99.1011 149.089 99.3601 153.438C99.2869 159.482 95.9251 161.827 94.5657 162.538C94.0758 162.725 93.5682 162.857 93.0516 162.931C93.0516 162.931 93.0516 162.931 93.0516 162.974L94.3296 169.908C94.9076 174.453 92.4981 178.468 88.1839 179.161C83.8697 179.855 80.4754 176.336 79.816 171.791L75.7135 143.372Z" fill="#FFBE9D"/>
<path d="M96.9345 144.031C96.845 144.168 96.1205 143.74 95.1112 143.894C94.1018 144.048 93.4832 144.664 93.3773 144.553C93.2715 144.442 93.3773 144.271 93.6785 143.979C94.0572 143.61 94.5344 143.371 95.046 143.295C95.5515 143.219 96.0667 143.312 96.5194 143.56C96.8531 143.757 96.9834 143.962 96.9345 144.031Z" fill="#263238"/>
<path d="M88.2899 145.999C88.1922 146.136 87.4759 145.708 86.4665 145.862C85.4571 146.016 84.8385 146.633 84.7245 146.53C84.6106 146.427 84.7245 146.239 85.0257 145.956C85.4032 145.58 85.8852 145.34 86.4014 145.272C86.906 145.188 87.4228 145.278 87.8747 145.528C88.2003 145.725 88.3387 145.931 88.2899 145.999Z" fill="#263238"/>
<path d="M91.6678 150.827C92.1587 150.585 92.6751 150.404 93.2063 150.288C93.4505 150.219 93.6784 150.134 93.6947 149.954C93.676 149.679 93.5796 149.417 93.4179 149.201L92.4085 147.326C91.4972 145.745 90.7052 144.09 90.0398 142.378C91.0756 143.875 91.993 145.458 92.783 147.112C93.1249 147.771 93.4505 148.405 93.7679 149.004C93.9652 149.298 94.06 149.655 94.0365 150.014C94.0117 150.111 93.9667 150.202 93.9048 150.279C93.8428 150.356 93.7655 150.417 93.6784 150.459C93.5476 150.515 93.411 150.556 93.2714 150.579C92.75 150.738 92.2106 150.821 91.6678 150.827Z" fill="#263238"/>
<path d="M93.0111 162.974C93.0111 162.974 89.3074 163.873 84.2036 161.622C84.2036 161.622 86.4014 166.612 93.3611 164.84L93.0111 162.974Z" fill="#EB996E"/>
<path d="M91.5783 153.352C91.3628 153.143 91.1011 152.994 90.8168 152.917C90.5326 152.841 90.2348 152.841 89.9503 152.916C89.7394 152.969 89.5407 153.066 89.366 153.201C89.1912 153.337 89.044 153.507 88.9328 153.703C88.828 153.894 88.7805 154.114 88.7965 154.334C88.8125 154.554 88.8912 154.764 89.0224 154.936C89.2058 155.094 89.4292 155.192 89.665 155.218C89.9008 155.244 90.1387 155.196 90.3492 155.081C90.7821 154.835 91.1661 154.504 91.4806 154.106C91.5779 154.007 91.6578 153.891 91.7167 153.763C91.7449 153.702 91.7546 153.633 91.7444 153.565C91.7342 153.498 91.7046 153.436 91.6597 153.387" fill="#EB996E"/>
<path d="M88.8923 151.974C89.0469 151.974 89.2016 153.053 90.2109 153.686C91.2203 154.32 92.3355 154.037 92.3599 154.191C92.3843 154.345 92.1401 154.448 91.668 154.534C91.0511 154.637 90.4194 154.506 89.8853 154.165C89.3695 153.844 88.9951 153.321 88.8434 152.71C88.7376 152.274 88.819 151.983 88.8923 151.974Z" fill="#263238"/>
<path d="M87.598 142.67C87.541 142.969 86.5479 142.978 85.4246 143.303C84.3013 143.628 83.4303 144.091 83.2431 143.859C83.1617 143.757 83.2431 143.466 83.6175 143.14C84.0684 142.735 84.6008 142.443 85.1747 142.286C85.7486 142.129 86.349 142.111 86.9305 142.233C87.4026 142.344 87.6387 142.533 87.598 142.67Z" fill="#263238"/>
<path d="M95.9576 140.881C95.8192 141.137 95.1436 141 94.3296 141.112C93.5156 141.223 92.8644 141.497 92.7016 141.274C92.5388 141.052 92.7016 140.915 92.9539 140.649C93.3176 140.324 93.7656 140.122 94.2401 140.067C94.7137 140.001 95.1953 140.094 95.6157 140.333C95.8843 140.53 96.0146 140.752 95.9576 140.881Z" fill="#263238"/>
<path d="M99.051 139.143C97.8626 141.052 94.0937 139.87 91.8145 138.561C90.6274 139.36 89.1901 139.64 87.8094 139.341C86.4286 139.042 85.2136 138.188 84.4234 136.96C83.121 138.672 80.4755 138.133 79.5394 136.164C78.6033 134.195 79.1161 131.49 80.443 129.77C81.7761 128.163 83.6129 127.112 85.62 126.808C87.9233 126.337 90.3073 126.587 92.4773 127.525C94.6473 128.464 96.5082 130.051 97.83 132.089C99.0836 134.084 99.8406 136.763 99.0917 139.151" fill="#263238"/>
<path d="M80.7521 129.624C76.4786 128.768 72.3598 133.245 71.9284 136.472C71.1876 142.036 71.9284 142.73 70.9353 145.392C70.3085 147.104 68.1351 148.901 67.2804 150.69C66.3525 152.608 66.3606 155.826 67.0037 157.898C67.5409 159.61 69.7468 164.429 69.7468 164.429C69.7468 164.429 76.096 164.215 79.3439 163.342C80.1831 163.161 80.9697 162.774 81.6394 162.212C82.258 161.622 80.98 159.584 81.1021 158.72C81.4359 156.254 83.186 154.825 82.7301 152.394C82.0627 149.167 79.6451 148.97 79.6939 145.691C79.6939 143.979 82.2092 141.411 82.4371 139.699C82.665 137.987 83.6255 131.91 80.8091 129.667" fill="#263238"/>
<path d="M73.5238 164.609C73.5238 164.609 73.2144 164.232 72.7098 163.547C71.9559 162.583 71.3213 161.521 70.8213 160.389C70.067 158.72 69.7468 156.871 69.8933 155.03C69.9742 153.912 70.2647 152.823 70.7481 151.824C71.2315 150.825 71.8982 149.936 72.7098 149.209C73.5889 148.465 74.5901 147.9 75.4448 147.146C76.2941 146.428 76.9158 145.454 77.2275 144.356C77.4806 143.383 77.6575 142.389 77.7566 141.386C77.8409 140.53 78.0017 139.684 78.2368 138.86C78.3919 138.27 78.6624 137.719 79.031 137.245C79.3996 136.77 79.8582 136.382 80.3776 136.104C80.7785 135.932 81.2063 135.839 81.6393 135.83C81.5294 135.791 81.4135 135.774 81.2975 135.779C80.9632 135.773 80.6312 135.837 80.3207 135.967C79.7567 136.224 79.2531 136.608 78.8452 137.091C78.4374 137.575 78.1353 138.147 77.9601 138.766C77.6954 139.6 77.5127 140.461 77.4147 141.334C77.3072 142.316 77.1221 143.287 76.8612 144.236C76.5634 145.254 75.9751 146.15 75.1762 146.804C74.3622 147.523 73.3528 148.079 72.433 148.867C71.5855 149.625 70.891 150.555 70.3905 151.6C69.89 152.645 69.5937 153.785 69.5189 154.953C69.3842 156.854 69.7385 158.758 70.5445 160.466C71.0757 161.606 71.7551 162.664 72.5632 163.607C72.8481 163.933 73.0923 164.181 73.2551 164.335C73.3319 164.439 73.4224 164.531 73.5238 164.609Z" fill="#455A64"/>
<path d="M104.586 161.699C104.586 161.699 104.651 161.622 104.749 161.459C104.882 161.215 105.001 160.964 105.107 160.706C105.476 159.743 105.664 158.714 105.661 157.675C105.668 156.119 105.253 154.593 104.464 153.276C103.97 152.531 103.426 151.825 102.836 151.161C102.229 150.479 101.793 149.65 101.566 148.747C101.184 146.873 101.77 144.981 101.648 143.235C101.615 141.685 101.212 140.169 100.475 138.826C99.9674 137.936 99.2915 137.164 98.4893 136.558C98.2695 136.399 98.0412 136.253 97.8056 136.121L97.5532 136.001C97.8134 136.241 98.0851 136.467 98.3672 136.678C99.1177 137.31 99.745 138.089 100.215 138.972C100.892 140.287 101.252 141.756 101.265 143.252C101.28 144.139 101.228 145.026 101.11 145.905C100.979 146.878 100.999 147.867 101.167 148.833C101.408 149.793 101.873 150.676 102.519 151.401C103.104 152.05 103.648 152.739 104.147 153.464C104.92 154.717 105.343 156.173 105.368 157.667C105.395 158.678 105.252 159.687 104.944 160.646C104.741 161.33 104.554 161.681 104.586 161.699Z" fill="#455A64"/>
<path d="M86.5071 127.475C87.4267 127.463 88.346 127.517 89.2584 127.638C91.4459 128.024 93.45 129.162 94.9564 130.874C96.3826 132.66 97.3295 134.814 97.6996 137.114C97.826 138.075 97.8723 139.046 97.838 140.016C97.926 139.766 97.9781 139.503 97.9926 139.237C98.0725 138.52 98.0725 137.796 97.9926 137.08C97.6948 134.692 96.7479 132.445 95.2657 130.608C93.706 128.83 91.6037 127.683 89.3235 127.364C88.6396 127.276 87.948 127.276 87.2641 127.364C87.0078 127.359 86.7523 127.397 86.5071 127.475Z" fill="#455A64"/>
<path d="M92.6447 136.353C92.708 136.133 92.7383 135.905 92.7342 135.676C92.7535 135.048 92.6905 134.42 92.547 133.81C92.3227 132.792 91.9036 131.832 91.3154 130.99C90.7272 130.147 89.982 129.439 89.1254 128.909C88.2687 128.379 87.3184 128.038 86.3323 127.906C85.3462 127.774 84.3449 127.855 83.3895 128.144C82.8181 128.308 82.2705 128.553 81.7615 128.871C81.4033 129.111 81.2242 129.265 81.2405 129.291C81.9542 128.933 82.6982 128.646 83.4627 128.435C85.3245 127.934 87.2988 128.229 88.9549 129.253C90.611 130.278 91.8145 131.95 92.3028 133.904C92.4811 134.709 92.5954 135.528 92.6447 136.353Z" fill="#455A64"/>
<path d="M74.2158 203.951C74.2158 203.951 77.0323 210.696 76.8695 213.889C76.7067 217.082 73.8007 227.456 73.8007 227.456L108.225 230.837L108.379 222.466L107.346 188.029L126.54 157.324L112.018 148.473L97.8951 168.632L94.3216 167.177L78.8556 169.231V172.056L78.4161 172.107C75.0242 172.865 71.7737 174.204 68.7946 176.071C66.0862 177.845 63.9395 180.425 62.6266 183.483C61.3137 186.541 60.8937 189.941 61.4197 193.251C62.0465 197.359 63.2675 202.35 65.6118 205.235C70.1214 210.764 74.2158 203.951 74.2158 203.951Z" fill="#FF9902"/>
<path d="M69.3316 187.875C69.3316 187.875 67.5734 177.363 68.0618 176.601C68.6641 175.703 75.9006 172.433 76.0064 172.767L77.5937 184.323L69.3316 187.875Z" fill="#FAFAFA"/>
<path d="M98.6683 188.457L97.8462 208.616H105.083V188.457H98.6683Z" fill="#FAFAFA"/>
<path d="M86.6943 198.541C86.8295 198.525 86.966 198.525 87.1013 198.541H88.3467L93.1086 198.464H93.247V198.618C93.2958 203.454 93.3202 210.688 93.3202 218.777V218.999H85.6523V218.777C85.921 212.965 86.1652 207.914 86.3361 204.225C86.4338 202.513 86.507 201.083 86.564 200.056C86.564 199.602 86.6129 199.2 86.6373 198.952C86.6231 198.832 86.6231 198.712 86.6373 198.592C86.6457 198.729 86.6457 198.866 86.6373 199.003C86.6373 199.311 86.6373 199.688 86.6373 200.15C86.6373 201.195 86.5722 202.615 86.5233 204.379C86.4012 208 86.2303 212.999 86.0349 218.76L85.8314 218.537H93.0679L92.8562 218.76C92.8562 210.67 92.8562 203.437 92.9295 198.601L93.0679 198.746L88.4118 198.592H87.1338L86.6943 198.541Z" fill="#FAFAFA"/>
<path d="M114.607 175.985L106.971 170.909L113.679 160.611L121.501 165.388L114.607 175.985Z" fill="#FAFAFA"/>
<g opacity="0.4">
<path d="M106.971 176.602H84.5618V184.246H106.971V176.602Z" fill="white"/>
</g>
<path d="M106.646 197.394C106.606 197.162 106.606 196.924 106.646 196.692C106.703 196.238 106.776 195.588 106.841 194.792C107.018 192.701 107.018 190.599 106.841 188.508C106.655 186.418 106.29 184.35 105.75 182.328C105.343 180.779 105.009 179.837 105.075 179.812C105.14 179.786 105.213 180.017 105.384 180.436C105.633 181.023 105.853 181.623 106.043 182.234C106.668 184.257 107.077 186.347 107.264 188.466C107.454 190.584 107.413 192.718 107.142 194.826C107.063 195.462 106.952 196.094 106.808 196.718C106.789 196.951 106.734 197.179 106.646 197.394Z" fill="#263238"/>
<path d="M117.512 151.82C117.132 152.455 116.693 153.048 116.202 153.592C115.388 154.645 114.159 156.083 112.816 157.658L111.383 159.319L111.261 159.464L111.114 159.362C109.885 158.506 108.835 157.71 108.103 157.153C107.687 156.887 107.307 156.565 106.971 156.194C107.418 156.392 107.844 156.639 108.241 156.931C109.014 157.427 110.097 158.146 111.342 159.002H111.082L112.498 157.29C113.841 155.715 115.07 154.32 115.974 153.318C116.442 152.77 116.957 152.268 117.512 151.82Z" fill="#FAFAFA"/>
<path d="M125.424 159.105C124.643 158.811 123.889 158.444 123.17 158.009C121.794 157.281 119.914 156.237 117.854 155.073C115.795 153.909 113.939 152.822 112.604 152.026C111.864 151.628 111.156 151.167 110.488 150.647C111.271 150.942 112.028 151.309 112.75 151.743C114.118 152.479 116.006 153.515 118.058 154.679C120.109 155.843 121.973 156.93 123.308 157.727C124.049 158.122 124.757 158.583 125.424 159.105Z" fill="#263238"/>
<path d="M47.9968 369.039L44.3094 386.57L37.5857 399.564C37.4688 399.787 37.3971 400.032 37.375 400.286C37.3529 400.539 37.381 400.794 37.4575 401.036C37.534 401.277 37.6572 401.499 37.8194 401.688C37.9815 401.876 38.1792 402.028 38.3997 402.132C38.6565 402.26 38.9391 402.319 39.2228 402.306C39.5066 402.293 39.7829 402.206 40.0277 402.055C43.1535 400.155 54.6227 393.101 54.8263 391.783C55.0623 390.276 59.8893 373.55 59.8893 373.55L47.9968 369.039Z" fill="#FF9902"/>
<g opacity="0.6">
<path d="M38.3916 402.115L55.0379 390.61L54.867 391.346C54.7171 391.968 54.3696 392.518 53.882 392.904C52.5226 393.931 48.7213 396.696 40.044 402.02C39.7976 402.168 39.5207 402.251 39.2371 402.262C38.9534 402.272 38.6717 402.21 38.416 402.08L38.3916 402.115Z" fill="white"/>
</g>
<g opacity="0.6">
<path d="M52.9784 384.105C52.7367 384.21 52.5406 384.405 52.4278 384.653C52.3151 384.902 52.2937 385.185 52.3679 385.449C52.4582 385.705 52.6389 385.914 52.8723 386.034C53.1058 386.153 53.3741 386.174 53.6215 386.091C53.8771 385.98 54.0844 385.773 54.2033 385.51C54.3221 385.248 54.3439 384.948 54.2645 384.67C54.1416 384.412 53.9294 384.215 53.6719 384.118C53.4143 384.02 53.131 384.031 52.8807 384.147" fill="white"/>
</g>
<path d="M43.9595 395.472C43.69 394.831 43.3059 394.249 42.828 393.76C42.2772 393.356 41.6585 393.066 41.0046 392.904C41.0046 392.853 41.2407 392.776 41.6477 392.819C42.1702 392.891 42.6619 393.12 43.0641 393.478C43.4764 393.83 43.7796 394.304 43.935 394.839C44.0409 395.198 44.0083 395.472 43.9595 395.472Z" fill="#263238"/>
<path d="M42.2336 397.501C42.1359 397.552 41.7371 396.85 40.9393 396.371C40.4317 396.125 39.9097 395.913 39.3765 395.737C39.6704 395.635 39.9833 395.609 40.2891 395.659C40.5949 395.71 40.8848 395.836 41.1347 396.029C42.0138 396.585 42.3313 397.475 42.2336 397.501Z" fill="#263238"/>
<path d="M46.8978 393.041C46.3106 392.368 45.6796 391.739 45.0094 391.158C44.2659 390.685 43.4905 390.27 42.6895 389.917C43.6007 389.963 44.4804 390.282 45.2257 390.835C45.971 391.388 46.551 392.154 46.8978 393.041Z" fill="#263238"/>
<path d="M48.4037 387.811C48.3386 387.905 47.5165 387.263 46.3362 386.912C45.1559 386.561 44.1384 386.612 44.1221 386.501C44.8711 386.213 45.6929 386.213 46.442 386.501C47.2237 386.677 47.9196 387.142 48.4037 387.811Z" fill="#263238"/>
<path d="M49.6166 382.692C48.95 382.257 48.2297 381.92 47.4758 381.69C46.7007 381.579 45.9148 381.579 45.1396 381.69C45.1396 381.648 45.3594 381.476 45.7908 381.34C46.3676 381.176 46.9728 381.159 47.5572 381.288C48.1509 381.414 48.7084 381.683 49.1852 382.076C49.5027 382.401 49.6492 382.632 49.6166 382.692Z" fill="#263238"/>
<path d="M47.712 380.723C47.7036 380.496 47.7483 380.269 47.8422 380.064C48.0387 379.472 48.3459 378.928 48.7457 378.463C49.0074 378.092 49.38 377.824 49.8039 377.701C49.9463 377.677 50.0924 377.698 50.2231 377.762C50.3538 377.826 50.4631 377.93 50.5365 378.061C50.6571 378.328 50.6831 378.632 50.6098 378.917C50.4415 379.497 50.0836 379.995 49.5995 380.324C49.1153 380.653 48.5361 380.792 47.9643 380.715C47.4001 380.632 46.8722 380.374 46.4475 379.975C46.0228 379.575 45.7206 379.052 45.5793 378.472C45.547 378.326 45.5441 378.174 45.5708 378.027C45.5974 377.879 45.653 377.739 45.7339 377.616C45.8301 377.493 45.9625 377.408 46.11 377.374C46.2576 377.34 46.4118 377.359 46.5479 377.428C46.9298 377.623 47.2577 377.917 47.5003 378.284C47.8613 378.78 48.1368 379.339 48.3143 379.936C48.3995 380.146 48.4385 380.375 48.4283 380.603C48.1543 379.833 47.77 379.111 47.2887 378.463C47.0817 378.147 46.8016 377.89 46.4747 377.719C46.4025 377.681 46.3202 377.671 46.2416 377.689C46.163 377.708 46.0929 377.755 46.0433 377.821C45.9945 377.905 45.9635 377.999 45.9523 378.096C45.941 378.194 45.9498 378.293 45.9781 378.386C46.1136 378.883 46.3822 379.327 46.7518 379.667C47.1213 380.007 47.5762 380.228 48.062 380.304C48.5451 380.364 49.0333 380.249 49.4461 379.978C49.859 379.708 50.1718 379.297 50.333 378.814C50.4017 378.621 50.4017 378.408 50.333 378.215C50.2961 378.141 50.2375 378.08 50.1657 378.043C50.0939 378.007 50.0128 377.995 49.9342 378.01C49.5783 378.113 49.2623 378.332 49.0306 378.635C48.4743 379.241 48.0275 379.949 47.712 380.723Z" fill="#263238"/>
<g opacity="0.3">
<path d="M47.5654 370.939L47.0688 373.439L58.8474 377.068L59.8568 373.559L47.9968 369.039L47.5654 370.939Z" fill="black"/>
</g>
<path d="M101.965 375.527L100.964 389.54C100.964 389.54 114.175 395.31 114.232 397.92L88.3223 396.867L89.0223 374.962L101.965 375.527Z" fill="#FF9902"/>
<g opacity="0.6">
<path d="M92.9946 388.034C92.7431 388.104 92.5252 388.27 92.3825 388.499C92.2399 388.728 92.1825 389.004 92.2213 389.275C92.2709 389.547 92.4192 389.789 92.6348 389.948C92.8504 390.108 93.1166 390.174 93.3772 390.131C93.644 390.056 93.8749 389.88 94.0253 389.636C94.1757 389.393 94.2348 389.099 94.1912 388.813C94.1034 388.54 93.9192 388.313 93.6768 388.179C93.4343 388.045 93.1522 388.015 92.8888 388.094" fill="white"/>
</g>
<g opacity="0.6">
<path d="M88.3223 396.867L88.4769 394.659L113.263 396.499C113.263 396.499 114.395 397.073 114.232 397.92L88.3223 396.867Z" fill="white"/>
</g>
<path d="M101.387 389.42C101.387 389.548 100.744 389.583 100.109 389.985C99.4741 390.387 99.116 390.935 99.002 390.884C98.8881 390.832 99.1078 390.028 99.8893 389.591C100.671 389.155 101.436 389.3 101.387 389.42Z" fill="#263238"/>
<path d="M104.065 390.713C104.065 390.841 103.536 391.047 103.08 391.569C102.624 392.091 102.486 392.699 102.356 392.69C102.225 392.682 102.185 391.92 102.755 391.261C103.324 390.602 104.065 390.584 104.065 390.713Z" fill="#263238"/>
<path d="M105.506 394.197C105.392 394.197 105.237 393.546 105.587 392.836C105.937 392.125 106.548 391.851 106.597 391.98C106.646 392.108 106.263 392.468 105.986 393.058C105.709 393.649 105.612 394.188 105.506 394.197Z" fill="#263238"/>
<path d="M101.281 386.202C101.224 386.322 100.646 386.108 99.9301 386.133C99.2138 386.159 98.6521 386.373 98.587 386.253C98.5219 386.133 99.0754 385.68 99.9219 385.671C100.768 385.662 101.346 386.099 101.281 386.202Z" fill="#263238"/>
<g opacity="0.3">
<path d="M101.762 378.301L101.591 380.8L88.8596 380.158L88.941 377.273L101.762 378.301Z" fill="black"/>
</g>
<path d="M101.436 383.368C101.005 383.473 100.554 383.452 100.134 383.308C99.6685 383.2 99.2176 383.033 98.7904 382.812C98.5396 382.681 98.2976 382.532 98.066 382.367C97.9213 382.279 97.7919 382.166 97.6834 382.033C97.6075 381.932 97.5662 381.807 97.5662 381.678C97.5662 381.549 97.6075 381.424 97.6834 381.323C97.7499 381.231 97.8363 381.157 97.9355 381.108C98.0347 381.059 98.1436 381.036 98.2532 381.04C98.4164 381.043 98.5783 381.072 98.7334 381.126C99.0139 381.207 99.2864 381.316 99.5474 381.451C99.976 381.67 100.369 381.959 100.711 382.307C101.289 382.923 101.477 383.428 101.436 383.454C101.395 383.48 101.102 383.06 100.508 382.555C100.158 382.262 99.7753 382.015 99.3684 381.819C99.1312 381.71 98.8863 381.622 98.6358 381.554C98.3671 381.459 98.1311 381.451 98.0578 381.554C97.9846 381.656 98.0578 381.622 98.0578 381.708C98.1379 381.802 98.2313 381.883 98.3346 381.947C98.5476 382.111 98.7706 382.26 99.0021 382.393C99.3978 382.617 99.8119 382.803 100.239 382.949C100.647 383.058 101.047 383.198 101.436 383.368Z" fill="#263238"/>
<path d="M101.257 383.548C101.027 383.15 100.924 382.685 100.964 382.221C100.963 381.714 101.043 381.211 101.2 380.732C101.292 380.448 101.412 380.176 101.558 379.918C101.632 379.747 101.745 379.597 101.887 379.482C102.029 379.367 102.195 379.29 102.372 379.259C102.487 379.267 102.598 379.309 102.692 379.38C102.786 379.451 102.858 379.549 102.901 379.662C102.962 379.823 103.001 379.993 103.015 380.167C103.056 380.473 103.056 380.784 103.015 381.091C102.921 381.598 102.711 382.074 102.405 382.478C101.875 383.163 101.338 383.334 101.33 383.257C101.322 383.18 101.745 382.949 102.144 382.281C102.377 381.896 102.532 381.465 102.6 381.014C102.637 380.753 102.637 380.488 102.6 380.227C102.6 379.936 102.478 379.696 102.372 379.722C102.266 379.747 102.022 379.927 101.908 380.15C101.769 380.379 101.652 380.623 101.558 380.877C101.398 381.311 101.297 381.766 101.257 382.23C101.216 383.026 101.33 383.531 101.257 383.548Z" fill="#263238"/>
<path d="M69.1363 196.024L75.8355 196.418C76.3078 198.398 76.9424 200.331 77.7321 202.196C83.129 192.343 87.3129 179.152 88.3548 173.845C88.2002 173.314 88.0211 172.732 87.8013 172.073C87.6375 171.084 87.6652 170.071 87.8827 169.094C88.0699 167.913 88.3793 166.321 88.4769 165.585C88.7618 163.342 89.1037 163.017 89.8526 163.248C90.862 163.59 89.4375 169.539 90.2596 169.668C90.7073 169.736 91.2527 167.699 91.4073 166.03C91.562 164.361 92.2865 159.182 92.8156 158.865C93.6296 158.36 94.2563 159.156 94.061 160.825C93.8656 162.494 93.6133 167.536 94.4598 167.605C95.3064 167.673 95.982 159.139 95.982 159.139C95.982 159.139 95.8518 157.29 96.796 157.333C98.5543 157.41 97.1786 166.406 97.0321 167.254C96.9263 167.844 97.8461 167.956 97.9193 167.314C97.9926 166.672 98.424 158.754 100.215 158.848C101.582 158.899 99.1485 166.261 99.9218 167.964C100.695 169.668 101.224 162.169 102.535 162.272C103.023 162.272 103.349 162.409 102.486 166.655C101.616 170.031 100.57 173.355 99.352 176.61C97.2763 188.38 88.1676 226.035 73.8901 219.145C65.8966 215.284 62.1685 196.187 62.1685 196.187L69.1363 196.024Z" fill="#FFBE9D"/>
<path d="M99.3766 176.602C99.3907 176.513 99.4154 176.427 99.4498 176.345C99.5068 176.156 99.5882 175.908 99.6859 175.609C99.9057 174.924 100.223 173.974 100.622 172.767C101.021 171.56 101.509 170.019 101.998 168.238C102.242 167.382 102.445 166.389 102.633 165.354C102.722 164.84 102.82 164.309 102.877 163.762C102.897 163.491 102.897 163.219 102.877 162.948C102.877 162.666 102.82 162.443 102.608 162.435C102.397 162.426 102.242 162.563 102.095 162.803C101.957 163.056 101.843 163.322 101.753 163.599C101.566 164.164 101.412 164.763 101.265 165.379C101.119 165.996 100.98 166.629 100.801 167.271C100.726 167.626 100.588 167.963 100.394 168.264C100.341 168.333 100.265 168.378 100.182 168.389C100.098 168.4 100.014 168.377 99.9464 168.324C99.8673 168.247 99.8037 168.154 99.7592 168.05C99.6879 167.875 99.6386 167.691 99.6126 167.502C99.587 166.064 99.7236 164.627 100.02 163.222C100.142 162.503 100.264 161.776 100.353 161.039C100.401 160.67 100.428 160.299 100.435 159.927C100.435 159.593 100.435 159.131 100.248 159.071C100.06 159.011 99.7592 159.208 99.5964 159.516C99.4067 159.834 99.2563 160.176 99.1487 160.534C98.9199 161.285 98.743 162.051 98.6196 162.828C98.4893 163.625 98.3916 164.429 98.3021 165.242C98.3021 165.653 98.2288 166.098 98.1881 166.475L98.1393 167.1C98.1459 167.233 98.1254 167.366 98.0791 167.49C98.0327 167.614 97.9617 167.726 97.8707 167.819C97.7529 167.911 97.6102 167.96 97.4637 167.96C97.3171 167.96 97.1744 167.911 97.0567 167.819C96.9911 167.773 96.9349 167.714 96.8916 167.645C96.8482 167.576 96.8185 167.498 96.8043 167.417C96.7919 167.34 96.7919 167.262 96.8043 167.186V167.031C96.8613 166.612 96.9264 166.175 96.9834 165.773C97.0974 164.917 97.1951 164.061 97.2765 163.205C97.3579 162.349 97.4067 161.493 97.423 160.637C97.4637 159.773 97.3814 158.908 97.1788 158.069C97.1326 157.855 97.0102 157.669 96.8369 157.547C96.7538 157.521 96.6651 157.521 96.5823 157.549C96.4995 157.576 96.4265 157.629 96.3729 157.701C96.1547 158.128 96.0666 158.615 96.1206 159.096C95.9741 160.808 95.795 162.443 95.5671 164.07C95.445 164.926 95.3229 165.696 95.1275 166.492C95.079 166.695 95.0192 166.895 94.9484 167.091C94.8836 167.333 94.7501 167.548 94.5658 167.708C94.4818 167.75 94.3868 167.762 94.2955 167.742C94.2043 167.722 94.1219 167.671 94.0612 167.596C93.9823 167.501 93.9215 167.391 93.8821 167.271C93.8098 167.072 93.758 166.865 93.7274 166.655C93.5596 165.091 93.546 163.513 93.6867 161.947C93.7808 161.218 93.8162 160.482 93.7925 159.747C93.7743 159.435 93.6397 159.142 93.4181 158.934C93.3676 158.897 93.31 158.873 93.2495 158.862C93.189 158.852 93.127 158.856 93.0681 158.874C92.999 158.891 92.9331 158.92 92.8727 158.959C92.8303 158.989 92.7965 159.031 92.775 159.079C92.533 159.726 92.353 160.397 92.2378 161.082C92.1076 161.767 91.9936 162.452 91.8878 163.128C91.782 163.804 91.6924 164.463 91.611 165.123C91.5296 165.782 91.4808 166.432 91.3587 167.074C91.2572 167.709 91.0963 168.331 90.8784 168.932C90.8268 169.084 90.7614 169.23 90.6831 169.368C90.5854 169.505 90.5365 169.685 90.2761 169.771C90.2098 169.783 90.1416 169.775 90.0795 169.748C90.0174 169.72 89.9641 169.675 89.926 169.617C89.8799 169.533 89.8443 169.444 89.8202 169.351C89.7902 169.193 89.7712 169.033 89.7632 168.872C89.7632 167.648 89.926 166.526 89.983 165.448C90.032 164.93 90.032 164.408 89.983 163.89C89.983 163.659 89.8853 163.393 89.7551 163.334C89.669 163.289 89.5743 163.266 89.4783 163.266C89.3824 163.266 89.2877 163.289 89.2016 163.334C88.9192 163.658 88.7424 164.069 88.6969 164.506C88.5992 164.951 88.5585 165.362 88.4771 165.816C88.1922 167.528 87.891 168.975 87.7527 170.164C87.6802 170.69 87.6802 171.223 87.7527 171.748C87.8503 172.176 87.9887 172.561 88.062 172.861L88.2573 173.563C88.2897 173.638 88.309 173.72 88.3143 173.802C88.2739 173.73 88.2437 173.653 88.2248 173.571L87.9887 172.895C87.891 172.587 87.7527 172.236 87.6306 171.765C87.5564 171.229 87.5564 170.684 87.6306 170.147C87.7527 168.932 88.0294 167.485 88.2899 165.782C88.3632 165.362 88.4039 164.926 88.5015 164.455C88.5422 164.219 88.6021 163.987 88.6806 163.762C88.7486 163.499 88.8974 163.267 89.1039 163.102C89.2295 163.033 89.3692 162.997 89.5109 162.997C89.6526 162.997 89.7923 163.033 89.9179 163.102C90.2435 163.299 90.2516 163.625 90.3086 163.873C90.3572 164.411 90.3572 164.953 90.3086 165.491C90.2598 166.586 90.097 167.733 90.1214 168.915C90.1286 169.053 90.145 169.19 90.1702 169.326C90.1702 169.462 90.2679 169.514 90.2516 169.488C90.2354 169.462 90.3819 169.368 90.4389 169.257C90.505 169.129 90.5648 168.998 90.6179 168.863C90.8168 168.279 90.9666 167.677 91.0656 167.066C91.1796 166.449 91.2122 165.799 91.3017 165.14C91.3912 164.481 91.4645 163.804 91.5703 163.128C91.6761 162.452 91.782 161.758 91.9122 161.065C92.0284 160.337 92.2223 159.625 92.4901 158.942C92.5412 158.828 92.6234 158.733 92.7262 158.668C92.8158 158.613 92.9114 158.57 93.0111 158.54C93.121 158.51 93.2357 158.504 93.3479 158.523C93.4601 158.542 93.5672 158.586 93.6623 158.651C93.8214 158.784 93.9533 158.95 94.0498 159.139C94.1463 159.327 94.2056 159.534 94.224 159.747C94.2729 160.136 94.2729 160.53 94.224 160.92C94.224 161.288 94.1588 161.664 94.1344 162.041C93.988 163.569 93.988 165.109 94.1344 166.638C94.1633 166.818 94.2069 166.996 94.2647 167.168C94.2907 167.236 94.3264 167.3 94.3705 167.357C94.3705 167.528 94.3705 167.4 94.3705 167.425C94.3705 167.451 94.3705 167.425 94.3705 167.365C94.4551 167.246 94.521 167.113 94.5658 166.972C94.6228 166.792 94.6798 166.603 94.7286 166.415C94.9077 165.653 95.038 164.849 95.1519 164.044C95.3798 162.426 95.5508 160.774 95.6973 159.096C95.6332 158.502 95.7531 157.901 96.0392 157.384C96.1453 157.232 96.2961 157.121 96.4684 157.069C96.6406 157.016 96.8245 157.025 96.9916 157.093C97.1365 157.174 97.2636 157.286 97.3646 157.421C97.4656 157.557 97.5382 157.714 97.5776 157.881C97.7983 158.763 97.8889 159.675 97.8463 160.586C97.8463 161.442 97.773 162.349 97.6916 163.222C97.6102 164.095 97.5125 164.934 97.3986 165.79C97.3416 166.218 97.2765 166.646 97.2195 167.057C97.1625 167.331 97.2195 167.34 97.2195 167.417C97.2671 167.448 97.3221 167.464 97.3782 167.464C97.4343 167.464 97.4893 167.448 97.5369 167.417C97.6265 167.357 97.6346 167.228 97.6509 166.997L97.7079 166.372C97.7079 165.961 97.7893 165.516 97.8218 165.14C97.9114 164.284 98.0172 163.496 98.1474 162.7C98.2753 161.9 98.4576 161.11 98.6928 160.338C98.8148 159.947 98.9815 159.573 99.1894 159.225C99.3046 159.036 99.454 158.873 99.6289 158.745C99.7239 158.657 99.8414 158.6 99.967 158.58C100.093 158.561 100.221 158.581 100.336 158.637C100.451 158.694 100.548 158.784 100.614 158.898C100.681 159.011 100.715 159.143 100.712 159.276C100.741 159.477 100.755 159.68 100.752 159.884C100.741 160.271 100.708 160.657 100.655 161.039C100.565 161.793 100.435 162.52 100.313 163.239C100.017 164.604 99.8754 166 99.8894 167.4C99.9039 167.551 99.9425 167.698 100.003 167.836C100.024 167.888 100.052 167.937 100.085 167.982C100.085 167.982 100.085 167.982 100.085 167.939C100.239 167.674 100.352 167.385 100.418 167.083C100.598 166.458 100.736 165.824 100.891 165.208C101.045 164.592 101.2 163.984 101.403 163.402C101.501 163.104 101.627 162.818 101.778 162.546C101.856 162.4 101.961 162.271 102.087 162.169C102.159 162.108 102.242 162.064 102.331 162.041C102.417 162.024 102.506 162.024 102.592 162.041C102.686 162.05 102.776 162.086 102.852 162.145C102.927 162.204 102.987 162.283 103.023 162.375C103.079 162.525 103.109 162.684 103.113 162.846C103.121 163.132 103.105 163.418 103.064 163.702C103.007 164.267 102.901 164.797 102.804 165.319C102.628 166.296 102.403 167.262 102.128 168.213C101.623 169.993 101.11 171.5 100.687 172.724C100.264 173.948 99.8731 174.907 99.6778 175.54C99.5638 175.84 99.4661 176.079 99.401 176.268C99.3359 176.456 99.3847 176.61 99.3766 176.602Z" fill="#EB996E"/>
<path d="M62.1196 196.88C63.4139 201.691 65.9454 209.121 68.6316 216.962C68.7188 217.214 68.8749 217.434 69.0804 217.593C69.2858 217.752 69.5314 217.844 69.7862 217.856C70.0411 217.869 70.2939 217.803 70.5128 217.665C70.7317 217.527 70.907 217.324 71.0166 217.082L77.6915 202.23C77.6915 202.23 76.0634 190.032 76.2181 190.46C76.3728 190.888 62.4452 192.044 62.4452 192.044L62.1196 196.88Z" fill="#FF9902"/>
<path d="M80.1743 198.019C80.1743 198.019 79.9953 197.873 79.6615 197.779C79.4353 197.706 79.1944 197.701 78.9657 197.765C78.737 197.828 78.5297 197.958 78.3673 198.138L78.1963 198.344L78.0905 198.078C77.7323 197.12 77.2765 195.879 76.8207 194.509C76.1072 192.629 75.5224 190.698 75.0706 188.731C75.9214 190.549 76.6398 192.431 77.2195 194.363C77.6916 195.724 78.0986 196.983 78.3998 197.959L78.1231 197.907C78.3592 197.654 78.6742 197.499 79.0103 197.471C79.2549 197.447 79.5011 197.488 79.7266 197.591C80.0929 197.736 80.1906 198.001 80.1743 198.019Z" fill="#263238"/>
<path d="M70.7075 212.143C70.9607 211.408 71.2853 210.702 71.6762 210.037C72.3192 208.77 73.2309 207.024 74.2728 205.115C75.3148 203.206 76.2671 201.486 76.9753 200.253C77.3255 199.563 77.7371 198.91 78.2045 198.301C77.9463 199.034 77.6219 199.739 77.2358 200.407C76.5927 201.682 75.6729 203.42 74.6391 205.338C73.6054 207.255 72.6448 208.967 71.9367 210.2C71.5844 210.886 71.173 211.536 70.7075 212.143Z" fill="#263238"/>
<path d="M66.2629 209.908C66.6245 209.585 67.0142 209.299 67.4269 209.052C68.1839 208.539 69.2828 207.82 70.6178 206.964L70.5445 207.195C69.8038 205.372 68.9165 203.24 68.0048 200.946C66.849 198.061 65.8152 195.408 65.0582 193.43L65.2861 193.508C64.2279 194.115 63.365 194.595 62.7708 194.92C62.4677 195.11 62.1456 195.265 61.8103 195.382C62.0768 195.139 62.3691 194.93 62.6813 194.757C63.2592 194.381 64.0895 193.858 65.1233 193.225L65.2698 193.131L65.3431 193.302C66.1571 195.254 67.2315 197.882 68.3874 200.775C69.2991 203.078 70.1375 205.218 70.8294 207.049L70.8864 207.204L70.7562 207.281C69.4049 208.137 68.3142 208.779 67.5002 209.232C67.1104 209.501 66.6959 209.727 66.2629 209.908Z" fill="#FAFAFA"/>
<path d="M102.478 379.054C103.67 379.018 104.807 378.514 105.664 377.641C106.521 376.768 107.037 375.59 107.109 374.338C108.501 350.643 114.769 242.864 113.516 239.483C112.099 235.683 108.379 222.466 108.379 222.466L75.1437 220.848C75.1437 220.848 66.8735 234.544 65.685 239.834C64.6105 244.551 34.5007 344.326 30.7563 365.512C30.571 366.564 30.7618 367.651 31.2922 368.565C31.8225 369.478 32.655 370.153 33.6297 370.46L102.478 379.054Z" fill="#263238"/>
<path d="M81.7046 221.593C81.7046 221.593 81.6639 221.721 81.5581 221.969L81.086 223.048L79.23 227.174C78.8637 228.09 78.4649 229.108 78.0172 230.213C77.5695 231.317 77.0811 232.532 76.6415 233.859C76.202 235.186 75.6647 236.59 75.1682 238.096C74.6716 239.603 74.2077 241.212 73.6867 242.899L72.2134 248.24C71.7331 250.106 71.2773 252.058 70.7726 254.078C70.2679 256.098 69.869 258.204 69.3888 260.37C68.9085 262.535 68.4771 264.769 68.062 267.072C67.1666 271.66 66.2874 276.488 65.3595 281.504C64.4315 286.52 63.4384 291.691 62.2744 296.964C61.7128 299.6 61.0616 302.168 60.4592 304.736C59.8568 307.304 59.1487 309.786 58.4323 312.226C57.0241 317.114 55.4775 321.77 53.8984 326.153C50.7075 334.927 47.3864 342.64 44.5374 349.051C41.6884 355.463 39.1894 360.581 37.48 364.117L35.502 368.2C35.2822 368.645 35.1031 368.996 34.9729 369.244C34.9176 369.365 34.855 369.482 34.7856 369.595C34.8298 369.469 34.8814 369.346 34.9403 369.227C35.0543 368.97 35.2171 368.611 35.4287 368.157C35.8764 367.198 36.5195 365.82 37.3497 364.057C38.9777 360.504 41.4197 355.36 44.2769 348.931C47.134 342.503 50.3819 334.79 53.5483 326.025C55.1112 321.642 56.6497 316.994 58.0579 312.115C58.7661 309.684 59.401 307.176 60.0685 304.642C60.736 302.108 61.322 299.506 61.8674 296.861C63.0314 291.596 64.0082 286.409 64.9606 281.41C65.913 276.411 66.7758 271.575 67.6875 266.986C68.1189 264.684 68.6073 262.45 69.0469 260.284C69.4865 258.118 69.9993 256.004 70.447 253.984C70.8947 251.964 71.4238 250.012 71.9122 248.146C72.4006 246.28 72.9378 244.508 73.4181 242.804L74.9158 237.968C75.4205 236.461 75.9496 235.058 76.4217 233.739C76.8939 232.421 77.3741 231.171 77.8381 230.101C78.3021 229.031 78.7091 227.979 79.0835 227.071C79.8975 225.282 80.565 223.904 81.0046 222.971L81.5174 221.918L81.7046 221.593Z" fill="#455A64"/>
<path d="M52.3599 372.566C52.3599 372.566 52.3599 372.437 52.4413 372.181C52.5227 371.924 52.6122 371.521 52.7343 371.042L53.8902 366.676C54.8914 362.859 56.3322 357.38 58.123 350.618C59.9138 343.855 61.9732 335.749 64.2117 326.753C65.3187 322.25 66.4746 317.525 67.6793 312.629C68.8841 307.732 70.0481 302.63 71.2854 297.426C72.5226 292.222 73.646 287.154 74.7774 282.189C75.9089 277.224 76.9182 272.508 77.9276 267.98C79.8893 258.915 81.615 250.731 83.0232 243.858C84.4315 236.984 85.5466 231.428 86.3362 227.594C86.7188 225.685 87.02 224.17 87.2316 223.159C87.3374 222.672 87.4188 222.303 87.4758 222.012C87.5328 221.721 87.5735 221.619 87.5735 221.619C87.5619 221.754 87.5428 221.888 87.5165 222.021C87.4677 222.295 87.4026 222.68 87.313 223.177C87.1258 224.212 86.849 225.745 86.499 227.628L85.1559 234.63C84.6105 237.369 84 240.485 83.3163 243.926C81.9488 250.774 80.2556 258.992 78.302 268.074C77.3171 272.602 76.2915 277.37 75.1763 282.292C74.0611 287.214 72.8889 292.316 71.7005 297.537C70.5121 302.759 69.2585 307.809 68.0782 312.731C66.8979 317.653 65.7095 322.361 64.5943 326.855C62.3232 335.852 60.2231 343.975 58.416 350.703L55.974 359.837C55.2333 362.516 54.5902 364.827 54.0693 366.685C53.5483 368.542 53.125 370.015 52.8401 371.033C52.7017 371.513 52.5878 371.889 52.5145 372.155C52.4413 372.42 52.3599 372.566 52.3599 372.566Z" fill="#455A64"/>
<path d="M91.9692 221.704C91.9692 221.704 91.9692 221.832 92.0261 222.098L92.1645 223.279C92.2215 223.801 92.2948 224.443 92.3762 225.188C92.4576 225.933 92.482 226.832 92.539 227.816C92.539 228.312 92.5959 228.835 92.6204 229.382C92.6448 229.93 92.6204 230.512 92.6204 231.094V232.978C92.6204 233.628 92.5634 234.313 92.539 235.015C92.5145 235.717 92.4738 236.444 92.4331 237.189C92.3924 237.934 92.3029 238.713 92.2296 239.509C92.1238 241.101 91.8633 242.762 91.6598 244.525C91.1552 248.026 90.4877 251.835 89.633 255.901C88.7783 259.967 87.7771 264.282 86.7351 268.827C85.6932 273.372 84.6106 278.149 83.7152 283.139C82.8198 288.13 82.0872 293.334 81.4197 298.684C80.7522 304.034 80.272 309.247 79.7022 314.306C79.1324 319.365 78.644 324.244 78.0742 328.858L77.1951 335.638C76.8532 337.821 76.552 339.918 76.2101 342.006C75.8682 344.095 75.5182 346.03 75.1356 347.921C74.7531 349.813 74.3705 351.619 73.9879 353.34C73.6053 355.06 73.1739 356.687 72.7669 358.228C72.3599 359.768 71.9041 361.189 71.5133 362.508C71.3098 363.175 71.1308 363.826 70.9191 364.442C70.7075 365.058 70.4958 365.649 70.3005 366.214C69.9016 367.335 69.5353 368.371 69.2016 369.296C68.4853 371.127 67.8585 372.514 67.4678 373.473L66.9956 374.551C66.8898 374.791 66.8247 374.911 66.8247 374.911C66.8247 374.911 66.8247 374.774 66.9549 374.526C67.0852 374.278 67.2073 373.901 67.3864 373.43C67.7608 372.471 68.355 371.068 69.0144 369.236L70.0644 366.137L70.6749 364.374C70.8784 363.757 71.0494 363.098 71.2447 362.43C71.6273 361.087 72.0587 359.657 72.4657 358.15L73.6542 353.271L74.7775 347.853C75.1438 345.961 75.4612 343.984 75.8275 341.938C76.1938 339.892 76.4543 337.761 76.7799 335.578C77.1055 333.395 77.3497 331.127 77.6428 328.807C78.1881 324.167 78.7172 319.297 79.2708 314.255C79.8243 309.213 80.3371 303.983 80.9883 298.599C81.6395 293.214 82.4047 288.027 83.3001 283.019C84.1955 278.012 85.2944 273.235 86.3444 268.698C87.3945 264.162 88.4201 259.839 89.283 255.79C90.1458 251.741 90.8296 247.932 91.3587 244.439C91.5703 242.727 91.8389 241.015 91.9529 239.44C92.0343 238.653 92.0994 237.882 92.1727 237.138C92.2459 236.393 92.2541 235.665 92.2948 234.964C92.3355 234.262 92.3843 233.594 92.3924 232.935C92.4006 232.276 92.3924 231.659 92.3924 231.06C92.3924 230.461 92.3924 229.887 92.3924 229.348C92.3924 228.809 92.3436 228.287 92.3273 227.79C92.2785 226.806 92.2785 225.924 92.2052 225.171C92.132 224.418 92.0831 223.776 92.0343 223.253C91.9854 222.731 91.961 222.355 91.9366 222.072C91.9398 221.949 91.9507 221.826 91.9692 221.704Z" fill="#455A64"/>
<path d="M88.3388 378.035C88.3017 377.906 88.2718 377.774 88.2492 377.641C88.2004 377.359 88.1271 376.974 88.0376 376.477C87.948 375.981 87.8422 375.322 87.712 374.568C87.5817 373.815 87.4108 372.959 87.3294 372C87.248 371.042 87.1015 369.92 86.9631 368.722C86.8247 367.524 86.8003 366.205 86.7026 364.801C86.7026 364.1 86.6212 363.363 86.5968 362.619C86.5724 361.874 86.5968 361.086 86.5968 360.282C86.5968 359.477 86.5968 358.664 86.5968 357.817C86.5968 356.969 86.6619 356.105 86.6863 355.249C86.7108 354.393 86.7596 353.451 86.7922 352.526C86.8247 351.602 86.9387 350.652 87.0038 349.685C87.1259 347.75 87.362 345.755 87.5899 343.693C87.8178 341.63 88.1434 339.49 88.4039 337.29C88.6644 335.09 89.0876 332.838 89.5109 330.536C91.1389 321.3 93.3367 311.259 95.3717 300.661C97.2808 290.697 98.7071 280.638 99.6452 270.522C100.524 261.191 100.858 252.76 100.972 245.698C100.972 242.154 100.972 238.944 100.972 236.136C100.972 233.328 100.858 230.897 100.777 228.911C100.695 226.926 100.622 225.393 100.581 224.349C100.581 223.844 100.581 223.45 100.581 223.168C100.581 222.885 100.581 222.757 100.581 222.757C100.581 222.757 100.581 222.894 100.581 223.159C100.581 223.425 100.63 223.844 100.671 224.349C100.736 225.385 100.858 226.917 100.939 228.903C101.021 230.889 101.135 233.311 101.208 236.128C101.281 238.944 101.306 242.12 101.289 245.698C101.216 252.794 100.907 261.243 100.052 270.582C99.1311 280.715 97.7128 290.793 95.8031 300.773C93.7681 311.387 91.5296 321.419 89.9098 330.639C89.4865 332.933 89.1528 335.192 88.7865 337.375C88.4202 339.558 88.1434 341.698 87.9318 343.77C87.7201 345.841 87.4515 347.827 87.3294 349.762C87.248 350.72 87.1747 351.662 87.1015 352.586C87.0282 353.511 87.0201 354.418 86.9794 355.3C86.9387 356.182 86.9143 357.055 86.8736 357.868V362.653C86.8736 363.398 86.9387 364.125 86.9712 364.827C87.0526 366.231 87.0526 367.549 87.191 368.739C87.3294 369.929 87.4189 371.033 87.5166 372.026C87.6143 373.019 87.7527 373.875 87.8585 374.594L88.1515 376.503C88.2248 376.999 88.2736 377.359 88.3225 377.676C88.3713 377.992 88.3388 378.035 88.3388 378.035Z" fill="#455A64"/>
<path d="M106.58 222.38C106.58 222.38 106.621 222.509 106.694 222.766L107.012 223.895L107.508 225.753C107.74 226.598 107.93 227.455 108.078 228.321C108.257 229.288 108.51 230.358 108.689 231.548C108.868 232.738 109.022 234.031 109.21 235.426C109.397 236.821 109.429 238.319 109.552 239.911C109.674 241.503 109.674 243.181 109.641 244.953C109.641 248.488 109.364 252.349 108.933 256.483C108.502 260.618 107.826 265.001 107.044 269.589L104.488 283.987C103.593 288.977 102.812 294.165 102.103 299.497C101.395 304.83 100.817 310.043 100.345 315.094C99.8731 320.144 99.5312 325.032 99.2545 329.689C98.9777 334.345 98.8068 338.771 98.7254 342.922C98.644 347.074 98.5951 350.934 98.6114 354.461C98.6277 357.988 98.6765 361.181 98.7579 363.98C98.8393 366.779 98.937 369.193 99.0103 371.162C99.0835 373.131 99.1731 374.646 99.2219 375.699C99.2219 376.206 99.2382 376.6 99.2708 376.88C99.2708 377.154 99.2708 377.291 99.2708 377.291C99.2708 377.291 99.2708 377.154 99.2219 376.888L99.1324 375.707C99.0673 374.671 98.9533 373.139 98.8475 371.17C98.7417 369.201 98.6033 366.788 98.5219 363.988C98.4405 361.189 98.3509 357.996 98.3102 354.461C98.2695 350.926 98.3102 347.065 98.3754 342.914C98.4405 338.762 98.6277 334.354 98.8638 329.663C99.0998 324.972 99.4498 320.11 99.9301 315.051C100.41 309.992 100.964 304.779 101.688 299.429C102.413 294.079 103.178 288.9 104.081 283.91L106.662 269.52C107.476 264.932 108.103 260.549 108.583 256.441C109.063 252.332 109.291 248.471 109.34 244.945C109.34 243.181 109.291 241.521 109.283 239.92C109.275 238.319 109.071 236.847 108.974 235.451C108.876 234.056 108.64 232.772 108.493 231.582C108.347 230.393 108.086 229.331 107.924 228.355C107.761 227.379 107.59 226.532 107.386 225.787C107.183 225.043 107.053 224.443 106.93 223.93C106.808 223.416 106.719 223.074 106.654 222.783C106.589 222.492 106.58 222.38 106.58 222.38Z" fill="#455A64"/>
<path d="M261.525 398.126L159.1 397.629C153.185 397.6 147.524 395.102 143.36 390.684C139.196 386.267 136.87 380.292 136.894 374.072L137.976 104.038C138.004 97.8146 140.382 91.8575 144.586 87.4769C148.789 83.0962 154.476 80.6507 160.394 80.678L262.82 81.1744C265.749 81.1879 268.646 81.8079 271.347 82.9991C274.048 84.1902 276.5 85.9292 278.562 88.1166C280.624 90.3041 282.256 92.8973 283.365 95.7481C284.474 98.5989 285.038 101.651 285.025 104.732L283.943 374.757C283.93 377.839 283.34 380.889 282.207 383.731C281.073 386.574 279.418 389.154 277.336 391.324C275.255 393.494 272.787 395.211 270.074 396.378C267.361 397.545 264.456 398.139 261.525 398.126Z" fill="#263238"/>
<path d="M261.794 88.75L241.932 88.6473C240.625 88.6743 239.381 89.2454 238.473 90.2354C237.565 91.2255 237.067 92.5536 237.089 93.9288V97.7123C237.101 98.3936 236.985 99.0706 236.748 99.7048C236.511 100.339 236.158 100.918 235.708 101.408C235.258 101.899 234.721 102.291 234.127 102.563C233.533 102.835 232.894 102.982 232.246 102.994L193.54 102.806C192.232 102.767 190.992 102.186 190.092 101.187C189.192 100.189 188.705 98.8565 188.737 97.4812V93.6891C188.77 92.3139 188.283 90.981 187.383 89.9829C186.483 88.9848 185.243 88.4029 183.935 88.3648H176.951L159.572 88.2878C157.519 88.2776 155.485 88.6927 153.585 89.5093C151.685 90.3259 149.957 91.528 148.499 93.047C147.041 94.566 145.882 96.3721 145.087 98.3623C144.293 100.352 143.879 102.488 143.87 104.646L142.812 368.217C142.807 370.376 143.208 372.515 143.99 374.511C144.772 376.507 145.92 378.322 147.369 379.851C148.818 381.381 150.54 382.595 152.435 383.425C154.331 384.254 156.363 384.683 158.416 384.686L260.638 385.183C262.69 385.193 264.724 384.778 266.623 383.961C268.523 383.144 270.25 381.942 271.708 380.423C273.165 378.904 274.324 377.098 275.117 375.108C275.911 373.118 276.323 370.983 276.332 368.825L277.382 105.288C277.396 103.124 277.003 100.979 276.227 98.9755C275.45 96.9719 274.304 95.1494 272.856 93.6127C271.407 92.076 269.685 90.8553 267.786 90.0208C265.888 89.1864 263.851 88.7545 261.794 88.75Z" fill="#FAFAFA"/>
<path d="M157.146 116.767C157.035 116.764 156.93 116.714 156.853 116.63L155.298 114.918C155.26 114.879 155.231 114.833 155.211 114.781C155.191 114.729 155.182 114.674 155.184 114.618C155.185 114.562 155.196 114.507 155.217 114.456C155.238 114.404 155.268 114.358 155.307 114.319L156.869 112.752C156.907 112.713 156.951 112.681 157 112.659C157.049 112.638 157.101 112.626 157.154 112.626C157.207 112.626 157.26 112.638 157.309 112.659C157.358 112.681 157.402 112.713 157.439 112.752C157.477 112.792 157.508 112.839 157.528 112.892C157.549 112.944 157.56 113 157.56 113.056C157.56 113.113 157.549 113.169 157.528 113.221C157.508 113.273 157.477 113.32 157.439 113.36L156.169 114.627L157.447 116.031C157.485 116.071 157.516 116.118 157.536 116.17C157.557 116.222 157.568 116.278 157.568 116.335C157.568 116.391 157.557 116.447 157.536 116.499C157.516 116.551 157.485 116.599 157.447 116.639C157.408 116.68 157.361 116.712 157.309 116.734C157.257 116.756 157.202 116.768 157.146 116.767Z" fill="#263238"/>
<path d="M253.67 339.507H169.161C161.914 339.507 156.039 345.685 156.039 353.306V355.779C156.039 363.4 161.914 369.578 169.161 369.578H253.67C260.917 369.578 266.792 363.4 266.792 355.779V353.306C266.792 345.685 260.917 339.507 253.67 339.507Z" fill="#FF9902"/>
<path d="M198.245 351.054H200.817C201.246 351.031 201.675 351.1 202.077 351.257C202.48 351.414 202.848 351.655 203.159 351.966C203.47 352.277 203.718 352.652 203.887 353.066C204.057 353.481 204.144 353.928 204.144 354.38C204.144 354.831 204.057 355.278 203.887 355.693C203.718 356.108 203.47 356.482 203.159 356.793C202.848 357.104 202.48 357.345 202.077 357.502C201.675 357.659 201.246 357.728 200.817 357.705H198.245V351.054ZM200.785 357.097C201.136 357.118 201.488 357.063 201.819 356.936C202.15 356.809 202.452 356.612 202.708 356.358C202.964 356.103 203.168 355.797 203.307 355.456C203.446 355.116 203.518 354.75 203.518 354.38C203.518 354.009 203.446 353.643 203.307 353.303C203.168 352.963 202.964 352.656 202.708 352.402C202.452 352.147 202.15 351.95 201.819 351.823C201.488 351.696 201.136 351.641 200.785 351.662H198.912V357.097H200.785Z" fill="#FAFAFA"/>
<path d="M205.139 354.384C205.118 353.689 205.295 353.004 205.646 352.415C205.998 351.827 206.508 351.362 207.113 351.08C207.717 350.798 208.387 350.713 209.038 350.834C209.689 350.955 210.291 351.278 210.766 351.761C211.241 352.243 211.569 352.864 211.707 353.544C211.845 354.224 211.787 354.932 211.54 355.576C211.293 356.221 210.869 356.774 210.322 357.164C209.775 357.554 209.13 357.763 208.469 357.765C208.035 357.787 207.603 357.716 207.197 357.556C206.791 357.395 206.42 357.149 206.108 356.832C205.796 356.515 205.549 356.135 205.383 355.714C205.216 355.293 205.133 354.84 205.139 354.384ZM211.114 354.384C211.122 353.828 210.973 353.282 210.684 352.816C210.396 352.349 209.982 351.984 209.496 351.766C209.009 351.548 208.472 351.487 207.952 351.592C207.433 351.697 206.955 351.961 206.579 352.353C206.204 352.744 205.947 353.245 205.843 353.79C205.739 354.335 205.791 354.901 205.994 355.414C206.197 355.928 206.541 356.366 206.981 356.674C207.422 356.981 207.94 357.144 208.469 357.14C208.817 357.153 209.165 357.091 209.49 356.958C209.815 356.824 210.11 356.622 210.358 356.364C210.606 356.105 210.801 355.796 210.931 355.456C211.061 355.116 211.123 354.751 211.114 354.384Z" fill="#FAFAFA"/>
<path d="M218.554 351.054V357.705H218.009L213.939 352.313V357.705H213.263V351.054H213.817L217.887 356.447V351.054H218.554Z" fill="#FAFAFA"/>
<path d="M225.082 357.098V357.705H220.614V351.054H224.944V351.662H221.281V354.025H224.537V354.624H221.281V357.098H225.082Z" fill="#FAFAFA"/>
<path d="M172.653 225.821H169.209V224.109H178.017V225.821H174.574V235.023H172.653V225.821Z" fill="#FF9902"/>
<path d="M187.077 230.264V235.041H185.229V230.521C185.229 229.04 184.529 228.321 183.349 228.321C182.03 228.321 181.135 229.177 181.135 230.829V235.041H179.287V223.459H181.135V227.696C181.481 227.338 181.895 227.06 182.348 226.877C182.802 226.694 183.287 226.612 183.772 226.635C185.669 226.601 187.077 227.739 187.077 230.264Z" fill="#FF9902"/>
<path d="M196.055 230.144V235.023H194.313V234.005C194.022 234.397 193.641 234.706 193.205 234.902C192.77 235.098 192.294 235.175 191.822 235.126C190.015 235.126 188.868 234.082 188.868 232.635C188.868 231.189 189.763 230.161 192.164 230.161H194.232V230.033C194.232 228.894 193.581 228.227 192.262 228.227C191.379 228.214 190.519 228.516 189.82 229.083L189.096 227.67C190.076 226.956 191.249 226.592 192.441 226.635C194.737 226.6 196.055 227.739 196.055 230.144ZM194.232 232.413V231.454H192.319C191.057 231.454 190.691 231.95 190.691 232.558C190.691 233.166 191.261 233.714 192.205 233.714C192.631 233.751 193.056 233.645 193.421 233.411C193.785 233.178 194.069 232.828 194.232 232.413Z" fill="#FF9902"/>
<path d="M206.222 230.264V235.04H204.366V230.521C204.366 229.04 203.674 228.321 202.486 228.321C201.167 228.321 200.28 229.177 200.28 230.829V235.04H198.424V226.712H200.19V227.79C200.535 227.395 200.957 227.085 201.429 226.882C201.9 226.68 202.409 226.589 202.917 226.617C204.814 226.6 206.222 227.739 206.222 230.264Z" fill="#FF9902"/>
<path d="M211.806 231.454L210.43 232.832V235.032H208.574V223.459H210.43V230.435L214.264 226.695H216.487L213.182 230.187L216.796 235.024H214.582L211.806 231.454Z" fill="#FF9902"/>
<path d="M229.494 226.694L225.791 235.691C225.066 237.574 224.057 238.148 222.738 238.148C221.969 238.164 221.22 237.895 220.622 237.386L221.363 235.956C221.729 236.323 222.216 236.529 222.722 236.53C223.373 236.53 223.764 236.205 224.114 235.374L224.252 235.049L220.801 226.694H222.722L225.213 232.849L227.72 226.694H229.494Z" fill="#FF9902"/>
<path d="M229.771 230.855C229.742 229.971 229.964 229.099 230.41 228.35C230.855 227.6 231.504 227.008 232.272 226.649C233.04 226.29 233.892 226.18 234.72 226.334C235.547 226.488 236.312 226.899 236.916 227.513C237.52 228.128 237.936 228.918 238.11 229.783C238.284 230.647 238.209 231.547 237.893 232.366C237.577 233.185 237.036 233.886 236.339 234.38C235.641 234.873 234.82 235.136 233.979 235.135C233.431 235.167 232.881 235.079 232.366 234.877C231.851 234.675 231.381 234.364 230.986 233.962C230.591 233.56 230.279 233.076 230.07 232.542C229.861 232.007 229.759 231.433 229.771 230.855ZM236.34 230.855C236.323 230.37 236.17 229.902 235.901 229.508C235.633 229.114 235.26 228.811 234.829 228.638C234.399 228.465 233.929 228.429 233.479 228.534C233.029 228.639 232.618 228.881 232.298 229.23C231.978 229.578 231.762 230.018 231.677 230.495C231.592 230.971 231.643 231.463 231.822 231.91C232.001 232.357 232.301 232.738 232.685 233.007C233.068 233.276 233.518 233.421 233.979 233.423C234.298 233.43 234.615 233.369 234.911 233.241C235.206 233.114 235.472 232.923 235.694 232.682C235.916 232.441 236.088 232.154 236.199 231.839C236.31 231.525 236.358 231.19 236.34 230.855Z" fill="#FF9902"/>
<path d="M247.646 226.694V235.023H245.88V233.962C245.563 234.341 245.171 234.643 244.73 234.844C244.29 235.045 243.812 235.142 243.332 235.126C241.297 235.126 239.922 233.962 239.922 231.454V226.694H241.778V231.188C241.778 232.695 242.453 233.414 243.625 233.414C244.797 233.414 245.791 232.558 245.791 230.906V226.694H247.646Z" fill="#FF9902"/>
<path d="M249.73 233.911C249.731 233.748 249.763 233.588 249.825 233.439C249.886 233.29 249.975 233.156 250.087 233.044C250.198 232.932 250.33 232.845 250.475 232.788C250.619 232.731 250.773 232.705 250.927 232.712C251.231 232.712 251.523 232.839 251.739 233.066C251.954 233.292 252.075 233.599 252.075 233.919C252.075 234.239 251.954 234.546 251.739 234.773C251.523 234.999 251.231 235.126 250.927 235.126C250.772 235.132 250.617 235.105 250.472 235.046C250.327 234.988 250.195 234.899 250.083 234.786C249.972 234.672 249.883 234.536 249.822 234.386C249.762 234.236 249.73 234.074 249.73 233.911ZM249.836 224.109H252.026L251.66 231.402H250.186L249.836 224.109Z" fill="#FF9902"/>
<path d="M212.156 207.785C223.926 207.785 233.467 197.752 233.467 185.375C233.467 172.999 223.926 162.965 212.156 162.965C200.387 162.965 190.846 172.999 190.846 185.375C190.846 197.752 200.387 207.785 212.156 207.785Z" fill="#FF9902"/>
<path d="M222.649 175.917C222.917 176.148 218.937 181.78 213.76 188.491L210.618 192.497L210.186 193.045L209.73 192.549C205.66 188.157 202.917 184.905 203.113 184.699C203.308 184.494 206.409 187.395 210.577 191.65L209.698 191.744L212.775 187.695C217.952 180.941 222.372 175.685 222.649 175.917Z" fill="white"/>
<path d="M242.429 176.336C241.794 173.982 238.888 174.213 238.888 174.213L238.961 175.848C240.646 175.54 241.688 177.612 241.688 177.612L242.429 176.336Z" fill="#FF9902"/>
<path d="M180.695 181.284C180.068 178.93 177.154 179.152 177.154 179.152L177.236 180.796C178.921 180.487 179.963 182.559 179.963 182.559L180.695 181.284Z" fill="#E0E0E0"/>
<path d="M214.696 148.713C218.074 149.792 220.174 145.7 220.174 145.7L218.123 144.467C217.113 146.975 213.743 146.684 213.743 146.684L214.696 148.713Z" fill="#E0E0E0"/>
<path d="M195.966 153.121C194.395 153.301 194.208 155.372 194.208 155.372L195.258 155.501C195.258 154.285 196.698 153.789 196.698 153.789L195.966 153.121Z" fill="#FF9902"/>
<path d="M260.711 168.29C260.939 166.646 259.083 165.936 259.083 165.936L258.701 166.971C259.824 167.271 259.93 168.863 259.93 168.863L260.711 168.29Z" fill="#E0E0E0"/>
<path d="M205.131 131.49C205.359 129.847 203.503 129.136 203.503 129.136L203.121 130.181C204.244 130.48 204.35 132.064 204.35 132.064L205.131 131.49Z" fill="#FF9902"/>
<path d="M166.32 158C166.043 160.568 169.283 161.202 169.283 161.202L169.869 159.49C167.923 159.302 167.647 156.922 167.647 156.922L166.32 158Z" fill="#FF9902"/>
<path d="M238.571 148.662C240.15 148.756 240.654 146.744 240.654 146.744L239.637 146.436C239.45 147.634 237.952 147.883 237.952 147.883L238.571 148.662Z" fill="#FF9902"/>
<path d="M247.191 155.424C246.767 155.549 246.326 155.592 245.888 155.552C245.45 155.593 245.009 155.55 244.586 155.424C245.446 155.241 246.331 155.241 247.191 155.424Z" fill="#E0E0E0"/>
<path d="M248.575 151.7C248.737 152.617 248.737 153.557 248.575 154.474C248.401 153.558 248.401 152.616 248.575 151.7Z" fill="#E0E0E0"/>
<path d="M250.04 155.33C250.463 155.205 250.904 155.161 251.342 155.201C251.78 155.161 252.222 155.204 252.645 155.33C251.785 155.512 250.899 155.512 250.04 155.33Z" fill="#E0E0E0"/>
<path d="M248.664 159.062C248.49 158.143 248.49 157.198 248.664 156.28C248.827 157.199 248.827 158.142 248.664 159.062Z" fill="#E0E0E0"/>
<path d="M250.764 157.504C250.715 157.547 250.463 157.324 250.202 157.008C249.942 156.691 249.787 156.383 249.836 156.34C249.885 156.297 250.145 156.511 250.398 156.836C250.65 157.162 250.821 157.41 250.764 157.504Z" fill="#E0E0E0"/>
<path d="M250.642 153.224C250.691 153.284 250.52 153.549 250.251 153.832C249.983 154.114 249.73 154.303 249.682 154.251C249.633 154.2 249.804 153.926 250.072 153.644C250.341 153.361 250.593 153.224 250.642 153.224Z" fill="#E0E0E0"/>
<path d="M247.663 154.311C247.614 154.371 247.37 154.234 247.117 154.012C246.865 153.789 246.702 153.567 246.743 153.515C246.784 153.464 247.028 153.592 247.28 153.806C247.533 154.02 247.704 154.26 247.663 154.311Z" fill="#E0E0E0"/>
<path d="M247.541 156.177C247.598 156.22 247.443 156.486 247.199 156.768C246.955 157.051 246.719 157.23 246.67 157.179C246.621 157.128 246.767 156.862 247.012 156.588C247.256 156.314 247.492 156.126 247.541 156.177Z" fill="#E0E0E0"/>
<path d="M176.275 147.788C175.415 147.971 174.53 147.971 173.67 147.788C174.093 147.663 174.535 147.62 174.973 147.66C175.411 147.619 175.852 147.663 176.275 147.788Z" fill="#FF9902"/>
<path d="M177.659 144.065C177.833 144.983 177.833 145.929 177.659 146.847C177.485 145.929 177.485 144.983 177.659 144.065Z" fill="#FF9902"/>
<path d="M179.132 147.703C179.992 147.52 180.877 147.52 181.737 147.703C180.877 147.885 179.992 147.885 179.132 147.703Z" fill="#FF9902"/>
<path d="M177.748 151.426C177.575 150.511 177.575 149.568 177.748 148.653C177.922 149.568 177.922 150.511 177.748 151.426Z" fill="#FF9902"/>
<path d="M179.857 149.8C179.8 149.851 179.547 149.629 179.295 149.303C179.043 148.978 178.872 148.687 178.929 148.636C178.986 148.584 179.23 148.815 179.49 149.132C179.751 149.449 179.906 149.8 179.857 149.8Z" fill="#FF9902"/>
<path d="M179.734 145.605C179.783 145.657 179.604 145.931 179.344 146.213C179.083 146.496 178.823 146.675 178.774 146.624C178.725 146.573 178.896 146.307 179.165 146.025C179.433 145.742 179.686 145.52 179.734 145.605Z" fill="#FF9902"/>
<path d="M176.747 146.684C176.706 146.735 176.462 146.607 176.21 146.384C175.958 146.162 175.787 145.939 175.835 145.879C175.884 145.819 176.12 145.956 176.373 146.179C176.625 146.401 176.796 146.624 176.747 146.684Z" fill="#FF9902"/>
<path d="M176.633 148.542C176.682 148.593 176.527 148.859 176.291 149.141C176.055 149.424 175.811 149.603 175.754 149.552C175.697 149.501 175.86 149.235 176.096 148.961C176.332 148.687 176.576 148.491 176.633 148.542Z" fill="#FF9902"/>
<path d="M266.369 112.179C264.458 112.399 262.534 112.473 260.614 112.401C258.695 112.473 256.775 112.399 254.867 112.179C256.774 111.953 258.695 111.879 260.614 111.956C262.534 111.879 264.458 111.954 266.369 112.179Z" fill="#263238"/>
<path d="M266.369 114.704C264.458 114.929 262.534 115.003 260.614 114.926C258.695 115.004 256.774 114.929 254.867 114.704C256.775 114.484 258.695 114.409 260.614 114.481C262.534 114.409 264.458 114.484 266.369 114.704Z" fill="#263238"/>
<path d="M266.369 117.212C264.458 117.437 262.534 117.512 260.614 117.435C258.695 117.512 256.774 117.437 254.867 117.212C256.775 116.992 258.695 116.917 260.614 116.989C262.534 116.918 264.458 116.992 266.369 117.212Z" fill="#263238"/>
</svg>
