<svg width="16" height="13" viewBox="0 0 16 13" fill="none" xmlns="http://www.w3.org/2000/svg">
<path d="M0.53125 12.1874C0.490742 12.1874 0.449836 12.1833 0.409328 12.1751C0.169602 12.1247 0 11.9361 0 11.7187C0 7.45916 0.610672 3.91658 7.96875 3.75545V0.468689C7.96875 0.282361 8.09373 0.113963 8.28684 0.0393143C8.47928 -0.0348654 8.70493 -0.00275607 8.86059 0.12451L15.7668 5.74951C15.8757 5.83775 15.9375 5.96279 15.9375 6.09369C15.9375 6.22459 15.8757 6.34963 15.7668 6.43799L8.86059 12.063C8.70546 12.1903 8.47981 12.2232 8.28684 12.1482C8.09373 12.0734 7.96875 11.905 7.96875 11.7187V8.44295C2.92134 8.54959 1.99006 10.1926 1.00645 11.9283C0.915211 12.0899 0.728875 12.1874 0.53125 12.1874ZM8.5 7.49994C8.79365 7.49994 9.03125 7.70959 9.03125 7.96869V10.6479L14.6229 6.09369L9.03125 1.53943V4.21869C9.03125 4.47779 8.79365 4.68744 8.5 4.68744C2.63128 4.68744 1.36757 6.69017 1.11908 9.88904C2.21943 8.58486 4.09488 7.49994 8.5 7.49994Z" fill="#323B46"/>
</svg>
